<?xml version="1.0" standalone="no"?>
<!DOCTYPE svg PUBLIC "-//W3C//DTD SVG 20010904//EN"
 "http://www.w3.org/TR/2001/REC-SVG-20010904/DTD/svg10.dtd">
<svg version="1.0" xmlns="http://www.w3.org/2000/svg"
 width="309.000000pt" height="244.000000pt" viewBox="0 0 309.000000 244.000000"
 preserveAspectRatio="xMidYMid meet">
<metadata>
Created by potrace 1.16, written by Peter Selinger 2001-2019
</metadata>
<g transform="translate(0.000000,244.000000) scale(0.100000,-0.100000)"
fill="#000000" stroke="none">
<path d="M1600 1913 c-24 -5 -324 -84 -1010 -268 -179 -48 -337 -93 -352 -101
-45 -23 -85 -83 -114 -170 -24 -74 -26 -94 -22 -181 6 -106 27 -177 74 -244
26 -38 67 -62 190 -114 l41 -17 -14 -61 c-25 -108 5 -167 84 -167 55 0 90 31
99 88 3 22 9 45 14 51 7 12 282 -95 810 -314 278 -116 179 -138 975 213 389
172 667 301 678 313 10 13 17 38 17 64 0 36 -5 48 -31 69 -20 17 -43 26 -65
26 l-34 0 0 113 c0 126 4 136 68 158 75 26 84 151 13 188 -34 19 -1287 350
-1341 354 -30 3 -66 3 -80 0z m573 -324 c271 -72 495 -134 499 -138 8 -7 -29
-23 -427 -192 -132 -56 -318 -135 -414 -176 -97 -41 -181 -71 -190 -68 -142
54 -1010 430 -1004 436 13 12 975 268 1011 268 19 1 255 -58 525 -130z m-1782
-258 c24 -10 179 -76 344 -146 165 -70 329 -140 365 -155 472 -203 522 -222
565 -217 25 2 259 96 552 221 280 119 514 216 521 216 13 0 17 -216 4 -236 -4
-7 -137 -69 -297 -139 -159 -70 -401 -176 -537 -236 -135 -60 -251 -109 -258
-109 -11 0 -971 388 -979 396 -3 3 14 24 38 48 56 57 66 112 28 150 -51 51
-119 28 -204 -70 l-48 -55 -65 27 c-36 14 -74 34 -86 45 -21 19 -44 97 -44
148 0 44 29 131 44 131 7 0 33 -9 57 -19z"/>
<path d="M1614 1650 c-51 -20 -72 -106 -36 -149 11 -15 92 -46 257 -101 132
-44 248 -80 258 -80 85 0 127 117 61 169 -27 22 -467 171 -499 170 -11 0 -30
-4 -41 -9z"/>
</g>
</svg>
