<?xml version="1.0" standalone="no"?>
<!DOCTYPE svg PUBLIC "-//W3C//DTD SVG 20010904//EN"
 "http://www.w3.org/TR/2001/REC-SVG-20010904/DTD/svg10.dtd">
<svg version="1.0" xmlns="http://www.w3.org/2000/svg"
 width="309.000000pt" height="244.000000pt" viewBox="0 0 309.000000 244.000000"
 preserveAspectRatio="xMidYMid meet">
<metadata>
Created by potrace 1.16, written by Peter Selinger 2001-2019
</metadata>
<g transform="translate(0.000000,244.000000) scale(0.100000,-0.100000)"
fill="#000000" stroke="none">
<path d="M1554 2362 c-11 -9 -43 -46 -69 -81 -27 -36 -83 -101 -125 -145 -171
-183 -229 -273 -264 -411 -9 -32 -18 -60 -21 -63 -3 -3 -68 -20 -144 -38 -167
-39 -272 -85 -341 -150 -70 -66 -89 -106 -99 -217 -24 -255 52 -517 226 -779
116 -176 204 -243 378 -291 231 -65 447 -61 668 13 115 39 184 85 244 161 99
127 91 121 169 123 167 6 332 148 449 390 68 140 97 263 99 416 2 190 -43 300
-148 365 -45 27 -57 30 -135 30 -77 0 -92 -4 -146 -32 -33 -17 -82 -50 -108
-73 l-48 -42 -58 26 c-64 29 -220 71 -296 81 -88 12 -89 12 -65 46 39 54 78
155 88 225 12 87 1 177 -34 285 -22 68 -36 93 -74 132 -40 40 -53 47 -86 47
-22 0 -48 -8 -60 -18z m62 -400 c-6 -71 -35 -127 -127 -248 -42 -55 -89 -123
-104 -150 -16 -27 -30 -51 -32 -53 -9 -12 -52 46 -63 84 -25 90 9 159 180 365
l125 151 13 -48 c7 -26 11 -72 8 -101z m854 -477 c26 -13 39 -34 44 -71 1 -7
5 -17 9 -20 13 -13 7 -163 -8 -238 -32 -154 -99 -282 -203 -384 -40 -41 -75
-72 -78 -69 -2 2 9 46 26 98 53 160 63 222 63 374 0 104 -4 151 -16 185 -16
43 -16 45 5 67 17 18 111 73 125 73 2 0 17 -7 33 -15z m-783 -25 c99 -13 161
-26 243 -52 75 -23 170 -76 170 -95 0 -34 -144 -97 -292 -127 -257 -53 -675
-44 -888 20 -67 20 -210 91 -210 104 0 14 66 54 137 84 33 14 109 35 169 47
l108 21 30 -38 c39 -51 108 -117 172 -165 94 -72 174 -44 174 60 0 28 10 67
25 99 28 59 27 59 162 42z m-682 -475 c230 -40 572 -40 798 0 70 12 250 65
313 91 29 12 -36 -215 -93 -331 -49 -98 -127 -217 -172 -262 -99 -99 -278
-150 -486 -140 -180 9 -311 51 -388 125 -99 95 -224 325 -267 490 -33 130 -38
125 93 81 61 -21 153 -45 202 -54z"/>
<path d="M881 934 c-48 -61 -14 -123 85 -153 96 -30 232 -54 269 -47 69 13
104 67 83 128 -14 40 -35 48 -188 75 -183 31 -223 30 -249 -3z"/>
</g>
</svg>
