<?xml version="1.0" standalone="no"?>
<!DOCTYPE svg PUBLIC "-//W3C//DTD SVG 20010904//EN"
 "http://www.w3.org/TR/2001/REC-SVG-20010904/DTD/svg10.dtd">
<svg version="1.0" xmlns="http://www.w3.org/2000/svg"
 width="309.000000pt" height="309.000000pt" viewBox="0 0 309.000000 309.000000"
 preserveAspectRatio="xMidYMid meet">
<metadata>
Created by potrace 1.16, written by Peter Selinger 2001-2019
</metadata>
<g transform="translate(0.000000,309.000000) scale(0.100000,-0.100000)"
fill="#000000" stroke="none">
<path d="M1850 2895 c-82 -23 -141 -56 -171 -95 -15 -19 -228 -453 -473 -965
l-446 -930 0 -70 c0 -152 32 -509 49 -545 22 -48 81 -77 130 -64 35 10 430
272 483 322 17 16 189 363 484 974 l457 949 -5 70 c-17 237 -277 418 -508 354z
m209 -218 c44 -29 101 -110 101 -143 0 -13 -8 -39 -17 -59 -21 -45 -17 -46
-206 45 l-147 71 19 37 c35 69 63 83 154 77 41 -2 69 -11 96 -28z m-316 -283
c18 -9 33 -18 35 -19 3 -3 -519 -1098 -614 -1288 l-44 -87 -30 15 c-16 8 -32
20 -35 25 -6 9 642 1370 652 1370 2 0 18 -7 36 -16z m262 -126 c14 -6 25 -16
25 -22 0 -11 -643 -1352 -653 -1362 -4 -4 -61 20 -75 31 -1 1 28 65 66 141 37
76 185 383 327 681 143 298 265 543 272 543 7 0 24 -5 38 -12z m-881 -1487
c91 -44 166 -82 166 -85 0 -11 -221 -156 -237 -156 -10 0 -32 9 -49 19 -30 19
-32 23 -38 103 -4 46 -9 109 -12 141 -3 31 -4 57 -1 57 3 0 80 -36 171 -79z"/>
</g>
</svg>
