<?xml version="1.0" standalone="no"?>
<!DOCTYPE svg PUBLIC "-//W3C//DTD SVG 20010904//EN"
 "http://www.w3.org/TR/2001/REC-SVG-20010904/DTD/svg10.dtd">
<svg version="1.0" xmlns="http://www.w3.org/2000/svg"
 width="512.000000pt" height="512.000000pt" viewBox="0 0 512.000000 512.000000"
 preserveAspectRatio="xMidYMid meet">
<metadata>
Created by potrace 1.16, written by Peter Selinger 2001-2019
</metadata>
<g transform="translate(0.000000,512.000000) scale(0.100000,-0.100000)"
fill="#000000" stroke="none">
<path d="M1348 4543 l-1198 -578 0 -157 0 -158 2410 0 2410 0 0 158 0 157
-1198 578 c-659 317 -1204 577 -1212 577 -8 0 -554 -260 -1212 -577z"/>
<path d="M350 3170 l0 -190 190 0 190 0 0 -795 0 -795 390 0 390 0 0 795 0
795 330 0 330 0 0 -795 0 -795 390 0 390 0 0 795 0 795 330 0 330 0 0 -795 0
-795 390 0 390 0 0 795 0 795 190 0 190 0 0 190 0 190 -2210 0 -2210 0 0 -190z"/>
<path d="M410 895 l0 -205 2150 0 2150 0 0 205 0 205 -2150 0 -2150 0 0 -205z"/>
<path d="M150 200 l0 -200 2410 0 2410 0 0 200 0 200 -2410 0 -2410 0 0 -200z"/>
</g>
</svg>
