<?xml version="1.0" standalone="no"?>
<!DOCTYPE svg PUBLIC "-//W3C//DTD SVG 20010904//EN"
 "http://www.w3.org/TR/2001/REC-SVG-20010904/DTD/svg10.dtd">
<svg version="1.0" xmlns="http://www.w3.org/2000/svg"
 width="310.000000pt" height="244.000000pt" viewBox="0 0 310.000000 244.000000"
 preserveAspectRatio="xMidYMid meet">
<metadata>
Created by potrace 1.16, written by Peter Selinger 2001-2019
</metadata>
<g transform="translate(0.000000,244.000000) scale(0.100000,-0.100000)"
fill="#000000" stroke="none">
<path d="M810 1866 c-349 -94 -650 -178 -669 -185 -62 -26 -74 -106 -23 -153
15 -14 101 -55 192 -93 91 -37 171 -72 178 -77 9 -8 12 -67 12 -231 0 -267 5
-284 101 -343 259 -157 757 -264 1054 -225 391 51 763 183 830 293 18 30 20
56 25 268 l5 235 35 18 35 17 7 -37 c4 -21 7 -139 7 -262 l1 -224 -41 -35
c-144 -124 -106 -364 69 -438 79 -33 193 -16 267 40 38 29 81 107 90 163 16
98 -36 213 -115 253 -71 36 -71 37 -77 344 l-6 274 54 27 c67 35 78 49 79 103
0 33 -6 48 -24 65 -33 31 -1327 378 -1401 376 -30 0 -306 -70 -685 -173z
m1165 -141 c259 -69 488 -130 510 -136 29 -8 35 -13 24 -19 -28 -16 -974 -412
-994 -417 -11 -2 -102 31 -205 75 -102 43 -330 139 -507 213 -177 74 -316 136
-310 138 13 5 999 269 1007 270 3 1 216 -55 475 -124z m-885 -615 c308 -130
373 -154 415 -153 42 0 111 25 415 153 201 84 371 155 378 157 9 4 12 -31 12
-156 l0 -161 -49 -25 c-136 -68 -335 -129 -525 -160 -200 -32 -461 -13 -694
50 -162 43 -336 121 -346 152 -2 10 -4 82 -3 161 1 124 3 143 17 139 8 -2 179
-73 380 -157z"/>
<path d="M976 1607 c-14 -14 -28 -37 -32 -51 -8 -33 11 -81 40 -99 35 -23 500
-197 525 -197 13 0 70 19 128 42 138 55 167 93 128 168 -31 59 -70 63 -182 19
l-79 -30 -209 81 c-245 96 -282 104 -319 67z"/>
</g>
</svg>
