<svg id="svg" version="1.1" xmlns="http://www.w3.org/2000/svg" xmlns:xlink="http://www.w3.org/1999/xlink" width="400" height="315.85760517799355" viewBox="0, 0, 400,315.85760517799355"><g id="svgg"><path id="path0" d="M195.419 86.934 C 193.681 87.086,191.904 87.402,191.469 87.638 C 191.035 87.873,189.761 88.157,188.639 88.269 C 187.517 88.380,186.458 88.613,186.286 88.786 C 186.113 88.958,185.713 89.100,185.396 89.100 C 185.079 89.100,183.880 89.526,182.730 90.047 C 181.580 90.569,180.393 90.995,180.093 90.995 C 179.142 90.995,174.109 93.747,172.248 95.284 C 171.263 96.097,170.112 96.921,169.688 97.116 C 168.756 97.544,165.877 100.417,165.877 100.919 C 165.877 101.116,165.442 101.805,164.911 102.450 C 163.243 104.473,160.892 109.431,160.644 111.449 C 160.521 112.451,160.226 113.551,159.989 113.893 C 159.348 114.819,159.364 129.894,160.007 130.896 C 160.254 131.281,160.595 132.804,160.764 134.281 C 161.125 137.422,161.906 140.806,162.733 142.812 C 163.055 143.594,163.416 144.729,163.534 145.335 C 163.651 145.941,163.929 146.723,164.150 147.073 C 164.371 147.423,164.648 148.305,164.765 149.034 C 164.882 149.762,165.180 150.526,165.428 150.731 C 165.675 150.936,165.877 151.270,165.877 151.473 C 165.877 151.675,166.153 152.383,166.490 153.045 C 166.828 153.707,167.202 154.696,167.321 155.244 C 167.441 155.792,167.805 156.579,168.130 156.994 C 168.455 157.408,168.720 157.954,168.720 158.208 C 168.720 158.461,169.005 159.030,169.352 159.471 C 169.700 159.913,169.984 160.476,169.984 160.723 C 169.984 160.969,170.258 161.696,170.593 162.339 C 170.928 162.981,171.650 164.431,172.198 165.561 C 173.499 168.244,173.882 168.913,174.515 169.612 C 174.803 169.931,175.039 170.492,175.039 170.859 C 175.039 171.226,175.174 171.610,175.339 171.712 C 175.849 172.027,177.550 174.705,177.753 175.511 C 177.859 175.933,178.144 176.443,178.388 176.645 C 178.632 176.847,178.831 177.184,178.831 177.393 C 178.831 177.602,179.471 178.597,180.253 179.604 C 181.035 180.611,181.675 181.624,181.675 181.855 C 181.675 182.086,181.853 182.389,182.070 182.528 C 182.603 182.868,184.202 185.250,184.202 185.704 C 184.202 185.904,184.380 186.180,184.598 186.319 C 185.074 186.623,186.730 189.021,186.730 189.406 C 186.730 189.556,186.945 189.904,187.208 190.179 C 188.151 191.166,190.521 194.223,190.521 194.452 C 190.521 194.580,191.374 195.738,192.417 197.024 C 193.460 198.310,194.313 199.443,194.313 199.541 C 194.313 199.763,196.051 201.956,197.273 203.276 C 197.771 203.814,198.269 204.496,198.379 204.791 C 198.488 205.087,199.114 205.943,199.769 206.693 C 200.868 207.951,202.484 209.907,204.409 212.304 C 205.483 213.644,208.215 212.901,208.215 211.269 C 208.215 211.102,208.819 210.286,209.558 209.456 C 211.612 207.146,213.081 205.366,213.407 204.791 C 213.905 203.916,216.494 200.805,216.949 200.537 C 217.185 200.398,217.378 200.087,217.378 199.846 C 217.378 199.450,218.778 197.578,220.519 195.644 C 220.876 195.247,221.169 194.795,221.169 194.638 C 221.169 194.482,222.022 193.281,223.065 191.969 C 224.107 190.657,224.961 189.451,224.961 189.291 C 224.961 189.130,225.499 188.310,226.158 187.469 C 226.816 186.628,227.755 185.250,228.244 184.407 C 228.732 183.564,229.402 182.604,229.732 182.274 C 230.062 181.944,230.332 181.539,230.332 181.373 C 230.332 181.037,231.809 178.780,232.198 178.522 C 232.476 178.337,232.700 177.927,234.857 173.656 C 235.694 171.997,236.723 170.314,237.142 169.917 C 237.561 169.519,237.906 168.954,237.909 168.660 C 237.912 168.366,238.040 168.048,238.194 167.953 C 238.348 167.858,238.775 167.174,239.144 166.434 C 239.512 165.693,239.935 164.874,240.083 164.613 C 240.231 164.352,240.953 162.859,241.687 161.295 C 242.422 159.731,243.178 158.167,243.368 157.820 C 244.336 156.052,244.546 155.566,244.548 155.094 C 244.549 154.811,244.759 154.406,245.015 154.193 C 245.271 153.981,245.573 153.288,245.686 152.654 C 245.798 152.020,246.158 151.057,246.484 150.516 C 246.810 149.974,247.077 149.222,247.077 148.844 C 247.077 148.467,247.362 147.601,247.709 146.919 C 248.057 146.238,248.341 145.313,248.341 144.863 C 248.341 144.413,248.578 143.589,248.868 143.033 C 249.158 142.477,249.504 141.524,249.637 140.916 C 249.770 140.308,250.043 139.242,250.243 138.547 C 250.444 137.852,250.728 136.335,250.874 135.176 C 251.021 134.017,251.313 132.524,251.524 131.859 C 254.156 123.553,251.652 107.734,246.839 102.252 C 246.275 101.609,245.814 100.956,245.814 100.800 C 245.814 100.304,241.902 96.541,240.936 96.110 C 240.426 95.881,239.443 95.246,238.752 94.699 C 238.060 94.151,236.771 93.339,235.888 92.894 C 235.004 92.449,233.926 91.857,233.491 91.577 C 233.057 91.298,232.079 90.977,231.319 90.864 C 230.558 90.751,229.638 90.450,229.274 90.195 C 228.909 89.940,228.332 89.731,227.992 89.731 C 227.651 89.731,226.794 89.469,226.087 89.148 C 224.790 88.559,221.427 87.885,215.640 87.055 C 212.105 86.548,200.640 86.480,195.419 86.934 " stroke="none" fill="#84f9fa" fill-rule="evenodd"></path><path id="path1" d="M200.158 56.143 C 179.053 57.541,163.259 63.012,150.553 73.325 C 130.010 89.998,123.918 118.428,133.799 151.506 C 137.270 163.127,144.037 178.030,151.467 190.420 C 152.007 191.320,152.933 192.884,153.526 193.896 C 161.636 207.740,180.239 231.746,193.484 245.458 C 199.600 251.789,206.200 253.173,213.198 249.592 C 216.466 247.919,225.608 238.049,236.576 224.350 C 238.186 222.340,239.963 220.141,240.525 219.464 C 241.088 218.787,241.690 217.993,241.864 217.700 C 242.038 217.407,242.695 216.539,243.325 215.772 C 249.916 207.733,260.195 191.366,267.019 178.041 C 276.079 160.352,281.016 144.616,282.166 129.761 C 284.749 96.419,271.222 74.097,240.988 61.806 C 231.458 57.932,212.611 55.318,200.158 56.143 M214.592 85.398 C 215.059 85.461,215.628 85.662,215.856 85.845 C 216.085 86.028,217.862 86.341,219.805 86.541 C 221.749 86.740,223.739 87.112,224.229 87.368 C 224.718 87.623,225.523 87.833,226.017 87.834 C 226.510 87.835,227.276 88.120,227.718 88.468 C 228.160 88.815,228.964 89.100,229.505 89.102 C 230.047 89.103,230.916 89.386,231.438 89.731 C 231.959 90.077,232.775 90.360,233.252 90.361 C 233.774 90.363,234.275 90.614,234.513 90.995 C 234.752 91.378,235.249 91.627,235.776 91.627 C 236.303 91.627,236.801 91.876,237.040 92.259 C 237.257 92.607,237.638 92.891,237.887 92.891 C 238.135 92.891,238.600 93.127,238.919 93.416 C 239.514 93.955,239.840 94.169,241.719 95.261 C 242.907 95.951,247.393 100.280,247.393 100.736 C 247.393 100.892,247.829 101.568,248.363 102.239 C 249.644 103.851,251.500 107.653,251.503 108.670 C 251.504 109.115,251.787 109.905,252.133 110.427 C 252.549 111.055,252.761 111.909,252.763 112.963 C 252.764 113.961,252.969 114.842,253.315 115.333 C 254.108 116.457,254.149 127.254,253.364 128.040 C 252.990 128.414,252.814 129.413,252.689 131.863 C 252.570 134.178,252.366 135.399,252.010 135.906 C 251.714 136.329,251.501 137.266,251.501 138.144 C 251.501 139.051,251.248 140.126,250.869 140.834 C 250.521 141.482,250.236 142.370,250.236 142.807 C 250.235 143.244,249.974 144.029,249.656 144.551 C 249.338 145.073,248.995 146.115,248.894 146.866 C 248.793 147.617,248.504 148.470,248.252 148.761 C 247.999 149.051,247.715 149.904,247.620 150.656 C 247.525 151.408,247.222 152.273,246.946 152.577 C 246.671 152.881,246.445 153.349,246.445 153.616 C 246.445 153.883,246.161 154.463,245.814 154.905 C 245.466 155.346,245.182 156.076,245.182 156.527 C 245.182 156.977,244.897 157.630,244.550 157.978 C 244.202 158.325,243.918 158.894,243.918 159.242 C 243.918 159.589,243.654 160.137,243.332 160.460 C 243.009 160.782,242.645 161.446,242.522 161.936 C 242.399 162.425,242.023 163.176,241.687 163.604 C 241.350 164.032,241.074 164.625,241.074 164.923 C 241.074 165.220,240.790 165.720,240.442 166.035 C 240.095 166.349,239.810 166.918,239.810 167.299 C 239.810 167.679,239.526 168.248,239.179 168.562 C 238.831 168.877,238.547 169.306,238.547 169.517 C 238.547 169.727,238.262 170.260,237.915 170.702 C 237.567 171.144,237.283 171.689,237.283 171.913 C 237.283 172.401,235.710 174.777,235.151 175.134 C 234.933 175.273,234.755 175.737,234.755 176.164 C 234.755 176.592,234.471 177.185,234.123 177.482 C 233.776 177.780,233.491 178.150,233.491 178.304 C 233.491 178.742,231.521 181.675,231.226 181.675 C 231.082 181.675,230.964 181.832,230.964 182.025 C 230.964 182.495,229.026 185.466,228.720 185.466 C 228.587 185.466,228.384 185.765,228.268 186.131 C 227.980 187.037,226.595 189.043,226.043 189.352 C 225.795 189.491,225.592 189.804,225.592 190.047 C 225.592 190.590,223.752 193.365,223.393 193.365 C 223.250 193.365,223.042 193.729,222.930 194.175 C 222.818 194.620,222.234 195.437,221.632 195.989 C 221.030 196.542,220.537 197.169,220.537 197.384 C 220.537 197.598,220.182 198.007,219.747 198.291 C 219.313 198.576,218.957 199.041,218.957 199.326 C 218.957 199.610,218.424 200.445,217.773 201.182 C 214.953 204.371,214.385 205.071,213.952 205.898 C 213.700 206.379,213.337 206.934,213.145 207.131 C 212.953 207.328,212.156 208.239,211.374 209.156 C 210.592 210.073,209.704 211.050,209.400 211.327 C 209.096 211.604,208.847 211.993,208.847 212.191 C 208.847 213.094,207.183 214.218,205.848 214.218 C 204.461 214.218,202.844 213.151,202.844 212.235 C 202.844 211.996,202.277 211.243,201.585 210.561 C 200.893 209.879,200.324 209.238,200.321 209.136 C 200.318 209.035,199.747 208.336,199.052 207.583 C 198.357 206.830,197.788 206.033,197.788 205.811 C 197.788 205.590,197.184 204.771,196.445 203.993 C 194.515 201.957,192.925 199.997,192.670 199.338 C 192.425 198.706,192.084 198.275,190.218 196.237 C 189.516 195.471,188.942 194.674,188.942 194.467 C 188.942 194.259,188.622 193.717,188.231 193.261 C 186.763 191.552,186.098 190.565,186.098 190.092 C 186.098 189.824,185.874 189.480,185.601 189.327 C 185.085 189.038,184.565 188.249,183.732 186.493 C 183.465 185.928,183.131 185.466,182.990 185.466 C 182.679 185.466,181.169 183.203,180.887 182.315 C 180.776 181.963,180.575 181.675,180.443 181.675 C 180.133 181.675,178.199 178.701,178.199 178.224 C 178.199 178.026,177.990 177.783,177.734 177.685 C 177.478 177.586,177.177 177.020,177.066 176.426 C 176.954 175.832,176.701 175.242,176.503 175.114 C 175.948 174.755,174.408 172.375,174.401 171.863 C 174.397 171.612,174.115 171.051,173.776 170.616 C 173.436 170.182,173.155 169.671,173.151 169.480 C 173.147 169.290,172.859 168.877,172.512 168.562 C 172.164 168.248,171.880 167.679,171.880 167.299 C 171.880 166.918,171.596 166.349,171.248 166.035 C 170.900 165.720,170.616 165.063,170.616 164.575 C 170.616 164.029,170.387 163.565,170.021 163.369 C 169.684 163.188,169.330 162.533,169.204 161.857 C 169.083 161.201,168.798 160.450,168.573 160.190 C 168.348 159.929,168.056 159.360,167.924 158.926 C 167.793 158.491,167.421 157.797,167.097 157.382 C 166.773 156.968,166.509 156.465,166.509 156.264 C 166.509 156.064,166.224 155.342,165.877 154.660 C 165.529 153.979,165.245 153.091,165.245 152.688 C 165.245 152.285,165.031 151.873,164.769 151.772 C 164.508 151.672,164.205 151.039,164.098 150.366 C 163.990 149.694,163.710 148.983,163.474 148.788 C 163.239 148.592,162.954 147.739,162.842 146.892 C 162.729 146.044,162.449 145.194,162.219 145.003 C 161.989 144.812,161.702 143.992,161.582 143.181 C 161.462 142.370,161.099 141.211,160.776 140.605 C 160.433 139.960,160.190 138.858,160.190 137.944 C 160.190 136.937,160.005 136.180,159.667 135.807 C 159.260 135.358,159.111 134.357,158.993 131.284 C 158.885 128.487,158.715 127.233,158.409 126.979 C 157.751 126.433,157.789 117.138,158.452 116.588 C 158.798 116.300,158.926 115.537,158.926 113.748 C 158.926 111.780,159.049 111.145,159.558 110.498 C 159.905 110.056,160.190 109.257,160.190 108.721 C 160.190 108.088,160.411 107.608,160.821 107.352 C 161.205 107.112,161.453 106.615,161.453 106.088 C 161.453 105.561,161.702 105.063,162.085 104.824 C 162.438 104.604,162.717 104.087,162.717 103.655 C 162.717 103.167,163.160 102.464,163.915 101.756 C 164.573 101.138,165.288 100.205,165.502 99.684 C 165.901 98.717,169.031 95.735,169.648 95.735 C 169.835 95.735,170.297 95.379,170.675 94.945 C 171.053 94.510,171.528 94.155,171.730 94.155 C 171.932 94.155,172.355 93.870,172.670 93.523 C 172.984 93.175,173.470 92.891,173.749 92.891 C 174.027 92.891,174.433 92.607,174.650 92.259 C 174.900 91.859,175.387 91.627,175.979 91.627 C 176.590 91.627,177.030 91.408,177.251 90.995 C 177.461 90.603,177.914 90.363,178.447 90.361 C 178.919 90.360,179.731 90.077,180.253 89.731 C 180.774 89.386,181.655 89.103,182.210 89.102 C 182.827 89.100,183.379 88.874,183.631 88.518 C 183.904 88.135,184.620 87.870,185.736 87.739 C 186.667 87.631,187.591 87.410,187.790 87.248 C 187.989 87.087,189.502 86.774,191.153 86.552 C 192.804 86.331,194.290 86.032,194.455 85.887 C 194.620 85.742,195.331 85.610,196.035 85.593 C 196.739 85.575,197.644 85.469,198.048 85.356 C 198.787 85.148,213.017 85.185,214.592 85.398 " stroke="none" fill="#3d3e3e" fill-rule="evenodd"></path><path id="path2" d="M193.110 51.410 C 192.519 51.523,192.451 51.635,192.753 51.999 C 192.958 52.246,193.036 52.449,192.926 52.449 C 192.816 52.449,191.360 52.669,189.690 52.937 C 186.864 53.392,186.613 53.388,186.059 52.887 C 185.351 52.246,183.772 52.732,184.067 53.500 C 184.188 53.816,183.856 53.993,182.876 54.137 C 182.128 54.246,181.218 54.420,180.853 54.523 C 180.454 54.635,179.990 54.511,179.691 54.211 C 179.388 53.908,178.717 53.731,177.985 53.760 C 177.092 53.795,176.995 53.841,177.612 53.935 C 179.134 54.169,178.398 55.203,176.389 55.652 C 174.813 56.005,174.604 55.988,174.234 55.482 C 174.001 55.163,173.574 54.985,173.247 55.070 C 172.783 55.190,172.771 55.226,173.186 55.256 C 173.470 55.276,173.770 55.551,173.853 55.868 C 174.016 56.492,171.929 57.338,170.735 57.132 C 170.409 57.076,170.171 57.187,170.206 57.379 C 170.241 57.572,169.672 57.907,168.942 58.126 C 168.212 58.344,167.087 58.791,166.442 59.119 C 165.798 59.447,165.041 59.716,164.761 59.716 C 164.481 59.716,164.039 59.929,163.778 60.189 C 163.518 60.450,162.925 60.758,162.461 60.874 C 161.997 60.991,161.429 61.275,161.197 61.506 C 160.966 61.737,160.411 62.018,159.964 62.131 C 159.516 62.243,158.899 62.586,158.592 62.893 C 157.746 63.739,155.842 64.549,155.133 64.363 C 154.680 64.245,154.502 64.354,154.502 64.752 C 154.502 65.361,153.559 66.351,152.977 66.351 C 152.773 66.351,152.607 66.511,152.607 66.708 C 152.607 66.937,152.226 67.004,151.550 66.894 C 150.600 66.740,150.506 66.791,150.616 67.405 C 150.724 68.005,147.548 71.090,146.823 71.090 C 146.682 71.090,145.098 72.540,142.428 75.115 C 141.530 75.980,141.009 76.647,140.820 77.172 C 140.710 77.476,140.402 77.725,140.136 77.725 C 139.870 77.725,139.648 77.903,139.642 78.120 C 139.625 78.747,136.495 82.503,136.162 82.297 C 135.996 82.195,135.845 82.297,135.825 82.525 C 135.804 82.752,135.764 83.081,135.735 83.254 C 135.656 83.721,134.512 85.645,133.965 86.231 C 133.705 86.510,133.310 87.142,133.089 87.634 C 132.843 88.182,132.518 88.465,132.251 88.362 C 131.622 88.121,131.439 88.431,131.742 89.228 C 132.057 90.056,131.614 90.995,130.908 90.995 C 130.530 90.995,130.454 91.211,130.590 91.891 C 130.695 92.415,130.569 93.169,130.287 93.708 C 130.021 94.214,129.588 95.269,129.323 96.051 C 128.729 97.802,128.720 97.812,128.128 97.321 C 127.732 96.992,127.646 97.007,127.646 97.407 C 127.646 97.675,127.824 97.953,128.041 98.026 C 128.629 98.224,126.474 106.450,125.640 107.191 C 125.092 107.678,125.066 107.842,125.426 108.516 C 125.755 109.130,125.766 109.847,125.478 112.089 C 125.280 113.631,125.118 115.709,125.118 116.707 C 125.118 117.836,124.999 118.447,124.803 118.325 C 124.623 118.215,124.487 118.480,124.487 118.939 C 124.487 119.383,124.344 119.747,124.171 119.747 C 123.986 119.747,123.855 120.800,123.855 122.275 C 123.855 123.749,123.986 124.803,124.171 124.803 C 124.344 124.803,124.487 125.237,124.487 125.769 C 124.487 126.333,124.618 126.654,124.803 126.540 C 124.997 126.420,125.118 126.955,125.118 127.932 C 125.118 128.805,125.282 130.954,125.481 132.707 C 125.754 135.104,125.754 135.984,125.481 136.257 C 125.282 136.456,125.118 136.814,125.118 137.053 C 125.118 137.593,125.922 138.428,126.187 138.163 C 126.294 138.055,126.382 138.264,126.382 138.626 C 126.382 138.989,126.608 140.166,126.884 141.243 C 127.159 142.319,127.315 143.468,127.229 143.796 C 127.144 144.124,127.194 144.392,127.341 144.392 C 127.765 144.392,128.197 147.000,127.908 147.809 C 127.448 149.094,127.577 149.828,128.227 149.621 C 129.115 149.340,130.053 152.885,129.226 153.397 C 128.677 153.736,128.883 154.080,129.621 154.054 C 130.452 154.024,131.318 157.017,130.552 157.273 C 130.342 157.343,130.246 157.524,130.340 157.675 C 130.433 157.826,130.700 157.877,130.932 157.788 C 131.569 157.544,132.491 160.033,132.062 160.836 C 131.802 161.321,131.833 161.453,132.205 161.453 C 132.922 161.453,133.423 162.591,133.030 163.326 C 132.592 164.145,132.946 164.994,133.635 164.776 C 134.053 164.643,134.275 164.911,134.605 165.951 C 134.840 166.692,135.219 167.579,135.447 167.922 C 135.934 168.654,136.001 170.300,135.545 170.300 C 135.371 170.300,135.246 170.620,135.266 171.011 C 135.293 171.546,135.338 171.585,135.447 171.169 C 135.526 170.865,135.863 170.616,136.194 170.616 C 136.913 170.616,137.389 172.058,136.849 172.598 C 136.653 172.794,136.509 173.246,136.530 173.602 C 136.560 174.135,136.592 174.152,136.711 173.697 C 137.038 172.444,138.226 173.420,138.129 174.862 C 138.061 175.873,138.193 176.056,138.922 175.958 C 139.437 175.889,142.123 182.000,141.980 182.913 C 141.857 183.690,141.950 183.855,142.560 183.941 C 143.190 184.031,143.276 184.206,143.212 185.265 C 143.147 186.344,143.211 186.466,143.769 186.320 C 144.510 186.126,145.167 187.097,144.924 188.026 C 144.810 188.462,144.933 188.626,145.377 188.626 C 145.802 188.626,146.045 188.913,146.177 189.573 C 146.281 190.095,146.479 190.521,146.616 190.521 C 147.295 190.521,148.528 193.528,148.361 194.776 C 148.268 195.477,148.272 195.873,148.372 195.656 C 148.835 194.642,150.399 195.693,150.220 196.898 C 150.169 197.240,150.299 197.368,150.584 197.259 C 150.828 197.165,151.027 197.226,151.027 197.394 C 151.027 197.563,151.371 198.207,151.792 198.827 C 152.213 199.447,152.607 200.285,152.668 200.688 C 152.729 201.092,152.928 201.395,153.109 201.362 C 153.526 201.287,155.134 203.739,155.134 204.450 C 155.134 204.743,155.487 205.214,155.918 205.496 C 156.767 206.053,157.838 207.816,157.712 208.452 C 157.669 208.669,157.830 208.847,158.069 208.847 C 158.309 208.847,159.060 209.664,159.738 210.664 C 160.416 211.663,161.098 212.571,161.254 212.683 C 161.409 212.794,161.452 213.434,161.347 214.104 C 161.243 214.775,161.236 215.146,161.332 214.929 C 161.823 213.815,164.297 215.939,164.297 217.474 C 164.297 217.768,164.527 218.009,164.808 218.009 C 165.182 218.009,165.278 218.220,165.168 218.799 C 165.045 219.439,165.143 219.590,165.684 219.593 C 166.309 219.597,167.573 221.089,168.157 222.512 C 168.282 222.816,168.531 223.065,168.710 223.065 C 168.890 223.065,169.036 223.507,169.036 224.046 C 169.036 224.806,169.148 224.985,169.529 224.839 C 169.990 224.662,172.191 226.654,172.194 227.251 C 172.195 227.382,172.480 227.808,172.828 228.199 C 174.113 229.645,174.312 229.930,174.480 230.574 C 174.614 231.086,174.537 231.189,174.135 231.039 C 173.669 230.865,173.665 230.905,174.092 231.444 C 175.159 232.791,175.571 233.069,176.174 232.846 C 176.652 232.669,177.016 232.932,177.883 234.083 C 178.489 234.887,179.163 235.659,179.382 235.798 C 179.600 235.937,179.779 236.209,179.779 236.403 C 179.779 236.597,179.986 236.981,180.238 237.256 C 180.491 237.532,180.988 238.077,181.344 238.468 C 181.700 238.859,181.991 239.472,181.991 239.832 C 181.991 240.319,182.136 240.439,182.565 240.303 C 183.274 240.077,184.419 241.232,184.569 242.325 C 184.634 242.796,184.938 243.169,185.340 243.273 C 185.705 243.367,186.629 244.146,187.394 245.005 C 200.479 259.704,211.917 259.350,225.382 243.831 C 226.421 242.634,227.482 241.706,227.812 241.706 C 228.135 241.706,228.488 241.562,228.597 241.385 C 228.706 241.208,228.925 241.144,229.084 241.242 C 229.242 241.340,229.464 240.845,229.576 240.141 C 229.700 239.368,229.952 238.863,230.214 238.863 C 230.604 238.863,230.783 238.477,230.688 237.845 C 230.669 237.720,230.937 237.466,231.283 237.281 C 231.629 237.096,231.912 236.743,231.912 236.497 C 231.912 236.252,232.097 235.937,232.324 235.798 C 232.551 235.659,233.562 234.502,234.571 233.227 C 235.862 231.596,236.567 230.951,236.950 231.051 C 237.377 231.162,237.464 231.032,237.353 230.450 C 237.259 229.963,237.386 229.640,237.721 229.512 C 238.001 229.404,238.231 229.181,238.231 229.016 C 238.231 228.408,240.266 226.205,240.741 226.298 C 241.584 226.463,242.654 225.260,242.654 224.147 C 242.654 223.537,242.843 223.060,243.128 222.951 C 243.389 222.850,243.602 222.558,243.602 222.300 C 243.602 222.043,243.780 221.719,243.997 221.580 C 244.214 221.441,244.889 220.581,245.498 219.669 C 246.106 218.757,246.781 218.010,246.998 218.010 C 247.360 218.010,247.530 217.598,247.428 216.974 C 247.406 216.839,247.602 216.646,247.864 216.545 C 248.127 216.444,248.341 216.229,248.341 216.067 C 248.341 215.556,250.376 212.979,250.790 212.967 C 251.007 212.960,251.185 212.698,251.185 212.385 C 251.185 211.665,251.782 211.058,252.491 211.058 C 252.792 211.058,253.128 210.774,253.239 210.427 C 253.465 209.713,253.897 209.599,254.135 210.190 C 254.230 210.426,254.305 210.362,254.319 210.032 C 254.334 209.712,254.118 209.479,253.807 209.479 C 253.390 209.479,253.354 209.394,253.649 209.100 C 253.858 208.891,254.028 208.548,254.028 208.338 C 254.028 207.390,255.730 205.371,256.533 205.366 C 256.980 205.364,257.204 205.257,257.030 205.129 C 256.365 204.641,257.571 201.864,258.624 201.460 C 258.877 201.363,259.084 201.043,259.084 200.748 C 259.084 200.142,260.916 197.156,261.289 197.156 C 261.423 197.156,261.618 196.730,261.722 196.209 C 261.858 195.530,262.093 195.261,262.551 195.261 C 263.031 195.261,263.191 195.053,263.191 194.435 C 263.191 193.548,264.696 190.521,265.137 190.521 C 265.283 190.521,265.403 190.265,265.403 189.953 C 265.403 189.228,266.001 188.626,266.720 188.626 C 267.087 188.626,267.216 188.463,267.097 188.151 C 266.750 187.246,267.273 186.017,267.932 186.190 C 268.453 186.326,268.527 186.190,268.470 185.196 C 268.414 184.218,268.512 184.029,269.115 183.943 C 269.683 183.863,269.826 183.640,269.825 182.837 C 269.820 180.121,274.455 172.500,275.000 174.329 C 275.090 174.633,275.087 173.993,274.992 172.907 C 274.824 170.982,275.680 169.909,276.252 171.327 C 276.340 171.544,276.423 171.410,276.436 171.030 C 276.450 170.649,276.319 170.250,276.145 170.142 C 275.664 169.845,275.767 168.949,276.382 168.080 C 276.686 167.650,277.078 166.730,277.253 166.035 C 277.489 165.098,277.713 164.795,278.122 164.864 C 278.701 164.961,278.726 164.888,278.791 162.892 C 278.824 161.849,278.960 161.609,279.621 161.423 C 280.055 161.301,280.248 161.186,280.050 161.169 C 279.387 161.111,279.311 160.181,279.864 158.899 C 280.264 157.971,280.559 157.670,280.964 157.775 C 281.268 157.854,281.517 157.790,281.517 157.632 C 281.517 157.475,281.374 157.346,281.201 157.346 C 280.783 157.346,280.802 156.591,281.257 155.070 C 281.546 154.105,281.759 153.860,282.205 153.977 C 282.861 154.148,282.953 153.854,282.412 153.312 C 281.974 152.875,282.618 149.447,283.138 149.447 C 283.309 149.447,283.367 149.314,283.266 149.150 C 282.997 148.714,284.101 144.908,284.584 144.612 C 284.849 144.449,284.903 144.166,284.736 143.822 C 284.433 143.199,285.359 137.913,285.710 138.264 C 285.836 138.390,285.940 138.328,285.940 138.125 C 285.940 137.016,286.556 137.990,286.656 139.258 C 286.760 140.583,286.781 140.522,286.831 138.739 C 286.875 137.186,286.768 136.633,286.370 136.342 C 285.900 135.998,285.887 135.564,286.235 131.725 C 286.678 126.833,286.782 126.336,287.216 127.023 C 287.474 127.431,287.518 127.430,287.573 127.014 C 287.607 126.754,287.726 127.678,287.836 129.068 C 287.946 130.458,288.035 127.330,288.035 122.117 C 288.034 116.899,287.945 113.845,287.836 115.324 C 287.727 116.801,287.597 117.583,287.547 117.062 C 287.458 116.124,287.454 116.123,287.218 116.904 L 286.979 117.694 286.794 116.904 C 286.098 113.918,285.845 109.002,286.359 108.434 C 286.724 108.031,286.871 107.366,286.833 106.294 L 286.777 104.739 286.656 106.082 C 286.396 108.973,284.383 105.330,284.561 102.291 C 284.579 101.987,284.497 101.738,284.379 101.738 C 283.894 101.738,283.336 98.577,283.736 98.096 C 284.053 97.713,284.013 97.630,283.513 97.630 C 282.751 97.630,281.430 94.340,281.387 92.338 C 281.365 91.291,281.239 90.995,280.817 90.995 C 280.103 90.995,279.635 90.052,279.954 89.258 C 280.350 88.272,280.303 88.154,279.542 88.234 C 278.985 88.293,278.766 88.087,278.529 87.283 C 278.362 86.718,278.124 86.256,277.998 86.256 C 277.655 86.256,275.829 83.449,275.829 82.923 C 275.829 82.671,275.647 82.464,275.424 82.464 C 275.200 82.464,274.778 82.073,274.486 81.596 C 273.994 80.792,272.932 79.499,271.399 77.839 C 271.055 77.467,270.774 77.066,270.774 76.950 C 270.774 76.666,265.109 71.090,264.821 71.090 C 264.697 71.090,264.365 70.841,264.084 70.537 C 263.803 70.233,262.989 69.566,262.276 69.055 C 261.563 68.543,260.979 67.942,260.979 67.718 C 260.979 67.494,260.588 67.215,260.111 67.098 C 259.633 66.981,259.171 66.801,259.084 66.697 C 258.997 66.593,258.641 66.355,258.294 66.167 C 257.946 65.979,257.522 65.517,257.350 65.140 C 257.157 64.715,256.736 64.446,256.244 64.430 C 255.808 64.416,254.810 63.995,254.028 63.494 C 253.246 62.993,252.145 62.372,251.580 62.113 C 251.015 61.855,250.553 61.494,250.553 61.312 C 250.553 61.129,250.252 60.979,249.885 60.979 C 249.518 60.979,248.700 60.705,248.068 60.371 C 247.436 60.036,245.746 59.297,244.313 58.729 C 242.879 58.160,241.706 57.581,241.706 57.442 C 241.706 57.302,241.325 57.188,240.860 57.188 C 238.707 57.188,237.146 55.870,238.547 55.235 C 238.889 55.080,238.823 55.015,238.310 54.999 C 237.917 54.986,237.599 55.165,237.599 55.398 C 237.599 55.932,236.880 55.969,235.015 55.531 C 233.270 55.122,232.699 54.148,234.078 53.935 C 234.624 53.852,234.448 53.791,233.570 53.760 C 232.832 53.734,232.227 53.845,232.227 54.007 C 232.227 54.552,231.133 54.631,229.384 54.213 C 228.405 53.979,227.681 53.638,227.727 53.433 C 227.889 52.704,226.288 52.293,225.624 52.894 C 225.059 53.405,224.835 53.409,222.147 52.945 C 220.566 52.672,219.185 52.449,219.076 52.449 C 218.968 52.449,219.042 52.254,219.239 52.016 C 219.792 51.350,217.206 50.995,216.554 51.648 C 216.163 52.038,215.560 52.082,213.173 51.891 C 209.814 51.622,204.054 51.591,199.553 51.817 C 197.213 51.935,196.386 51.875,196.288 51.580 C 196.159 51.195,194.657 51.115,193.110 51.410 M214.218 53.729 C 223.879 54.606,237.212 57.367,241.548 59.390 C 241.896 59.552,243.442 60.195,244.983 60.820 C 259.304 66.624,273.322 79.206,278.324 90.746 C 278.648 91.491,279.272 92.883,279.712 93.839 C 293.322 123.405,280.863 169.552,246.955 215.166 C 238.185 226.963,222.732 245.158,218.450 248.728 C 210.093 255.696,201.996 255.817,193.748 249.098 C 192.078 247.738,190.683 246.287,185.123 240.126 C 182.132 236.813,173.209 226.201,171.527 223.959 C 170.939 223.175,168.815 220.342,166.806 217.665 C 154.884 201.770,144.112 184.017,138.925 171.716 C 138.487 170.677,137.697 168.895,137.169 167.758 C 133.379 159.582,129.514 147.053,127.992 138.013 C 120.122 91.262,146.318 58.563,195.261 54.046 C 197.259 53.862,199.392 53.663,200.000 53.604 C 202.614 53.352,210.871 53.425,214.218 53.729 M210.667 86.163 C 211.060 86.239,211.629 86.236,211.931 86.157 C 212.233 86.078,211.912 86.016,211.216 86.020 C 210.521 86.023,210.274 86.088,210.667 86.163 M238.231 93.997 C 238.819 94.431,239.406 94.787,239.533 94.787 C 239.661 94.787,239.989 95.010,240.262 95.283 C 240.535 95.556,240.758 95.630,240.758 95.448 C 240.758 95.265,240.199 94.830,239.516 94.482 C 238.833 94.133,238.184 93.704,238.075 93.527 C 237.967 93.351,237.716 93.207,237.519 93.207 C 237.321 93.207,237.642 93.562,238.231 93.997 M172.512 94.291 C 171.904 94.693,171.122 95.356,170.774 95.765 C 170.289 96.337,170.412 96.291,171.305 95.569 C 171.944 95.052,172.797 94.386,173.200 94.090 C 174.272 93.302,173.799 93.440,172.512 94.291 M164.302 102.207 C 163.715 102.813,163.296 103.357,163.371 103.416 C 163.446 103.475,163.986 102.980,164.571 102.315 C 165.900 100.804,165.728 100.735,164.302 102.207 M247.745 102.828 C 248.026 103.184,248.412 103.760,248.604 104.107 C 248.797 104.455,248.958 104.564,248.964 104.349 C 248.969 104.135,248.582 103.559,248.104 103.070 C 247.626 102.581,247.465 102.472,247.745 102.828 M251.364 110.742 C 251.486 111.090,251.693 111.872,251.823 112.480 C 252.056 113.567,252.060 113.570,252.085 112.638 C 252.099 112.117,251.892 111.335,251.626 110.900 C 251.308 110.383,251.218 110.328,251.364 110.742 M159.950 111.212 C 159.734 111.557,159.572 112.233,159.590 112.713 L 159.622 113.586 159.867 112.638 C 160.001 112.117,160.215 111.442,160.342 111.137 C 160.652 110.395,160.434 110.436,159.950 111.212 M252.659 117.220 C 252.739 118.349,252.831 120.439,252.864 121.864 C 252.896 123.289,253.041 124.337,253.186 124.192 C 253.471 123.906,253.288 120.503,252.811 117.220 L 252.513 115.166 252.659 117.220 M159.055 121.801 C 159.055 124.755,159.102 126.006,159.161 124.581 C 159.219 123.156,159.219 120.739,159.161 119.210 C 159.103 117.681,159.055 118.847,159.055 121.801 M252.543 126.382 C 252.543 127.338,252.603 127.729,252.675 127.251 C 252.747 126.773,252.747 125.991,252.675 125.513 C 252.603 125.036,252.543 125.427,252.543 126.382 M159.471 131.596 C 159.564 132.464,159.763 133.310,159.915 133.476 C 160.066 133.641,160.206 134.209,160.226 134.739 C 160.250 135.373,160.316 135.495,160.417 135.098 C 160.502 134.765,160.425 133.983,160.245 133.360 C 160.066 132.737,159.780 131.730,159.610 131.122 C 159.332 130.123,159.318 130.169,159.471 131.596 M251.792 132.464 C 251.698 133.143,251.746 133.530,251.905 133.372 C 252.057 133.219,252.131 132.686,252.069 132.187 C 251.965 131.352,251.943 131.374,251.792 132.464 M251.258 134.913 C 251.258 135.521,251.323 135.770,251.403 135.466 C 251.482 135.162,251.482 134.664,251.403 134.360 C 251.323 134.056,251.258 134.305,251.258 134.913 M160.872 138.274 C 160.844 138.818,161.034 139.672,161.293 140.169 C 161.553 140.667,161.766 140.854,161.767 140.585 C 161.768 140.315,161.637 139.960,161.476 139.795 C 161.315 139.630,161.124 138.997,161.053 138.389 C 160.923 137.287,160.922 137.287,160.872 138.274 M250.528 138.783 C 250.434 139.463,250.482 139.850,250.641 139.691 C 250.794 139.538,250.867 139.005,250.805 138.506 C 250.701 137.671,250.679 137.693,250.528 138.783 M163.053 145.656 C 163.060 146.120,164.258 148.538,164.284 148.139 C 164.291 148.027,164.016 147.317,163.672 146.559 C 163.328 145.801,163.050 145.395,163.053 145.656 M164.613 150.539 C 164.613 150.666,164.897 151.131,165.245 151.573 C 165.592 152.014,165.877 152.273,165.877 152.146 C 165.877 152.020,165.592 151.555,165.245 151.113 C 164.897 150.671,164.613 150.413,164.613 150.539 M246.497 151.198 C 245.967 152.360,246.068 152.608,246.641 151.552 C 246.908 151.059,247.068 150.596,246.995 150.524 C 246.923 150.451,246.699 150.755,246.497 151.198 M167.494 156.872 C 167.776 157.220,168.084 157.717,168.180 157.978 C 168.328 158.380,168.358 158.376,168.379 157.948 C 168.393 157.671,168.085 157.173,167.694 156.842 C 166.989 156.245,166.987 156.246,167.494 156.872 M168.758 159.400 C 169.040 159.747,169.348 160.245,169.444 160.506 C 169.592 160.908,169.622 160.903,169.643 160.476 C 169.657 160.198,169.348 159.701,168.957 159.370 C 168.253 158.773,168.251 158.773,168.758 159.400 M242.575 160.043 C 241.786 161.098,241.888 161.393,242.690 160.374 C 243.057 159.906,243.306 159.475,243.243 159.414 C 243.180 159.353,242.879 159.636,242.575 160.043 M173.491 169.036 C 174.062 169.818,174.573 170.517,174.627 170.590 C 174.680 170.662,174.721 170.591,174.719 170.432 C 174.716 170.273,174.205 169.573,173.583 168.878 L 172.452 167.615 173.491 169.036 M235.606 172.980 C 235.008 174.106,234.646 174.949,234.802 174.853 C 235.123 174.654,237.053 170.932,236.835 170.932 C 236.757 170.932,236.204 171.854,235.606 172.980 M176.045 173.618 C 176.243 174.052,176.527 174.408,176.677 174.408 C 176.827 174.408,176.717 174.052,176.432 173.618 C 176.148 173.183,175.863 172.828,175.800 172.828 C 175.737 172.828,175.847 173.183,176.045 173.618 M177.567 176.448 C 177.567 176.574,177.852 177.039,178.199 177.481 C 178.547 177.923,178.831 178.181,178.831 178.055 C 178.831 177.928,178.547 177.463,178.199 177.021 C 177.852 176.580,177.567 176.321,177.567 176.448 M179.462 179.384 C 179.875 179.949,180.263 180.411,180.323 180.411 C 180.563 180.411,179.780 179.226,179.262 178.805 C 178.920 178.528,178.997 178.748,179.462 179.384 M232.178 179.068 C 231.536 179.833,230.603 181.359,230.776 181.359 C 230.855 181.359,231.351 180.719,231.878 179.937 C 232.865 178.476,232.997 178.091,232.178 179.068 M229.665 182.859 C 228.757 183.978,227.752 185.519,227.860 185.627 C 227.921 185.688,228.498 184.966,229.143 184.022 C 230.295 182.337,230.549 181.770,229.665 182.859 M227.137 186.651 C 226.182 187.828,225.207 189.338,225.533 189.136 C 225.721 189.020,226.304 188.289,226.829 187.511 C 227.799 186.075,227.951 185.648,227.137 186.651 M224.422 190.705 C 224.110 191.154,223.431 192.043,222.914 192.680 C 222.231 193.522,222.174 193.668,222.705 193.212 C 223.414 192.604,225.389 189.889,225.123 189.889 C 225.050 189.889,224.735 190.257,224.422 190.705 M189.821 194.474 C 190.000 194.824,190.480 195.392,190.887 195.736 C 191.601 196.340,191.600 196.329,190.842 195.416 C 189.584 193.901,189.478 193.803,189.821 194.474 M193.187 198.894 C 194.287 200.515,194.512 200.707,193.900 199.503 C 193.629 198.969,193.167 198.333,192.874 198.090 C 192.580 197.846,192.721 198.209,193.187 198.894 M197.021 203.821 C 197.530 204.446,198.010 204.903,198.088 204.838 C 198.166 204.773,197.750 204.262,197.163 203.702 L 196.096 202.686 197.021 203.821 M200.632 208.416 C 200.632 208.585,201.165 209.213,201.817 209.812 L 203.002 210.900 201.896 209.640 C 201.288 208.947,200.754 208.319,200.711 208.245 C 200.667 208.170,200.632 208.248,200.632 208.416 M202.607 257.090 C 202.911 257.169,203.408 257.169,203.712 257.090 C 204.017 257.010,203.768 256.945,203.160 256.945 C 202.551 256.945,202.303 257.010,202.607 257.090 " stroke="none" fill="#8c8c8c" fill-rule="evenodd"></path><path id="path3" d="M196.424 50.127 C 195.973 50.578,196.220 51.746,196.799 51.897 C 197.123 51.982,199.433 51.905,201.933 51.727 C 205.146 51.497,207.847 51.504,211.152 51.752 C 216.426 52.147,216.820 52.086,216.684 50.908 L 216.588 50.079 206.613 49.996 C 201.127 49.950,196.542 50.009,196.424 50.127 M185.782 51.936 C 185.782 53.318,186.378 53.470,189.698 52.936 C 191.363 52.668,192.816 52.449,192.926 52.449 C 193.036 52.449,192.958 52.246,192.753 51.999 C 192.451 51.635,192.519 51.523,193.110 51.410 C 193.511 51.334,192.026 51.252,189.810 51.228 L 185.782 51.185 185.782 51.936 M218.740 51.413 C 219.469 51.523,219.561 51.628,219.254 51.998 C 219.048 52.246,218.968 52.449,219.076 52.449 C 219.185 52.449,220.563 52.671,222.139 52.943 C 225.290 53.487,225.908 53.322,225.908 51.936 L 225.908 51.185 221.880 51.232 C 219.664 51.258,218.251 51.340,218.740 51.413 M179.463 53.363 C 179.463 53.865,179.662 54.353,179.905 54.447 C 180.677 54.743,184.230 53.925,184.063 53.489 C 183.980 53.274,184.155 52.956,184.452 52.783 C 184.841 52.556,184.218 52.465,182.227 52.458 L 179.463 52.449 179.463 53.363 M227.172 52.758 C 227.433 52.923,227.646 53.230,227.646 53.440 C 227.646 53.887,230.863 54.705,231.675 54.465 C 232.038 54.358,232.227 53.985,232.227 53.375 L 232.227 52.449 229.463 52.453 C 227.596 52.457,226.852 52.556,227.172 52.758 M174.302 53.923 C 173.909 54.316,174.089 55.627,174.562 55.809 C 175.396 56.129,178.124 55.296,178.288 54.671 C 178.481 53.932,174.955 53.270,174.302 53.923 M234.078 53.935 C 232.699 54.148,233.270 55.122,235.015 55.531 C 237.208 56.046,237.599 55.960,237.599 54.957 C 237.599 53.766,236.761 53.523,234.078 53.935 M170.695 55.186 C 170.478 55.273,170.300 55.617,170.300 55.951 C 170.300 56.480,170.062 56.556,168.404 56.556 C 166.719 56.556,166.509 56.626,166.509 57.188 C 166.509 57.715,166.298 57.820,165.245 57.820 C 164.192 57.820,163.981 57.925,163.981 58.452 C 163.981 58.990,163.770 59.084,162.559 59.084 C 161.348 59.084,161.137 59.177,161.137 59.716 C 161.137 60.230,160.927 60.348,160.002 60.348 C 159.132 60.348,158.828 60.495,158.701 60.979 C 158.572 61.475,158.270 61.611,157.309 61.611 C 156.318 61.611,156.082 61.726,156.082 62.206 C 156.082 62.536,155.800 62.875,155.450 62.967 C 154.596 63.190,154.588 64.455,155.441 64.455 C 156.139 64.455,158.284 63.353,158.768 62.745 C 158.942 62.526,159.465 62.253,159.931 62.137 C 160.396 62.021,160.966 61.737,161.197 61.506 C 161.429 61.275,161.997 60.991,162.461 60.874 C 162.925 60.758,163.518 60.450,163.778 60.189 C 164.039 59.929,164.481 59.716,164.761 59.716 C 165.041 59.716,165.798 59.447,166.442 59.119 C 167.087 58.791,168.212 58.344,168.942 58.126 C 169.672 57.907,170.241 57.572,170.206 57.379 C 170.171 57.187,170.409 57.076,170.735 57.132 C 171.891 57.331,174.016 56.492,173.860 55.897 C 173.660 55.131,171.844 54.722,170.695 55.186 M238.547 55.228 C 237.157 55.880,238.701 57.188,240.860 57.188 C 241.325 57.188,241.706 57.302,241.706 57.442 C 241.706 57.581,242.879 58.160,244.313 58.729 C 245.746 59.297,247.436 60.036,248.068 60.371 C 248.700 60.705,249.518 60.979,249.885 60.979 C 250.252 60.979,250.553 61.129,250.553 61.312 C 250.553 61.494,251.015 61.855,251.580 62.113 C 252.145 62.372,253.246 62.993,254.028 63.494 C 254.810 63.995,255.808 64.416,256.244 64.430 C 256.736 64.446,257.157 64.715,257.350 65.140 C 257.522 65.517,257.946 65.979,258.294 66.167 C 258.641 66.355,258.997 66.593,259.084 66.697 C 259.171 66.801,259.633 66.981,260.111 67.098 C 260.588 67.215,260.979 67.494,260.979 67.718 C 260.979 67.942,261.563 68.543,262.276 69.055 C 262.989 69.566,263.803 70.233,264.084 70.537 C 264.365 70.841,264.697 71.090,264.821 71.090 C 265.109 71.090,270.774 76.666,270.774 76.950 C 270.774 77.066,271.055 77.467,271.399 77.839 C 272.932 79.499,273.994 80.792,274.486 81.596 C 274.778 82.073,275.200 82.464,275.424 82.464 C 275.647 82.464,275.829 82.671,275.829 82.923 C 275.829 83.505,277.673 86.256,278.063 86.256 C 278.225 86.256,278.357 86.513,278.357 86.827 C 278.357 87.734,279.091 88.530,279.708 88.293 C 280.526 87.979,280.452 86.256,279.621 86.256 C 279.094 86.256,278.989 86.045,278.989 84.992 C 278.989 83.939,278.884 83.728,278.357 83.728 C 277.936 83.728,277.725 83.518,277.725 83.096 C 277.725 82.640,277.514 82.464,276.965 82.464 C 276.259 82.464,276.218 82.373,276.377 81.183 C 276.527 80.070,276.462 79.878,275.884 79.727 C 275.518 79.631,275.133 79.284,275.029 78.955 C 274.924 78.626,274.645 78.357,274.408 78.357 C 274.170 78.357,273.886 78.073,273.776 77.725 C 273.665 77.378,273.300 77.093,272.964 77.093 C 272.565 77.093,272.354 76.875,272.354 76.461 C 272.354 76.040,272.143 75.829,271.722 75.829 C 271.301 75.829,271.090 75.619,271.090 75.197 C 271.090 74.776,270.879 74.566,270.458 74.566 C 270.037 74.566,269.826 74.355,269.826 73.934 C 269.826 73.512,269.616 73.302,269.194 73.302 C 268.773 73.302,268.562 73.091,268.562 72.670 C 268.562 72.249,268.352 72.038,267.930 72.038 C 267.509 72.038,267.299 71.827,267.299 71.406 C 267.299 70.985,267.088 70.774,266.667 70.774 C 266.245 70.774,266.035 70.563,266.035 70.142 C 266.035 69.721,265.824 69.510,265.403 69.510 C 264.989 69.510,264.771 69.300,264.771 68.900 C 264.771 68.564,264.502 68.204,264.173 68.099 C 263.844 67.995,263.497 67.610,263.401 67.244 C 263.252 66.673,263.054 66.602,262.003 66.743 C 260.909 66.890,260.782 66.835,260.800 66.234 C 260.815 65.768,260.602 65.530,260.111 65.460 C 259.654 65.395,259.400 65.141,259.400 64.749 C 259.400 64.251,259.174 64.139,258.173 64.139 C 257.211 64.139,256.910 64.002,256.780 63.507 C 256.690 63.160,256.389 62.875,256.112 62.875 C 255.819 62.875,255.608 62.611,255.608 62.243 C 255.608 61.720,255.398 61.611,254.381 61.611 C 253.420 61.611,253.118 61.475,252.989 60.979 C 252.862 60.495,252.558 60.348,251.688 60.348 C 250.764 60.348,250.553 60.230,250.553 59.716 C 250.553 59.189,250.342 59.084,249.289 59.084 C 248.236 59.084,248.025 58.978,248.025 58.452 C 248.025 57.914,247.815 57.820,246.603 57.820 C 245.392 57.820,245.182 57.726,245.182 57.188 C 245.182 56.627,244.971 56.556,243.308 56.556 C 241.605 56.556,241.425 56.491,241.333 55.845 C 241.227 55.098,239.595 54.736,238.547 55.228 M152.291 64.750 C 152.291 65.085,152.006 65.451,151.659 65.561 C 150.709 65.862,150.834 66.983,151.817 66.983 C 152.251 66.983,152.607 66.840,152.607 66.667 C 152.607 66.493,152.798 66.351,153.032 66.351 C 153.603 66.351,154.502 65.322,154.502 64.667 C 154.502 64.274,154.219 64.139,153.397 64.139 C 152.514 64.139,152.291 64.262,152.291 64.750 M148.288 67.248 C 148.198 67.591,147.854 67.943,147.522 68.030 C 147.171 68.121,146.919 68.464,146.919 68.849 C 146.919 69.300,146.718 69.510,146.288 69.510 C 145.866 69.510,145.656 69.721,145.656 70.142 C 145.656 70.490,145.452 70.774,145.203 70.774 C 144.954 70.774,144.660 71.058,144.550 71.406 C 144.439 71.754,144.074 72.038,143.739 72.038 C 143.339 72.038,143.128 72.256,143.128 72.670 C 143.128 73.091,142.917 73.302,142.496 73.302 C 142.075 73.302,141.864 73.512,141.864 73.934 C 141.864 74.355,141.654 74.566,141.232 74.566 C 140.818 74.566,140.600 74.776,140.600 75.176 C 140.600 75.512,140.316 75.877,139.968 75.987 C 139.621 76.098,139.336 76.392,139.336 76.641 C 139.336 76.890,139.052 77.093,138.705 77.093 C 138.283 77.093,138.073 77.304,138.073 77.725 C 138.073 78.139,137.862 78.357,137.462 78.357 C 137.126 78.357,136.766 78.626,136.662 78.955 C 136.557 79.284,136.173 79.631,135.806 79.727 C 135.229 79.878,135.164 80.070,135.313 81.183 C 135.473 82.373,135.431 82.464,134.725 82.464 C 134.176 82.464,133.965 82.640,133.965 83.096 C 133.965 83.518,133.755 83.728,133.333 83.728 C 132.810 83.728,132.701 83.939,132.701 84.955 C 132.701 85.917,132.565 86.218,132.070 86.347 C 131.622 86.464,131.438 86.778,131.438 87.423 C 131.438 88.672,132.574 88.781,133.112 87.585 C 133.320 87.119,133.705 86.510,133.965 86.231 C 134.512 85.645,135.656 83.721,135.735 83.254 C 135.764 83.081,135.804 82.752,135.825 82.525 C 135.845 82.297,135.996 82.195,136.162 82.297 C 136.495 82.503,139.625 78.747,139.642 78.120 C 139.648 77.903,139.870 77.725,140.136 77.725 C 140.402 77.725,140.710 77.476,140.820 77.172 C 141.009 76.647,141.530 75.980,142.428 75.115 C 145.098 72.540,146.682 71.090,146.823 71.090 C 147.474 71.090,150.714 68.005,150.639 67.457 C 150.514 66.536,148.520 66.359,148.288 67.248 M198.618 86.163 C 198.527 86.255,198.011 86.419,197.471 86.530 C 196.932 86.640,199.946 86.685,204.169 86.630 C 211.976 86.528,215.711 86.825,221.011 87.967 C 222.227 88.230,223.649 88.431,224.171 88.414 C 224.772 88.396,224.483 88.274,223.381 88.083 C 222.425 87.917,221.359 87.659,221.011 87.508 C 219.001 86.639,199.324 85.457,198.618 86.163 M192.974 86.887 C 191.977 87.015,190.981 87.269,190.761 87.452 C 190.541 87.635,189.864 87.844,189.256 87.917 C 188.155 88.050,188.155 88.051,189.434 88.101 C 190.147 88.129,190.989 87.946,191.330 87.688 C 191.667 87.433,192.512 87.205,193.207 87.182 C 193.902 87.159,194.826 87.027,195.261 86.888 C 196.273 86.563,195.500 86.563,192.974 86.887 M183.886 89.177 C 183.268 89.693,183.234 89.781,183.728 89.581 C 184.076 89.441,184.753 89.259,185.233 89.176 C 186.408 88.975,186.600 88.569,185.534 88.540 C 185.062 88.528,184.321 88.814,183.886 89.177 M225.726 88.948 C 226.061 89.201,226.843 89.496,227.464 89.605 C 228.086 89.714,228.904 89.996,229.283 90.234 C 229.661 90.471,230.586 90.736,231.336 90.824 C 232.466 90.956,232.538 90.936,231.754 90.711 C 231.232 90.561,230.277 90.208,229.631 89.927 C 228.985 89.646,228.203 89.415,227.893 89.414 C 227.584 89.412,226.923 89.199,226.425 88.940 C 225.282 88.344,224.933 88.348,225.726 88.948 M130.174 90.011 C 130.174 90.972,130.037 91.273,129.542 91.403 C 129.063 91.528,128.910 91.834,128.910 92.667 C 128.910 93.499,128.757 93.805,128.278 93.930 C 127.475 94.140,127.362 96.685,128.128 97.321 C 128.720 97.812,128.729 97.802,129.323 96.051 C 129.588 95.269,130.021 94.214,130.287 93.708 C 130.569 93.169,130.695 92.415,130.590 91.891 C 130.454 91.211,130.530 90.995,130.908 90.995 C 131.542 90.995,132.033 90.133,131.833 89.371 C 131.508 88.126,130.174 88.640,130.174 90.011 M279.861 89.354 C 279.642 90.192,280.161 90.995,280.920 90.995 C 281.867 90.995,281.650 88.983,280.689 88.846 C 280.245 88.783,279.966 88.954,279.861 89.354 M181.359 90.176 C 180.924 90.407,180.050 90.690,179.416 90.804 C 178.781 90.918,178.100 91.208,177.902 91.447 C 177.704 91.686,177.167 91.975,176.710 92.090 C 175.966 92.276,174.051 93.523,174.508 93.523 C 174.610 93.523,175.773 92.954,177.093 92.259 C 178.413 91.564,179.806 90.989,180.189 90.982 C 180.966 90.967,183.369 89.758,182.622 89.757 C 182.362 89.757,181.793 89.946,181.359 90.176 M233.463 91.517 C 234.344 92.133,236.921 93.523,237.184 93.523 C 237.640 93.523,235.723 92.276,234.980 92.090 C 234.523 91.975,233.984 91.682,233.782 91.438 C 233.579 91.195,233.258 90.995,233.066 90.995 C 232.875 90.995,233.054 91.230,233.463 91.517 M281.287 92.469 C 281.850 96.790,284.044 99.388,284.044 95.735 C 284.044 94.069,283.970 93.839,283.431 93.839 C 282.951 93.839,282.797 93.582,282.720 92.654 C 282.640 91.684,282.487 91.450,281.876 91.364 C 281.180 91.265,281.140 91.341,281.287 92.469 M172.793 94.418 C 172.165 94.881,171.157 95.652,170.551 96.130 C 169.946 96.607,169.329 96.998,169.180 96.998 C 169.031 96.998,168.305 97.638,167.566 98.420 C 166.827 99.202,166.329 99.842,166.458 99.842 C 166.587 99.842,167.192 99.309,167.802 98.657 C 168.413 98.006,169.402 97.215,170.001 96.901 C 170.963 96.396,174.498 93.505,174.092 93.555 C 174.005 93.566,173.420 93.954,172.793 94.418 M237.875 93.949 C 238.425 94.611,241.088 96.369,241.523 96.357 C 241.711 96.352,241.581 96.183,241.236 95.983 C 240.891 95.783,240.464 95.501,240.288 95.356 C 239.353 94.588,237.517 93.518,237.875 93.949 M242.022 96.514 C 242.022 96.637,242.790 97.487,243.729 98.404 C 244.668 99.320,245.649 100.481,245.908 100.984 C 246.168 101.486,246.683 102.171,247.052 102.505 C 247.422 102.839,248.377 104.446,249.174 106.075 C 249.972 107.705,250.689 108.974,250.767 108.896 C 251.018 108.645,248.291 103.520,247.193 102.180 C 246.608 101.467,246.129 100.755,246.127 100.599 C 246.126 100.443,245.202 99.411,244.074 98.304 C 242.945 97.197,242.022 96.392,242.022 96.514 M126.382 99.842 C 126.382 101.527,126.312 101.738,125.750 101.738 C 125.165 101.738,125.118 101.948,125.118 104.581 C 125.118 106.145,125.200 107.425,125.299 107.425 C 125.851 107.425,126.352 106.237,127.263 102.767 C 128.521 97.972,128.522 97.946,127.330 97.946 L 126.382 97.946 126.382 99.842 M283.563 98.274 C 283.329 98.653,284.056 101.738,284.379 101.738 C 284.497 101.738,284.579 101.987,284.561 102.291 C 284.504 103.265,285.402 106.943,285.756 107.183 C 286.397 107.618,286.490 107.424,286.709 105.208 C 286.964 102.619,286.763 101.738,285.919 101.738 C 285.383 101.738,285.308 101.505,285.308 99.842 C 285.308 97.963,284.309 97.066,283.563 98.274 M164.534 102.279 C 163.882 103.047,163.349 103.861,163.349 104.086 C 163.349 104.312,163.053 104.872,162.692 105.332 C 162.330 105.791,162.092 106.339,162.162 106.548 C 162.231 106.757,162.677 106.152,163.153 105.202 C 163.628 104.252,164.460 102.943,165.001 102.292 C 165.542 101.641,165.925 101.057,165.852 100.995 C 165.779 100.932,165.186 101.510,164.534 102.279 M161.374 107.910 C 161.070 108.317,160.824 108.836,160.827 109.064 C 160.830 109.292,161.132 109.011,161.498 108.439 C 162.276 107.224,162.183 106.829,161.374 107.910 M123.855 113.902 C 123.855 117.588,123.971 119.747,124.171 119.747 C 124.344 119.747,124.487 119.383,124.487 118.939 C 124.487 118.480,124.623 118.215,124.803 118.325 C 124.999 118.447,125.118 117.849,125.118 116.746 C 125.118 115.770,125.283 113.634,125.484 112.000 C 125.876 108.805,125.680 108.057,124.448 108.057 C 123.889 108.057,123.855 108.395,123.855 113.902 M286.245 108.544 C 285.918 108.938,285.915 109.737,286.233 112.731 C 286.636 116.531,287.101 118.498,287.220 116.904 C 287.275 116.168,287.293 116.179,287.496 117.062 C 287.633 117.657,287.805 116.281,287.959 113.361 C 288.093 110.804,288.112 108.565,288.001 108.385 C 287.700 107.898,286.706 107.988,286.245 108.544 M250.912 109.795 C 250.901 110.142,251.118 111.280,251.396 112.322 C 251.674 113.365,252.010 115.213,252.143 116.430 L 252.385 118.641 252.284 116.272 C 252.229 114.968,252.037 113.333,251.859 112.638 C 251.117 109.749,250.932 109.195,250.912 109.795 M160.416 110.664 C 160.326 111.055,160.023 112.208,159.742 113.228 C 159.322 114.748,159.247 116.452,159.321 122.706 L 159.411 130.332 159.485 122.424 C 159.540 116.383,159.659 114.369,159.986 113.893 C 160.222 113.551,160.511 112.524,160.629 111.611 C 160.846 109.933,160.716 109.356,160.416 110.664 M252.555 121.428 C 252.527 122.850,252.438 125.434,252.357 127.172 L 252.210 130.332 252.491 127.330 C 253.050 121.355,253.125 119.770,252.868 119.311 C 252.711 119.030,252.586 119.873,252.555 121.428 M123.855 130.669 L 123.855 136.535 124.724 136.435 C 125.532 136.342,125.591 136.237,125.567 134.913 C 125.508 131.601,125.004 126.416,124.756 126.569 C 124.608 126.661,124.487 126.301,124.487 125.769 C 124.487 125.237,124.344 124.803,124.171 124.803 C 123.971 124.803,123.855 126.969,123.855 130.669 M286.770 127.023 C 286.467 127.953,285.873 135.812,286.080 136.148 C 286.197 136.338,286.711 136.493,287.222 136.493 L 288.152 136.493 288.118 134.360 C 288.081 131.984,287.651 126.273,287.565 127.014 C 287.517 127.430,287.474 127.431,287.216 127.023 C 286.957 126.614,286.904 126.614,286.770 127.023 M159.774 131.596 C 159.877 132.291,160.084 133.099,160.234 133.392 C 160.383 133.684,160.506 134.454,160.506 135.103 C 160.506 135.752,160.592 136.196,160.697 136.090 C 161.027 135.761,160.468 131.506,160.016 130.904 C 159.637 130.399,159.609 130.481,159.774 131.596 M251.516 131.645 C 251.325 132.313,251.109 133.784,251.037 134.913 C 250.910 136.891,250.915 136.909,251.177 135.387 C 251.326 134.518,251.602 133.108,251.791 132.254 C 252.203 130.383,252.003 129.939,251.516 131.645 M161.046 138.126 C 161.140 138.878,161.341 139.630,161.493 139.795 C 161.645 139.960,161.786 140.457,161.806 140.900 C 161.826 141.344,161.902 141.484,161.976 141.213 C 162.101 140.749,161.305 137.187,161.011 136.893 C 160.936 136.818,160.952 137.373,161.046 138.126 M250.379 137.994 C 250.277 138.472,250.061 139.189,249.899 139.588 C 249.737 139.987,249.611 140.556,249.617 140.852 C 249.636 141.645,250.417 139.702,250.640 138.310 C 250.858 136.944,250.656 136.699,250.379 137.994 M125.118 141.074 C 125.118 144.181,125.159 144.392,125.750 144.392 C 126.312 144.392,126.382 144.602,126.382 146.288 C 126.382 148.227,127.628 149.247,128.023 147.630 C 128.205 146.889,127.678 144.392,127.341 144.392 C 127.194 144.392,127.144 144.124,127.229 143.796 C 127.315 143.468,127.159 142.319,126.884 141.243 C 126.608 140.166,126.382 139.004,126.382 138.660 C 126.382 138.317,126.240 138.123,126.066 138.231 C 125.893 138.338,125.750 138.275,125.750 138.091 C 125.750 137.907,125.608 137.757,125.434 137.757 C 125.244 137.757,125.118 139.073,125.118 141.074 M285.940 138.125 C 285.940 138.328,285.836 138.390,285.710 138.264 C 285.359 137.913,284.433 143.199,284.736 143.822 C 284.903 144.166,284.849 144.449,284.584 144.612 C 284.101 144.908,282.997 148.714,283.266 149.150 C 283.367 149.314,283.313 149.447,283.147 149.447 C 282.758 149.447,282.026 152.464,282.264 153.084 C 282.856 154.625,284.044 153.568,284.044 151.501 C 284.044 149.658,284.109 149.447,284.676 149.447 C 285.255 149.447,285.308 149.236,285.308 146.919 C 285.308 144.632,285.366 144.392,285.919 144.392 C 286.788 144.392,286.973 143.473,286.719 140.425 C 286.543 138.307,285.940 136.528,285.940 138.125 M162.210 142.338 C 162.692 144.260,163.650 146.445,163.457 145.182 C 163.351 144.487,162.992 143.420,162.658 142.812 C 162.325 142.204,162.123 141.991,162.210 142.338 M248.874 142.981 C 248.581 143.595,248.347 144.412,248.355 144.797 C 248.368 145.443,248.897 144.348,249.505 142.417 C 249.800 141.479,249.434 141.806,248.874 142.981 M247.565 147.205 C 247.258 147.886,247.082 148.634,247.175 148.867 C 247.286 149.146,247.352 149.096,247.368 148.720 C 247.382 148.408,247.617 147.719,247.891 147.190 C 248.164 146.661,248.329 146.169,248.256 146.097 C 248.183 146.024,247.873 146.523,247.565 147.205 M163.834 146.865 C 163.952 147.096,164.164 147.665,164.304 148.129 C 164.508 148.806,164.564 148.845,164.586 148.323 C 164.601 147.965,164.389 147.396,164.116 147.059 C 163.842 146.721,163.715 146.634,163.834 146.865 M164.656 149.649 C 164.632 150.021,164.893 150.661,165.234 151.071 C 165.576 151.481,165.860 151.656,165.866 151.460 C 165.872 151.265,165.672 150.934,165.422 150.727 C 165.172 150.519,164.907 150.039,164.833 149.661 L 164.699 148.973 164.656 149.649 M128.023 149.719 C 127.184 150.251,127.669 153.397,128.590 153.397 C 129.568 153.397,129.738 152.698,129.215 150.831 C 128.811 149.387,128.704 149.287,128.023 149.719 M246.350 150.690 C 246.055 151.190,245.817 151.861,245.821 152.181 C 245.824 152.502,246.111 152.139,246.458 151.375 C 247.190 149.761,247.129 149.372,246.350 150.690 M165.890 152.303 C 165.906 152.849,167.108 155.128,167.127 154.648 C 167.135 154.468,166.856 153.762,166.509 153.081 C 166.161 152.399,165.883 152.049,165.890 152.303 M245.523 153.279 C 245.509 153.562,245.284 153.970,245.024 154.186 C 244.763 154.403,244.550 154.724,244.550 154.900 C 244.550 155.076,244.846 154.844,245.207 154.384 C 245.568 153.924,245.793 153.372,245.706 153.157 C 245.607 152.911,245.538 152.956,245.523 153.279 M129.037 154.311 C 128.547 155.589,129.054 157.186,129.983 157.292 L 130.899 157.397 130.697 155.923 C 130.419 153.899,129.527 153.033,129.037 154.311 M281.254 155.079 C 280.670 157.030,280.754 157.403,281.754 157.288 C 282.572 157.194,282.622 157.096,282.622 155.613 C 282.622 153.553,281.807 153.235,281.254 155.079 M167.177 155.638 C 167.157 156.002,167.461 156.571,167.852 156.902 C 168.557 157.499,168.558 157.499,168.042 156.872 C 167.756 156.524,167.453 155.956,167.368 155.608 C 167.220 155.000,167.213 155.002,167.177 155.638 M244.135 156.307 C 244.037 156.618,243.755 157.227,243.509 157.662 C 242.378 159.654,241.959 160.582,242.277 160.385 C 242.732 160.104,244.691 156.118,244.478 155.905 C 244.388 155.815,244.234 155.996,244.135 156.307 M130.174 159.339 C 130.174 160.615,130.283 160.909,130.806 161.046 C 131.301 161.175,131.438 161.477,131.438 162.438 C 131.438 163.754,132.707 164.298,133.140 163.168 C 133.390 162.518,132.809 161.453,132.205 161.453 C 131.833 161.453,131.802 161.321,132.062 160.836 C 132.542 159.939,131.607 157.688,130.780 157.751 C 130.271 157.789,130.174 158.045,130.174 159.339 M168.441 158.166 C 168.421 158.530,168.724 159.099,169.115 159.430 C 169.820 160.027,169.822 160.026,169.306 159.400 C 169.020 159.052,168.716 158.483,168.632 158.136 C 168.484 157.528,168.476 157.529,168.441 158.166 M279.863 158.907 C 279.181 160.480,279.404 161.137,280.619 161.137 C 281.543 161.137,281.549 161.126,281.454 159.482 C 281.332 157.364,280.639 157.114,279.863 158.907 M169.695 160.858 C 169.680 161.312,169.931 162.023,170.253 162.438 C 170.575 162.852,170.919 163.404,171.018 163.665 C 171.176 164.081,171.201 164.080,171.223 163.656 C 171.237 163.391,171.020 162.848,170.741 162.450 C 170.462 162.052,170.119 161.345,169.978 160.879 L 169.723 160.032 169.695 160.858 M241.094 162.400 C 240.671 163.263,240.422 164.066,240.541 164.185 C 240.661 164.305,240.758 164.176,240.758 163.898 C 240.758 163.621,240.965 163.188,241.217 162.936 C 241.633 162.520,242.248 160.815,241.977 160.826 C 241.915 160.829,241.518 161.537,241.094 162.400 M278.884 161.664 C 278.280 162.268,278.684 163.665,279.463 163.665 C 280.155 163.665,280.253 163.528,280.253 162.559 C 280.253 161.492,279.529 161.019,278.884 161.664 M132.706 165.792 C 132.702 167.306,132.770 167.462,133.515 167.649 C 134.174 167.814,134.295 167.992,134.148 168.578 C 133.881 169.641,134.247 170.300,135.105 170.300 C 135.984 170.300,136.169 169.009,135.447 167.922 C 135.219 167.579,134.839 166.689,134.602 165.943 C 134.290 164.960,134.041 164.637,133.699 164.769 C 133.439 164.869,133.110 164.768,132.968 164.545 C 132.817 164.306,132.709 164.818,132.706 165.792 M278.673 164.627 C 278.673 164.808,278.425 164.915,278.122 164.864 C 277.714 164.795,277.488 165.098,277.251 166.035 C 277.075 166.730,276.671 167.683,276.354 168.152 C 275.579 169.299,275.776 170.117,276.859 170.242 C 277.675 170.336,277.725 170.270,277.725 169.079 C 277.725 168.093,277.864 167.771,278.357 167.615 C 278.937 167.430,279.385 164.297,278.831 164.297 C 278.744 164.297,278.673 164.445,278.673 164.627 M172.512 167.207 C 172.512 167.464,172.796 167.932,173.144 168.246 C 173.491 168.561,173.776 168.712,173.776 168.582 C 173.776 168.452,173.491 167.985,173.144 167.543 C 172.737 167.026,172.512 166.906,172.512 167.207 M238.431 167.594 C 238.147 168.027,237.917 168.565,237.920 168.788 C 237.923 169.012,238.225 168.726,238.591 168.154 C 238.958 167.582,239.188 167.045,239.103 166.960 C 239.018 166.874,238.716 167.160,238.431 167.594 M174.138 169.510 C 174.424 169.858,174.728 170.427,174.812 170.774 C 174.960 171.382,174.968 171.381,175.003 170.744 C 175.023 170.380,174.720 169.811,174.329 169.480 C 173.624 168.883,173.622 168.884,174.138 169.510 M237.019 170.001 C 236.351 170.718,234.040 175.062,234.227 175.249 C 234.292 175.314,234.812 174.476,235.384 173.386 C 235.955 172.297,236.765 170.944,237.185 170.379 C 238.039 169.229,237.943 169.009,237.019 170.001 M135.506 171.090 C 135.484 171.351,135.448 171.811,135.427 172.113 C 135.382 172.737,136.395 173.052,136.882 172.565 C 137.406 172.041,136.886 170.616,136.171 170.616 C 135.827 170.616,135.527 170.829,135.506 171.090 M274.882 171.902 C 274.882 172.727,274.988 172.857,275.592 172.771 C 276.251 172.677,276.336 172.458,276.185 171.248 C 276.075 170.371,274.882 170.970,274.882 171.902 M175.077 171.757 C 175.326 172.339,177.371 175.025,177.481 174.915 C 177.633 174.763,175.736 171.957,175.298 171.686 C 175.111 171.571,175.012 171.602,175.077 171.757 M136.769 173.539 C 136.746 173.756,136.696 174.224,136.657 174.579 C 136.605 175.045,136.783 175.242,137.294 175.284 C 138.173 175.357,138.538 174.286,137.864 173.612 C 137.292 173.040,136.823 173.009,136.769 173.539 M271.787 177.804 C 269.803 181.874,269.356 183.502,270.326 183.130 C 270.601 183.025,270.885 182.938,270.958 182.938 C 271.031 182.938,271.090 182.725,271.090 182.464 C 271.090 182.201,271.371 181.991,271.722 181.991 C 272.247 181.991,272.354 181.780,272.354 180.749 C 272.354 179.701,272.465 179.491,273.065 179.406 C 273.680 179.319,273.772 179.124,273.748 177.962 C 273.724 176.758,273.797 176.619,274.459 176.619 C 275.237 176.619,275.399 175.981,274.998 174.487 C 274.573 172.900,273.775 173.724,271.787 177.804 M177.587 175.715 C 177.576 176.000,177.847 176.569,178.189 176.979 C 178.530 177.389,178.815 177.556,178.820 177.349 C 178.826 177.142,178.679 176.878,178.493 176.764 C 178.307 176.649,178.032 176.249,177.881 175.876 C 177.685 175.389,177.602 175.344,177.587 175.715 M233.381 176.512 C 233.060 176.942,232.860 177.357,232.936 177.433 C 233.155 177.653,234.200 176.373,234.077 176.035 C 234.015 175.867,233.702 176.082,233.381 176.512 M138.073 177.711 C 138.073 179.252,138.149 179.463,138.705 179.463 C 139.231 179.463,139.336 179.674,139.336 180.727 C 139.336 181.754,139.448 181.991,139.932 181.991 C 140.269 181.991,140.601 182.276,140.699 182.650 C 140.907 183.443,141.924 183.362,142.044 182.542 C 142.170 181.675,139.265 176.160,138.626 176.053 C 138.154 175.973,138.073 176.218,138.073 177.711 M178.831 178.125 C 178.831 178.319,178.979 178.569,179.160 178.681 C 179.442 178.855,180.200 179.937,181.510 182.032 C 182.644 183.846,184.038 185.735,184.157 185.617 C 184.335 185.439,182.595 182.863,182.070 182.528 C 181.853 182.389,181.675 182.086,181.675 181.855 C 181.675 181.624,181.035 180.611,180.253 179.604 C 179.471 178.597,178.831 177.931,178.831 178.125 M232.230 178.457 C 231.493 179.256,230.332 181.039,230.332 181.373 C 230.332 181.539,230.078 181.929,229.767 182.239 C 229.085 182.921,227.680 185.150,227.932 185.150 C 228.115 185.150,229.076 183.778,230.831 181.008 C 231.366 180.164,232.065 179.186,232.383 178.834 C 232.701 178.483,232.902 178.139,232.831 178.071 C 232.760 178.003,232.489 178.177,232.230 178.457 M141.864 184.834 C 141.864 185.682,141.967 185.811,142.575 185.725 C 143.096 185.651,143.286 185.413,143.286 184.834 C 143.286 184.256,143.096 184.017,142.575 183.943 C 141.967 183.857,141.864 183.986,141.864 184.834 M268.361 184.360 C 268.079 185.096,268.476 185.782,269.184 185.782 C 269.687 185.782,269.826 185.576,269.826 184.834 C 269.826 183.794,268.716 183.435,268.361 184.360 M226.464 187.049 C 225.814 187.881,225.181 188.824,225.059 189.146 C 224.937 189.468,224.011 190.772,223.003 192.043 C 221.994 193.314,221.169 194.482,221.169 194.638 C 221.169 194.795,220.876 195.247,220.519 195.644 C 218.778 197.578,217.378 199.450,217.378 199.846 C 217.378 200.087,217.185 200.398,216.949 200.537 C 216.494 200.805,213.905 203.916,213.407 204.791 C 213.081 205.366,211.612 207.146,209.558 209.456 C 208.819 210.286,208.215 211.086,208.215 211.232 C 208.215 212.893,205.496 213.660,204.409 212.304 C 202.484 209.907,200.868 207.951,199.769 206.693 C 199.114 205.943,198.488 205.087,198.379 204.791 C 198.269 204.496,197.771 203.814,197.273 203.276 C 196.051 201.956,194.313 199.763,194.313 199.541 C 194.313 199.443,193.460 198.310,192.417 197.024 C 191.374 195.738,190.521 194.580,190.521 194.452 C 190.521 194.223,188.151 191.166,187.208 190.179 C 186.945 189.904,186.730 189.567,186.730 189.430 C 186.730 188.998,185.009 186.452,184.604 186.284 C 184.390 186.195,184.683 186.792,185.255 187.611 C 185.827 188.430,186.395 189.313,186.518 189.573 C 186.751 190.068,187.479 191.061,189.937 194.236 C 190.746 195.280,191.586 196.470,191.804 196.882 C 192.023 197.294,192.465 197.817,192.787 198.046 C 193.110 198.275,193.659 199.021,194.007 199.705 C 194.356 200.389,194.771 200.948,194.930 200.948 C 195.088 200.948,195.310 201.237,195.422 201.590 C 195.534 201.943,196.183 202.747,196.865 203.378 C 197.547 204.009,198.104 204.702,198.104 204.919 C 198.104 205.136,198.709 205.966,199.447 206.763 C 201.267 208.728,202.567 210.336,203.282 211.505 C 204.993 214.305,207.065 214.247,208.539 211.358 C 208.887 210.677,209.519 209.892,209.944 209.613 C 210.370 209.334,210.795 208.862,210.890 208.564 C 210.984 208.267,211.630 207.432,212.324 206.709 C 213.018 205.987,213.586 205.258,213.586 205.090 C 213.586 204.922,214.097 204.243,214.721 203.581 C 215.345 202.919,216.007 202.092,216.193 201.742 C 216.378 201.392,216.792 200.920,217.112 200.693 C 217.432 200.466,217.694 200.093,217.694 199.864 C 217.694 199.635,218.191 198.904,218.799 198.240 C 219.408 197.576,219.905 196.940,219.905 196.826 C 219.905 196.712,220.296 196.194,220.774 195.676 C 221.252 195.158,221.889 194.320,222.189 193.813 C 222.489 193.306,223.235 192.251,223.848 191.469 C 224.460 190.687,225.058 189.834,225.176 189.573 C 225.468 188.932,226.551 187.361,227.299 186.494 C 227.636 186.104,227.852 185.729,227.779 185.661 C 227.706 185.593,227.114 186.218,226.464 187.049 M143.681 186.332 C 142.843 186.526,142.915 188.310,143.760 188.310 C 144.285 188.310,144.392 188.520,144.392 189.552 C 144.392 190.517,144.533 190.839,145.024 190.995 C 145.491 191.143,145.656 191.473,145.656 192.259 C 145.656 193.036,145.822 193.375,146.271 193.518 C 146.610 193.625,146.978 193.998,147.088 194.347 C 147.344 195.153,148.309 195.002,148.434 194.137 C 148.530 193.465,147.050 190.521,146.616 190.521 C 146.479 190.521,146.281 190.095,146.177 189.573 C 146.047 188.922,145.801 188.626,145.391 188.626 C 144.945 188.626,144.829 188.448,144.928 187.915 C 145.094 187.026,144.414 186.163,143.681 186.332 M267.180 186.582 C 266.747 187.712,266.958 188.310,267.793 188.310 C 268.516 188.310,268.592 188.200,268.503 187.285 C 268.395 186.168,267.518 185.702,267.180 186.582 M265.782 189.005 C 265.573 189.213,265.403 189.640,265.403 189.953 C 265.403 190.265,265.283 190.521,265.137 190.521 C 264.696 190.521,263.191 193.548,263.191 194.435 C 263.191 195.053,263.031 195.261,262.551 195.261 C 262.093 195.261,261.858 195.530,261.722 196.209 C 261.618 196.730,261.423 197.156,261.289 197.156 C 260.916 197.156,259.084 200.142,259.084 200.748 C 259.084 201.043,258.877 201.363,258.624 201.460 C 257.761 201.791,256.188 204.993,256.846 205.079 C 256.947 205.093,257.279 205.151,257.583 205.209 C 257.986 205.287,258.136 205.109,258.136 204.553 C 258.136 204.002,258.311 203.791,258.768 203.791 C 259.294 203.791,259.400 203.581,259.400 202.528 C 259.400 201.376,259.473 201.264,260.223 201.264 C 260.833 201.264,260.999 201.138,260.861 200.780 C 260.737 200.455,260.946 200.193,261.500 199.982 C 262.227 199.706,262.303 199.540,262.145 198.571 C 261.983 197.569,262.035 197.472,262.737 197.472 C 263.425 197.472,263.507 197.337,263.507 196.209 C 263.507 195.155,263.612 194.945,264.139 194.945 C 264.553 194.945,264.771 194.734,264.771 194.334 C 264.771 193.998,265.055 193.633,265.403 193.523 C 265.867 193.375,266.035 193.045,266.035 192.275 C 266.035 191.493,266.195 191.185,266.667 191.062 C 267.540 190.833,267.597 188.626,266.730 188.626 C 266.417 188.626,265.991 188.796,265.782 189.005 M148.355 195.848 C 148.092 196.677,148.468 197.472,149.122 197.472 C 149.559 197.472,149.669 197.724,149.641 198.657 C 149.611 199.659,149.715 199.858,150.316 199.943 C 150.773 200.008,151.027 200.262,151.027 200.654 C 151.027 201.053,151.245 201.264,151.659 201.264 C 152.185 201.264,152.291 201.474,152.291 202.528 C 152.291 203.566,152.400 203.791,152.901 203.791 C 153.293 203.791,153.547 204.046,153.612 204.502 C 153.667 204.893,153.926 205.213,154.186 205.213 C 154.509 205.213,154.692 205.604,154.761 206.433 C 154.832 207.300,155.029 207.697,155.442 207.805 C 155.762 207.889,156.095 208.229,156.181 208.560 C 156.268 208.892,156.566 209.163,156.842 209.163 C 157.210 209.163,157.346 209.470,157.346 210.298 C 157.346 211.168,157.494 211.472,157.978 211.599 C 158.325 211.690,158.610 211.964,158.610 212.209 C 158.610 212.454,158.963 212.788,159.394 212.952 C 159.915 213.150,160.115 213.412,159.992 213.734 C 159.854 214.092,160.020 214.218,160.630 214.218 C 161.424 214.218,161.901 212.890,161.216 212.586 C 161.086 212.528,160.423 211.663,159.742 210.664 C 159.062 209.664,158.309 208.847,158.069 208.847 C 157.830 208.847,157.669 208.669,157.712 208.452 C 157.838 207.816,156.767 206.053,155.918 205.496 C 155.487 205.214,155.134 204.743,155.134 204.450 C 155.134 203.739,153.526 201.287,153.109 201.362 C 152.928 201.395,152.729 201.092,152.668 200.688 C 152.607 200.285,152.213 199.447,151.792 198.827 C 151.371 198.207,151.027 197.563,151.027 197.394 C 151.027 197.226,150.828 197.165,150.584 197.259 C 150.299 197.368,150.169 197.240,150.220 196.898 C 150.417 195.571,148.742 194.629,148.355 195.848 M254.874 206.663 C 254.409 207.374,254.028 208.128,254.028 208.338 C 254.028 208.548,253.858 208.891,253.649 209.100 C 253.379 209.370,253.373 209.479,253.629 209.479 C 254.439 209.479,255.608 208.830,255.608 208.381 C 255.608 208.110,255.885 207.899,256.240 207.899 C 256.767 207.899,256.872 207.688,256.872 206.635 C 256.872 204.917,256.010 204.929,254.874 206.663 M251.564 211.438 C 251.355 211.646,251.185 212.073,251.185 212.385 C 251.185 212.698,251.007 212.960,250.790 212.967 C 250.376 212.979,248.341 215.556,248.341 216.067 C 248.341 216.229,248.127 216.444,247.864 216.545 C 247.602 216.646,247.406 216.839,247.428 216.974 C 247.530 217.598,247.360 218.010,246.998 218.010 C 246.781 218.010,246.106 218.757,245.498 219.669 C 244.889 220.581,244.214 221.441,243.997 221.580 C 243.780 221.719,243.602 222.043,243.602 222.300 C 243.602 222.558,243.389 222.850,243.128 222.951 C 242.387 223.235,242.519 224.645,243.286 224.645 C 243.707 224.645,243.918 224.434,243.918 224.013 C 243.918 223.591,244.128 223.381,244.550 223.381 C 244.971 223.381,245.182 223.170,245.182 222.749 C 245.182 222.328,245.392 222.117,245.814 222.117 C 246.227 222.117,246.445 221.906,246.445 221.507 C 246.445 221.115,246.700 220.861,247.156 220.796 C 247.765 220.710,247.864 220.510,247.844 219.412 C 247.825 218.312,247.915 218.132,248.476 218.148 C 248.957 218.162,249.124 217.979,249.106 217.457 C 249.087 216.916,249.257 216.746,249.817 216.746 C 250.342 216.746,250.553 216.565,250.553 216.114 C 250.553 215.692,250.764 215.482,251.185 215.482 C 251.708 215.482,251.817 215.271,251.817 214.255 C 251.817 213.294,251.954 212.992,252.449 212.863 C 253.291 212.642,253.347 211.058,252.512 211.058 C 252.199 211.058,251.773 211.229,251.564 211.438 M161.329 215.034 C 160.948 216.027,161.124 216.746,161.747 216.746 C 162.139 216.746,162.393 217.000,162.458 217.457 C 162.523 217.913,162.813 218.204,163.270 218.268 C 163.714 218.331,163.981 218.588,163.981 218.951 C 163.981 219.780,165.061 219.547,165.188 218.692 C 165.255 218.240,165.122 218.009,164.793 218.009 C 164.520 218.009,164.297 217.768,164.297 217.474 C 164.297 215.863,161.799 213.809,161.329 215.034 M165.245 220.853 C 165.245 221.906,165.350 222.117,165.877 222.117 C 166.298 222.117,166.509 222.328,166.509 222.749 C 166.509 223.170,166.719 223.381,167.141 223.381 C 167.562 223.381,167.773 223.591,167.773 224.013 C 167.773 224.434,167.983 224.645,168.404 224.645 C 168.868 224.645,169.036 224.434,169.036 223.855 C 169.036 223.420,168.890 223.065,168.710 223.065 C 168.531 223.065,168.282 222.816,168.157 222.512 C 167.019 219.737,165.245 218.726,165.245 220.853 M169.431 224.870 C 168.725 225.126,168.936 227.172,169.668 227.172 C 170.090 227.172,170.300 227.383,170.300 227.804 C 170.300 228.225,170.511 228.436,170.932 228.436 C 171.353 228.436,171.564 228.647,171.564 229.068 C 171.564 229.489,171.775 229.700,172.196 229.700 C 172.762 229.700,172.976 230.028,172.865 230.727 C 172.845 230.857,172.934 230.976,173.065 230.990 C 173.195 231.004,173.602 231.050,173.968 231.092 C 174.741 231.180,174.662 230.326,173.805 229.334 C 173.528 229.014,173.053 228.468,172.749 228.120 C 172.445 227.773,172.196 227.402,172.196 227.297 C 172.196 226.542,170.040 224.650,169.431 224.870 M241.589 224.894 C 241.360 225.265,242.261 226.091,242.564 225.788 C 242.680 225.672,242.551 225.354,242.278 225.081 C 241.982 224.785,241.703 224.710,241.589 224.894 M239.240 227.458 C 238.685 228.149,238.231 228.850,238.231 229.016 C 238.231 229.181,238.017 229.398,237.757 229.498 C 237.239 229.697,237.109 230.819,237.570 231.104 C 238.071 231.413,238.863 230.919,238.863 230.298 C 238.863 229.910,239.085 229.700,239.494 229.700 C 239.916 229.700,240.126 229.489,240.126 229.068 C 240.126 228.640,240.337 228.436,240.778 228.436 C 241.323 228.436,241.414 228.268,241.331 227.412 C 241.191 225.959,240.432 225.975,239.240 227.458 M234.564 233.237 C 233.559 234.506,232.551 235.659,232.324 235.798 C 232.097 235.937,231.912 236.252,231.912 236.497 C 231.912 236.743,231.629 237.096,231.283 237.281 C 230.937 237.466,230.669 237.720,230.688 237.845 C 230.786 238.492,230.599 238.863,230.174 238.863 C 229.910 238.863,229.700 239.143,229.700 239.494 C 229.700 239.946,229.903 240.120,230.411 240.104 C 231.089 240.083,231.093 240.070,230.490 239.810 C 229.949 239.578,229.938 239.536,230.411 239.517 C 230.715 239.504,230.964 239.352,230.964 239.179 C 230.964 239.005,231.248 238.863,231.596 238.863 C 232.017 238.863,232.227 238.652,232.227 238.231 C 232.227 237.800,232.438 237.599,232.889 237.599 C 233.285 237.599,233.617 237.345,233.716 236.967 C 233.807 236.619,234.068 236.335,234.297 236.335 C 234.525 236.335,234.803 236.051,234.913 235.703 C 235.023 235.355,235.308 235.071,235.545 235.071 C 235.782 235.071,236.064 234.794,236.172 234.455 C 236.279 234.117,236.652 233.749,237.000 233.639 C 237.509 233.477,237.615 233.209,237.537 232.282 C 237.380 230.395,236.619 230.639,234.564 233.237 M176.058 232.895 C 174.988 233.291,175.216 235.071,176.337 235.071 C 176.725 235.071,176.935 235.294,176.935 235.703 C 176.935 236.124,177.146 236.335,177.567 236.335 C 177.988 236.335,178.199 236.546,178.199 236.967 C 178.199 237.388,178.410 237.599,178.831 237.599 C 179.252 237.599,179.463 237.809,179.463 238.231 C 179.463 238.613,179.674 238.863,179.995 238.863 C 180.288 238.863,180.857 239.172,181.259 239.550 C 182.231 240.463,182.305 239.524,181.344 238.468 C 180.988 238.077,180.491 237.532,180.238 237.256 C 179.986 236.981,179.779 236.646,179.779 236.511 C 179.779 236.376,179.497 235.962,179.153 235.590 C 178.809 235.218,178.130 234.401,177.645 233.774 C 176.912 232.829,176.641 232.679,176.058 232.895 M182.385 240.336 C 181.256 240.791,181.954 242.654,183.254 242.654 C 184.758 242.654,184.969 241.924,183.787 240.813 C 183.015 240.089,183.006 240.085,182.385 240.336 M225.382 243.831 C 211.917 259.352,200.490 259.705,187.392 245.005 C 185.551 242.938,184.518 242.607,184.518 244.082 C 184.518 244.862,184.684 245.192,185.150 245.340 C 185.498 245.450,185.782 245.734,185.782 245.972 C 185.782 246.209,186.059 246.491,186.398 246.598 C 186.736 246.706,187.101 247.071,187.209 247.410 C 187.316 247.748,187.598 248.025,187.836 248.025 C 188.073 248.025,188.357 248.310,188.468 248.657 C 188.578 249.005,188.862 249.289,189.100 249.289 C 189.337 249.289,189.621 249.573,189.731 249.921 C 189.842 250.269,190.207 250.553,190.543 250.553 C 190.943 250.553,191.153 250.771,191.153 251.185 C 191.153 251.606,191.364 251.817,191.785 251.817 C 192.206 251.817,192.417 252.027,192.417 252.449 C 192.417 252.870,192.628 253.081,193.049 253.081 C 193.470 253.081,193.681 253.291,193.681 253.712 C 193.681 254.239,193.892 254.344,194.945 254.344 C 195.998 254.344,196.209 254.450,196.209 254.976 C 196.209 255.503,196.419 255.608,197.472 255.608 C 198.511 255.608,198.736 255.717,198.736 256.219 C 198.736 257.058,199.702 257.294,202.090 257.038 L 204.107 256.822 204.107 257.653 C 204.107 258.859,207.673 258.774,207.844 257.563 C 207.943 256.871,208.038 256.844,209.655 257.046 C 211.855 257.321,212.954 257.050,212.954 256.234 C 212.954 255.715,213.169 255.608,214.218 255.608 C 215.271 255.608,215.482 255.503,215.482 254.976 C 215.482 254.450,215.692 254.344,216.746 254.344 C 217.799 254.344,218.009 254.239,218.009 253.712 C 218.009 253.291,218.220 253.081,218.641 253.081 C 219.063 253.081,219.273 252.870,219.273 252.449 C 219.273 252.018,219.484 251.817,219.935 251.817 C 220.331 251.817,220.663 251.563,220.762 251.185 C 220.852 250.837,221.114 250.553,221.343 250.553 C 221.571 250.553,221.849 250.269,221.959 249.921 C 222.069 249.573,222.354 249.289,222.591 249.289 C 222.828 249.289,223.112 249.005,223.223 248.657 C 223.333 248.310,223.698 248.025,224.034 248.025 C 224.427 248.025,224.645 247.808,224.645 247.415 C 224.645 247.079,224.929 246.714,225.276 246.603 C 225.624 246.493,225.908 246.216,225.908 245.987 C 225.908 245.758,226.193 245.497,226.540 245.406 C 226.888 245.315,227.172 245.031,227.172 244.774 C 227.172 244.518,227.457 244.233,227.804 244.142 C 228.288 244.016,228.436 243.711,228.436 242.842 C 228.436 241.067,227.524 241.362,225.382 243.831 " stroke="none" fill="#a4a4a4" fill-rule="evenodd"></path><path id="path4" d="M200.000 53.604 C 199.392 53.663,197.259 53.862,195.261 54.046 C 146.318 58.563,120.122 91.262,127.992 138.013 C 129.514 147.053,133.379 159.582,137.169 167.758 C 137.697 168.895,138.487 170.677,138.925 171.716 C 144.112 184.017,154.884 201.770,166.806 217.665 C 168.815 220.342,170.939 223.175,171.527 223.959 C 176.459 230.535,190.601 246.534,193.748 249.098 C 201.996 255.817,210.093 255.696,218.450 248.728 C 222.732 245.158,238.185 226.963,246.955 215.166 C 265.185 190.643,278.227 164.063,283.078 141.548 C 286.556 125.409,285.164 105.682,279.712 93.839 C 279.272 92.883,278.648 91.491,278.324 90.746 C 273.322 79.206,259.304 66.624,244.983 60.820 C 243.442 60.195,241.896 59.552,241.548 59.390 C 233.711 55.734,210.885 52.556,200.000 53.604 M213.428 56.245 C 224.317 57.249,235.161 59.437,240.988 61.806 C 277.287 76.563,290.532 108.230,278.182 150.733 C 273.995 165.143,264.576 184.542,253.674 201.206 C 251.237 204.931,244.896 213.855,243.325 215.772 C 242.695 216.539,242.038 217.407,241.864 217.700 C 241.690 217.993,241.088 218.787,240.525 219.464 C 239.963 220.141,238.186 222.340,236.576 224.350 C 225.608 238.049,216.466 247.919,213.198 249.592 C 206.200 253.173,199.600 251.789,193.484 245.458 C 180.239 231.746,161.636 207.740,153.526 193.896 C 152.933 192.884,152.007 191.320,151.467 190.420 C 131.937 157.854,125.115 127.595,131.654 102.528 C 136.280 84.788,148.726 71.300,168.330 62.778 C 179.441 57.949,199.846 54.993,213.428 56.245 M198.048 85.356 C 197.644 85.469,196.739 85.575,196.035 85.593 C 195.331 85.610,194.620 85.742,194.455 85.887 C 194.290 86.032,192.804 86.331,191.153 86.552 C 189.502 86.774,187.989 87.087,187.790 87.248 C 187.591 87.410,186.667 87.631,185.736 87.739 C 184.620 87.870,183.904 88.135,183.631 88.518 C 183.379 88.874,182.827 89.100,182.210 89.102 C 181.655 89.103,180.774 89.386,180.253 89.731 C 179.731 90.077,178.919 90.360,178.447 90.361 C 177.914 90.363,177.461 90.603,177.251 90.995 C 177.030 91.408,176.590 91.627,175.979 91.627 C 175.387 91.627,174.900 91.859,174.650 92.259 C 174.433 92.607,174.027 92.891,173.749 92.891 C 173.470 92.891,172.984 93.175,172.670 93.523 C 172.355 93.870,171.932 94.155,171.730 94.155 C 171.528 94.155,171.053 94.510,170.675 94.945 C 170.297 95.379,169.835 95.735,169.648 95.735 C 169.031 95.735,165.901 98.717,165.502 99.684 C 165.288 100.205,164.573 101.138,163.915 101.756 C 163.160 102.464,162.717 103.167,162.717 103.655 C 162.717 104.087,162.438 104.604,162.085 104.824 C 161.702 105.063,161.453 105.561,161.453 106.088 C 161.453 106.615,161.205 107.112,160.821 107.352 C 160.411 107.608,160.190 108.088,160.190 108.721 C 160.190 109.257,159.905 110.056,159.558 110.498 C 159.049 111.145,158.926 111.780,158.926 113.748 C 158.926 115.537,158.798 116.300,158.452 116.588 C 157.789 117.138,157.751 126.433,158.409 126.979 C 158.715 127.233,158.885 128.487,158.993 131.284 C 159.111 134.357,159.260 135.358,159.667 135.807 C 160.005 136.180,160.190 136.937,160.190 137.944 C 160.190 138.858,160.433 139.960,160.776 140.605 C 161.099 141.211,161.462 142.370,161.582 143.181 C 161.702 143.992,161.989 144.812,162.219 145.003 C 162.449 145.194,162.729 146.044,162.842 146.892 C 162.954 147.739,163.239 148.592,163.474 148.788 C 163.710 148.983,163.990 149.694,164.098 150.366 C 164.205 151.039,164.508 151.672,164.769 151.772 C 165.031 151.873,165.245 152.285,165.245 152.688 C 165.245 153.091,165.529 153.979,165.877 154.660 C 166.224 155.342,166.509 156.064,166.509 156.264 C 166.509 156.465,166.773 156.968,167.097 157.382 C 167.421 157.797,167.793 158.491,167.924 158.926 C 168.056 159.360,168.348 159.929,168.573 160.190 C 168.798 160.450,169.083 161.201,169.204 161.857 C 169.330 162.533,169.684 163.188,170.021 163.369 C 170.387 163.565,170.616 164.029,170.616 164.575 C 170.616 165.063,170.900 165.720,171.248 166.035 C 171.596 166.349,171.880 166.918,171.880 167.299 C 171.880 167.679,172.164 168.248,172.512 168.562 C 172.859 168.877,173.147 169.290,173.151 169.480 C 173.155 169.671,173.436 170.182,173.776 170.616 C 174.115 171.051,174.397 171.612,174.401 171.863 C 174.408 172.375,175.948 174.755,176.503 175.114 C 176.701 175.242,176.954 175.832,177.066 176.426 C 177.177 177.020,177.478 177.586,177.734 177.685 C 177.990 177.783,178.199 178.026,178.199 178.224 C 178.199 178.701,180.133 181.675,180.443 181.675 C 180.575 181.675,180.776 181.963,180.887 182.315 C 181.169 183.203,182.679 185.466,182.990 185.466 C 183.131 185.466,183.465 185.928,183.732 186.493 C 184.565 188.249,185.085 189.038,185.601 189.327 C 185.874 189.480,186.098 189.824,186.098 190.092 C 186.098 190.565,186.763 191.552,188.231 193.261 C 188.622 193.717,188.942 194.259,188.942 194.467 C 188.942 194.674,189.516 195.471,190.218 196.237 C 192.084 198.275,192.425 198.706,192.670 199.338 C 192.925 199.997,194.515 201.957,196.445 203.993 C 197.184 204.771,197.788 205.590,197.788 205.811 C 197.788 206.033,198.357 206.830,199.052 207.583 C 199.747 208.336,200.318 209.035,200.321 209.136 C 200.324 209.238,200.893 209.879,201.585 210.561 C 202.277 211.243,202.844 211.996,202.844 212.235 C 202.844 213.151,204.461 214.218,205.848 214.218 C 207.183 214.218,208.847 213.094,208.847 212.191 C 208.847 211.993,209.096 211.604,209.400 211.327 C 209.704 211.050,210.592 210.073,211.374 209.156 C 212.156 208.239,212.953 207.328,213.145 207.131 C 213.337 206.934,213.700 206.379,213.952 205.898 C 214.385 205.071,214.953 204.371,217.773 201.182 C 218.424 200.445,218.957 199.610,218.957 199.326 C 218.957 199.041,219.313 198.576,219.747 198.291 C 220.182 198.007,220.537 197.598,220.537 197.384 C 220.537 197.169,221.030 196.542,221.632 195.989 C 222.234 195.437,222.818 194.620,222.930 194.175 C 223.042 193.729,223.250 193.365,223.393 193.365 C 223.752 193.365,225.592 190.590,225.592 190.047 C 225.592 189.804,225.795 189.491,226.043 189.352 C 226.595 189.043,227.980 187.037,228.268 186.131 C 228.384 185.765,228.587 185.466,228.720 185.466 C 229.026 185.466,230.964 182.495,230.964 182.025 C 230.964 181.832,231.082 181.675,231.226 181.675 C 231.521 181.675,233.491 178.742,233.491 178.304 C 233.491 178.150,233.776 177.780,234.123 177.482 C 234.471 177.185,234.755 176.592,234.755 176.164 C 234.755 175.737,234.933 175.273,235.151 175.134 C 235.710 174.777,237.283 172.401,237.283 171.913 C 237.283 171.689,237.567 171.144,237.915 170.702 C 238.262 170.260,238.547 169.727,238.547 169.517 C 238.547 169.306,238.831 168.877,239.179 168.562 C 239.526 168.248,239.810 167.679,239.810 167.299 C 239.810 166.918,240.095 166.349,240.442 166.035 C 240.790 165.720,241.074 165.220,241.074 164.923 C 241.074 164.625,241.350 164.032,241.687 163.604 C 242.023 163.176,242.399 162.425,242.522 161.936 C 242.645 161.446,243.009 160.782,243.332 160.460 C 243.654 160.137,243.918 159.589,243.918 159.242 C 243.918 158.894,244.202 158.325,244.550 157.978 C 244.897 157.630,245.182 156.977,245.182 156.527 C 245.182 156.076,245.466 155.346,245.814 154.905 C 246.161 154.463,246.445 153.883,246.445 153.616 C 246.445 153.349,246.671 152.881,246.946 152.577 C 247.222 152.273,247.525 151.408,247.620 150.656 C 247.715 149.904,247.999 149.051,248.252 148.761 C 248.504 148.470,248.793 147.617,248.894 146.866 C 248.995 146.115,249.338 145.073,249.656 144.551 C 249.974 144.029,250.235 143.244,250.236 142.807 C 250.236 142.370,250.521 141.482,250.869 140.834 C 251.248 140.126,251.501 139.051,251.501 138.144 C 251.501 137.266,251.714 136.329,252.010 135.906 C 252.366 135.399,252.570 134.178,252.689 131.863 C 252.814 129.413,252.990 128.414,253.364 128.040 C 254.149 127.254,254.108 116.457,253.315 115.333 C 252.969 114.842,252.764 113.961,252.763 112.963 C 252.761 111.909,252.549 111.055,252.133 110.427 C 251.787 109.905,251.504 109.115,251.503 108.670 C 251.500 107.653,249.644 103.851,248.363 102.239 C 247.829 101.568,247.393 100.892,247.393 100.736 C 247.393 100.280,242.907 95.951,241.719 95.261 C 239.840 94.169,239.514 93.955,238.919 93.416 C 238.600 93.127,238.135 92.891,237.887 92.891 C 237.638 92.891,237.257 92.607,237.040 92.259 C 236.801 91.876,236.303 91.627,235.776 91.627 C 235.249 91.627,234.752 91.378,234.513 90.995 C 234.275 90.614,233.774 90.363,233.252 90.361 C 232.775 90.360,231.959 90.077,231.438 89.731 C 230.916 89.386,230.047 89.103,229.505 89.102 C 228.964 89.100,228.160 88.815,227.718 88.468 C 227.276 88.120,226.510 87.835,226.017 87.834 C 225.523 87.833,224.718 87.623,224.229 87.368 C 223.739 87.112,221.749 86.740,219.805 86.541 C 217.862 86.341,216.085 86.028,215.856 85.845 C 215.135 85.268,199.860 84.848,198.048 85.356 M213.760 86.216 C 213.925 86.368,215.615 86.661,217.516 86.869 C 219.417 87.076,221.194 87.358,221.465 87.497 C 221.737 87.635,222.696 87.831,223.597 87.933 C 224.498 88.034,225.876 88.409,226.660 88.766 C 227.444 89.123,228.342 89.420,228.656 89.426 C 228.969 89.432,229.795 89.712,230.490 90.047 C 231.185 90.383,231.980 90.663,232.256 90.669 C 232.775 90.680,235.774 92.153,237.441 93.217 C 237.962 93.549,238.922 94.112,239.573 94.468 C 240.225 94.824,240.758 95.255,240.758 95.425 C 240.758 95.595,240.949 95.735,241.182 95.735 C 243.056 95.735,251.153 106.815,251.179 109.415 C 251.182 109.728,251.376 110.368,251.609 110.837 C 251.843 111.306,252.196 112.899,252.395 114.376 C 252.593 115.853,252.842 117.559,252.947 118.167 C 253.342 120.443,253.441 123.657,253.137 124.297 C 252.964 124.662,252.657 126.806,252.455 129.062 C 252.254 131.318,251.979 133.308,251.844 133.485 C 251.710 133.662,251.408 135.087,251.173 136.651 C 250.938 138.215,250.561 139.850,250.335 140.284 C 250.110 140.719,249.919 141.359,249.912 141.706 C 249.905 142.054,249.625 142.907,249.289 143.602 C 248.953 144.297,248.674 145.129,248.668 145.450 C 248.662 145.771,248.445 146.482,248.185 147.030 C 247.926 147.577,247.513 148.736,247.267 149.605 C 246.598 151.970,245.816 153.970,245.350 154.502 C 245.122 154.763,244.831 155.474,244.702 156.082 C 244.573 156.690,244.202 157.527,243.877 157.942 C 243.552 158.356,243.286 158.902,243.286 159.155 C 243.286 159.409,243.002 159.977,242.654 160.419 C 242.306 160.861,242.022 161.470,242.022 161.773 C 242.022 162.076,241.810 162.500,241.550 162.715 C 241.291 162.931,240.930 163.659,240.748 164.334 C 240.567 165.009,240.287 165.561,240.127 165.561 C 239.967 165.561,239.665 166.130,239.457 166.825 C 239.249 167.520,238.968 168.088,238.834 168.088 C 238.699 168.088,238.499 168.372,238.389 168.719 C 238.279 169.065,238.000 169.538,237.768 169.770 C 237.537 170.001,236.890 171.104,236.332 172.220 C 235.773 173.336,235.137 174.463,234.919 174.724 C 234.700 174.984,234.396 175.558,234.243 175.999 C 234.090 176.440,232.117 179.546,229.858 182.901 C 227.599 186.257,225.606 189.237,225.431 189.525 C 224.452 191.125,223.776 192.066,222.842 193.129 C 222.270 193.781,221.801 194.487,221.801 194.698 C 221.801 194.908,221.523 195.370,221.183 195.723 C 219.886 197.071,218.401 198.925,218.008 199.684 C 217.783 200.118,217.332 200.758,217.005 201.106 C 215.526 202.678,213.586 205.104,213.586 205.381 C 213.586 205.549,213.017 206.273,212.322 206.989 C 211.627 207.705,211.058 208.393,211.058 208.519 C 211.058 208.644,210.525 209.317,209.874 210.015 C 209.222 210.713,208.402 211.766,208.053 212.356 C 207.076 214.001,205.186 214.060,203.916 212.485 C 203.413 211.862,202.468 210.737,201.817 209.985 C 201.165 209.233,200.632 208.522,200.632 208.404 C 200.632 208.287,200.063 207.599,199.368 206.875 C 198.673 206.152,198.104 205.451,198.104 205.318 C 198.104 205.114,197.046 203.792,194.803 201.196 C 194.545 200.897,193.973 200.115,193.532 199.458 C 193.091 198.800,192.234 197.622,191.627 196.840 C 191.021 196.058,190.168 194.921,189.731 194.313 C 189.295 193.705,188.442 192.567,187.835 191.785 C 187.229 191.003,186.604 190.073,186.448 189.718 C 186.292 189.364,185.936 188.884,185.657 188.653 C 185.378 188.422,185.150 188.058,185.150 187.846 C 185.150 187.634,184.866 187.202,184.518 186.888 C 184.171 186.573,183.886 186.147,183.886 185.940 C 183.886 185.733,183.602 185.307,183.254 184.992 C 182.907 184.678,182.622 184.246,182.622 184.034 C 182.622 183.821,182.394 183.458,182.116 183.227 C 181.837 182.996,181.484 182.516,181.331 182.161 C 181.179 181.807,180.286 180.437,179.346 179.117 C 178.407 177.798,177.538 176.260,177.415 175.699 C 177.292 175.139,176.997 174.606,176.759 174.515 C 176.522 174.424,176.247 174.095,176.148 173.784 C 176.049 173.473,175.688 172.896,175.346 172.501 C 175.004 172.106,174.724 171.546,174.724 171.257 C 174.724 170.967,174.155 169.968,173.460 169.036 C 172.765 168.105,172.195 167.119,172.194 166.847 C 172.193 166.574,171.909 165.924,171.564 165.403 C 171.219 164.882,170.935 164.228,170.934 163.951 C 170.933 163.674,170.665 163.205,170.338 162.910 C 170.012 162.614,169.657 161.828,169.551 161.164 C 169.445 160.499,169.153 159.785,168.901 159.577 C 168.650 159.369,168.356 158.791,168.246 158.294 C 168.137 157.797,167.853 157.228,167.615 157.030 C 167.376 156.832,167.083 156.218,166.963 155.665 C 166.842 155.113,166.549 154.380,166.310 154.037 C 166.072 153.694,165.877 153.180,165.877 152.895 C 165.877 152.609,165.604 152.029,165.271 151.606 C 164.938 151.182,164.563 150.274,164.438 149.588 C 164.314 148.902,163.946 147.814,163.622 147.169 C 163.298 146.524,163.028 145.742,163.022 145.431 C 163.017 145.120,162.737 144.297,162.401 143.602 C 162.066 142.907,161.786 142.075,161.780 141.754 C 161.774 141.433,161.573 140.722,161.334 140.174 C 161.095 139.627,160.721 137.970,160.503 136.493 C 160.285 135.016,159.992 133.661,159.851 133.482 C 158.604 131.893,158.763 113.108,160.041 111.059 C 160.257 110.711,160.525 109.908,160.636 109.273 C 160.747 108.639,161.039 107.954,161.283 107.751 C 161.528 107.548,161.818 106.974,161.927 106.477 C 162.037 105.980,162.316 105.415,162.549 105.222 C 162.781 105.029,163.067 104.491,163.183 104.026 C 163.300 103.560,163.954 102.574,164.636 101.834 C 165.319 101.094,165.877 100.365,165.877 100.214 C 165.877 99.825,168.936 96.682,169.315 96.682 C 169.488 96.682,170.264 96.149,171.040 95.498 C 172.711 94.093,176.085 91.943,176.618 91.943 C 176.825 91.943,177.355 91.659,177.797 91.311 C 178.239 90.964,178.901 90.674,179.269 90.669 C 179.636 90.663,180.506 90.383,181.201 90.047 C 181.896 89.712,182.703 89.432,182.995 89.426 C 183.287 89.420,183.713 89.230,183.943 89.004 C 184.172 88.778,185.427 88.415,186.730 88.198 C 188.033 87.982,189.526 87.648,190.047 87.456 C 190.569 87.265,192.417 86.977,194.155 86.816 C 195.893 86.655,197.528 86.400,197.788 86.250 C 198.412 85.891,213.371 85.859,213.760 86.216 " stroke="none" fill="#667777" fill-rule="evenodd"></path></g></svg>