<?xml version="1.0" encoding="UTF-8" standalone="no"?>
<svg
   xmlns:dc="http://purl.org/dc/elements/1.1/"
   xmlns:cc="http://creativecommons.org/ns#"
   xmlns:rdf="http://www.w3.org/1999/02/22-rdf-syntax-ns#"
   xmlns:svg="http://www.w3.org/2000/svg"
   xmlns="http://www.w3.org/2000/svg"
   viewBox="0 0 2560 1440"
   height="1440"
   width="2560"
   xml:space="preserve"
   id="svg2"
   version="1.1"><metadata
     id="metadata8"><rdf:RDF><cc:Work
         rdf:about=""><dc:format>image/svg+xml</dc:format><dc:type
           rdf:resource="http://purl.org/dc/dcmitype/StillImage" /></cc:Work></rdf:RDF></metadata><defs
     id="defs6"><clipPath
       id="clipPath18"
       clipPathUnits="userSpaceOnUse"><path
         id="path16"
         d="M 0,1080 H 1920 V 0 H 0 Z" /></clipPath></defs><g
     transform="matrix(1.3333333,0,0,-1.3333333,0,1440)"
     id="g10"><g
       id="g12"><g
         clip-path="url(#clipPath18)"
         id="g14"><g
           transform="translate(799.3068,629.6958)"
           id="g20"><path
             id="path22"
             style="fill:#404040;fill-opacity:1;fill-rule:nonzero;stroke:none"
             d="m 0,0 c 15.064,-0.396 30.67,-3.698 43.764,-14.632 10.524,-8.788 16.151,-20.183 17.456,-33.754 1.642,-17.071 -3.447,-32.69 -10.68,-47.752 -9.523,-19.831 -22.76,-37.107 -37.402,-53.376 -1.15,-1.279 -2.303,-2.558 -3.497,-3.796 -6.632,-6.874 -15.392,-6.903 -21.976,0.027 -5.676,5.975 -11.07,12.207 -16.173,18.681 -12.084,15.331 -22.719,31.526 -29.66,49.916 -3.402,9.014 -5.775,18.302 -6.074,27.931 -0.699,22.557 9.772,42.199 34.36,51.766 C -20.787,-1.45 -11.217,-0.088 0,0" /></g><g
           transform="translate(799.3068,629.6958)"
           id="g24"><path
             id="path26"
             style="fill:none;stroke:#28dc74;stroke-width:1;stroke-linecap:butt;stroke-linejoin:miter;stroke-miterlimit:10;stroke-dasharray:none;stroke-opacity:1"
             d="m 0,0 c 15.064,-0.396 30.67,-3.698 43.764,-14.632 10.524,-8.788 16.151,-20.183 17.456,-33.754 1.642,-17.071 -3.447,-32.69 -10.68,-47.752 -9.523,-19.831 -22.76,-37.107 -37.402,-53.376 -1.15,-1.279 -2.303,-2.558 -3.497,-3.796 -6.632,-6.874 -15.392,-6.903 -21.976,0.027 -5.676,5.975 -11.07,12.207 -16.173,18.681 -12.084,15.331 -22.719,31.526 -29.66,49.916 -3.402,9.014 -5.775,18.302 -6.074,27.931 -0.699,22.557 9.772,42.199 34.36,51.766 C -20.787,-1.45 -11.217,-0.088 0,0 Z" /></g><g
           transform="translate(797.5439,603.0224)"
           id="g28"><path
             id="path30"
             style="fill:#28dc00;fill-opacity:1;fill-rule:nonzero;stroke:none"
             d="m 0,0 c 8.98,-0.174 17.019,-1.495 24.428,-5.591 9.945,-5.497 13.127,-14.949 12.177,-25.237 -1.5,-16.253 -8.982,-30.15 -17.496,-43.595 -5.186,-8.188 -11.145,-15.818 -17.342,-23.263 -0.787,-0.945 -1.381,-1.608 -2.486,-0.268 -13.006,15.765 -24.953,32.188 -31.707,51.761 -2.546,7.379 -4.162,14.911 -3.152,22.858 1.162,9.148 6.246,15.112 14.345,18.948 C -14.287,-1.098 -6.895,-0.187 0,0" /></g><g
           transform="translate(797.5439,603.0224)"
           id="g32"><path
             id="path34"
             style="fill:none;stroke:#28dc74;stroke-width:1;stroke-linecap:butt;stroke-linejoin:miter;stroke-miterlimit:10;stroke-dasharray:none;stroke-opacity:1"
             d="m 0,0 c 8.98,-0.174 17.019,-1.495 24.428,-5.591 9.945,-5.497 13.127,-14.949 12.177,-25.237 -1.5,-16.253 -8.982,-30.15 -17.496,-43.595 -5.186,-8.188 -11.145,-15.818 -17.342,-23.263 -0.787,-0.945 -1.381,-1.608 -2.486,-0.268 -13.006,15.765 -24.953,32.188 -31.707,51.761 -2.546,7.379 -4.162,14.911 -3.152,22.858 1.162,9.148 6.246,15.112 14.345,18.948 C -14.287,-1.098 -6.895,-0.187 0,0 Z" /></g></g></g></g></svg>