<?xml version="1.0" encoding="UTF-8"?>
<!DOCTYPE svg PUBLIC "-//W3C//DTD SVG 1.1//EN" "http://www.w3.org/Graphics/SVG/1.1/DTD/svg11.dtd">
<svg xmlns="http://www.w3.org/2000/svg" version="1.1" width="900px" height="950px" style="shape-rendering:geometricPrecision; text-rendering:geometricPrecision; image-rendering:optimizeQuality; fill-rule:evenodd; clip-rule:evenodd" xmlns:xlink="http://www.w3.org/1999/xlink">
<g><path style="opacity:0.004" fill="#fdfffd" d="M 882.5,-0.5 C 888.167,-0.5 893.833,-0.5 899.5,-0.5C 899.5,0.833333 899.5,2.16667 899.5,3.5C 897.067,3.7856 897.067,4.45227 899.5,5.5C 899.5,171.833 899.5,338.167 899.5,504.5C 898.883,504.389 898.383,504.056 898,503.5C 897.667,501.5 897.333,499.5 897,497.5C 896.896,488.06 895.896,478.727 894,469.5C 892.667,468.167 891.333,468.167 890,469.5C 888.767,484.794 888.101,500.127 888,515.5C 886.59,519.892 884.756,524.059 882.5,528C 884.108,532.616 884.941,537.449 885,542.5C 886.718,565.838 888.385,589.171 890,612.5C 892.818,598.222 895.484,583.889 898,569.5C 898.383,568.944 898.883,568.611 899.5,568.5C 899.5,636.5 899.5,704.5 899.5,772.5C 898.883,772.389 898.383,772.056 898,771.5C 897.487,756.16 896.82,740.827 896,725.5C 894.766,719.496 893.599,713.496 892.5,707.5C 893.129,704.795 893.463,702.128 893.5,699.5C 891.06,691.373 890.06,683.039 890.5,674.5C 890.667,669.5 890.833,664.5 891,659.5C 897.133,654.244 899.133,647.577 897,639.5C 895.903,636.526 893.737,634.859 890.5,634.5C 888.81,638.806 887.81,643.306 887.5,648C 888.557,652.949 889.223,657.949 889.5,663C 889.89,677.676 889.223,692.343 887.5,707C 887.76,709.676 888.094,712.343 888.5,715C 886.536,723.158 884.702,731.324 883,739.5C 880.555,740.906 878.055,742.24 875.5,743.5C 872.616,739.13 873.116,735.13 877,731.5C 877.175,725.389 878.008,719.389 879.5,713.5C 878.083,706.59 877.25,699.59 877,692.5C 875.676,690.5 874.009,688.833 872,687.5C 870.774,681.816 869.441,676.149 868,670.5C 867.222,621.159 867.556,571.826 869,522.5C 870.04,519.075 872.04,516.408 875,514.5C 876.879,506.195 876.879,497.862 875,489.5C 873.451,492.003 871.784,492.003 870,489.5C 868.201,483.216 866.701,476.883 865.5,470.5C 865.667,468.5 865.833,466.5 866,464.5C 870.559,461.007 872.726,456.341 872.5,450.5C 870.987,440.232 870.154,429.898 870,419.5C 866.294,416.203 864.461,412.036 864.5,407C 865.208,399.957 866.208,392.957 867.5,386C 867.129,383.144 866.629,380.311 866,377.5C 865.885,345.126 864.885,312.793 863,280.5C 862.291,246.496 862.457,212.496 863.5,178.5C 862.956,144.932 862.289,111.432 861.5,78C 862.642,71.342 861.808,64.842 859,58.5C 856.761,57.1308 854.927,57.6308 853.5,60C 848.297,62.4475 843.131,62.6142 838,60.5C 829.02,64.1298 826.354,70.4631 830,79.5C 833.794,79.9563 836.461,81.9563 838,85.5C 839.115,91.9806 838.282,98.1473 835.5,104C 837,106.167 838.5,108.333 840,110.5C 840.43,113.192 840.263,115.859 839.5,118.5C 835.209,119.236 832.042,121.569 830,125.5C 828.289,130.385 826.955,135.385 826,140.5C 820.226,149.548 815.393,159.048 811.5,169C 810.056,169.781 808.723,169.614 807.5,168.5C 805.808,162.115 802.808,156.448 798.5,151.5C 800.442,147.409 802.109,143.242 803.5,139C 803.053,136.044 802.22,133.211 801,130.5C 797.947,128.57 795.447,126.07 793.5,123C 780.792,116.762 774.292,120.595 774,134.5C 773.208,136.587 772.041,138.421 770.5,140C 762.547,145.618 754.88,151.618 747.5,158C 743.167,159 738.833,160 734.5,161C 730.211,164.535 728.711,169.035 730,174.5C 733.894,183.408 739.728,190.908 747.5,197C 751.035,198.706 754.702,200.04 758.5,201C 764.64,206.412 767.474,213.245 767,221.5C 768.299,224.147 769.632,226.814 771,229.5C 772.312,245.816 772.645,262.15 772,278.5C 770.28,284.943 766.114,287.776 759.5,287C 755.652,284.275 754.319,280.775 755.5,276.5C 755.423,274.701 754.923,273.034 754,271.5C 750.964,269.828 747.964,268.161 745,266.5C 744.667,261.833 744.333,257.167 744,252.5C 743.215,250.714 742.049,249.214 740.5,248C 733.462,247.049 726.462,245.883 719.5,244.5C 714.922,245.868 713.422,248.868 715,253.5C 715.803,256.244 716.803,258.911 718,261.5C 723.526,267.236 729.526,272.236 736,276.5C 737.732,281.35 738.732,286.35 739,291.5C 739.901,294.071 741.234,296.404 743,298.5C 743.748,307.105 741.082,308.438 735,302.5C 733.514,298.224 732.181,293.891 731,289.5C 729.6,286.098 727.433,283.264 724.5,281C 718.849,278.587 713.349,276.087 708,273.5C 703.841,274.079 700.175,275.746 697,278.5C 692.743,286.681 688.743,295.014 685,303.5C 684.3,309.781 682.633,315.781 680,321.5C 679.371,324.311 678.871,327.144 678.5,330C 679.595,342.149 679.762,354.316 679,366.5C 677.01,373.34 676.01,380.34 676,387.5C 672.915,392.672 669.581,397.672 666,402.5C 665.027,404.392 664.36,406.392 664,408.5C 663.667,420.833 663.333,433.167 663,445.5C 662.439,446.022 661.772,446.355 661,446.5C 658.349,444.836 655.516,444.336 652.5,445C 651.426,445.739 650.759,446.739 650.5,448C 652.393,450.954 653.893,454.121 655,457.5C 658.333,459.5 661,462.167 663,465.5C 663.066,477.659 662.9,489.825 662.5,502C 662.396,510.559 662.896,519.059 664,527.5C 669.039,534.911 673.039,542.911 676,551.5C 678.911,553.16 682.078,554.326 685.5,555C 687.224,562.966 683.891,567.299 675.5,568C 677.618,568.26 679.284,569.26 680.5,571C 678.365,574.48 676.198,577.98 674,581.5C 673,584.833 672,588.167 671,591.5C 670.863,603.879 671.53,616.212 673,628.5C 676.469,633.242 681.136,636.242 687,637.5C 695.21,634.048 703.71,633.048 712.5,634.5C 718.057,631.849 723.724,631.349 729.5,633C 739.964,641.13 749.464,650.297 758,660.5C 759.813,665.613 761.813,670.613 764,675.5C 764.912,696.159 765.579,716.825 766,737.5C 766.892,740.952 768.558,743.952 771,746.5C 775.352,749.855 779.352,753.521 783,757.5C 784.405,764.717 783.071,771.384 779,777.5C 778.306,784.174 777.973,790.841 778,797.5C 781.948,801.986 786.948,804.986 793,806.5C 796.124,805.354 799.29,804.354 802.5,803.5C 806.686,805.289 811.019,806.122 815.5,806C 816.5,805.667 817.5,805.333 818.5,805C 821.153,800.342 824.987,797.175 830,795.5C 831.982,795.99 833.649,796.99 835,798.5C 837.482,804.324 839.982,810.157 842.5,816C 839.795,822.706 840.295,829.206 844,835.5C 845.063,848.823 845.396,862.156 845,875.5C 843.488,876.257 842.154,877.257 841,878.5C 840.854,882.555 840.02,886.388 838.5,890C 838.833,890.833 839.167,891.667 839.5,892.5C 844.488,890.638 846.821,892.471 846.5,898C 846.167,899.167 845.833,900.333 845.5,901.5C 843.167,902.833 840.833,904.167 838.5,905.5C 837.456,907.768 837.289,910.101 838,912.5C 838.725,913.059 839.558,913.392 840.5,913.5C 843.822,909.157 846.155,909.657 847.5,915C 844.576,916.119 842.576,918.119 841.5,921C 845.524,923.409 849.691,925.576 854,927.5C 862.834,928.003 866.167,924.003 864,915.5C 862.192,913.442 860.025,913.108 857.5,914.5C 857.748,911.42 858.414,908.42 859.5,905.5C 858.982,887.32 857.315,869.153 854.5,851C 855.135,842.077 858.968,834.91 866,829.5C 866.333,828.5 866.667,827.5 867,826.5C 869.019,837.299 870.852,848.132 872.5,859C 870.028,865.521 869.028,872.355 869.5,879.5C 869.668,888.186 870.168,896.852 871,905.5C 872.682,908.864 874.349,912.198 876,915.5C 876.393,912.367 877.226,909.367 878.5,906.5C 879.478,906.977 880.311,907.643 881,908.5C 883.17,914.809 886.337,920.476 890.5,925.5C 889.558,927.879 888.225,930.046 886.5,932C 882.589,933.47 878.589,934.637 874.5,935.5C 870.445,934.664 869.778,932.83 872.5,930C 871.809,928.933 871.309,927.766 871,926.5C 869.701,926.034 868.201,926.034 866.5,926.5C 869.159,932.017 867.493,935.183 861.5,936C 851.562,935.989 841.728,936.822 832,938.5C 808.329,934.022 784.496,933.189 760.5,936C 750.707,938.496 740.707,940.162 730.5,941C 727.667,943.166 724.5,944.666 721,945.5C 704.288,944.692 687.454,945.026 670.5,946.5C 666.644,946.489 663.978,944.655 662.5,941C 657.055,939.112 652.055,936.445 647.5,933C 622.479,931.734 597.479,930.234 572.5,928.5C 563.831,929.773 555.165,929.773 546.5,928.5C 538.231,928.812 530.064,929.812 522,931.5C 503.849,930.449 485.682,929.616 467.5,929C 464.576,928.012 461.576,927.346 458.5,927C 433.837,926.07 409.17,925.237 384.5,924.5C 357.158,925.705 329.825,925.705 302.5,924.5C 297.783,924.949 293.116,925.616 288.5,926.5C 285.407,924.691 282.074,923.691 278.5,923.5C 263.769,923.925 249.103,925.092 234.5,927C 221.167,927.333 207.833,927.667 194.5,928C 193.5,928.333 192.5,928.667 191.5,929C 189.383,931.935 187.049,934.602 184.5,937C 177.647,938.02 170.814,938.853 164,939.5C 158.589,938.746 156.089,935.579 156.5,930C 158.337,926.824 157.504,924.991 154,924.5C 146.659,926.584 140.826,930.751 136.5,937C 133.689,937.629 130.856,938.129 128,938.5C 117.869,938.361 107.702,938.194 97.5,938C 88.2722,935.512 78.9389,934.845 69.5,936C 63.2002,933.35 57.0336,930.516 51,927.5C 45.6024,930.114 40.1024,932.614 34.5,935C 27.7334,934.935 21.2334,936.101 15,938.5C 11.1435,933.909 9.8102,928.576 11,922.5C 11.8404,918.328 14.1738,915.328 18,913.5C 19.1471,910.245 19.9804,906.912 20.5,903.5C 19.5353,899.191 19.3687,894.857 20,890.5C 21.4103,887.211 23.9103,885.544 27.5,885.5C 26.5862,891.005 28.4195,895.338 33,898.5C 35.3737,904.037 37.3737,909.703 39,915.5C 41.5752,920.147 45.5752,922.147 51,921.5C 57.2357,921.779 62.569,919.779 67,915.5C 67.662,913.187 68.162,910.854 68.5,908.5C 64.8945,908.201 61.5612,907.035 58.5,905C 50.3973,907.022 46.8973,903.856 48,895.5C 50.2542,892.572 51.4209,889.238 51.5,885.5C 50.1045,874.526 48.9378,863.526 48,852.5C 48.2619,858.384 46.7619,863.718 43.5,868.5C 42.3422,863.897 41.5089,859.23 41,854.5C 38.6037,849.311 36.6037,843.977 35,838.5C 34.7084,829.412 33.7084,820.412 32,811.5C 31.3333,806.833 31.3333,802.167 32,797.5C 34.1457,794.874 35.479,791.874 36,788.5C 37.4219,778.891 38.4219,769.225 39,759.5C 43.1121,753.061 46.7788,746.394 50,739.5C 51.4388,713.927 52.2721,688.427 52.5,663C 51.5029,648.675 50.5029,634.342 49.5,620C 49.7759,607.977 50.4425,595.977 51.5,584C 50.2784,564.853 49.4451,545.686 49,526.5C 45.0646,527.743 41.0646,527.743 37,526.5C 35.871,536.463 35.2044,546.463 35,556.5C 34.6667,557.833 34.3333,559.167 34,560.5C 33.5814,559.328 32.9147,558.328 32,557.5C 32.4388,531.954 31.2722,506.454 28.5,481C 29.3771,448.139 29.3771,415.305 28.5,382.5C 27.1685,373.315 24.3352,364.648 20,356.5C 18.6043,354.473 16.9376,354.14 15,355.5C 13.8455,354.257 12.5122,353.257 11,352.5C 10.7132,350.109 10.2132,347.776 9.5,345.5C 10.9433,336.138 10.7766,326.805 9,317.5C 5.01105,326.626 4.51105,335.959 7.5,345.5C 4.92626,369.468 4.2596,393.468 5.5,417.5C 4.16381,466.153 2.66381,514.82 1,563.5C 0.617425,564.056 0.117425,564.389 -0.5,564.5C -0.5,378.833 -0.5,193.167 -0.5,7.5C 1.04432,7.29689 2.37765,6.63023 3.5,5.5C 5.21744,6.66848 5.88411,8.33515 5.5,10.5C 7.84206,10.4959 9.84206,9.66253 11.5,8C 52.8497,5.35884 94.183,5.35884 135.5,8C 139.142,8.57197 142.309,10.072 145,12.5C 147.349,11.0235 149.516,11.1902 151.5,13C 148.925,14.1754 146.259,14.6754 143.5,14.5C 140.264,18.6519 141.264,21.1519 146.5,22C 150.362,22.6454 154.196,22.4787 158,21.5C 166.649,24.4507 175.149,24.1173 183.5,20.5C 186.834,21.8314 189.834,23.6647 192.5,26C 195.167,26.1667 197.833,26.3333 200.5,26.5C 210.951,25.1392 221.451,23.8059 232,22.5C 238.476,23.234 244.976,23.734 251.5,24C 253.75,24.6108 255.417,25.9441 256.5,28C 266.439,29.5617 276.439,29.895 286.5,29C 290.685,28.242 294.685,26.9087 298.5,25C 309.153,24.1235 319.82,23.4568 330.5,23C 335.39,18.7756 341.057,16.4422 347.5,16C 343.072,15.413 338.739,14.413 334.5,13C 342.167,12.6667 349.833,12.3333 357.5,12C 360.232,11.587 362.899,10.9203 365.5,10C 383.167,9.33333 400.833,9.33333 418.5,10C 421.513,12.9052 424.847,13.2386 428.5,11C 446.676,10.7429 464.843,10.2429 483,9.5C 542.944,8.64307 602.944,8.64307 663,9.5C 670.167,9.33333 677.333,9.16667 684.5,9C 686.278,8.29603 688.112,7.79603 690,7.5C 694.992,10.3256 700.325,12.3256 706,13.5C 732.809,11.9973 759.643,10.9973 786.5,10.5C 790.172,10.7782 793.838,11.1115 797.5,11.5C 804.261,9.96763 811.094,8.96763 818,8.5C 826.826,9.35168 835.66,9.51835 844.5,9C 849.056,8.89054 853.389,7.89054 857.5,6C 865.833,5.66667 874.167,5.33333 882.5,5C 883.138,3.29334 883.138,1.46001 882.5,-0.5 Z M 664.5,17.5 C 666.042,18.3007 667.708,18.634 669.5,18.5C 669.863,20.9115 668.863,22.4115 666.5,23C 663.843,23.1747 661.176,23.0081 658.5,22.5C 658.33,21.1779 658.663,20.0113 659.5,19C 661.382,18.8019 663.048,18.3019 664.5,17.5 Z M 835.5,21.5 C 838.415,21.9126 840.248,23.5793 841,26.5C 841.836,35.8502 837.669,41.8502 828.5,44.5C 825.873,40.1961 824.706,35.5294 825,30.5C 825.273,28.6711 826.107,27.1711 827.5,26C 830.391,24.7258 833.058,23.2258 835.5,21.5 Z M 403.5,23.5 C 422.228,24.8413 440.895,26.6747 459.5,29C 473.36,36.4274 487.027,44.0941 500.5,52C 506.244,55.2045 512.244,57.8711 518.5,60C 521.667,62.5 524.833,65 528,67.5C 529.027,70.7542 530.527,73.7542 532.5,76.5C 536.445,77.2685 540.445,77.7685 544.5,78C 546.053,79.0968 547.386,80.4301 548.5,82C 551.232,82.413 553.899,83.0797 556.5,84C 561.019,87.6136 565.686,90.947 570.5,94C 576.753,95.2043 583.086,95.871 589.5,96C 592.207,99.6818 595.874,101.515 600.5,101.5C 602.34,106.518 604.84,111.184 608,115.5C 609.229,119.88 607.729,122.713 603.5,124C 597.5,124.333 591.5,124.667 585.5,125C 578.321,130.222 570.321,131.889 561.5,130C 559.167,128.333 556.833,126.667 554.5,125C 545.5,124.667 536.5,124.333 527.5,124C 525.5,122.333 523.5,120.667 521.5,119C 517.381,118.857 513.381,118.19 509.5,117C 508.382,115.926 507.382,114.76 506.5,113.5C 501.517,111.674 497.183,108.841 493.5,105C 484.167,104.333 474.833,104.333 465.5,105C 461.455,107.573 457.122,109.573 452.5,111C 451.167,112.333 449.833,113.667 448.5,115C 442.769,115.21 437.103,115.876 431.5,117C 429.545,117.953 427.878,119.287 426.5,121C 416.478,122.007 406.478,122.34 396.5,122C 392.619,122.607 389.286,124.274 386.5,127C 383.167,127.667 379.833,128.333 376.5,129C 367.833,133.667 359.167,138.333 350.5,143C 346.534,147.967 342.201,152.634 337.5,157C 330.833,160.333 324.167,163.667 317.5,167C 316.421,169.043 314.754,170.376 312.5,171C 306.099,170.293 300.766,172.293 296.5,177C 294.392,177.36 292.392,178.027 290.5,179C 287.517,181.914 284.517,184.914 281.5,188C 273.541,191.979 265.541,195.979 257.5,200C 251.255,200.457 245.589,202.457 240.5,206C 233.333,208.167 230.833,205.667 233,198.5C 236.43,193.641 238.763,188.307 240,182.5C 243.378,177.578 246.878,172.745 250.5,168C 256.56,166.136 262.226,163.47 267.5,160C 278.147,143.669 292.147,131.002 309.5,122C 316.327,116.007 320.327,108.507 321.5,99.5C 320.033,91.4385 320.2,83.4385 322,75.5C 325.667,71.5 329.333,67.5 333,63.5C 334.837,58.6416 336.17,53.6416 337,48.5C 340.917,44.2911 345.75,41.7911 351.5,41C 354.167,39.3333 356.833,37.6667 359.5,36C 364.833,35.6667 370.167,35.3333 375.5,35C 380.189,30.4359 385.855,28.4359 392.5,29C 395.728,26.0525 399.395,24.2192 403.5,23.5 Z M 15.5,52.5 C 16.5,52.5 17.5,52.5 18.5,52.5C 20.5823,63.4821 20.749,74.4821 19,85.5C 18.6667,104.833 18.3333,124.167 18,143.5C 14.3168,145.706 10.8168,148.039 7.5,150.5C 6.35268,150.182 5.51935,149.516 5,148.5C 4.71603,125.118 4.54936,101.785 4.5,78.5C 7.42536,71.363 9.2587,64.0297 10,56.5C 10.9203,59.1013 11.587,61.7679 12,64.5C 12.554,60.2775 13.7206,56.2775 15.5,52.5 Z M 894.5,65.5 C 895.665,104.665 895.831,143.998 895,183.5C 894.916,179.565 893.916,175.898 892,172.5C 889.724,140.169 889.39,107.836 891,75.5C 891.013,71.6437 892.18,68.3104 894.5,65.5 Z M 700.5,127.5 C 703.85,127.335 707.183,127.502 710.5,128C 716.449,131.648 722.782,134.314 729.5,136C 732.774,139.216 736.774,140.383 741.5,139.5C 741.99,141.948 741.157,143.615 739,144.5C 737.333,143.5 735.667,142.5 734,141.5C 730.478,142.422 726.978,143.422 723.5,144.5C 715.251,143.368 708.084,140.034 702,134.5C 700.798,132.323 700.298,129.989 700.5,127.5 Z M 426.5,161.5 C 430.219,161.002 433.553,161.836 436.5,164C 431.89,165.73 427.224,165.73 422.5,164C 424.32,163.8 425.653,162.966 426.5,161.5 Z M 439.5,166.5 C 449.134,167.883 458.801,169.05 468.5,170C 467.128,170.402 465.795,170.902 464.5,171.5C 458.891,171.187 453.224,171.021 447.5,171C 445.1,170.814 442.766,170.314 440.5,169.5C 439.873,168.583 439.539,167.583 439.5,166.5 Z M 483.5,186.5 C 488.844,186.334 494.177,186.501 499.5,187C 502.051,189.446 504.551,189.613 507,187.5C 508.889,189.483 510.222,191.816 511,194.5C 512.255,195.211 513.421,196.044 514.5,197C 508.167,197.333 501.833,197.667 495.5,198C 493.845,200.507 493.011,203.341 493,206.5C 492,207.167 491,207.833 490,208.5C 483.01,206.237 476.01,206.237 469,208.5C 464.195,207.475 459.362,207.308 454.5,208C 450.528,208.764 448.861,210.931 449.5,214.5C 455.47,214.839 461.47,214.172 467.5,212.5C 469.977,214.425 472.643,216.091 475.5,217.5C 477.477,216.54 479.477,215.54 481.5,214.5C 482.737,217.008 484.57,219.008 487,220.5C 492.564,219.108 498.23,218.108 504,217.5C 504.772,217.645 505.439,217.978 506,218.5C 506.495,220.473 506.662,222.473 506.5,224.5C 508.857,224.663 511.19,224.497 513.5,224C 515.15,219.325 518.15,218.325 522.5,221C 518.632,223.162 517.132,226.328 518,230.5C 519,231.167 520,231.833 521,232.5C 532.447,231.521 543.947,230.521 555.5,229.5C 556.927,227.453 558.927,226.453 561.5,226.5C 564.855,227.229 568.188,228.062 571.5,229C 574.496,231.463 577.162,234.297 579.5,237.5C 584.277,240.223 589.277,242.389 594.5,244C 596.871,246.706 599.537,249.039 602.5,251C 607.341,253.921 612.341,256.588 617.5,259C 620.463,260.961 623.129,263.294 625.5,266C 628.833,266.333 632.167,266.667 635.5,267C 637.333,270.167 639.833,272.667 643,274.5C 643.333,282.5 643.667,290.5 644,298.5C 644.5,299.5 645,300.5 645.5,301.5C 643.618,304.213 641.951,307.047 640.5,310C 641.26,312.428 642.76,314.261 645,315.5C 646.167,327.667 647.333,339.833 648.5,352C 648.458,353.967 647.958,355.801 647,357.5C 642.128,363.418 637.628,369.585 633.5,376C 634.32,378.154 635.82,379.654 638,380.5C 637.928,385.796 638.928,390.796 641,395.5C 641.927,406.409 641.427,417.242 639.5,428C 640.019,430.87 640.686,433.703 641.5,436.5C 639.387,441.441 638.053,446.608 637.5,452C 637.946,453.726 638.779,455.226 640,456.5C 640.756,473.18 638.423,489.514 633,505.5C 632.642,512.265 631.642,518.932 630,525.5C 627.167,529 624.333,532.5 621.5,536C 616.41,538.476 611.41,541.143 606.5,544C 604.05,548.784 600.55,552.617 596,555.5C 594.735,558.461 593.569,561.461 592.5,564.5C 588.439,567.618 585.606,571.618 584,576.5C 580.703,579.567 576.869,581.733 572.5,583C 563.947,590.67 560.114,600.17 561,611.5C 557.668,614.174 555.335,617.507 554,621.5C 548.104,626.051 543.771,631.718 541,638.5C 534.558,647.941 527.058,656.441 518.5,664C 513.863,667.436 508.863,668.102 503.5,666C 505.824,662.677 508.491,659.677 511.5,657C 507.3,656.124 503.133,655.291 499,654.5C 498.342,650.428 498.675,646.428 500,642.5C 502.793,639.547 504.96,636.213 506.5,632.5C 506.099,630.053 504.599,629.053 502,629.5C 493.218,631.945 484.552,631.945 476,629.5C 472.866,629.109 470.366,630.109 468.5,632.5C 469.347,633.845 470.513,634.845 472,635.5C 472.667,637.167 472.667,638.833 472,640.5C 469.831,644.351 467.664,648.185 465.5,652C 461.514,652.798 457.681,653.965 454,655.5C 453.333,656.5 453.333,657.5 454,658.5C 456.111,660.102 457.611,662.102 458.5,664.5C 455.007,667.16 452.007,670.327 449.5,674C 444.331,675.295 439.831,674.128 436,670.5C 435.598,669.128 435.098,667.795 434.5,666.5C 431.833,665.833 429.167,665.167 426.5,664.5C 425.911,661.724 424.578,659.39 422.5,657.5C 420.983,658.911 419.649,658.744 418.5,657C 419.167,654.333 419.833,651.667 420.5,649C 426.307,647.183 430.973,643.85 434.5,639C 440.201,638.789 445.868,639.289 451.5,640.5C 455.412,638.752 459.412,637.252 463.5,636C 461.212,635.178 458.878,634.511 456.5,634C 454.734,631.904 453.401,629.571 452.5,627C 443.076,623.771 435.076,618.271 428.5,610.5C 421.966,606.135 415.3,601.969 408.5,598C 406.833,596.333 405.167,594.667 403.5,593C 397.316,593.378 391.149,593.211 385,592.5C 382.679,592.909 380.513,593.743 378.5,595C 376.5,595.667 374.5,595.667 372.5,595C 372.665,586.563 372.332,578.063 371.5,569.5C 368.121,569.888 364.788,570.555 361.5,571.5C 361.471,578.176 358.305,583.176 352,586.5C 349.553,585.594 347.053,584.761 344.5,584C 342.452,578.974 338.785,575.807 333.5,574.5C 332.215,571.429 330.549,568.596 328.5,566C 325.898,565.023 323.398,563.856 321,562.5C 322.512,552.004 318.845,544.004 310,538.5C 308.856,532.267 307.022,526.267 304.5,520.5C 299.188,517.2 296.855,512.367 297.5,506C 298.947,492.785 298.614,479.619 296.5,466.5C 297.231,463.347 297.897,460.181 298.5,457C 297.167,453 297.167,449 298.5,445C 298.496,439.419 296.663,434.586 293,430.5C 292.333,431.833 291.667,433.167 291,434.5C 289.815,432.623 288.815,430.623 288,428.5C 285.693,411.321 282.526,394.321 278.5,377.5C 277.086,376.376 275.586,375.376 274,374.5C 273.245,369.465 271.579,364.798 269,360.5C 269.277,351.869 267.943,343.536 265,335.5C 263.163,327.812 263.163,320.146 265,312.5C 267.282,308.959 269.949,308.626 273,311.5C 276.098,309.072 278.431,306.072 280,302.5C 280.895,296.718 282.895,291.384 286,286.5C 287.992,278.519 289.992,270.519 292,262.5C 295.517,259.296 297.517,255.296 298,250.5C 299.667,248.167 301.333,245.833 303,243.5C 303.333,240.833 303.667,238.167 304,235.5C 305.743,233.679 307.243,231.679 308.5,229.5C 306.926,228.369 305.259,228.202 303.5,229C 298.551,232.85 295.551,231.684 294.5,225.5C 290.909,225.67 287.576,226.003 284.5,226.5C 287.915,230.396 292.082,233.396 297,235.5C 297.667,236.833 297.667,238.167 297,239.5C 286.99,245.251 280.656,253.585 278,264.5C 274.986,267.447 273.652,271.113 274,275.5C 271.698,279.146 269.364,282.813 267,286.5C 262.034,289.821 257.034,293.155 252,296.5C 251.453,303.179 250.787,309.845 250,316.5C 246.066,319.52 242.233,322.687 238.5,326C 236.741,326.798 235.074,326.631 233.5,325.5C 232.06,319.953 229.56,314.953 226,310.5C 225.453,307.298 224.453,304.298 223,301.5C 221.237,293.929 224.071,291.096 231.5,293C 235.692,288.636 238.359,283.469 239.5,277.5C 242.59,275.611 245.757,273.945 249,272.5C 250.538,267.085 252.371,261.752 254.5,256.5C 253.653,255.155 252.487,254.155 251,253.5C 249.112,245.804 251.779,240.471 259,237.5C 260.312,235.045 261.478,232.545 262.5,230C 265.603,228.561 268.436,226.727 271,224.5C 268.891,219.845 270.391,216.345 275.5,214C 279.014,212.371 282.68,211.205 286.5,210.5C 289.61,213.431 292.943,216.264 296.5,219C 299.155,219.564 301.821,220.064 304.5,220.5C 308.267,219.312 312.1,218.312 316,217.5C 318.136,218.268 320.303,218.934 322.5,219.5C 328.003,217.404 333.669,215.904 339.5,215C 345.399,209.889 351.066,204.556 356.5,199C 367.561,198.874 378.561,198.041 389.5,196.5C 402.791,197.932 416.124,198.765 429.5,199C 431.957,200.154 431.957,201.488 429.5,203C 424.236,203.804 419.569,205.804 415.5,209C 417.333,210.167 418.833,211.667 420,213.5C 421.126,212.056 422.626,211.39 424.5,211.5C 429.072,214.484 433.239,214.15 437,210.5C 438,211.5 439,212.5 440,213.5C 441.667,212.167 443.333,212.167 445,213.5C 445.692,212.975 446.192,212.308 446.5,211.5C 444.468,208.817 441.801,207.151 438.5,206.5C 434.33,202.001 434.664,197.834 439.5,194C 443.899,191.632 448.565,190.132 453.5,189.5C 460.116,190.628 466.782,190.795 473.5,190C 477.109,189.299 480.442,188.132 483.5,186.5 Z M 517.5,192.5 C 523.651,193.122 523.818,194.122 518,195.5C 514.963,194.68 514.796,193.68 517.5,192.5 Z M 210.5,220.5 C 215.549,221.311 216.715,223.978 214,228.5C 212.285,230.759 210.452,232.926 208.5,235C 202,237.833 200.167,236 203,229.5C 205.335,226.335 207.835,223.335 210.5,220.5 Z M 444.5,225.5 C 446.337,225.639 446.67,226.306 445.5,227.5C 444.702,227.043 444.369,226.376 444.5,225.5 Z M 424.5,243.5 C 426.337,243.639 426.67,244.306 425.5,245.5C 424.702,245.043 424.369,244.376 424.5,243.5 Z M 208.5,255.5 C 210.818,255.818 212.152,257.152 212.5,259.5C 211.797,262.441 210.797,265.275 209.5,268C 209.833,269 210.167,270 210.5,271C 209.713,278.798 209.213,286.631 209,294.5C 207.667,295.833 206.333,297.167 205,298.5C 204.057,303.162 203.224,307.828 202.5,312.5C 205.36,314.407 208.193,316.407 211,318.5C 212.369,323.437 211.203,327.604 207.5,331C 205.833,331.667 204.167,331.667 202.5,331C 199.781,329.403 197.614,327.237 196,324.5C 195.179,318.082 192.513,317.082 188,321.5C 187.271,325.377 187.438,329.211 188.5,333C 186.645,338.722 186.645,344.555 188.5,350.5C 190.348,347.318 192.348,344.151 194.5,341C 198.482,338.856 202.315,339.022 206,341.5C 207.508,351.089 208.508,360.756 209,370.5C 208.905,364.91 209.905,359.577 212,354.5C 215.805,351.461 218.805,352.128 221,356.5C 223.242,364.542 225.575,372.542 228,380.5C 227.552,389.306 229.218,397.639 233,405.5C 235.46,412.894 233.127,417.894 226,420.5C 224.128,419.932 222.295,419.265 220.5,418.5C 217.627,426.617 218.127,434.617 222,442.5C 224.667,443.833 227.333,445.167 230,446.5C 231.447,450.77 232.947,454.937 234.5,459C 235.416,459.374 236.25,459.874 237,460.5C 238,458.5 239,456.5 240,454.5C 241.983,455.766 242.983,457.432 243,459.5C 241,461.5 239,463.5 237,465.5C 238.005,472.159 238.338,478.825 238,485.5C 238.583,487.002 239.416,488.335 240.5,489.5C 242.828,488.783 244.995,487.783 247,486.5C 249.215,489.056 251.049,491.889 252.5,495C 251.483,497.787 251.316,500.62 252,503.5C 253.667,505.833 255.333,508.167 257,510.5C 258.514,524.816 259.847,539.15 261,553.5C 262.708,562.484 264.875,571.317 267.5,580C 267.435,582.591 266.935,585.091 266,587.5C 263.953,590.964 262.287,594.63 261,598.5C 258.441,601.349 255.274,602.183 251.5,601C 248.703,597.201 245.536,593.701 242,590.5C 238.029,577.469 237.529,564.302 240.5,551C 240.167,549.5 239.833,548 239.5,546.5C 237.833,548.167 236.833,547.833 236.5,545.5C 237.685,543.289 238.685,540.955 239.5,538.5C 237.674,534.474 238.674,531.307 242.5,529C 240.748,524.912 237.915,521.746 234,519.5C 232.865,515.359 230.531,512.025 227,509.5C 223.663,496.495 217.33,485.162 208,475.5C 204,468.167 200,460.833 196,453.5C 189.402,449.233 182.569,445.4 175.5,442C 171.9,438.632 170.067,434.465 170,429.5C 169.328,416.5 172.995,404.833 181,394.5C 181.5,392.5 182,390.5 182.5,388.5C 181.612,381.746 179.946,375.246 177.5,369C 179.203,361.301 180.37,353.468 181,345.5C 183.42,342.753 184.92,339.587 185.5,336C 186.451,314.059 189.951,292.559 196,271.5C 198.992,265.148 203.159,259.815 208.5,255.5 Z M 90.5,306.5 C 92.5581,310.29 94.3914,314.29 96,318.5C 96.6667,330.833 96.6667,343.167 96,355.5C 93.4721,360.702 90.1388,365.369 86,369.5C 84.9887,370.337 83.8221,370.67 82.5,370.5C 83.8797,354.872 84.7131,339.206 85,323.5C 89.2003,319.729 90.367,315.229 88.5,310C 89.8228,309.184 90.4894,308.017 90.5,306.5 Z M 892.5,330.5 C 894.011,332.476 894.844,334.809 895,337.5C 896.219,373.16 896.552,408.827 896,444.5C 894.104,447.946 891.77,448.28 889,445.5C 888.614,412.829 888.948,380.162 890,347.5C 890.434,341.754 891.267,336.087 892.5,330.5 Z M 109.5,352.5 C 110.822,352.33 111.989,352.663 113,353.5C 114.569,364.107 114.903,374.774 114,385.5C 112.778,389.71 111.112,393.71 109,397.5C 108.809,406.752 108.642,415.919 108.5,425C 109.274,427.405 109.774,429.905 110,432.5C 110.519,433.516 111.353,434.182 112.5,434.5C 122.087,431.745 127.587,425.411 129,415.5C 132.159,412.659 134.492,413.326 136,417.5C 136.333,422.833 136.667,428.167 137,433.5C 139.135,435.278 141.635,435.945 144.5,435.5C 145.358,442.633 146.025,449.8 146.5,457C 146.077,464.462 145.91,471.962 146,479.5C 144.47,483.09 143.136,486.757 142,490.5C 137.165,495.506 134.498,501.506 134,508.5C 132.478,510.741 131.145,513.074 130,515.5C 129.751,512.823 128.751,510.49 127,508.5C 126.811,503.749 126.145,499.083 125,494.5C 123.491,492.081 121.325,491.081 118.5,491.5C 116.797,496.411 117.297,501.077 120,505.5C 123.973,522.156 118.473,534.156 103.5,541.5C 101.971,541.471 100.804,540.804 100,539.5C 96.7518,531.839 95.0851,523.839 95,515.5C 93.6667,513.5 92.3333,511.5 91,509.5C 90.0567,489.446 90.5567,469.446 92.5,449.5C 92.9019,441.775 91.4019,434.442 88,427.5C 87.7493,418.48 87.2493,409.48 86.5,400.5C 87.2838,396.222 88.7838,392.222 91,388.5C 91.3333,385.833 91.6667,383.167 92,380.5C 98.6188,371.582 104.452,362.249 109.5,352.5 Z M 242.5,365.5 C 247.654,366.612 248.82,369.612 246,374.5C 244.989,375.337 243.822,375.67 242.5,375.5C 241.293,372.148 241.293,368.814 242.5,365.5 Z M 42.5,454.5 C 44.7345,460.612 44.9012,466.945 43,473.5C 42.5005,467.175 42.3338,460.842 42.5,454.5 Z M 126.5,527.5 C 127.794,528.29 128.961,529.29 130,530.5C 130.325,534.61 131.158,538.61 132.5,542.5C 131.892,545.145 131.392,547.812 131,550.5C 130.424,553.124 129.09,553.791 127,552.5C 126.26,546.058 125.093,539.724 123.5,533.5C 123.073,530.644 124.073,528.644 126.5,527.5 Z M 655.5,549.5 C 658.233,549.196 659.899,550.363 660.5,553C 657.957,558.213 654.624,562.879 650.5,567C 646.084,569.958 641.584,572.792 637,575.5C 636.5,575 636,574.5 635.5,574C 637.693,571.598 639.026,568.764 639.5,565.5C 636.327,560.706 636.993,556.539 641.5,553C 646.184,551.347 650.85,550.181 655.5,549.5 Z M 142.5,557.5 C 143.822,557.33 144.989,557.663 146,558.5C 146.108,568.199 145.441,577.866 144,587.5C 142.265,591.869 140.598,596.202 139,600.5C 138,601.5 137,602.5 136,603.5C 129.644,594.603 128.978,585.27 134,575.5C 133.921,567.995 136.755,561.995 142.5,557.5 Z M 163.5,587.5 C 168.905,591.128 169.905,595.795 166.5,601.5C 168.209,605.204 171.209,607.204 175.5,607.5C 175.5,608.5 175.5,609.5 175.5,610.5C 171.214,611.389 167.048,612.722 163,614.5C 159.208,611.552 155.042,609.218 150.5,607.5C 147.323,602.069 147.99,597.236 152.5,593C 156.402,591.435 160.069,589.602 163.5,587.5 Z M 607.5,608.5 C 609.973,608.947 610.14,609.947 608,611.5C 607.517,610.552 607.351,609.552 607.5,608.5 Z M 146.5,632.5 C 149.833,631.833 151.833,633.167 152.5,636.5C 149.475,641.415 146.809,641.415 144.5,636.5C 145.63,635.378 146.297,634.044 146.5,632.5 Z M 284.5,634.5 C 286.527,634.338 288.527,634.505 290.5,635C 292.137,637.31 294.304,638.81 297,639.5C 298.095,646.419 298.929,653.419 299.5,660.5C 300.086,660.709 300.586,661.043 301,661.5C 303.985,660.175 306.985,658.842 310,657.5C 311.621,657.725 312.788,658.558 313.5,660C 312.637,662.227 311.637,664.393 310.5,666.5C 310.833,667.167 311.167,667.833 311.5,668.5C 320.069,668.297 327.236,671.297 333,677.5C 333.452,680.877 334.118,684.211 335,687.5C 335.725,688.059 336.558,688.392 337.5,688.5C 340.131,687.447 342.798,686.947 345.5,687C 344.405,689.269 344.739,691.436 346.5,693.5C 348.813,694.273 351.146,694.94 353.5,695.5C 354.281,696.729 354.781,698.062 355,699.5C 358,701.833 361,704.167 364,706.5C 364.494,708.134 364.66,709.801 364.5,711.5C 362.143,711.663 359.81,711.497 357.5,711C 355.983,709.315 354.316,707.815 352.5,706.5C 351.335,712.02 353.669,715.02 359.5,715.5C 357.795,725.058 352.295,728.725 343,726.5C 338.803,733.633 338.136,740.967 341,748.5C 347.336,752.314 351.503,757.647 353.5,764.5C 348.237,765.737 344.57,763.904 342.5,759C 340.956,757.813 339.289,757.48 337.5,758C 339.041,760.04 340.374,762.207 341.5,764.5C 345.757,766.262 348.424,769.429 349.5,774C 352.045,775.233 354.712,775.066 357.5,773.5C 359.65,775.149 361.65,776.982 363.5,779C 369.09,780.37 374.757,781.37 380.5,782C 383.833,784 387.167,786 390.5,788C 387.998,792.098 387.998,796.098 390.5,800C 388.484,802.289 386.151,802.789 383.5,801.5C 377.885,802.289 372.218,802.789 366.5,803C 372.186,803.311 377.853,803.811 383.5,804.5C 385.577,804.308 387.577,803.808 389.5,803C 394.38,797.793 400.38,794.793 407.5,794C 409.219,792.13 410.219,789.963 410.5,787.5C 425.388,787.362 440.221,787.362 455,787.5C 459.11,787.354 462.61,785.854 465.5,783C 472.833,782.667 480.167,782.333 487.5,782C 492.065,778.301 497.232,775.801 503,774.5C 503.873,774.735 504.707,775.069 505.5,775.5C 506.085,777.9 507.252,779.9 509,781.5C 511.453,780.507 513.953,780.34 516.5,781C 519.382,782.52 522.382,783.853 525.5,785C 526.717,786.648 527.55,788.481 528,790.5C 530.498,792.417 533.165,794.084 536,795.5C 537.204,799.716 537.87,804.049 538,808.5C 540.167,811.333 542.333,814.167 544.5,817C 551.776,818.132 559.109,819.132 566.5,820C 572.294,823.55 578.627,825.55 585.5,826C 591.846,827.977 596.18,831.977 598.5,838C 597.809,839.067 597.309,840.234 597,841.5C 592.412,844.544 587.912,847.71 583.5,851C 576.015,853.605 568.348,855.605 560.5,857C 558.184,859.248 555.85,861.581 553.5,864C 549.259,865.457 544.926,865.791 540.5,865C 538.898,862.889 536.898,861.389 534.5,860.5C 529.053,862.717 523.386,863.883 517.5,864C 515.796,866.547 513.463,868.047 510.5,868.5C 510.768,865.881 510.435,863.381 509.5,861C 503.572,860.535 498.572,858.201 494.5,854C 485.293,853.174 475.959,852.507 466.5,852C 465.167,851.333 463.833,850.667 462.5,850C 457.214,843.18 451.214,837.013 444.5,831.5C 443.215,828.429 441.549,825.596 439.5,823C 437.299,822.175 435.466,822.675 434,824.5C 433.057,821.6 431.39,819.267 429,817.5C 425.662,820.318 421.829,821.151 417.5,820C 416.02,818.701 415.354,817.034 415.5,815C 415.275,804.592 419.942,797.592 429.5,794C 423.919,791.408 419.252,792.408 415.5,797C 416.014,802.248 414.014,806.582 409.5,810C 403.63,810.293 397.963,809.293 392.5,807C 382.584,806.107 372.75,806.607 363,808.5C 361.378,808.046 360.212,807.046 359.5,805.5C 360.78,803.298 360.78,801.132 359.5,799C 355.075,797.581 350.575,796.414 346,795.5C 338.184,796.216 330.351,796.716 322.5,797C 317.276,799.021 311.942,800.521 306.5,801.5C 301.357,800.602 296.357,799.102 291.5,797C 275.617,796.047 259.95,794.88 244.5,793.5C 244.977,792.522 245.643,791.689 246.5,791C 250.191,790.58 253.858,790.08 257.5,789.5C 257.579,788.07 257.246,786.736 256.5,785.5C 252.167,783 247.833,780.5 243.5,778C 241.242,775.415 239.409,772.582 238,769.5C 237.333,755.833 237.333,742.167 238,728.5C 238.436,726.153 238.936,723.819 239.5,721.5C 238.088,710.853 236.922,700.187 236,689.5C 233,687.167 230,684.833 227,682.5C 226.097,678.195 224.263,674.361 221.5,671C 220.167,670.333 218.833,670.333 217.5,671C 211.167,677 204.833,677 198.5,671C 191.022,664.223 190.688,657.223 197.5,650C 201.046,648.826 204.713,648.16 208.5,648C 210.498,643.811 213.665,640.978 218,639.5C 224.476,642.108 230.809,645.108 237,648.5C 239.98,646.753 243.147,646.253 246.5,647C 250.116,649.641 254.116,651.474 258.5,652.5C 259.737,652.444 260.737,651.944 261.5,651C 258.368,646.389 259.034,642.389 263.5,639C 268.721,637.768 274.054,637.101 279.5,637C 281.653,636.901 283.319,636.067 284.5,634.5 Z M 377.5,641.5 C 390.221,645.494 390.221,648.16 377.5,649.5C 377.5,646.833 377.5,644.167 377.5,641.5 Z M 388.5,649.5 C 392.33,654.497 397.163,658.164 403,660.5C 407.802,659.297 412.302,660.13 416.5,663C 417.376,664.586 418.376,666.086 419.5,667.5C 421.353,668.76 423.186,668.76 425,667.5C 426.044,668.623 426.71,669.956 427,671.5C 431.839,676.672 437.006,681.505 442.5,686C 443.833,686.333 445.167,686.667 446.5,687C 451.014,690.091 455.347,693.425 459.5,697C 466.6,697.693 473.6,698.86 480.5,700.5C 479.959,703.652 480.959,706.152 483.5,708C 482.42,713.168 480.753,718.168 478.5,723C 467.178,725.005 455.845,727.338 444.5,730C 438.651,730.334 432.817,730.834 427,731.5C 419.995,730.21 412.995,730.21 406,731.5C 397.816,732.161 391.983,728.828 388.5,721.5C 384.006,721.123 379.839,719.79 376,717.5C 376.488,709.531 376.488,701.531 376,693.5C 374.634,691.63 373.467,689.63 372.5,687.5C 376.32,681.199 380.154,674.866 384,668.5C 385.524,662.136 387.024,655.803 388.5,649.5 Z M 158.5,659.5 C 161.599,659.092 163.933,660.259 165.5,663C 160.85,666.009 158.516,664.843 158.5,659.5 Z M 368.5,721.5 C 370.337,721.639 370.67,722.306 369.5,723.5C 368.702,723.043 368.369,722.376 368.5,721.5 Z M 371.5,727.5 C 376.224,729.576 379.058,733.242 380,738.5C 383.124,740.601 384.958,743.434 385.5,747C 385.495,750.56 383.995,751.726 381,750.5C 380.05,751.022 379.216,751.689 378.5,752.5C 375.846,749.681 374.346,746.348 374,742.5C 370.781,741.207 367.781,739.54 365,737.5C 364.365,735.365 364.699,733.365 366,731.5C 367.812,730.023 369.645,728.69 371.5,727.5 Z M 523.5,729.5 C 526.316,729.825 528.816,730.825 531,732.5C 531.547,736.16 532.047,739.827 532.5,743.5C 532.827,748.01 530.827,749.843 526.5,749C 524.627,746.791 522.46,744.958 520,743.5C 517.231,737.517 518.397,732.851 523.5,729.5 Z M 478.5,732.5 C 479.833,732.5 481.167,732.5 482.5,732.5C 482.5,733.5 482.5,734.5 482.5,735.5C 480.073,735.477 477.74,734.977 475.5,734C 476.737,733.768 477.737,733.268 478.5,732.5 Z M 487.5,735.5 C 490.073,735.148 492.406,735.648 494.5,737C 491.789,738.805 489.122,738.805 486.5,737C 487.056,736.617 487.389,736.117 487.5,735.5 Z M 387.5,751.5 C 391.492,751.824 394.492,753.658 396.5,757C 388.883,762.841 385.883,761.008 387.5,751.5 Z M 187.5,752.5 C 191.623,752.798 195.623,753.631 199.5,755C 193.489,758.091 187.156,760.424 180.5,762C 179.055,765.05 177.222,767.883 175,770.5C 174.16,767.682 174.994,765.516 177.5,764C 176.833,762 176.167,760 175.5,758C 179.317,755.562 183.317,753.728 187.5,752.5 Z M 205.5,764.5 C 208.346,764.03 210.679,764.863 212.5,767C 209.818,770.115 206.484,771.115 202.5,770C 203.223,767.982 204.223,766.148 205.5,764.5 Z M 402.5,765.5 C 403.289,765.783 403.956,766.283 404.5,767C 403.184,767.528 402.517,767.028 402.5,765.5 Z M 399.5,783.5 C 401.337,783.639 401.67,784.306 400.5,785.5C 399.702,785.043 399.369,784.376 399.5,783.5 Z M 425.5,863.5 C 426.773,864.077 426.773,864.743 425.5,865.5C 424.537,865.03 424.537,864.363 425.5,863.5 Z M 489.5,867.5 C 491.857,867.337 494.19,867.503 496.5,868C 494.277,868.652 493.11,870.152 493,872.5C 491.588,870.935 490.421,869.269 489.5,867.5 Z M 151.5,875.5 C 159.097,877.461 166.764,877.961 174.5,877C 180.667,880.473 183.167,885.64 182,892.5C 175.071,897.942 168.238,897.776 161.5,892C 155.722,891.906 150.056,891.239 144.5,890C 142.931,883.305 145.264,878.472 151.5,875.5 Z M 403.5,880.5 C 430.166,880.974 456.832,881.474 483.5,882C 484.833,883.333 486.167,884.667 487.5,886C 490.702,886.198 493.702,887.031 496.5,888.5C 498.724,894.128 496.724,896.961 490.5,897C 465.167,897.667 439.833,897.667 414.5,897C 412.382,896.74 410.716,895.74 409.5,894C 397.92,893.033 395.92,888.533 403.5,880.5 Z M 558.5,881.5 C 584.523,882.567 610.523,883.567 636.5,884.5C 639.737,882.985 642.737,883.319 645.5,885.5C 643.698,889.863 640.365,891.696 635.5,891C 629.84,894.218 624.006,897.052 618,899.5C 613.23,896.808 608.73,897.308 604.5,901C 594.167,901.333 583.833,901.667 573.5,902C 567.567,905.655 561.067,907.155 554,906.5C 550.833,906.333 547.667,906.167 544.5,906C 542.693,904.398 540.693,903.064 538.5,902C 531.522,903.734 526.855,901.234 524.5,894.5C 525.034,892.386 526.034,890.552 527.5,889C 534.167,888.667 540.833,888.333 547.5,888C 551.23,885.807 554.897,883.64 558.5,881.5 Z M 79.5,895.5 C 80.9217,895.709 82.255,896.209 83.5,897C 81.6354,898.301 79.6354,898.635 77.5,898C 78.3805,897.292 79.0472,896.458 79.5,895.5 Z"/></g>
<g><path style="opacity:0.004" fill="#fcfffd" d="M 501.5,76.5 C 507.75,76.8351 514.083,77.0017 520.5,77C 522.658,78.3117 522.991,79.9783 521.5,82C 514.168,82.7954 506.834,83.1288 499.5,83C 498.572,82.6121 497.905,81.9454 497.5,81C 498.117,78.7731 499.451,77.2731 501.5,76.5 Z"/></g>
<g><path style="opacity:0.004" fill="#fcfffd" d="M 463.5,197.5 C 468.725,198.419 469.225,199.753 465,201.5C 460.216,200.857 455.383,200.191 450.5,199.5C 454.982,198.833 459.316,198.166 463.5,197.5 Z"/></g>
<g><path style="opacity:0.004" fill="#fcfffd" d="M 430.5,216.5 C 433.758,218.751 436.758,221.417 439.5,224.5C 440.308,224.192 440.975,223.692 441.5,223C 446.833,222.333 452.167,222.333 457.5,223C 458.167,223.667 458.833,224.333 459.5,225C 462.5,225.333 465.5,225.667 468.5,226C 469.167,227.667 469.833,229.333 470.5,231C 472.9,231.186 475.234,231.686 477.5,232.5C 466.961,232.408 457.628,235.575 449.5,242C 443.721,244.278 437.721,245.611 431.5,246C 423.412,253.422 414.745,260.088 405.5,266C 402.159,268.197 399.159,267.864 396.5,265C 401.95,257.714 408.95,252.547 417.5,249.5C 418.711,247.578 420.044,245.745 421.5,244C 418.141,242.617 414.807,241.284 411.5,240C 410.424,238.274 410.257,236.441 411,234.5C 414.819,232.26 418.653,230.093 422.5,228C 423.603,226.32 423.27,224.82 421.5,223.5C 425.376,222.291 428.376,219.957 430.5,216.5 Z M 444.5,225.5 C 444.369,226.376 444.702,227.043 445.5,227.5C 446.67,226.306 446.337,225.639 444.5,225.5 Z M 424.5,243.5 C 424.369,244.376 424.702,245.043 425.5,245.5C 426.67,244.306 426.337,243.639 424.5,243.5 Z"/></g>
<g><path style="opacity:0.004" fill="#fcfffd" d="M 458.5,242.5 C 475.115,243.192 491.615,243.192 508,242.5C 512.352,242.519 513.518,244.519 511.5,248.5C 493.171,248.047 474.838,248.547 456.5,250C 452.386,253.564 448.052,256.897 443.5,260C 436.817,259.529 431.317,261.696 427,266.5C 424.5,267.333 422,268.167 419.5,269C 415.942,272.231 412.442,275.398 409,278.5C 405.27,277.54 401.437,277.207 397.5,277.5C 397.286,275.856 397.62,274.356 398.5,273C 402.121,273.405 405.787,273.405 409.5,273C 412.5,269.333 415.5,265.667 418.5,262C 423.763,262.365 427.763,260.365 430.5,256C 434.5,255.667 438.5,255.333 442.5,255C 444.821,250.67 448.488,248.67 453.5,249C 455.765,247.242 457.432,245.075 458.5,242.5 Z"/></g>
<g><path style="opacity:0.004" fill="#fcfffd" d="M 517.5,248.5 C 521.167,248.5 524.833,248.5 528.5,248.5C 528.822,250.722 528.155,252.556 526.5,254C 522.463,254.607 518.463,254.44 514.5,253.5C 514.5,252.167 514.5,250.833 514.5,249.5C 515.791,249.737 516.791,249.404 517.5,248.5 Z"/></g>
<g><path style="opacity:0.004" fill="#fcfffd" d="M 534.5,254.5 C 536.199,254.34 537.866,254.506 539.5,255C 540.517,256.049 540.684,257.216 540,258.5C 538.186,259.76 536.353,259.76 534.5,258.5C 533.193,257.135 533.193,255.802 534.5,254.5 Z"/></g>
<g><path style="opacity:0.004" fill="#fcfffd" d="M 568.5,254.5 C 570.527,254.338 572.527,254.505 574.5,255C 574.957,255.414 575.291,255.914 575.5,256.5C 573.235,257.647 570.902,257.814 568.5,257C 567.402,256.23 567.402,255.397 568.5,254.5 Z"/></g>
<g><path style="opacity:0.004" fill="#fcfffd" d="M 546.5,262.5 C 547.601,261.402 548.934,261.235 550.5,262C 549.318,263.768 547.985,263.935 546.5,262.5 Z"/></g>
<g><path style="opacity:0.004" fill="#fcfffd" d="M 558.5,266.5 C 561.694,266.176 562.694,267.342 561.5,270C 560.207,270.49 558.873,270.657 557.5,270.5C 557.433,269.041 557.766,267.708 558.5,266.5 Z"/></g>
<g><path style="opacity:0.004" fill="#fcfffd" d="M 582.5,266.5 C 583.573,267.251 583.74,268.251 583,269.5C 581.272,268.648 581.105,267.648 582.5,266.5 Z"/></g>
<g><path style="opacity:0.004" fill="#fcfffd" d="M 442.5,283.5 C 444.665,283.116 446.332,283.783 447.5,285.5C 446.294,288.875 444.46,291.875 442,294.5C 441.217,296.433 441.717,297.933 443.5,299C 449.467,300.785 455.467,300.785 461.5,299C 469.833,298.333 478.167,298.333 486.5,299C 490.167,300 490.5,301.667 487.5,304C 477.919,307.403 468.086,308.57 458,307.5C 447.955,308.757 438.122,310.924 428.5,314C 426.874,316.628 424.874,318.961 422.5,321C 419.161,321.39 415.827,321.224 412.5,320.5C 406.291,322.301 399.957,323.635 393.5,324.5C 389.599,323.464 386.099,324.464 383,327.5C 382.51,326.207 382.343,324.873 382.5,323.5C 385.016,323.245 387.35,322.411 389.5,321C 392.468,317.853 395.802,315.186 399.5,313C 406.384,309.725 413.384,306.725 420.5,304C 421.367,301.684 420.701,299.684 418.5,298C 422.438,295.21 426.772,294.71 431.5,296.5C 432.938,296.281 434.271,295.781 435.5,295C 437.19,290.748 439.523,286.914 442.5,283.5 Z"/></g>
<g><path style="opacity:0.004" fill="#fcfffd" d="M 196.5,300.5 C 198.89,300.685 199.89,302.018 199.5,304.5C 199.631,308.166 198.131,309.166 195,307.5C 194.167,304.829 194.667,302.496 196.5,300.5 Z"/></g>
<g><path style="opacity:0.004" fill="#fcfffd" d="M 374.5,332.5 C 375.097,332.735 375.43,333.235 375.5,334C 374.683,335.49 373.85,336.99 373,338.5C 367.881,342.652 363.048,347.152 358.5,352C 353.953,354.124 352.453,352.624 354,347.5C 356.475,341.354 360.975,337.854 367.5,337C 370.239,335.974 372.572,334.474 374.5,332.5 Z"/></g>
<g><path style="opacity:0.004" fill="#fcfffd" d="M 745.5,383.5 C 754.646,384.616 756.646,388.95 751.5,396.5C 746.584,393.322 744.584,388.988 745.5,383.5 Z"/></g>
<g><path style="opacity:0.004" fill="#fcfffd" d="M 703.5,394.5 C 712.297,394.488 720.13,397.154 727,402.5C 730.287,400.986 732.953,398.653 735,395.5C 735.167,396.167 735.333,396.833 735.5,397.5C 733.173,401.16 731.673,405.16 731,409.5C 733.958,426.835 727.292,438.502 711,444.5C 709.289,444.561 707.956,443.894 707,442.5C 706.672,437.475 706.672,432.475 707,427.5C 703.294,419.367 699.794,411.201 696.5,403C 697.256,398.754 699.589,395.921 703.5,394.5 Z"/></g>
<g><path style="opacity:0.004" fill="#fcfffd" d="M 320.5,408.5 C 322.048,408.821 322.715,409.821 322.5,411.5C 321.178,411.33 320.011,411.663 319,412.5C 318.516,410.807 319.016,409.473 320.5,408.5 Z"/></g>
<g><path style="opacity:0.004" fill="#fcfffd" d="M 118.5,447.5 C 124.913,450.327 125.08,453.661 119,457.5C 118.362,456.391 117.862,455.225 117.5,454C 118.287,451.901 118.62,449.734 118.5,447.5 Z"/></g>
<g><path style="opacity:0.004" fill="#fcfffd" d="M 591.5,486.5 C 593.241,488.013 594.241,490.013 594.5,492.5C 593.351,494.797 592.185,497.13 591,499.5C 588.965,495.059 589.132,490.726 591.5,486.5 Z"/></g>
<g><path style="opacity:0.053" fill="#f4f5f5" d="M 445.5,330.5 C 462.17,330.333 478.837,330.5 495.5,331C 499.83,333.132 504.497,334.132 509.5,334C 512.813,336.048 516.479,337.048 520.5,337C 523.002,339.212 526.002,340.045 529.5,339.5C 529.5,340.5 529.5,341.5 529.5,342.5C 531.5,342.5 533.5,342.5 535.5,342.5C 535.5,343.5 535.5,344.5 535.5,345.5C 537.167,345.5 538.833,345.5 540.5,345.5C 540.5,346.5 540.5,347.5 540.5,348.5C 542.199,348.34 543.866,348.506 545.5,349C 546.308,350.706 547.641,351.539 549.5,351.5C 549.5,352.5 549.5,353.5 549.5,354.5C 552.588,354.639 555.255,355.639 557.5,357.5C 557.5,358.5 557.5,359.5 557.5,360.5C 558.5,360.5 559.5,360.5 560.5,360.5C 560.5,361.5 560.5,362.5 560.5,363.5C 561.5,363.5 562.5,363.5 563.5,363.5C 563.5,364.5 563.5,365.5 563.5,366.5C 564.5,366.5 565.5,366.5 566.5,366.5C 568.379,369.899 570.545,373.232 573,376.5C 574.009,378.025 574.509,379.692 574.5,381.5C 575.5,381.5 576.5,381.5 577.5,381.5C 579.394,385.69 581.227,390.024 583,394.5C 584.424,400.955 586.091,407.288 588,413.5C 588.667,427.167 588.667,440.833 588,454.5C 587.581,455.672 586.915,456.672 586,457.5C 585.165,468.106 582.498,478.106 578,487.5C 577.505,489.473 577.338,491.473 577.5,493.5C 576.5,493.5 575.5,493.5 574.5,493.5C 574.799,495.604 574.466,497.604 573.5,499.5C 571.401,503.823 569.234,508.156 567,512.5C 566.506,514.134 566.34,515.801 566.5,517.5C 565.5,517.5 564.5,517.5 563.5,517.5C 563.5,519.5 563.5,521.5 563.5,523.5C 562.5,523.5 561.5,523.5 560.5,523.5C 560.504,527.779 558.671,531.113 555,533.5C 554.611,537.246 552.944,540.246 550,542.5C 549.506,544.134 549.34,545.801 549.5,547.5C 548.5,547.5 547.5,547.5 546.5,547.5C 546.5,548.5 546.5,549.5 546.5,550.5C 545.5,550.5 544.5,550.5 543.5,550.5C 543.66,552.199 543.494,553.866 543,555.5C 539.218,558.738 536.718,562.738 535.5,567.5C 534.5,567.5 533.5,567.5 532.5,567.5C 532.5,568.5 532.5,569.5 532.5,570.5C 531.5,570.5 530.5,570.5 529.5,570.5C 527.57,575.858 524.903,580.858 521.5,585.5C 520.5,585.5 519.5,585.5 518.5,585.5C 511.865,594.476 505.198,603.476 498.5,612.5C 497.5,612.5 496.5,612.5 495.5,612.5C 495.271,614.433 494.438,616.1 493,617.5C 487.775,621.775 481.942,624.942 475.5,627C 466.578,628.436 458.578,626.436 451.5,621C 444.98,614.743 439.313,607.909 434.5,600.5C 433.5,600.5 432.5,600.5 431.5,600.5C 422.579,588.56 413.579,576.56 404.5,564.5C 402.666,562.023 401.333,559.357 400.5,556.5C 399.5,556.5 398.5,556.5 397.5,556.5C 394.915,550.76 392.082,545.094 389,539.5C 386.057,536.737 384.224,533.404 383.5,529.5C 382.5,529.5 381.5,529.5 380.5,529.5C 380.5,527.5 380.5,525.5 380.5,523.5C 379.5,523.5 378.5,523.5 377.5,523.5C 377.657,522.127 377.49,520.793 377,519.5C 373.959,512.6 370.626,505.934 367,499.5C 366.505,497.527 366.338,495.527 366.5,493.5C 365.5,493.5 364.5,493.5 363.5,493.5C 363.662,491.473 363.495,489.473 363,487.5C 361.25,484.317 359.917,480.984 359,477.5C 358.782,474.574 358.282,471.74 357.5,469C 358.604,467.869 358.271,467.035 356.5,466.5C 355.673,462.541 355.173,458.541 355,454.5C 354.085,453.672 353.419,452.672 353,451.5C 352.782,448.574 352.282,445.74 351.5,443C 352.319,433.911 352.819,424.744 353,415.5C 356.502,404.157 360.002,392.823 363.5,381.5C 364.5,381.5 365.5,381.5 366.5,381.5C 367.97,378.682 368.97,375.682 369.5,372.5C 370.5,372.5 371.5,372.5 372.5,372.5C 373.167,370.5 373.833,368.5 374.5,366.5C 375.685,365.229 377.685,364.229 380.5,363.5C 380.5,362.5 380.5,361.5 380.5,360.5C 381.5,360.5 382.5,360.5 383.5,360.5C 383.5,359.5 383.5,358.5 383.5,357.5C 385.745,355.639 388.412,354.639 391.5,354.5C 391.5,353.5 391.5,352.5 391.5,351.5C 393.359,351.539 394.692,350.706 395.5,349C 397.134,348.506 398.801,348.34 400.5,348.5C 400.5,347.5 400.5,346.5 400.5,345.5C 402.167,345.5 403.833,345.5 405.5,345.5C 405.5,344.5 405.5,343.5 405.5,342.5C 407.5,342.5 409.5,342.5 411.5,342.5C 411.5,341.5 411.5,340.5 411.5,339.5C 414.5,339.5 417.5,339.5 420.5,339.5C 420.5,338.5 420.5,337.5 420.5,336.5C 427.538,334.238 434.871,333.071 442.5,333C 443.571,332.148 444.571,331.315 445.5,330.5 Z"/></g>
<g><path style="opacity:0.992" fill="#404040" d="M 458.5,332.5 C 481.883,331.41 504.55,334.91 526.5,343C 573.825,365.812 592.991,403.312 584,455.5C 577.902,485.356 566.569,513.023 550,538.5C 532.579,564.928 513.246,589.928 492,613.5C 477.667,626.833 463.333,626.833 449,613.5C 427.489,590.126 408.156,565.126 391,538.5C 375.921,514.666 364.921,488.999 358,461.5C 350.204,430.158 355.204,401.158 373,374.5C 388.656,355.537 408.489,343.037 432.5,337C 441.217,334.937 449.884,333.437 458.5,332.5 Z"/></g>
<g><path style="opacity:1" fill="#225c1e" d="M 495.5,533.5 C 495.573,535.027 494.906,536.027 493.5,536.5C 493.427,534.973 494.094,533.973 495.5,533.5 Z"/></g>
<g><path style="opacity:1" fill="#2d5529" d="M 443.5,531.5 C 446.465,534.617 449.132,537.95 451.5,541.5C 447.667,539.082 445,535.748 443.5,531.5 Z"/></g>
<g><path style="opacity:1" fill="#2b5e25" d="M 503.5,521.5 C 503.299,525.13 501.632,527.797 498.5,529.5C 499.436,526.329 501.103,523.662 503.5,521.5 Z"/></g>
<g><path style="opacity:1" fill="#334b2f" d="M 435.5,519.5 C 438.323,522.475 440.656,525.808 442.5,529.5C 440.107,528.647 438.774,526.981 438.5,524.5C 437.178,524.33 436.011,524.663 435,525.5C 434.689,524.258 435.189,523.258 436.5,522.5C 435.873,521.583 435.539,520.583 435.5,519.5 Z"/></g>
<g><path style="opacity:1" fill="#33542b" d="M 431.5,512.5 C 433.588,514.336 434.921,516.669 435.5,519.5C 434.603,518.402 433.77,518.402 433,519.5C 432.56,517.134 432.06,514.801 431.5,512.5 Z"/></g>
<g><path style="opacity:1" fill="#2e532a" d="M 511.5,509.5 C 511.33,513.186 509.664,515.853 506.5,517.5C 507.719,514.507 509.386,511.84 511.5,509.5 Z"/></g>
<g><path style="opacity:1" fill="#265c20" d="M 429.5,509.5 C 430.906,509.973 431.573,510.973 431.5,512.5C 430.094,512.027 429.427,511.027 429.5,509.5 Z"/></g>
<g><path style="opacity:1" fill="#2c5527" d="M 515.5,503.5 C 515.071,506.147 513.738,508.147 511.5,509.5C 511.87,506.733 513.204,504.733 515.5,503.5 Z"/></g>
<g><path style="opacity:1" fill="#1c6316" d="M 425.5,502.5 C 426.906,502.973 427.573,503.973 427.5,505.5C 426.094,505.027 425.427,504.027 425.5,502.5 Z"/></g>
<g><path style="opacity:1" fill="#24551f" d="M 517.5,499.5 C 517.34,501.153 516.674,502.486 515.5,503.5C 515.229,501.62 515.896,500.287 517.5,499.5 Z"/></g>
<g><path style="opacity:1" fill="#265d1f" d="M 519.5,494.5 C 519.771,496.38 519.104,497.713 517.5,498.5C 517.66,496.847 518.326,495.514 519.5,494.5 Z"/></g>
<g><path style="opacity:1" fill="#334f2f" d="M 527.5,479.5 C 527.3,482.386 526.3,484.886 524.5,487C 525.609,488.813 524.942,489.646 522.5,489.5C 522.5,491.167 522.5,492.833 522.5,494.5C 521.5,494.5 520.5,494.5 519.5,494.5C 521.805,489.204 524.472,484.204 527.5,479.5 Z"/></g>
<g><path style="opacity:1" fill="#2f5a29" d="M 414.5,480.5 C 417.674,485.516 420.341,490.849 422.5,496.5C 419.517,493.212 417.017,489.546 415,485.5C 414.506,483.866 414.34,482.199 414.5,480.5 Z"/></g>
<g><path style="opacity:1" fill="#2d5927" d="M 409.5,467.5 C 411.252,471.376 412.918,475.376 414.5,479.5C 411.114,476.352 409.447,472.352 409.5,467.5 Z"/></g>
<g><path style="opacity:1" fill="#2d5329" d="M 532.5,464.5 C 532.662,466.527 532.495,468.527 532,470.5C 530.942,473.766 529.442,476.766 527.5,479.5C 528.411,474.165 530.078,469.165 532.5,464.5 Z"/></g>
<g><path style="opacity:1" fill="#2b5126" d="M 406.5,457.5 C 407.407,459.657 408.073,461.99 408.5,464.5C 406.656,462.721 405.99,460.388 406.5,457.5 Z"/></g>
<g><path style="opacity:1" fill="#2d5327" d="M 536.5,418.5 C 537.828,423.456 538.495,428.789 538.5,434.5C 538.777,444.527 537.277,454.194 534,463.5C 533.617,464.056 533.117,464.389 532.5,464.5C 537.126,449.451 538.459,434.118 536.5,418.5 Z"/></g>
<g><path style="opacity:1" fill="#2a5326" d="M 403.5,419.5 C 403.175,427.019 403.508,434.352 404.5,441.5C 404.646,445.519 404.979,449.519 405.5,453.5C 404.678,451.611 403.845,449.611 403,447.5C 402.176,437.991 402.342,428.657 403.5,419.5 Z"/></g>
<g><path style="opacity:1" fill="#4cb642" d="M 406.5,414.5 C 404.738,423.383 404.072,432.383 404.5,441.5C 403.508,434.352 403.175,427.019 403.5,419.5C 404.338,419.158 404.672,418.492 404.5,417.5C 405.167,416.5 405.833,415.5 406.5,414.5 Z"/></g>
<g><path style="opacity:1" fill="#295224" d="M 407.5,410.5 C 407.167,411.833 406.833,413.167 406.5,414.5C 405.833,415.5 405.167,416.5 404.5,417.5C 403.908,414.369 404.908,412.036 407.5,410.5 Z"/></g>
<g><path style="opacity:1" fill="#2d5429" d="M 533.5,409.5 C 535.951,411.896 536.951,414.896 536.5,418.5C 534.928,415.785 533.928,412.785 533.5,409.5 Z"/></g>
<g><path style="opacity:1" fill="#255b1f" d="M 415.5,399.5 C 414.833,400.833 413.833,401.833 412.5,402.5C 412.5,400.5 413.5,399.5 415.5,399.5 Z"/></g>
<g><path style="opacity:1" fill="#295824" d="M 521.5,395.5 C 525.812,397.812 529.145,401.145 531.5,405.5C 527.881,402.548 524.548,399.215 521.5,395.5 Z"/></g>
<g><path style="opacity:1" fill="#295b22" d="M 423.5,392.5 C 420.874,394.823 418.207,397.157 415.5,399.5C 416.944,395.777 419.611,393.443 423.5,392.5 Z"/></g>
<g><path style="opacity:1" fill="#276a22" d="M 518.5,393.5 C 520.027,393.427 521.027,394.094 521.5,395.5C 519.973,395.573 518.973,394.906 518.5,393.5 Z"/></g>
<g><path style="opacity:1" fill="#255621" d="M 504.5,386.5 C 505.833,386.5 507.167,386.5 508.5,386.5C 508.833,387.167 509.167,387.833 509.5,388.5C 507.597,388.204 505.93,387.537 504.5,386.5 Z"/></g>
<g><path style="opacity:1" fill="#285722" d="M 438.5,385.5 C 436.491,387.065 434.157,388.065 431.5,388.5C 433.206,386.464 435.539,385.464 438.5,385.5 Z"/></g>
<g><path style="opacity:1" fill="#2a5924" d="M 489.5,382.5 C 495.135,382.28 500.135,383.613 504.5,386.5C 499.394,385.124 494.394,383.791 489.5,382.5 Z"/></g>
<g><path style="opacity:1" fill="#4bd83c" d="M 489.5,382.5 C 494.394,383.791 499.394,385.124 504.5,386.5C 505.93,387.537 507.597,388.204 509.5,388.5C 511.849,390.341 514.515,391.674 517.5,392.5C 517.5,393.167 517.833,393.5 518.5,393.5C 518.973,394.906 519.973,395.573 521.5,395.5C 524.548,399.215 527.881,402.548 531.5,405.5C 531.229,407.38 531.896,408.713 533.5,409.5C 533.928,412.785 534.928,415.785 536.5,418.5C 538.459,434.118 537.126,449.451 532.5,464.5C 530.078,469.165 528.411,474.165 527.5,479.5C 524.472,484.204 521.805,489.204 519.5,494.5C 518.326,495.514 517.66,496.847 517.5,498.5C 517.5,498.833 517.5,499.167 517.5,499.5C 515.896,500.287 515.229,501.62 515.5,503.5C 513.204,504.733 511.87,506.733 511.5,509.5C 509.386,511.84 507.719,514.507 506.5,517.5C 505.512,518.795 504.512,520.128 503.5,521.5C 501.103,523.662 499.436,526.329 498.5,529.5C 496.738,530.262 495.738,531.596 495.5,533.5C 494.094,533.973 493.427,534.973 493.5,536.5C 493.5,537.167 493.167,537.5 492.5,537.5C 489.387,540.281 487.054,543.614 485.5,547.5C 484.167,547.5 483.5,548.167 483.5,549.5C 481.413,550.585 480.08,552.251 479.5,554.5C 478.833,555.167 478.167,555.833 477.5,556.5C 475.548,559.118 473.215,561.452 470.5,563.5C 468.814,562.143 467.148,560.81 465.5,559.5C 463.132,555.95 460.465,552.617 457.5,549.5C 456.889,547.225 455.555,545.559 453.5,544.5C 453.573,542.973 452.906,541.973 451.5,541.5C 449.132,537.95 446.465,534.617 443.5,531.5C 443.672,530.508 443.338,529.842 442.5,529.5C 440.656,525.808 438.323,522.475 435.5,519.5C 434.921,516.669 433.588,514.336 431.5,512.5C 431.573,510.973 430.906,509.973 429.5,509.5C 428.833,508.167 428.167,506.833 427.5,505.5C 427.573,503.973 426.906,502.973 425.5,502.5C 424.492,500.456 423.492,498.456 422.5,496.5C 420.341,490.849 417.674,485.516 414.5,480.5C 414.5,480.167 414.5,479.833 414.5,479.5C 412.918,475.376 411.252,471.376 409.5,467.5C 409.737,466.209 409.404,465.209 408.5,464.5C 408.073,461.99 407.407,459.657 406.5,457.5C 406.768,455.901 406.434,454.568 405.5,453.5C 404.979,449.519 404.646,445.519 404.5,441.5C 404.072,432.383 404.738,423.383 406.5,414.5C 406.833,413.167 407.167,411.833 407.5,410.5C 409.002,407.746 410.669,405.079 412.5,402.5C 413.833,401.833 414.833,400.833 415.5,399.5C 418.207,397.157 420.874,394.823 423.5,392.5C 426.167,391.167 428.833,389.833 431.5,388.5C 434.157,388.065 436.491,387.065 438.5,385.5C 455.224,381.572 472.224,380.572 489.5,382.5 Z"/></g>
<g><path style="opacity:1" fill="#3a4734" d="M 517.5,392.5 C 514.515,391.674 511.849,390.341 509.5,388.5C 509.167,387.833 508.833,387.167 508.5,386.5C 508.486,385.173 509.32,383.84 511,382.5C 512.744,383.649 512.911,384.983 511.5,386.5C 513.078,387.298 514.744,387.798 516.5,388C 515.833,388.667 515.167,389.333 514.5,390C 516.119,390.236 517.119,391.069 517.5,392.5 Z"/></g>
<g><path style="opacity:1" fill="#2b5527" d="M 489.5,382.5 C 472.224,380.572 455.224,381.572 438.5,385.5C 439.429,384.685 440.429,383.852 441.5,383C 445.028,382.911 448.362,382.244 451.5,381C 457.833,380.833 464.167,380.667 470.5,380.5C 477.204,380.504 483.537,381.17 489.5,382.5 Z"/></g>
<g><path style="opacity:0.004" fill="#fcfffd" d="M 346.5,540.5 C 347.622,542.288 347.789,544.288 347,546.5C 346.308,545.975 345.808,545.308 345.5,544.5C 346.246,543.264 346.579,541.93 346.5,540.5 Z"/></g>
<g><path style="opacity:1" fill="#30542c" d="M 492.5,537.5 C 491.54,541.808 489.206,545.141 485.5,547.5C 487.054,543.614 489.387,540.281 492.5,537.5 Z"/></g>
<g><path style="opacity:1" fill="#295e23" d="M 451.5,541.5 C 452.906,541.973 453.573,542.973 453.5,544.5C 452.094,544.027 451.427,543.027 451.5,541.5 Z"/></g>
<g><path style="opacity:0.004" fill="#fcfffd" d="M 693.5,550.5 C 694.251,549.427 695.251,549.26 696.5,550C 695.552,550.483 694.552,550.649 693.5,550.5 Z"/></g>
<g><path style="opacity:1" fill="#24631f" d="M 483.5,549.5 C 482.92,551.749 481.587,553.415 479.5,554.5C 480.08,552.251 481.413,550.585 483.5,549.5 Z"/></g>
<g><path style="opacity:0.004" fill="#fcfffd" d="M 351.5,553.5 C 353.539,554.911 354.539,556.911 354.5,559.5C 353.167,559.5 351.833,559.5 350.5,559.5C 350.517,557.435 350.85,555.435 351.5,553.5 Z"/></g>
<g><path style="opacity:1" fill="#2b5b25" d="M 457.5,549.5 C 460.465,552.617 463.132,555.95 465.5,559.5C 461.667,557.082 459,553.748 457.5,549.5 Z"/></g>
<g><path style="opacity:0.004" fill="#fcfffd" d="M 369.5,560.5 C 370.822,560.33 371.989,560.663 373,561.5C 373.706,563.971 373.373,566.305 372,568.5C 370.269,566.138 369.435,563.471 369.5,560.5 Z"/></g>
<g><path style="opacity:1" fill="#334e2c" d="M 477.5,556.5 C 476.196,562.463 472.529,565.129 466.5,564.5C 466.371,562.784 466.038,561.117 465.5,559.5C 467.148,560.81 468.814,562.143 470.5,563.5C 473.215,561.452 475.548,559.118 477.5,556.5 Z"/></g>
<g><path style="opacity:0.004" fill="#fcfffd" d="M 31.5,581.5 C 32.6341,583.966 32.8007,586.633 32,589.5C 31.5026,586.854 31.3359,584.187 31.5,581.5 Z"/></g>
<g><path style="opacity:0.004" fill="#fcfefd" d="M 419.5,593.5 C 423.13,594.609 424.963,596.942 425,600.5C 421.263,599.705 419.43,597.372 419.5,593.5 Z"/></g>
<g><path style="opacity:0.004" fill="#fcfffd" d="M 519.5,647.5 C 520.833,647.5 522.167,647.5 523.5,647.5C 523.477,649.927 522.977,652.26 522,654.5C 520.644,655.38 519.144,655.714 517.5,655.5C 517.283,652.579 517.949,649.913 519.5,647.5 Z"/></g>
<g><path style="opacity:0.004" fill="#fcfffd" d="M 307.5,667.5 C 308.289,667.783 308.956,668.283 309.5,669C 308.184,669.528 307.517,669.028 307.5,667.5 Z"/></g>
<g><path style="opacity:0.004" fill="#fcfffd" d="M 315.5,676.5 C 318.99,679.307 319.99,682.807 318.5,687C 317.552,687.483 316.552,687.649 315.5,687.5C 314.343,683.784 314.343,680.117 315.5,676.5 Z"/></g>
<g><path style="opacity:0.004" fill="#fcfffd" d="M 339.5,695.5 C 342.734,695.237 344.068,696.737 343.5,700C 343.129,702.856 342.629,705.689 342,708.5C 340.667,709.833 339.333,709.833 338,708.5C 336.894,704.878 336.561,701.211 337,697.5C 337.995,696.934 338.828,696.267 339.5,695.5 Z"/></g>
<g><path style="opacity:0.004" fill="#fcfffd" d="M 880.5,761.5 C 883.55,762.242 885.217,764.242 885.5,767.5C 883.54,778.06 882.373,788.727 882,799.5C 881.692,800.308 881.192,800.975 880.5,801.5C 878.566,801.099 877.066,800.099 876,798.5C 876.312,790.657 876.479,782.824 876.5,775C 874.7,771.736 874.2,768.236 875,764.5C 877.058,763.771 878.891,762.771 880.5,761.5 Z"/></g>
<g><path style="opacity:0.004" fill="#fcfffd" d="M 869.5,775.5 C 871.293,775.884 872.293,777.05 872.5,779C 869.884,785.848 869.884,792.682 872.5,799.5C 871.469,800.7 870.635,802.034 870,803.5C 869.131,801.419 868.631,799.253 868.5,797C 869.188,789.794 869.521,782.627 869.5,775.5 Z"/></g>
<g><path style="opacity:0.004" fill="#fcfffd" d="M 445.5,791.5 C 450.511,791.746 451.177,793.079 447.5,795.5C 446.707,795.069 445.873,794.735 445,794.5C 441.809,797.51 438.309,798.01 434.5,796C 435.167,794.667 436.167,793.667 437.5,793C 440.365,792.817 443.031,792.317 445.5,791.5 Z"/></g>
<g><path style="opacity:0.004" fill="#fcfffd" d="M 45.5,881.5 C 46.525,881.897 46.6917,882.563 46,883.5C 45.5357,882.906 45.369,882.239 45.5,881.5 Z"/></g>
<g><path style="opacity:0.004" fill="#fcfffd" d="M 899.5,923.5 C 899.5,931.5 899.5,939.5 899.5,947.5C 896.436,947.019 895.602,945.686 897,943.5C 897.753,938.625 897.586,933.792 896.5,929C 896.699,926.552 897.699,924.719 899.5,923.5 Z"/></g>
<g><path style="opacity:0.004" fill="#fcfffd" d="M -0.5,944.5 C 1.28801,944.215 2.95467,944.548 4.5,945.5C 3.75415,946.736 3.42082,948.07 3.5,949.5C 2.16667,949.5 0.833333,949.5 -0.5,949.5C -0.5,947.833 -0.5,946.167 -0.5,944.5 Z"/></g>
</svg>
