<svg id="svg" version="1.1" xmlns="http://www.w3.org/2000/svg" xmlns:xlink="http://www.w3.org/1999/xlink" width="400" height="315.85760517799355" viewBox="0, 0, 400,315.85760517799355"><g id="svgg"><path id="path0" d="M204.265 84.397 C 203.049 84.535,201.414 84.734,200.632 84.840 C 199.850 84.946,197.545 85.229,195.509 85.469 C 191.900 85.895,189.776 86.430,187.204 87.559 C 186.509 87.865,185.513 88.213,184.992 88.332 C 183.614 88.648,177.736 91.517,177.240 92.115 C 177.007 92.395,176.168 92.955,175.375 93.360 C 172.064 95.048,166.599 101.746,165.223 105.801 C 164.754 107.183,164.275 108.468,164.159 108.656 C 163.213 110.187,162.940 112.901,162.931 120.853 C 162.921 129.439,163.033 130.441,164.473 134.755 C 164.880 135.972,165.496 138.389,165.844 140.126 C 166.191 141.864,166.759 143.867,167.106 144.577 C 167.453 145.287,167.908 146.567,168.116 147.421 C 168.323 148.275,168.959 149.826,169.528 150.869 C 170.096 151.912,170.783 153.523,171.054 154.451 C 171.325 155.378,171.823 156.586,172.161 157.136 C 172.499 157.686,173.028 158.776,173.337 159.558 C 173.646 160.340,174.364 161.755,174.932 162.702 C 175.500 163.649,176.046 164.790,176.144 165.238 C 176.242 165.685,176.869 166.773,177.537 167.655 C 178.205 168.538,178.932 169.814,179.152 170.491 C 179.373 171.168,179.959 172.189,180.456 172.760 C 180.952 173.331,181.359 174.001,181.359 174.250 C 181.359 174.498,181.765 175.169,182.262 175.739 C 182.759 176.310,183.449 177.424,183.796 178.215 C 184.143 179.006,184.845 180.143,185.355 180.743 C 186.297 181.849,188.156 184.716,189.699 187.441 C 190.166 188.266,190.681 188.942,190.844 188.942 C 191.007 188.942,191.428 189.506,191.780 190.195 C 192.131 190.884,192.702 191.599,193.047 191.784 C 193.392 191.969,193.907 192.569,194.190 193.118 C 194.474 193.667,195.578 195.235,196.642 196.602 C 197.707 197.970,198.892 199.614,199.275 200.255 C 199.658 200.897,200.320 201.724,200.747 202.093 C 201.173 202.462,201.743 203.191,202.013 203.713 C 202.283 204.236,202.716 204.744,202.975 204.843 C 203.234 204.943,203.838 205.635,204.318 206.383 C 204.797 207.130,205.708 208.320,206.341 209.028 C 206.975 209.736,207.552 210.491,207.624 210.707 C 208.250 212.586,212.774 210.206,214.816 206.924 C 215.570 205.710,217.048 203.874,218.562 202.268 C 219.301 201.485,219.905 200.760,219.905 200.657 C 219.905 200.554,220.833 199.262,221.967 197.786 C 223.101 196.310,224.408 194.534,224.871 193.839 C 225.335 193.144,226.034 192.220,226.424 191.785 C 228.071 189.951,233.807 181.424,233.807 180.809 C 233.807 180.633,234.044 180.293,234.333 180.054 C 234.621 179.816,235.140 178.981,235.486 178.199 C 235.831 177.417,236.562 176.209,237.110 175.513 C 237.659 174.818,238.284 173.837,238.500 173.332 C 238.717 172.828,239.358 171.690,239.925 170.804 C 241.334 168.606,243.052 165.663,243.815 164.139 C 244.163 163.444,245.309 161.240,246.361 159.242 C 247.414 157.243,248.438 154.968,248.637 154.186 C 248.836 153.404,249.476 151.769,250.058 150.553 C 251.253 148.053,253.535 141.169,253.879 139.021 C 254.005 138.239,254.518 136.319,255.019 134.755 C 255.672 132.722,255.978 131.011,256.096 128.752 C 256.187 127.014,256.423 124.929,256.620 124.118 C 257.140 121.978,256.406 112.010,255.553 109.637 C 255.210 108.681,254.593 106.935,254.182 105.757 C 253.771 104.579,253.019 103.086,252.511 102.439 C 252.003 101.793,251.349 100.798,251.058 100.229 C 250.344 98.833,245.610 94.074,244.234 93.370 C 243.626 93.058,242.678 92.412,242.128 91.933 C 241.578 91.454,240.583 90.883,239.917 90.664 C 239.250 90.445,238.149 89.917,237.470 89.490 C 236.791 89.063,235.120 88.446,233.756 88.121 C 232.392 87.795,230.565 87.168,229.695 86.728 C 228.436 86.090,227.008 85.794,222.667 85.274 C 211.930 83.986,209.087 83.851,204.265 84.397 " stroke="none" fill="#fa7505" fill-rule="evenodd"></path><path id="path1" d="M201.106 55.286 C 193.202 56.011,183.103 57.943,177.883 59.726 C 173.371 61.269,172.055 61.808,167.930 63.808 C 142.765 76.012,129.818 102.003,134.289 131.348 C 134.442 132.353,134.790 134.610,135.062 136.363 C 135.499 139.178,137.482 147.355,138.809 151.817 C 139.425 153.886,143.027 163.311,143.380 163.777 C 143.531 163.976,143.843 164.637,144.073 165.245 C 144.895 167.411,149.119 176.188,150.765 179.147 C 151.200 179.929,152.242 181.848,153.081 183.412 C 153.920 184.976,155.600 187.891,156.816 189.889 C 158.031 191.888,159.181 193.808,159.371 194.156 C 159.695 194.753,160.628 196.144,163.179 199.842 C 163.778 200.711,164.637 202.028,165.088 202.768 C 165.836 203.997,167.235 205.940,170.149 209.795 C 170.740 210.577,172.393 212.780,173.823 214.692 C 182.041 225.679,195.784 241.663,200.416 245.620 C 204.938 249.483,211.610 250.145,216.798 247.245 C 219.802 245.566,231.286 233.143,238.653 223.602 C 239.320 222.738,240.143 221.734,240.482 221.370 C 242.696 218.993,254.929 202.162,257.978 197.297 C 258.673 196.188,260.095 193.923,261.137 192.263 C 268.061 181.246,275.282 166.493,279.464 154.818 C 288.823 128.691,287.405 100.894,275.890 84.793 C 275.075 83.653,274.198 82.414,273.942 82.039 C 270.878 77.565,262.216 69.787,256.872 66.712 C 246.347 60.656,239.009 58.204,224.961 56.047 C 219.220 55.165,206.751 54.768,201.106 55.286 M216.228 84.178 C 220.822 84.337,222.292 84.490,222.648 84.846 C 222.948 85.146,223.759 85.308,224.964 85.308 C 225.984 85.308,226.911 85.457,227.024 85.639 C 227.136 85.821,227.464 85.942,227.753 85.908 C 228.042 85.874,228.847 86.103,229.542 86.417 C 230.237 86.731,231.179 86.965,231.634 86.936 C 232.090 86.907,232.641 87.098,232.858 87.360 C 233.075 87.622,233.511 87.836,233.827 87.836 C 234.143 87.836,234.497 87.989,234.613 88.177 C 234.729 88.365,235.148 88.438,235.543 88.338 C 235.975 88.230,236.412 88.338,236.637 88.608 C 236.842 88.856,237.417 89.148,237.915 89.258 C 238.412 89.367,238.977 89.646,239.170 89.879 C 239.363 90.111,239.901 90.397,240.366 90.514 C 240.832 90.630,241.818 91.284,242.558 91.966 C 243.298 92.649,244.158 93.207,244.470 93.207 C 245.197 93.207,251.047 99.116,251.352 100.158 C 251.479 100.592,252.133 101.549,252.806 102.284 C 253.478 103.018,254.028 103.838,254.028 104.105 C 254.028 104.372,254.157 104.837,254.315 105.139 C 254.472 105.440,254.771 106.327,254.979 107.109 C 255.187 107.891,255.508 108.715,255.692 108.941 C 255.876 109.167,256.071 109.735,256.125 110.205 C 256.629 114.600,256.781 115.388,257.169 115.628 C 257.533 115.853,257.519 115.986,257.081 116.424 C 256.438 117.067,256.431 117.249,257.020 118.028 C 257.670 118.887,257.682 123.450,257.036 124.164 C 256.714 124.520,256.524 125.657,256.426 127.822 C 256.348 129.550,256.121 131.532,255.922 132.227 C 255.321 134.329,254.932 136.287,254.940 137.177 C 254.944 137.641,254.740 138.191,254.488 138.401 C 254.233 138.612,254.028 139.318,254.028 139.985 C 254.028 140.665,253.809 141.406,253.523 141.692 C 253.246 141.970,252.812 143.224,252.559 144.479 C 252.123 146.645,251.521 148.398,250.853 149.447 C 250.305 150.308,249.868 151.485,249.682 152.604 C 249.580 153.211,249.309 153.896,249.077 154.127 C 248.846 154.358,248.657 154.804,248.657 155.118 C 248.657 155.432,248.453 155.858,248.204 156.065 C 247.954 156.272,247.660 156.852,247.550 157.353 C 247.440 157.854,247.095 158.591,246.783 158.990 C 246.471 159.389,246.107 160.064,245.973 160.491 C 245.840 160.917,245.536 161.460,245.298 161.698 C 245.060 161.936,244.865 162.369,244.864 162.661 C 244.862 162.952,244.579 163.618,244.234 164.139 C 243.889 164.660,243.605 165.323,243.604 165.612 C 243.603 165.900,243.165 166.504,242.632 166.953 C 241.973 167.507,241.720 167.951,241.843 168.339 C 241.966 168.726,241.672 169.252,240.932 169.969 C 240.331 170.551,239.753 171.423,239.647 171.906 C 239.541 172.389,239.250 172.954,239.000 173.161 C 238.751 173.368,238.547 173.708,238.547 173.917 C 238.547 174.126,238.191 174.631,237.757 175.039 C 237.322 175.448,236.967 175.912,236.967 176.072 C 236.967 176.231,236.682 176.723,236.335 177.165 C 235.987 177.607,235.703 178.209,235.703 178.503 C 235.703 178.796,235.348 179.371,234.913 179.779 C 234.458 180.207,234.123 180.874,234.123 181.354 C 234.123 181.913,233.812 182.418,233.180 182.885 C 232.661 183.269,232.151 183.925,232.045 184.343 C 231.940 184.762,231.671 185.175,231.446 185.261 C 231.221 185.347,230.570 186.235,229.999 187.234 C 229.427 188.233,228.700 189.310,228.382 189.628 C 228.064 189.945,227.804 190.408,227.804 190.656 C 227.804 190.904,227.475 191.367,227.073 191.683 C 226.671 192.000,226.069 192.686,225.736 193.207 C 225.402 193.728,224.878 194.341,224.571 194.568 C 224.264 194.795,224.013 195.252,224.013 195.583 C 224.013 195.915,223.733 196.336,223.391 196.519 C 223.049 196.702,222.403 197.476,221.956 198.239 C 221.509 199.002,220.935 199.706,220.682 199.803 C 220.429 199.901,220.221 200.242,220.221 200.561 C 220.221 200.881,219.368 201.967,218.325 202.976 C 217.283 203.984,216.430 205.002,216.430 205.237 C 216.430 205.472,216.155 205.812,215.819 205.992 C 215.483 206.171,215.113 206.639,214.997 207.030 C 214.699 208.031,210.406 212.322,209.702 212.322 C 209.033 212.322,206.951 210.826,206.951 210.345 C 206.951 210.168,206.382 209.406,205.687 208.652 C 204.992 207.898,204.423 207.122,204.423 206.929 C 204.423 206.735,203.854 205.985,203.158 205.263 C 200.797 202.811,199.368 201.037,199.368 200.554 C 199.368 200.289,199.013 199.840,198.578 199.555 C 198.144 199.270,197.788 198.856,197.788 198.635 C 197.788 198.413,197.220 197.640,196.524 196.916 C 195.829 196.193,195.261 195.416,195.261 195.191 C 195.261 194.965,194.976 194.603,194.629 194.386 C 194.281 194.169,193.997 193.806,193.997 193.579 C 193.997 193.353,193.553 192.750,193.010 192.239 C 192.467 191.729,191.826 190.849,191.584 190.284 C 191.342 189.720,191.015 189.258,190.856 189.258 C 190.697 189.258,190.363 188.867,190.114 188.389 C 189.079 186.408,188.749 185.898,188.073 185.225 C 187.682 184.836,187.362 184.320,187.362 184.078 C 187.362 183.836,187.148 183.556,186.888 183.456 C 186.627 183.356,186.414 183.011,186.414 182.689 C 186.414 182.368,186.058 181.795,185.624 181.418 C 185.190 181.040,184.834 180.524,184.834 180.271 C 184.834 180.018,184.338 179.432,183.731 178.970 C 182.864 178.309,182.667 177.972,182.811 177.399 C 182.949 176.849,182.796 176.541,182.185 176.140 C 181.688 175.815,181.297 175.192,181.173 174.528 C 181.042 173.832,180.579 173.123,179.874 172.542 C 179.223 172.006,178.809 171.400,178.855 171.049 C 178.957 170.264,178.514 168.720,178.187 168.720 C 177.838 168.720,175.987 165.952,175.987 165.430 C 175.987 165.201,175.703 164.653,175.355 164.211 C 175.008 163.769,174.724 163.264,174.724 163.089 C 174.724 162.914,174.226 161.870,173.619 160.769 C 173.011 159.668,172.371 158.412,172.197 157.978 C 172.022 157.543,171.738 156.941,171.564 156.639 C 171.390 156.338,171.248 155.750,171.248 155.333 C 171.248 154.886,170.943 154.375,170.504 154.088 C 169.979 153.744,169.704 153.189,169.569 152.202 C 169.463 151.434,168.876 149.843,168.263 148.667 C 167.650 147.492,167.214 146.424,167.294 146.294 C 167.482 145.991,166.487 143.444,166.182 143.444 C 166.054 143.444,165.851 142.484,165.730 141.311 C 165.608 140.138,165.312 138.872,165.073 138.497 C 164.833 138.122,164.539 136.867,164.421 135.709 C 164.302 134.550,164.003 133.400,163.755 133.153 C 163.502 132.900,163.390 132.438,163.498 132.097 C 163.604 131.764,163.543 131.399,163.362 131.288 C 163.171 131.169,163.033 129.797,163.033 128.004 C 163.033 125.784,162.904 124.752,162.569 124.310 C 161.897 123.421,161.889 117.144,162.559 116.588 C 163.160 116.089,163.156 115.808,162.539 115.191 C 162.092 114.743,162.092 114.632,162.539 113.992 C 162.811 113.605,163.033 112.830,163.033 112.271 C 163.033 111.711,163.189 111.158,163.379 111.040 C 163.569 110.923,163.665 110.516,163.593 110.136 C 163.520 109.756,163.649 109.269,163.879 109.055 C 164.109 108.840,164.297 108.038,164.297 107.273 C 164.297 106.508,164.432 105.799,164.598 105.697 C 164.763 105.594,165.356 104.582,165.914 103.447 C 166.473 102.312,167.170 101.215,167.464 101.008 C 167.758 100.801,168.106 100.289,168.239 99.870 C 168.584 98.777,174.280 93.207,175.052 93.207 C 175.401 93.207,176.287 92.674,177.021 92.022 C 178.707 90.527,181.684 89.047,184.834 88.140 C 185.616 87.914,186.699 87.470,187.241 87.151 C 187.783 86.832,188.654 86.572,189.177 86.572 C 189.700 86.572,190.288 86.378,190.485 86.142 C 190.681 85.906,191.179 85.777,191.592 85.856 C 192.005 85.935,192.439 85.844,192.557 85.654 C 192.674 85.464,193.605 85.308,194.625 85.308 C 195.814 85.308,196.642 85.146,196.932 84.855 C 197.271 84.516,198.756 84.345,202.800 84.177 C 206.661 84.016,208.314 83.832,208.560 83.536 C 208.845 83.192,209.023 83.194,209.587 83.545 C 210.060 83.840,212.095 84.034,216.228 84.178 " stroke="none" fill="#3d3d3d" fill-rule="evenodd"></path><path id="path2" d="M196.209 49.289 C 196.209 49.892,195.998 49.921,191.627 49.921 C 187.256 49.921,187.046 49.950,187.046 50.553 C 187.046 51.132,186.835 51.185,184.518 51.185 C 182.201 51.185,181.991 51.237,181.991 51.817 C 181.991 52.396,181.780 52.449,179.463 52.449 C 177.146 52.449,176.935 52.501,176.935 53.081 C 176.935 53.648,176.725 53.712,174.882 53.712 C 173.038 53.712,172.828 53.777,172.828 54.344 C 172.828 54.871,172.617 54.976,171.564 54.976 C 170.427 54.976,170.300 55.055,170.300 55.766 C 170.300 56.521,170.216 56.556,168.404 56.556 C 166.719 56.556,166.509 56.626,166.509 57.188 C 166.509 57.715,166.298 57.820,165.245 57.820 C 164.192 57.820,163.981 57.925,163.981 58.452 C 163.981 58.990,163.770 59.084,162.559 59.084 C 161.348 59.084,161.137 59.177,161.137 59.716 C 161.137 60.083,160.927 60.348,160.634 60.348 C 160.357 60.348,160.056 60.632,159.965 60.979 C 159.836 61.475,159.534 61.611,158.573 61.611 C 157.557 61.611,157.346 61.720,157.346 62.243 C 157.346 62.770,157.135 62.875,156.082 62.875 C 155.029 62.875,154.818 62.981,154.818 63.507 C 154.818 63.928,154.608 64.139,154.186 64.139 C 153.765 64.139,153.555 64.350,153.555 64.771 C 153.555 65.192,153.344 65.403,152.923 65.403 C 152.501 65.403,152.291 65.613,152.291 66.035 C 152.291 66.456,152.080 66.667,151.659 66.667 C 151.244 66.667,151.027 66.877,151.027 67.280 C 151.027 67.777,150.770 67.913,149.684 67.991 C 148.568 68.072,148.324 68.208,148.240 68.799 C 148.175 69.256,147.921 69.510,147.529 69.510 C 147.130 69.510,146.919 69.728,146.919 70.142 C 146.919 70.563,146.709 70.774,146.288 70.774 C 145.866 70.774,145.656 70.985,145.656 71.406 C 145.656 71.827,145.445 72.038,145.024 72.038 C 144.602 72.038,144.392 72.249,144.392 72.670 C 144.392 73.091,144.181 73.302,143.760 73.302 C 143.339 73.302,143.128 73.512,143.128 73.934 C 143.128 74.355,142.917 74.566,142.496 74.566 C 141.969 74.566,141.864 74.776,141.864 75.829 C 141.864 76.883,141.759 77.093,141.232 77.093 C 140.811 77.093,140.600 77.304,140.600 77.725 C 140.600 78.146,140.390 78.357,139.968 78.357 C 139.547 78.357,139.336 78.568,139.336 78.989 C 139.336 79.410,139.126 79.621,138.705 79.621 C 138.166 79.621,138.073 79.831,138.073 81.043 C 138.073 82.349,138.008 82.464,137.283 82.464 C 136.572 82.464,136.493 82.591,136.493 83.728 C 136.493 84.781,136.388 84.992,135.861 84.992 C 135.453 84.992,135.229 85.203,135.229 85.587 C 135.229 85.917,134.947 86.256,134.597 86.347 C 134.113 86.474,133.965 86.778,133.965 87.648 C 133.965 88.573,133.848 88.784,133.333 88.784 C 132.772 88.784,132.701 88.994,132.701 90.679 C 132.701 92.364,132.631 92.575,132.070 92.575 C 131.543 92.575,131.438 92.786,131.438 93.839 C 131.438 94.892,131.332 95.103,130.806 95.103 C 130.223 95.103,130.174 95.313,130.174 97.788 C 130.174 100.263,130.124 100.474,129.542 100.474 C 128.963 100.474,128.910 100.685,128.910 102.965 C 128.910 105.190,128.843 105.473,128.278 105.621 C 127.658 105.783,127.646 106.052,127.646 120.508 C 127.646 135.018,127.655 135.229,128.278 135.229 C 128.870 135.229,128.910 135.440,128.910 138.547 C 128.910 141.654,128.950 141.864,129.542 141.864 C 130.121 141.864,130.174 142.075,130.174 144.392 C 130.174 146.709,130.226 146.919,130.806 146.919 C 131.388 146.919,131.438 147.130,131.438 149.605 C 131.438 152.080,131.487 152.291,132.070 152.291 C 132.631 152.291,132.701 152.501,132.701 154.186 C 132.701 155.872,132.772 156.082,133.333 156.082 C 133.848 156.082,133.965 156.293,133.965 157.218 C 133.965 158.087,134.113 158.392,134.597 158.518 C 135.139 158.660,135.229 158.949,135.229 160.542 C 135.229 162.175,135.304 162.401,135.846 162.401 C 136.382 162.401,136.475 162.660,136.557 164.376 C 136.641 166.150,136.723 166.361,137.362 166.452 C 137.961 166.537,138.073 166.747,138.073 167.794 C 138.073 168.826,138.180 169.036,138.705 169.036 C 139.231 169.036,139.336 169.247,139.336 170.300 C 139.336 171.353,139.442 171.564,139.968 171.564 C 140.495 171.564,140.600 171.775,140.600 172.828 C 140.600 173.881,140.706 174.092,141.232 174.092 C 141.759 174.092,141.864 174.302,141.864 175.355 C 141.864 176.409,141.969 176.619,142.496 176.619 C 143.025 176.619,143.128 176.830,143.128 177.913 C 143.128 178.940,143.258 179.240,143.760 179.371 C 144.255 179.501,144.392 179.802,144.392 180.764 C 144.392 181.780,144.500 181.991,145.024 181.991 C 145.550 181.991,145.656 182.201,145.656 183.254 C 145.656 184.308,145.761 184.518,146.288 184.518 C 146.802 184.518,146.919 184.729,146.919 185.654 C 146.919 186.523,147.067 186.828,147.551 186.954 C 148.046 187.084,148.183 187.385,148.183 188.346 C 148.183 189.348,148.295 189.573,148.793 189.573 C 149.185 189.573,149.439 189.828,149.504 190.284 C 149.569 190.741,149.859 191.031,150.316 191.096 C 150.915 191.181,151.027 191.392,151.027 192.439 C 151.027 193.470,151.134 193.681,151.659 193.681 C 152.185 193.681,152.291 193.892,152.291 194.945 C 152.291 195.998,152.396 196.209,152.923 196.209 C 153.344 196.209,153.555 196.419,153.555 196.840 C 153.555 197.262,153.765 197.472,154.186 197.472 C 154.713 197.472,154.818 197.683,154.818 198.736 C 154.818 199.789,154.924 200.000,155.450 200.000 C 155.872 200.000,156.082 200.211,156.082 200.632 C 156.082 201.053,156.293 201.264,156.714 201.264 C 157.241 201.264,157.346 201.474,157.346 202.528 C 157.346 203.581,157.451 203.791,157.978 203.791 C 158.441 203.791,158.610 204.002,158.610 204.581 C 158.610 205.161,158.778 205.371,159.242 205.371 C 159.768 205.371,159.874 205.582,159.874 206.635 C 159.874 207.688,159.979 207.899,160.506 207.899 C 160.927 207.899,161.137 208.110,161.137 208.531 C 161.137 208.946,161.348 209.163,161.750 209.163 C 162.230 209.163,162.384 209.419,162.461 210.348 C 162.540 211.299,162.699 211.552,163.270 211.633 C 163.727 211.698,163.981 211.952,163.981 212.344 C 163.981 212.744,164.199 212.954,164.613 212.954 C 165.034 212.954,165.245 213.165,165.245 213.586 C 165.245 214.007,165.456 214.218,165.877 214.218 C 166.403 214.218,166.509 214.429,166.509 215.482 C 166.509 216.535,166.614 216.746,167.141 216.746 C 167.571 216.746,167.773 216.956,167.773 217.407 C 167.773 217.792,168.024 218.134,168.375 218.226 C 168.707 218.313,169.049 218.655,169.136 218.987 C 169.222 219.318,169.520 219.589,169.797 219.589 C 170.173 219.589,170.300 219.907,170.300 220.853 C 170.300 221.906,170.405 222.117,170.932 222.117 C 171.353 222.117,171.564 222.328,171.564 222.749 C 171.564 223.170,171.775 223.381,172.196 223.381 C 172.617 223.381,172.828 223.591,172.828 224.013 C 172.828 224.421,173.038 224.645,173.423 224.645 C 173.752 224.645,174.092 224.927,174.183 225.276 C 174.274 225.624,174.575 225.908,174.852 225.908 C 175.229 225.908,175.355 226.226,175.355 227.172 C 175.355 228.310,175.434 228.436,176.145 228.436 C 176.725 228.436,176.935 228.605,176.935 229.068 C 176.935 229.489,177.146 229.700,177.567 229.700 C 178.031 229.700,178.199 229.910,178.199 230.490 C 178.199 231.069,178.368 231.280,178.831 231.280 C 179.252 231.280,179.463 231.490,179.463 231.912 C 179.463 232.333,179.674 232.543,180.095 232.543 C 180.621 232.543,180.727 232.754,180.727 233.807 C 180.727 234.860,180.832 235.071,181.359 235.071 C 181.780 235.071,181.991 235.282,181.991 235.703 C 181.991 236.124,182.201 236.335,182.622 236.335 C 183.044 236.335,183.254 236.546,183.254 236.967 C 183.254 237.388,183.465 237.599,183.886 237.599 C 184.308 237.599,184.518 237.809,184.518 238.231 C 184.518 238.652,184.729 238.863,185.150 238.863 C 185.571 238.863,185.782 239.073,185.782 239.494 C 185.782 239.916,185.993 240.126,186.414 240.126 C 186.835 240.126,187.046 240.337,187.046 240.758 C 187.046 241.180,187.256 241.390,187.678 241.390 C 188.099 241.390,188.310 241.601,188.310 242.022 C 188.310 242.437,188.520 242.654,188.923 242.654 C 189.420 242.654,189.556 242.911,189.634 243.997 C 189.731 245.333,189.738 245.340,191.074 245.437 C 192.411 245.533,192.417 245.540,192.417 246.780 C 192.417 247.815,192.524 248.025,193.049 248.025 C 193.470 248.025,193.681 248.236,193.681 248.657 C 193.681 249.078,193.892 249.289,194.313 249.289 C 194.734 249.289,194.945 249.500,194.945 249.921 C 194.945 250.448,195.155 250.553,196.209 250.553 C 197.262 250.553,197.472 250.658,197.472 251.185 C 197.472 251.606,197.683 251.817,198.104 251.817 C 198.526 251.817,198.736 252.027,198.736 252.449 C 198.736 252.870,198.947 253.081,199.368 253.081 C 199.789 253.081,200.000 253.291,200.000 253.712 C 200.000 254.280,200.211 254.344,202.054 254.344 C 203.897 254.344,204.107 254.409,204.107 254.976 C 204.107 255.585,204.318 255.608,209.795 255.608 C 215.271 255.608,215.482 255.585,215.482 254.976 C 215.482 254.415,215.692 254.344,217.378 254.344 C 219.063 254.344,219.273 254.274,219.273 253.712 C 219.273 253.282,219.484 253.081,219.935 253.081 C 220.331 253.081,220.663 252.827,220.762 252.449 C 220.852 252.101,221.137 251.817,221.393 251.817 C 221.650 251.817,221.934 251.532,222.025 251.185 C 222.155 250.690,222.456 250.553,223.418 250.553 C 224.434 250.553,224.645 250.444,224.645 249.921 C 224.645 249.500,224.855 249.289,225.276 249.289 C 225.801 249.289,225.908 249.078,225.908 248.044 C 225.908 246.834,225.941 246.797,227.093 246.702 C 228.207 246.609,228.284 246.534,228.374 245.451 C 228.443 244.623,228.644 244.253,229.085 244.138 C 229.447 244.043,229.700 243.705,229.700 243.316 C 229.700 242.865,229.901 242.654,230.332 242.654 C 230.753 242.654,230.964 242.443,230.964 242.022 C 230.964 241.601,231.174 241.390,231.596 241.390 C 232.017 241.390,232.227 241.180,232.227 240.758 C 232.227 240.328,232.438 240.126,232.889 240.126 C 233.285 240.126,233.617 239.873,233.716 239.494 C 233.807 239.147,234.091 238.863,234.348 238.863 C 234.604 238.863,234.889 238.578,234.980 238.231 C 235.070 237.883,235.355 237.599,235.611 237.599 C 235.868 237.599,236.152 237.314,236.243 236.967 C 236.335 236.617,236.674 236.335,237.004 236.335 C 237.388 236.335,237.599 236.111,237.599 235.703 C 237.599 235.282,237.809 235.071,238.231 235.071 C 238.757 235.071,238.863 234.860,238.863 233.807 C 238.863 232.754,238.968 232.543,239.494 232.543 C 239.903 232.543,240.126 232.333,240.126 231.948 C 240.126 231.619,240.409 231.280,240.758 231.188 C 241.136 231.089,241.390 230.757,241.390 230.361 C 241.390 229.910,241.591 229.700,242.022 229.700 C 242.443 229.700,242.654 229.489,242.654 229.068 C 242.654 228.647,242.865 228.436,243.286 228.436 C 243.813 228.436,243.918 228.225,243.918 227.172 C 243.918 226.119,244.023 225.908,244.550 225.908 C 244.971 225.908,245.182 225.698,245.182 225.276 C 245.182 224.855,245.392 224.645,245.814 224.645 C 246.235 224.645,246.445 224.434,246.445 224.013 C 246.445 223.549,246.656 223.381,247.235 223.381 C 247.815 223.381,248.025 223.212,248.025 222.749 C 248.025 222.328,248.236 222.117,248.657 222.117 C 249.184 222.117,249.289 221.906,249.289 220.853 C 249.289 219.800,249.394 219.589,249.921 219.589 C 250.342 219.589,250.553 219.379,250.553 218.957 C 250.553 218.536,250.764 218.325,251.185 218.325 C 251.648 218.325,251.817 218.115,251.817 217.536 C 251.817 216.956,251.985 216.746,252.449 216.746 C 252.975 216.746,253.081 216.535,253.081 215.482 C 253.081 214.429,253.186 214.218,253.712 214.218 C 254.134 214.218,254.344 214.007,254.344 213.586 C 254.344 213.165,254.555 212.954,254.976 212.954 C 255.398 212.954,255.608 212.744,255.608 212.322 C 255.608 211.901,255.819 211.690,256.240 211.690 C 256.767 211.690,256.872 211.480,256.872 210.427 C 256.872 209.373,256.977 209.163,257.504 209.163 C 257.925 209.163,258.136 208.952,258.136 208.531 C 258.136 208.110,258.346 207.899,258.768 207.899 C 259.293 207.899,259.400 207.688,259.400 206.657 C 259.400 205.610,259.511 205.399,260.111 205.314 C 260.567 205.249,260.858 204.959,260.922 204.502 C 260.987 204.046,261.241 203.791,261.633 203.791 C 262.134 203.791,262.243 203.566,262.243 202.528 C 262.243 201.474,262.349 201.264,262.875 201.264 C 263.296 201.264,263.507 201.053,263.507 200.632 C 263.507 200.211,263.718 200.000,264.139 200.000 C 264.666 200.000,264.771 199.789,264.771 198.736 C 264.771 197.683,264.876 197.472,265.403 197.472 C 265.824 197.472,266.035 197.262,266.035 196.840 C 266.035 196.419,266.245 196.209,266.667 196.209 C 267.190 196.209,267.299 195.998,267.299 194.982 C 267.299 194.020,267.435 193.719,267.930 193.589 C 268.410 193.464,268.562 193.158,268.562 192.326 C 268.562 191.493,268.715 191.187,269.194 191.062 C 269.572 190.963,269.826 190.631,269.826 190.235 C 269.826 189.784,270.027 189.573,270.458 189.573 C 270.985 189.573,271.090 189.363,271.090 188.310 C 271.090 187.256,271.195 187.046,271.722 187.046 C 272.247 187.046,272.354 186.835,272.354 185.804 C 272.354 184.757,272.465 184.546,273.065 184.461 C 273.636 184.380,273.795 184.127,273.874 183.175 C 273.951 182.247,274.105 181.991,274.585 181.991 C 275.086 181.991,275.197 181.767,275.197 180.764 C 275.197 179.802,275.334 179.501,275.829 179.371 C 276.331 179.240,276.461 178.940,276.461 177.913 C 276.461 176.830,276.564 176.619,277.093 176.619 C 277.620 176.619,277.725 176.409,277.725 175.355 C 277.725 174.302,277.830 174.092,278.357 174.092 C 278.884 174.092,278.989 173.881,278.989 172.828 C 278.989 171.775,279.094 171.564,279.621 171.564 C 280.147 171.564,280.253 171.353,280.253 170.300 C 280.253 169.247,280.358 169.036,280.885 169.036 C 281.445 169.036,281.517 168.826,281.517 167.177 C 281.517 165.584,281.607 165.295,282.148 165.153 C 282.651 165.022,282.780 164.722,282.780 163.695 C 282.780 162.612,282.883 162.401,283.412 162.401 C 283.974 162.401,284.044 162.191,284.044 160.506 C 284.044 158.820,284.114 158.610,284.676 158.610 C 285.203 158.610,285.308 158.399,285.308 157.346 C 285.308 156.209,285.387 156.082,286.098 156.082 C 286.851 156.082,286.888 155.995,286.888 154.223 C 286.888 152.630,286.978 152.341,287.520 152.199 C 288.085 152.051,288.152 151.768,288.152 149.514 C 288.152 147.259,288.218 146.976,288.784 146.828 C 289.345 146.681,289.415 146.397,289.415 144.263 C 289.415 142.075,289.471 141.864,290.047 141.864 C 290.646 141.864,290.679 141.654,290.679 137.915 C 290.679 134.176,290.713 133.965,291.311 133.965 C 291.933 133.965,291.943 133.755,291.943 120.379 C 291.943 107.004,291.933 106.793,291.311 106.793 C 290.721 106.793,290.679 106.582,290.679 103.633 C 290.679 100.685,290.637 100.474,290.047 100.474 C 289.486 100.474,289.415 100.263,289.415 98.578 C 289.415 96.893,289.345 96.682,288.784 96.682 C 288.221 96.682,288.152 96.472,288.152 94.757 C 288.152 93.098,288.064 92.809,287.520 92.667 C 287.025 92.537,286.888 92.236,286.888 91.274 C 286.888 90.176,286.805 90.047,286.098 90.047 C 285.387 90.047,285.308 89.921,285.308 88.784 C 285.308 87.730,285.203 87.520,284.676 87.520 C 284.150 87.520,284.044 87.309,284.044 86.256 C 284.044 85.203,283.939 84.992,283.412 84.992 C 282.886 84.992,282.780 84.781,282.780 83.728 C 282.780 82.675,282.675 82.464,282.148 82.464 C 281.718 82.464,281.517 82.254,281.517 81.803 C 281.517 81.407,281.263 81.075,280.885 80.976 C 280.390 80.847,280.253 80.545,280.253 79.584 C 280.253 78.568,280.144 78.357,279.621 78.357 C 279.200 78.357,278.989 78.146,278.989 77.725 C 278.989 77.304,278.778 77.093,278.357 77.093 C 277.936 77.093,277.725 76.883,277.725 76.461 C 277.725 76.040,277.514 75.829,277.093 75.829 C 276.567 75.829,276.461 75.619,276.461 74.566 L 276.461 73.302 275.197 73.302 L 273.934 73.302 273.934 72.038 L 273.934 70.774 272.512 70.774 L 271.090 70.774 271.090 69.352 L 271.090 67.930 269.863 67.930 C 268.902 67.930,268.600 67.794,268.471 67.299 C 268.380 66.951,268.079 66.667,267.802 66.667 C 267.509 66.667,267.299 66.402,267.299 66.035 C 267.299 65.613,267.088 65.403,266.667 65.403 C 266.245 65.403,266.035 65.192,266.035 64.771 C 266.035 64.244,265.824 64.139,264.771 64.139 C 263.718 64.139,263.507 64.034,263.507 63.507 C 263.507 63.099,263.296 62.875,262.912 62.875 C 262.583 62.875,262.243 62.593,262.152 62.243 C 262.020 61.741,261.721 61.611,260.693 61.611 C 259.610 61.611,259.400 61.508,259.400 60.979 C 259.400 60.453,259.189 60.348,258.136 60.348 C 257.083 60.348,256.872 60.242,256.872 59.716 C 256.872 59.294,256.661 59.084,256.240 59.084 C 255.819 59.084,255.608 58.873,255.608 58.452 C 255.608 57.890,255.398 57.820,253.712 57.820 C 252.027 57.820,251.817 57.750,251.817 57.188 C 251.817 56.663,251.606 56.556,250.575 56.556 C 249.528 56.556,249.317 56.445,249.232 55.845 C 249.148 55.254,248.905 55.118,247.788 55.037 C 246.703 54.959,246.445 54.822,246.445 54.326 C 246.445 53.787,246.216 53.712,244.550 53.712 C 242.865 53.712,242.654 53.642,242.654 53.081 C 242.654 52.501,242.443 52.449,240.126 52.449 C 237.809 52.449,237.599 52.396,237.599 51.817 C 237.599 51.234,237.388 51.185,234.913 51.185 C 232.438 51.185,232.227 51.135,232.227 50.553 C 232.227 49.951,232.017 49.921,227.841 49.921 C 223.720 49.921,223.444 49.883,223.289 49.289 C 223.127 48.670,222.858 48.657,209.666 48.657 C 196.419 48.657,196.209 48.667,196.209 49.289 M222.907 52.259 C 269.039 58.529,292.781 86.589,288.628 129.934 C 286.021 157.147,268.655 192.546,241.874 225.233 C 240.826 226.512,239.258 228.445,238.389 229.528 C 231.081 238.634,222.211 247.828,218.799 249.832 C 209.158 255.495,201.406 252.842,190.024 239.983 C 188.647 238.427,186.809 236.355,185.940 235.380 C 182.375 231.379,172.261 218.669,168.088 212.946 C 162.375 205.110,157.068 197.148,153.562 191.153 C 152.292 188.981,150.876 186.564,150.416 185.782 C 123.065 139.302,123.668 94.633,151.979 69.973 C 163.754 59.716,182.329 53.121,203.476 51.689 C 207.126 51.442,219.583 51.807,222.907 52.259 " stroke="none" fill="#909090" fill-rule="evenodd"></path><path id="path3" d="M200.000 53.414 C 166.971 56.295,143.566 72.040,135.250 96.974 C 128.539 117.094,131.361 142.840,143.046 168.088 C 152.626 188.791,162.356 204.120,179.434 225.419 C 199.340 250.247,206.072 254.550,216.849 249.334 C 222.572 246.564,236.138 231.378,251.370 210.692 C 254.957 205.820,261.194 196.521,262.673 193.839 C 262.961 193.318,264.203 191.256,265.434 189.258 C 267.236 186.332,275.513 170.400,275.513 169.856 C 275.513 169.778,275.993 168.673,276.580 167.401 C 277.166 166.128,278.027 164.092,278.493 162.875 C 278.958 161.659,279.560 160.166,279.830 159.558 C 282.904 152.629,286.359 138.875,287.251 130.016 C 289.749 105.204,281.740 82.694,266.193 70.829 C 265.150 70.033,264.226 69.290,264.139 69.179 C 263.690 68.602,257.349 64.553,254.552 63.058 C 240.324 55.451,219.286 51.732,200.000 53.414 M224.961 56.047 C 239.009 58.204,246.347 60.656,256.872 66.712 C 262.216 69.787,270.878 77.565,273.942 82.039 C 274.198 82.414,275.075 83.653,275.890 84.793 C 287.405 100.894,288.823 128.691,279.464 154.818 C 275.282 166.493,268.061 181.246,261.137 192.263 C 260.095 193.923,258.673 196.188,257.978 197.297 C 254.929 202.162,242.696 218.993,240.482 221.370 C 240.143 221.734,239.320 222.738,238.653 223.602 C 231.286 233.143,219.802 245.566,216.798 247.245 C 211.610 250.145,204.938 249.483,200.416 245.620 C 195.784 241.663,182.041 225.679,173.823 214.692 C 172.393 212.780,170.740 210.577,170.149 209.795 C 167.235 205.940,165.836 203.997,165.088 202.768 C 164.637 202.028,163.778 200.711,163.179 199.842 C 160.628 196.144,159.695 194.753,159.371 194.156 C 159.181 193.808,158.031 191.888,156.816 189.889 C 155.600 187.891,153.920 184.976,153.081 183.412 C 152.242 181.848,151.200 179.929,150.765 179.147 C 149.119 176.188,144.895 167.411,144.073 165.245 C 143.843 164.637,143.531 163.976,143.380 163.777 C 143.027 163.311,139.425 153.886,138.809 151.817 C 137.482 147.355,135.499 139.178,135.062 136.363 C 134.790 134.610,134.442 132.353,134.289 131.348 C 130.738 108.042,138.670 85.319,154.976 72.083 C 163.016 65.557,172.276 60.979,182.780 58.338 C 196.089 54.992,212.339 54.109,224.961 56.047 M208.534 83.566 C 208.194 83.976,208.285 84.044,209.177 84.044 C 209.748 84.044,210.157 84.004,210.084 83.955 C 210.012 83.906,209.723 83.691,209.442 83.477 C 209.030 83.164,208.854 83.181,208.534 83.566 M199.726 84.280 C 198.225 84.350,197.233 84.554,196.934 84.853 C 196.459 85.328,200.352 85.241,201.580 84.749 C 201.840 84.645,203.049 84.467,204.265 84.353 L 206.477 84.146 204.265 84.158 C 203.049 84.165,201.006 84.219,199.726 84.280 M215.008 84.358 C 216.224 84.498,218.286 84.762,219.589 84.946 C 222.940 85.419,223.214 85.412,222.672 84.870 C 222.354 84.552,220.939 84.387,217.515 84.268 C 214.312 84.157,213.507 84.186,215.008 84.358 M192.616 85.558 C 192.531 85.695,192.985 85.756,193.624 85.693 C 195.373 85.520,195.581 85.361,194.094 85.333 C 193.366 85.319,192.701 85.421,192.616 85.558 M224.329 85.484 C 225.503 85.740,227.114 85.785,226.973 85.558 C 226.888 85.421,226.152 85.325,225.337 85.345 C 224.522 85.365,224.068 85.428,224.329 85.484 M187.204 87.204 C 186.682 87.549,186.402 87.832,186.581 87.834 C 186.759 87.835,187.190 87.636,187.537 87.393 C 187.885 87.149,188.521 86.884,188.950 86.804 L 189.731 86.658 188.942 86.617 C 188.507 86.594,187.725 86.859,187.204 87.204 M230.335 86.996 C 231.336 87.582,234.816 88.505,234.579 88.122 C 234.481 87.964,234.143 87.836,233.827 87.836 C 233.511 87.836,233.075 87.622,232.858 87.360 C 232.641 87.098,232.090 86.904,231.634 86.928 C 231.179 86.952,230.521 86.873,230.174 86.752 C 229.785 86.616,229.847 86.710,230.335 86.996 M235.703 88.283 C 235.703 88.554,238.761 90.281,239.920 90.663 C 240.585 90.883,241.649 91.502,242.286 92.040 L 243.444 93.017 242.369 91.863 C 241.778 91.228,240.899 90.622,240.416 90.516 C 239.933 90.410,239.376 90.128,239.179 89.889 C 238.981 89.651,238.412 89.367,237.915 89.258 C 237.417 89.148,236.841 88.855,236.634 88.605 C 236.285 88.184,235.703 87.983,235.703 88.283 M182.622 88.790 C 182.362 88.946,181.212 89.511,180.067 90.043 C 178.922 90.576,177.571 91.470,177.065 92.029 L 176.145 93.047 177.029 92.268 C 177.515 91.840,179.292 90.814,180.979 89.989 C 182.665 89.164,183.831 88.492,183.570 88.497 C 183.310 88.501,182.883 88.633,182.622 88.790 M171.631 95.972 C 168.894 98.666,167.848 100.023,168.221 100.396 C 168.322 100.497,168.404 100.396,168.404 100.172 C 168.404 99.654,173.308 94.582,174.566 93.799 C 175.200 93.404,175.336 93.209,174.976 93.208 C 174.681 93.207,173.176 94.451,171.631 95.972 M244.708 93.588 C 245.642 94.123,250.441 99.046,251.022 100.067 C 251.502 100.910,251.515 100.914,251.322 100.158 C 251.078 99.201,245.232 93.203,244.556 93.217 C 244.210 93.223,244.253 93.328,244.708 93.588 M252.428 102.304 C 253.002 103.050,253.739 104.520,254.066 105.571 C 254.393 106.621,254.813 107.717,255.000 108.006 C 255.292 108.456,255.311 108.441,255.136 107.899 C 255.024 107.551,254.851 106.840,254.752 106.319 C 254.653 105.798,254.469 105.229,254.343 105.055 C 254.218 104.882,254.031 104.382,253.927 103.945 C 253.823 103.508,253.208 102.654,252.562 102.049 L 251.386 100.948 252.428 102.304 M164.850 105.362 C 164.546 105.780,164.303 106.593,164.311 107.168 L 164.325 108.215 164.806 106.951 C 165.788 104.367,165.797 104.059,164.850 105.362 M256.335 113.112 C 256.335 114.068,256.394 114.459,256.466 113.981 C 256.539 113.503,256.539 112.721,256.466 112.243 C 256.394 111.765,256.335 112.156,256.335 113.112 M162.467 114.072 C 162.133 114.607,162.147 114.799,162.549 115.201 C 162.984 115.636,163.033 115.570,163.033 114.557 C 163.033 113.243,163.002 113.216,162.467 114.072 M256.556 115.956 C 256.556 116.858,256.601 116.904,257.053 116.452 C 257.504 116.001,257.504 115.911,257.053 115.459 C 256.601 115.008,256.556 115.053,256.556 115.956 M162.464 116.651 C 161.945 117.171,161.967 123.514,162.490 124.202 C 162.799 124.607,162.875 123.871,162.875 120.489 C 162.875 118.170,162.868 116.272,162.859 116.272 C 162.851 116.272,162.673 116.442,162.464 116.651 M256.714 121.030 C 256.714 123.714,256.797 124.362,257.109 124.104 C 257.634 123.670,257.626 118.828,257.099 118.136 C 256.789 117.729,256.714 118.292,256.714 121.030 M256.335 126.382 C 256.335 127.338,256.394 127.729,256.466 127.251 C 256.539 126.773,256.539 125.991,256.466 125.513 C 256.394 125.036,256.335 125.427,256.335 126.382 M256.029 130.003 C 256.029 131.250,256.091 131.433,256.329 130.900 C 256.517 130.479,256.517 129.897,256.329 129.333 C 256.060 128.528,256.029 128.596,256.029 130.003 M254.581 136.065 C 253.870 138.486,253.859 138.923,254.524 138.370 C 254.807 138.136,254.950 137.689,254.857 137.333 C 254.766 136.988,254.837 136.438,255.012 136.110 C 255.188 135.781,255.287 135.213,255.233 134.848 C 255.172 134.435,254.925 134.894,254.581 136.065 M164.487 136.177 C 164.599 137.133,164.896 138.199,165.146 138.547 C 165.714 139.336,165.466 137.602,164.731 135.637 L 164.283 134.439 164.487 136.177 M253.759 139.652 C 253.729 140.087,253.625 140.798,253.528 141.232 C 253.377 141.913,253.402 141.945,253.710 141.462 C 253.907 141.155,254.010 140.444,253.941 139.883 C 253.842 139.089,253.801 139.038,253.759 139.652 M165.765 141.232 C 165.866 142.362,166.003 143.345,166.070 143.418 C 166.416 143.789,166.396 143.084,166.011 141.232 L 165.583 139.179 165.765 141.232 M166.951 144.820 C 167.227 145.490,167.387 146.145,167.307 146.274 C 167.227 146.404,167.441 147.059,167.783 147.729 C 168.125 148.400,168.404 148.772,168.404 148.556 C 168.404 147.914,167.117 144.260,166.770 143.918 C 166.594 143.744,166.676 144.150,166.951 144.820 M251.671 146.345 C 251.072 148.361,251.052 148.920,251.616 147.838 C 252.077 146.955,252.580 144.708,252.317 144.708 C 252.229 144.708,251.938 145.444,251.671 146.345 M249.320 152.123 C 248.535 154.220,248.487 154.718,249.131 154.074 C 249.392 153.813,249.605 153.314,249.605 152.966 C 249.605 152.617,249.751 151.947,249.930 151.478 C 250.108 151.008,250.193 150.562,250.119 150.487 C 250.044 150.413,249.684 151.148,249.320 152.123 M169.567 151.975 C 169.665 152.757,169.938 153.601,170.174 153.852 C 170.983 154.714,170.992 153.910,170.191 152.234 L 169.388 150.553 169.567 151.975 M172.055 157.741 C 172.307 158.562,172.855 159.320,173.054 159.121 C 173.217 158.957,172.254 157.030,172.009 157.030 C 171.914 157.030,171.935 157.350,172.055 157.741 M246.649 158.689 L 246.083 159.716 246.738 158.970 C 247.304 158.325,247.591 157.662,247.304 157.662 C 247.254 157.662,246.959 158.124,246.649 158.689 M243.351 164.952 C 242.199 167.214,242.125 167.470,242.809 166.827 C 243.245 166.418,243.602 165.875,243.602 165.622 C 243.602 165.369,243.898 164.682,244.260 164.097 C 244.622 163.511,244.865 162.874,244.801 162.682 C 244.737 162.489,244.084 163.511,243.351 164.952 M174.724 163.062 C 174.724 163.252,175.008 163.769,175.355 164.211 C 176.108 165.168,176.170 164.936,175.505 163.649 C 175.004 162.681,174.724 162.470,174.724 163.062 M241.390 168.297 C 241.390 168.481,241.022 169.185,240.573 169.861 L 239.755 171.090 240.957 169.910 C 241.901 168.984,242.077 168.648,241.775 168.346 C 241.535 168.107,241.390 168.088,241.390 168.297 M178.831 171.150 C 178.831 171.465,179.364 172.136,180.016 172.643 L 181.201 173.564 180.332 172.626 C 179.854 172.110,179.463 171.526,179.463 171.328 C 179.463 171.131,179.321 170.881,179.147 170.774 C 178.973 170.667,178.831 170.836,178.831 171.150 M238.831 172.743 C 238.414 173.572,237.859 174.532,237.599 174.876 C 237.159 175.457,237.165 175.471,237.680 175.073 C 238.425 174.495,239.987 171.635,239.708 171.356 C 239.642 171.291,239.247 171.915,238.831 172.743 M181.216 174.566 C 181.319 175.087,181.755 175.798,182.183 176.145 C 182.690 176.556,182.931 177.037,182.872 177.518 C 182.812 178.002,183.027 178.426,183.491 178.742 L 184.202 179.224 183.699 178.001 C 183.422 177.328,182.861 176.422,182.453 175.987 C 182.045 175.553,181.557 174.842,181.369 174.408 C 181.042 173.650,181.036 173.657,181.216 174.566 M236.209 176.669 C 235.461 177.737,235.594 178.107,236.371 177.119 C 236.738 176.652,236.966 176.197,236.877 176.108 C 236.788 176.019,236.488 176.272,236.209 176.669 M235.001 179.075 C 234.702 179.549,234.275 180.216,234.053 180.557 C 233.831 180.898,233.321 181.726,232.920 182.397 L 232.190 183.617 233.157 182.902 C 233.788 182.436,234.123 181.913,234.123 181.395 C 234.123 180.960,234.494 180.216,234.948 179.743 C 235.401 179.269,235.721 178.731,235.659 178.548 C 235.596 178.364,235.300 178.601,235.001 179.075 M185.008 180.812 C 185.093 181.033,185.479 181.408,185.867 181.644 C 186.539 182.054,186.536 182.035,185.806 181.242 C 184.951 180.314,184.782 180.223,185.008 180.812 M186.414 182.701 C 186.414 182.985,186.566 183.311,186.751 183.425 C 187.293 183.760,187.346 183.460,186.862 182.799 C 186.487 182.286,186.414 182.270,186.414 182.701 M187.369 184.063 C 187.359 184.519,188.219 185.662,188.420 185.461 C 188.509 185.372,188.311 184.945,187.979 184.513 C 187.647 184.082,187.373 183.879,187.369 184.063 M231.318 184.850 C 230.664 185.734,230.657 185.781,231.238 185.419 C 231.586 185.201,231.938 184.768,232.020 184.455 C 232.220 183.688,232.147 183.729,231.318 184.850 M228.381 189.274 C 227.977 189.805,227.213 190.764,226.684 191.407 C 225.346 193.030,224.573 194.313,224.932 194.313 C 225.098 194.313,225.323 194.032,225.432 193.689 C 225.541 193.346,226.119 192.604,226.717 192.040 C 227.315 191.476,227.804 190.840,227.804 190.626 C 227.804 190.413,228.160 189.854,228.594 189.386 C 229.028 188.917,229.384 188.483,229.384 188.421 C 229.384 188.114,229.046 188.402,228.381 189.274 M191.482 190.133 C 191.475 190.355,192.038 191.152,192.733 191.907 C 193.428 192.661,193.997 193.422,193.997 193.599 C 193.997 193.775,194.231 194.113,194.516 194.350 C 194.918 194.684,194.882 194.481,194.357 193.452 C 193.984 192.721,193.398 191.972,193.054 191.788 C 192.710 191.604,192.219 191.066,191.962 190.592 C 191.705 190.119,191.489 189.912,191.482 190.133 M195.261 195.194 C 195.261 195.622,196.566 197.221,196.758 197.028 C 196.846 196.940,196.546 196.424,196.090 195.882 C 195.634 195.340,195.261 195.030,195.261 195.194 M223.036 196.249 L 222.333 197.237 223.173 196.686 C 223.635 196.384,224.013 195.939,224.013 195.698 C 224.013 195.045,223.813 195.157,223.036 196.249 M221.212 198.730 C 220.656 199.422,220.412 199.907,220.671 199.808 C 221.064 199.657,222.604 197.472,222.317 197.472 C 222.265 197.472,221.768 198.038,221.212 198.730 M197.788 198.649 C 197.788 199.046,198.691 199.834,198.904 199.622 C 198.987 199.538,198.771 199.211,198.422 198.896 C 198.074 198.580,197.788 198.469,197.788 198.649 M219.930 200.540 C 219.916 200.750,219.336 201.449,218.641 202.092 C 217.946 202.735,217.378 203.414,217.378 203.601 C 217.378 203.788,218.035 203.284,218.838 202.481 C 219.674 201.645,220.225 200.836,220.127 200.589 C 220.014 200.307,219.947 200.290,219.930 200.540 M199.368 200.865 C 199.368 200.959,199.901 201.629,200.553 202.355 C 201.205 203.081,201.918 203.950,202.137 204.286 C 202.357 204.622,202.329 204.457,202.075 203.919 C 201.659 203.037,199.368 200.453,199.368 200.865 M203.160 205.371 C 203.346 205.719,203.657 206.003,203.852 206.003 C 204.046 206.003,203.948 205.719,203.633 205.371 C 203.319 205.024,203.008 204.739,202.941 204.739 C 202.875 204.739,202.974 205.024,203.160 205.371 M215.610 205.733 C 215.011 206.407,215.012 206.409,215.719 206.038 C 216.110 205.833,216.430 205.528,216.430 205.360 C 216.430 204.911,216.278 204.980,215.610 205.733 M204.433 206.879 C 204.428 207.100,204.992 207.898,205.687 208.652 C 206.382 209.406,206.951 210.168,206.951 210.345 C 206.951 210.826,209.033 212.322,209.702 212.322 C 210.277 212.322,214.850 207.989,214.850 207.445 C 214.850 207.290,213.850 208.129,212.627 209.309 C 210.369 211.490,208.096 212.125,207.624 210.707 C 207.552 210.491,206.966 209.736,206.323 209.028 C 205.679 208.320,204.993 207.457,204.797 207.109 C 204.602 206.761,204.438 206.658,204.433 206.879 " stroke="none" fill="#636363" fill-rule="evenodd"></path><path id="path4" d="M203.476 51.689 C 139.115 56.048,113.478 103.914,141.385 167.615 C 143.191 171.736,148.850 183.121,150.416 185.782 C 150.876 186.564,152.292 188.981,153.562 191.153 C 157.068 197.148,162.375 205.110,168.088 212.946 C 172.261 218.669,182.375 231.379,185.940 235.380 C 186.809 236.355,188.647 238.427,190.024 239.983 C 201.406 252.842,209.158 255.495,218.799 249.832 C 222.211 247.828,231.081 238.634,238.389 229.528 C 239.258 228.445,240.826 226.512,241.874 225.233 C 301.231 152.784,304.975 85.116,251.027 59.806 C 238.523 53.939,219.128 50.629,203.476 51.689 M226.066 54.158 C 239.996 56.233,251.155 60.311,260.871 66.875 C 262.582 68.031,264.052 69.067,264.139 69.179 C 264.226 69.290,265.150 70.033,266.193 70.829 C 281.740 82.694,289.749 105.204,287.251 130.016 C 286.359 138.875,282.904 152.629,279.830 159.558 C 279.560 160.166,278.958 161.659,278.493 162.875 C 278.027 164.092,277.166 166.128,276.580 167.401 C 275.993 168.673,275.513 169.778,275.513 169.856 C 275.513 170.400,267.236 186.332,265.434 189.258 C 264.203 191.256,262.961 193.318,262.673 193.839 C 261.194 196.521,254.957 205.820,251.370 210.692 C 236.138 231.378,222.572 246.564,216.849 249.334 C 206.072 254.550,199.340 250.247,179.434 225.419 C 162.356 204.120,152.626 188.791,143.046 168.088 C 128.132 135.862,127.842 104.401,142.259 82.751 C 156.971 60.659,191.234 48.969,226.066 54.158 " stroke="none" fill="#747474" fill-rule="evenodd"></path></g></svg>