<?xml version="1.0" standalone="no"?>
<!DOCTYPE svg PUBLIC "-//W3C//DTD SVG 20010904//EN"
 "http://www.w3.org/TR/2001/REC-SVG-20010904/DTD/svg10.dtd">
<svg version="1.0" xmlns="http://www.w3.org/2000/svg"
 width="309.000000pt" height="244.000000pt" viewBox="0 0 309.000000 244.000000"
 preserveAspectRatio="xMidYMid meet">
<metadata>
Created by potrace 1.16, written by Peter Selinger 2001-2019
</metadata>
<g transform="translate(0.000000,244.000000) scale(0.100000,-0.100000)"
fill="#000000" stroke="none">
<path d="M1465 2054 c-11 -2 -45 -9 -75 -15 -81 -16 -210 -81 -271 -138 -233
-213 -211 -586 58 -1001 112 -172 287 -381 346 -412 76 -41 143 -13 242 102
209 240 339 451 411 665 43 128 56 269 34 377 -37 188 -176 332 -385 398 -54
17 -100 23 -205 26 -74 1 -144 1 -155 -2z m246 -278 c87 -19 139 -46 182 -96
62 -72 72 -175 32 -325 -32 -119 -186 -384 -295 -505 l-40 -45 -41 45 c-59 66
-192 267 -232 352 -109 228 -115 398 -19 490 47 46 89 66 166 83 81 18 166 18
247 1z"/>
</g>
</svg>
