<svg id="svg" version="1.1" xmlns="http://www.w3.org/2000/svg" xmlns:xlink="http://www.w3.org/1999/xlink" width="400" height="315.85760517799355" viewBox="0, 0, 400,315.85760517799355"><g id="svgg"><path id="path0" d="M200.000 84.606 C 198.697 84.655,197.204 84.887,196.682 85.122 C 196.161 85.357,194.314 85.649,192.578 85.769 C 190.841 85.890,189.277 86.097,189.102 86.228 C 188.927 86.359,187.930 86.651,186.888 86.877 C 185.845 87.103,184.414 87.553,183.708 87.878 C 183.001 88.202,182.028 88.468,181.546 88.468 C 181.063 88.468,180.307 88.752,179.865 89.100 C 179.423 89.447,178.854 89.731,178.601 89.731 C 178.348 89.731,177.779 90.016,177.337 90.363 C 176.896 90.711,176.321 90.995,176.061 90.995 C 174.374 90.995,163.665 100.545,163.665 102.049 C 163.665 102.177,163.317 102.795,162.891 103.422 C 162.466 104.049,162.020 105.099,161.901 105.756 C 161.782 106.413,161.491 107.335,161.253 107.804 C 161.016 108.273,160.821 109.130,160.821 109.709 C 160.821 110.287,160.597 111.081,160.322 111.473 C 159.250 113.003,159.043 126.958,160.061 129.044 C 160.309 129.552,160.656 131.238,160.832 132.790 C 161.007 134.342,161.272 135.846,161.419 136.132 C 161.566 136.417,161.861 137.433,162.075 138.389 C 162.290 139.344,162.735 140.704,163.065 141.411 C 163.395 142.117,163.665 143.219,163.665 143.860 C 163.665 144.500,163.790 145.024,163.943 145.024 C 164.095 145.024,164.392 145.486,164.603 146.051 C 164.813 146.615,165.166 147.433,165.388 147.867 C 165.609 148.302,165.872 149.193,165.972 149.847 C 166.073 150.501,166.448 151.409,166.806 151.864 C 167.164 152.319,167.457 152.940,167.457 153.242 C 167.457 153.545,167.670 153.970,167.930 154.186 C 168.191 154.403,168.404 154.891,168.404 155.271 C 168.404 155.651,168.615 156.237,168.873 156.575 C 169.131 156.912,169.500 157.752,169.694 158.441 C 169.887 159.130,170.316 160.037,170.647 160.458 C 170.977 160.879,171.248 161.501,171.248 161.841 C 171.248 162.181,171.532 162.821,171.880 163.263 C 172.227 163.705,172.512 164.336,172.512 164.665 C 172.512 164.995,172.719 165.344,172.971 165.441 C 173.500 165.644,174.724 167.599,174.724 168.240 C 174.724 168.478,175.079 169.094,175.513 169.611 C 175.948 170.127,176.303 170.793,176.303 171.090 C 176.303 171.387,176.659 172.053,177.093 172.569 C 177.528 173.086,177.883 173.711,177.883 173.958 C 177.883 174.205,178.004 174.408,178.152 174.408 C 178.459 174.408,180.411 177.446,180.411 177.925 C 180.411 178.099,180.908 178.765,181.516 179.405 C 182.124 180.045,182.711 180.845,182.820 181.182 C 182.930 181.520,183.570 182.492,184.243 183.343 C 184.916 184.194,185.466 185.024,185.466 185.188 C 185.466 185.351,185.999 186.180,186.651 187.030 C 187.303 187.880,188.191 189.176,188.626 189.909 C 189.060 190.643,189.575 191.407,189.769 191.608 C 189.964 191.810,190.359 192.429,190.646 192.985 C 190.934 193.542,191.298 193.997,191.456 193.997 C 191.614 193.997,191.828 194.266,191.932 194.595 C 192.037 194.923,192.611 195.670,193.209 196.253 C 193.807 196.837,194.377 197.670,194.477 198.104 C 194.576 198.539,195.146 199.250,195.743 199.684 C 196.339 200.118,196.902 200.694,196.993 200.963 C 197.084 201.232,197.727 202.061,198.421 202.806 C 199.116 203.551,199.684 204.311,199.684 204.496 C 199.684 205.236,205.318 211.052,206.039 211.056 C 206.319 211.057,207.211 210.312,208.020 209.400 C 208.829 208.487,210.057 207.128,210.749 206.379 C 211.440 205.630,212.006 204.819,212.006 204.575 C 212.006 204.332,212.575 203.607,213.270 202.964 C 213.965 202.320,214.535 201.639,214.535 201.450 C 214.536 201.261,215.176 200.495,215.957 199.749 C 216.738 199.003,217.378 198.213,217.378 197.994 C 217.378 197.775,217.864 197.125,218.459 196.548 C 219.053 195.972,219.629 195.143,219.739 194.707 C 219.849 194.270,220.500 193.247,221.186 192.434 C 221.872 191.620,222.433 190.820,222.433 190.656 C 222.433 190.492,222.717 190.180,223.065 189.963 C 223.412 189.746,223.697 189.418,223.697 189.234 C 223.697 188.829,225.273 186.672,225.828 186.319 C 226.046 186.180,226.224 185.941,226.224 185.787 C 226.224 185.366,228.180 182.306,228.449 182.306 C 228.578 182.306,228.776 181.937,228.890 181.485 C 229.097 180.659,230.171 178.956,230.859 178.361 C 231.063 178.185,231.697 177.117,232.269 175.987 C 232.841 174.858,233.777 173.400,234.348 172.748 C 234.920 172.096,235.387 171.297,235.387 170.974 C 235.387 170.650,235.671 170.024,236.019 169.582 C 236.367 169.140,236.651 168.651,236.651 168.495 C 236.651 168.339,237.006 167.729,237.441 167.141 C 237.875 166.552,238.231 165.873,238.231 165.632 C 238.231 165.391,238.728 164.586,239.336 163.844 C 239.945 163.101,240.442 162.292,240.442 162.044 C 240.442 161.797,240.679 161.257,240.967 160.844 C 241.831 159.611,242.934 157.286,243.144 156.257 C 243.319 155.395,244.341 153.008,246.128 149.289 C 246.462 148.594,246.829 147.599,246.944 147.077 C 247.059 146.556,247.338 145.832,247.564 145.468 C 247.790 145.104,248.127 143.983,248.313 142.976 C 248.499 141.969,248.776 140.987,248.929 140.794 C 249.081 140.601,249.387 139.447,249.608 138.231 C 249.829 137.014,250.154 135.664,250.330 135.229 C 250.506 134.795,250.829 133.088,251.047 131.438 C 251.264 129.787,251.615 127.796,251.824 127.014 C 252.299 125.248,252.319 115.105,251.852 113.112 C 251.669 112.330,251.314 110.795,251.063 109.701 C 250.812 108.607,250.471 107.541,250.305 107.332 C 250.139 107.122,249.904 106.402,249.783 105.730 C 249.658 105.037,249.026 103.830,248.320 102.937 C 247.637 102.073,247.077 101.178,247.077 100.950 C 247.077 99.545,237.270 90.995,235.658 90.995 C 235.382 90.995,234.795 90.711,234.353 90.363 C 233.911 90.016,233.342 89.731,233.089 89.731 C 232.836 89.731,232.267 89.447,231.825 89.100 C 231.374 88.744,230.544 88.468,229.930 88.468 C 229.329 88.468,228.498 88.203,228.084 87.879 C 227.661 87.549,226.497 87.191,225.434 87.064 C 224.392 86.939,223.226 86.636,222.843 86.391 C 222.428 86.125,220.834 85.865,218.893 85.747 C 217.068 85.636,215.342 85.364,214.961 85.126 C 214.282 84.703,205.553 84.400,200.000 84.606 " stroke="none" fill="#bb74e2" fill-rule="evenodd"></path><path id="path1" d="M201.422 48.973 C 200.917 49.190,201.044 49.256,202.054 49.299 C 203.314 49.353,203.315 49.354,202.370 49.637 C 200.259 50.267,192.081 50.756,191.418 50.292 C 190.978 49.984,190.367 49.920,189.341 50.074 C 188.435 50.209,188.039 50.386,188.290 50.541 C 189.231 51.123,183.374 52.388,182.329 51.829 C 181.517 51.394,181.359 51.414,181.359 51.952 C 181.359 52.622,178.070 53.519,177.242 53.076 C 176.550 52.705,175.987 52.896,175.987 53.501 C 175.987 53.712,174.713 54.272,173.155 54.746 C 170.155 55.660,169.036 55.808,169.036 55.292 C 169.036 55.118,168.716 54.986,168.325 54.999 C 167.812 55.015,167.746 55.080,168.088 55.235 C 169.379 55.820,167.964 57.188,166.069 57.188 C 165.765 57.188,165.303 57.401,165.042 57.661 C 164.782 57.922,164.189 58.230,163.725 58.347 C 163.261 58.463,162.685 58.755,162.445 58.995 C 162.205 59.234,161.600 59.513,161.099 59.613 C 160.599 59.713,160.190 59.902,160.190 60.033 C 160.190 60.164,159.727 60.462,159.163 60.696 C 158.598 60.930,157.428 61.587,156.563 62.156 C 155.698 62.725,154.668 63.191,154.273 63.191 C 153.876 63.191,153.555 63.385,153.555 63.623 C 153.555 63.982,151.736 65.443,150.553 66.035 C 149.255 66.684,137.823 78.110,137.118 79.463 C 136.362 80.913,135.406 82.148,135.040 82.148 C 134.796 82.148,134.597 82.436,134.597 82.787 C 134.597 83.138,134.215 84.026,133.747 84.761 C 132.690 86.423,130.142 91.591,129.385 93.609 C 128.920 94.847,128.710 95.082,128.213 94.924 C 127.671 94.752,127.649 94.800,128.011 95.379 C 128.339 95.905,128.339 96.311,128.013 97.531 C 127.528 99.345,127.475 99.408,126.864 98.900 C 126.320 98.449,126.198 99.731,126.670 100.937 C 126.803 101.279,126.780 102.132,126.619 102.833 C 126.098 105.092,126.075 105.128,125.570 104.442 C 125.144 103.863,125.118 103.884,125.118 104.811 C 125.118 105.351,125.276 105.845,125.469 105.909 C 125.723 105.994,125.710 107.017,125.420 109.648 C 124.952 113.906,124.681 114.689,124.226 113.103 C 123.998 112.306,123.913 114.252,123.918 120.221 C 123.922 125.698,124.015 127.974,124.196 127.050 C 124.698 124.493,124.824 124.893,125.411 130.911 C 125.632 133.181,125.639 134.532,125.431 134.919 C 125.259 135.240,125.130 135.975,125.143 136.551 C 125.157 137.127,125.240 137.421,125.328 137.204 C 125.592 136.550,126.382 136.759,126.382 137.483 C 126.382 137.854,126.551 138.720,126.757 139.407 C 127.045 140.370,127.045 140.794,126.757 141.256 C 126.239 142.085,126.243 143.710,126.761 143.191 C 127.405 142.547,127.589 142.752,127.957 144.526 C 128.230 145.840,128.224 146.383,127.930 146.854 C 127.416 147.676,127.790 148.719,128.413 148.202 C 129.055 147.669,129.840 151.109,129.280 152.005 C 128.957 152.522,128.994 152.607,129.547 152.607 C 130.331 152.607,130.902 153.922,130.738 155.349 C 130.674 155.902,130.718 156.294,130.836 156.221 C 131.303 155.933,131.825 157.067,131.644 157.975 C 131.413 159.126,131.666 159.887,132.208 159.679 C 132.770 159.464,133.416 161.172,133.159 162.195 C 132.979 162.912,133.049 163.033,133.646 163.033 C 134.309 163.033,134.335 163.130,134.171 165.008 C 134.076 166.094,134.071 166.742,134.160 166.447 C 134.494 165.335,135.848 166.416,135.856 167.803 C 135.859 168.253,136.145 168.880,136.493 169.194 C 137.141 169.781,137.378 171.564,136.809 171.564 C 136.635 171.564,136.497 171.884,136.502 172.275 C 136.511 172.910,136.547 172.927,136.834 172.433 C 137.609 171.102,138.543 172.158,138.201 173.980 C 138.029 174.900,138.076 175.018,138.543 174.839 C 139.265 174.562,139.606 175.186,139.433 176.472 C 139.308 177.399,139.365 177.500,139.931 177.352 C 140.609 177.175,140.988 177.997,140.833 179.305 C 140.781 179.742,140.921 179.910,141.287 179.849 C 141.907 179.747,142.314 180.756,142.022 181.675 C 141.870 182.152,141.965 182.306,142.412 182.306 C 143.159 182.306,143.760 182.898,143.760 183.633 C 143.760 183.946,144.044 184.487,144.392 184.834 C 144.739 185.182,145.024 185.743,145.024 186.082 C 145.024 186.421,145.208 186.812,145.433 186.951 C 146.405 187.550,147.277 189.651,147.101 190.967 C 147.005 191.678,147.009 192.081,147.108 191.864 C 147.471 191.069,148.507 191.427,148.705 192.417 C 148.809 192.938,149.018 193.365,149.170 193.365 C 149.735 193.365,151.318 196.353,151.137 197.077 C 150.996 197.638,151.093 197.788,151.594 197.788 C 152.446 197.788,153.910 200.253,153.650 201.249 C 153.488 201.870,153.554 201.939,154.138 201.753 C 154.676 201.582,154.892 201.719,155.204 202.428 C 155.419 202.917,155.784 203.436,156.016 203.581 C 156.299 203.759,156.368 204.155,156.227 204.797 C 156.042 205.641,156.089 205.728,156.636 205.554 C 157.339 205.331,158.926 207.388,158.926 208.524 C 158.926 208.921,159.135 209.163,159.479 209.163 C 160.003 209.164,161.769 211.538,161.769 212.243 C 161.769 212.423,161.998 212.658,162.278 212.766 C 162.669 212.916,162.744 213.233,162.604 214.142 C 162.504 214.792,162.500 215.146,162.596 214.929 C 163.072 213.848,164.780 215.166,165.559 217.215 C 165.725 217.652,166.017 218.009,166.208 218.009 C 166.399 218.009,166.509 218.397,166.452 218.878 C 166.366 219.616,166.458 219.736,167.061 219.672 C 167.608 219.614,168.035 219.994,168.922 221.331 C 169.556 222.285,170.196 223.065,170.345 223.065 C 170.494 223.065,170.616 223.420,170.616 223.855 C 170.616 224.320,170.797 224.645,171.057 224.645 C 171.497 224.645,172.591 225.780,174.092 227.792 C 174.526 228.375,175.095 229.068,175.355 229.332 C 175.616 229.597,175.847 229.929,175.869 230.072 C 175.891 230.215,175.926 230.474,175.948 230.648 C 175.970 230.821,176.201 230.964,176.461 230.964 C 177.125 230.964,177.056 232.150,176.382 232.326 C 176.078 232.405,176.340 232.487,176.964 232.507 C 177.975 232.539,178.319 232.808,180.123 234.968 C 181.237 236.301,182.468 237.730,182.859 238.142 C 183.250 238.554,183.570 239.019,183.570 239.175 C 183.570 239.331,183.890 239.683,184.281 239.957 C 184.672 240.230,184.957 240.523,184.913 240.606 C 184.694 241.027,184.887 241.390,185.329 241.390 C 185.681 241.390,185.766 241.574,185.624 242.022 C 185.439 242.605,185.711 242.815,186.493 242.691 C 186.746 242.652,186.769 242.720,186.887 243.871 C 186.961 244.599,188.626 246.471,188.626 245.826 C 188.626 245.022,189.815 245.649,191.748 247.472 C 199.084 254.391,207.299 255.785,214.796 251.384 C 215.722 250.840,216.824 250.209,217.245 249.983 C 217.665 249.756,218.009 249.428,218.009 249.253 C 218.009 249.079,218.139 249.016,218.297 249.113 C 218.711 249.370,219.619 248.961,219.405 248.615 C 219.072 248.075,223.188 244.155,224.088 244.155 C 224.775 244.155,224.883 244.036,224.768 243.404 C 224.662 242.817,224.771 242.654,225.270 242.654 C 225.698 242.654,225.908 242.445,225.908 242.022 C 225.908 241.671,226.119 241.390,226.382 241.390 C 226.643 241.390,226.856 241.111,226.856 240.769 C 226.856 240.428,227.141 239.996,227.488 239.810 C 227.836 239.624,228.120 239.264,228.120 239.009 C 228.120 238.755,228.233 238.547,228.371 238.547 C 228.509 238.547,229.149 237.871,229.792 237.046 C 232.096 234.091,232.564 233.668,233.134 234.024 C 233.517 234.263,233.769 234.235,234.062 233.922 C 234.296 233.671,234.327 233.491,234.136 233.491 C 233.955 233.491,233.807 233.278,233.807 233.017 C 233.807 232.445,234.632 232.384,234.876 232.938 C 234.972 233.156,234.972 232.820,234.876 232.193 C 234.744 231.331,234.824 231.005,235.202 230.860 C 235.478 230.754,235.703 230.458,235.703 230.202 C 235.703 229.945,235.952 229.550,236.256 229.323 C 236.560 229.096,237.219 228.306,237.721 227.567 C 238.222 226.829,238.755 226.207,238.906 226.185 C 239.056 226.163,239.343 226.128,239.543 226.106 C 239.744 226.084,239.948 225.793,239.997 225.458 C 240.047 225.124,240.309 224.726,240.580 224.574 C 240.852 224.422,241.074 224.082,241.074 223.818 C 241.074 222.950,242.713 221.111,243.341 221.275 C 243.707 221.371,243.918 221.256,243.918 220.959 C 243.918 220.381,244.677 219.591,245.238 219.584 C 245.574 219.581,245.577 219.530,245.250 219.322 C 244.815 219.046,245.051 218.009,245.548 218.009 C 245.712 218.009,245.995 217.583,246.177 217.062 C 246.359 216.540,246.613 216.114,246.742 216.114 C 246.871 216.114,247.145 215.743,247.352 215.289 C 247.645 214.646,247.899 214.496,248.503 214.612 C 249.197 214.745,249.258 214.676,249.079 213.966 C 248.952 213.458,249.039 213.047,249.321 212.825 C 249.564 212.635,250.033 211.981,250.363 211.374 C 251.161 209.903,251.822 209.163,252.340 209.163 C 252.573 209.163,252.765 208.891,252.765 208.559 C 252.765 207.479,254.386 205.342,255.047 205.552 C 255.539 205.708,255.602 205.613,255.438 204.961 C 255.182 203.940,256.772 201.522,257.577 201.707 C 257.985 201.801,258.108 201.649,258.063 201.107 C 257.973 200.017,259.386 197.472,260.081 197.472 C 260.402 197.472,260.664 197.638,260.664 197.841 C 260.664 198.044,260.755 198.118,260.867 198.007 C 260.978 197.895,260.919 197.622,260.735 197.401 C 260.552 197.180,260.355 196.927,260.298 196.840 C 260.163 196.633,261.936 193.585,262.352 193.311 C 262.528 193.195,262.711 192.840,262.758 192.522 C 262.858 191.836,264.011 190.831,264.549 190.959 C 264.758 191.009,264.822 190.990,264.692 190.917 C 264.099 190.586,264.483 189.231,265.252 188.939 C 265.875 188.702,266.010 188.479,265.871 187.920 C 265.750 187.431,266.020 186.702,266.722 185.624 C 267.288 184.755,267.902 183.618,268.086 183.096 C 268.271 182.572,268.636 182.163,268.902 182.182 C 269.177 182.201,269.404 181.930,269.432 181.550 C 269.550 179.971,269.847 179.395,270.458 179.554 C 270.976 179.690,271.035 179.583,270.878 178.798 C 270.666 177.737,271.224 176.885,271.950 177.164 C 272.358 177.320,272.409 177.197,272.230 176.486 C 272.111 176.009,272.099 175.345,272.204 175.013 C 272.445 174.255,273.522 174.218,273.716 174.961 C 273.835 175.415,273.867 175.399,273.897 174.866 C 273.917 174.509,273.773 174.058,273.578 173.862 C 273.133 173.417,273.484 171.880,274.030 171.880 C 274.255 171.880,274.465 171.432,274.509 170.861 C 274.552 170.300,274.767 169.554,274.987 169.202 C 275.208 168.850,275.581 167.958,275.817 167.220 C 276.102 166.328,276.429 165.877,276.789 165.877 C 277.088 165.877,277.509 165.664,277.725 165.403 C 277.947 165.135,277.980 164.929,277.801 164.929 C 277.341 164.929,277.126 163.843,277.466 163.236 C 277.626 162.951,277.938 162.717,278.160 162.717 C 278.420 162.717,278.519 162.409,278.437 161.848 C 278.235 160.459,278.863 159.159,279.621 159.400 C 280.340 159.628,280.528 158.696,279.891 158.059 C 279.279 157.446,280.171 155.698,280.967 155.950 C 281.556 156.137,281.584 156.052,281.380 154.691 C 281.093 152.781,281.372 151.886,282.174 152.141 C 282.834 152.350,282.979 151.489,282.493 150.247 C 282.359 149.905,282.393 149.159,282.568 148.588 C 282.889 147.544,283.540 147.214,283.835 147.946 C 283.927 148.175,284.005 148.099,284.019 147.768 C 284.033 147.452,283.897 146.918,283.716 146.581 C 283.489 146.156,283.493 145.560,283.732 144.627 C 284.330 142.291,284.349 142.262,284.857 142.951 C 285.438 143.741,285.529 142.551,284.968 141.503 C 284.512 140.650,285.224 136.493,285.827 136.493 C 286.056 136.493,286.330 136.884,286.436 137.362 C 286.789 138.965,286.838 138.873,286.863 136.561 C 286.878 135.141,286.724 133.991,286.461 133.559 C 285.949 132.720,286.459 126.065,287.125 124.902 C 287.690 123.914,287.667 116.654,287.097 115.981 C 286.369 115.123,285.816 108.135,286.405 107.236 C 286.692 106.798,286.881 105.823,286.870 104.829 L 286.852 103.160 286.475 104.217 C 286.268 104.799,285.966 105.296,285.804 105.323 C 285.294 105.407,284.550 101.380,284.956 100.730 C 285.150 100.420,285.297 99.916,285.283 99.609 C 285.268 99.279,285.193 99.213,285.099 99.447 C 284.704 100.425,284.125 99.593,283.153 96.654 C 282.341 94.197,282.187 93.383,282.470 93.043 C 282.958 92.454,282.561 91.786,281.999 92.252 C 281.482 92.681,281.092 91.378,281.387 90.205 C 281.551 89.550,281.472 89.415,280.920 89.415 C 280.126 89.415,278.597 86.555,278.741 85.339 C 278.805 84.796,278.661 84.555,278.231 84.491 C 277.548 84.390,277.105 83.820,277.098 83.033 C 277.095 82.738,276.890 82.382,276.643 82.243 C 276.132 81.957,274.566 79.742,274.566 79.307 C 274.566 79.149,274.332 78.890,274.047 78.730 C 273.707 78.540,273.579 78.171,273.677 77.663 C 273.803 77.002,273.722 76.905,273.135 77.018 C 272.654 77.109,272.231 76.877,271.744 76.253 C 270.705 74.919,266.726 70.882,264.986 69.393 C 263.817 68.394,263.495 67.925,263.600 67.376 C 263.700 66.853,263.636 66.744,263.363 66.971 C 262.847 67.399,258.608 65.009,258.186 64.052 C 258.127 63.918,257.586 63.602,256.985 63.351 C 256.233 63.037,255.922 62.718,255.987 62.332 C 256.058 61.915,255.898 61.789,255.372 61.844 C 254.982 61.886,253.915 61.497,253.002 60.980 C 252.090 60.463,250.810 59.810,250.158 59.528 C 249.506 59.246,248.973 58.888,248.973 58.733 C 248.973 58.579,248.799 58.452,248.587 58.452 C 246.323 58.452,242.272 55.838,243.602 55.235 C 243.944 55.080,243.878 55.015,243.365 54.999 C 242.974 54.986,242.654 55.137,242.654 55.334 C 242.654 55.829,240.115 55.465,239.770 54.921 C 239.376 54.300,239.434 54.091,240.047 53.930 C 240.461 53.822,240.420 53.777,239.885 53.749 C 239.492 53.729,238.910 53.875,238.593 54.073 C 237.845 54.540,235.703 54.159,235.703 53.559 C 235.703 52.895,235.163 52.693,234.432 53.084 C 233.523 53.571,230.195 52.629,230.452 51.958 C 230.655 51.429,230.223 51.368,229.399 51.808 C 229.010 52.017,228.039 51.966,226.391 51.650 C 225.052 51.394,223.883 51.185,223.793 51.185 C 223.703 51.185,223.705 50.987,223.798 50.746 C 224.057 50.070,222.195 49.798,221.572 50.421 C 221.295 50.697,220.786 50.845,220.413 50.756 C 220.047 50.668,217.757 50.426,215.324 50.219 C 210.606 49.816,208.530 49.362,211.058 49.287 C 214.546 49.183,210.905 48.702,206.635 48.702 C 204.115 48.702,201.769 48.824,201.422 48.973 M214.159 52.148 C 244.426 54.312,268.805 68.665,278.415 89.979 C 280.265 94.082,280.494 94.650,281.312 97.156 C 293.203 133.625,274.692 182.171,228.486 235.689 C 217.410 248.518,213.592 251.364,206.952 251.742 C 199.247 252.181,192.492 247.488,182.044 234.439 C 181.417 233.657,180.332 232.368,179.631 231.575 C 169.363 219.953,154.918 199.680,148.016 187.204 C 147.536 186.335,146.498 184.487,145.710 183.096 C 122.679 142.445,120.692 102.769,140.463 78.353 C 155.427 59.873,183.345 49.946,214.159 52.148 M207.427 83.725 C 207.336 83.873,206.089 83.997,204.657 84.001 C 203.225 84.006,200.632 84.156,198.894 84.335 C 197.156 84.514,194.886 84.747,193.848 84.853 C 192.811 84.958,191.744 85.157,191.478 85.295 C 191.213 85.432,190.146 85.648,189.108 85.774 C 188.070 85.900,186.936 86.202,186.589 86.445 C 186.242 86.689,185.527 86.889,185.001 86.890 C 184.475 86.891,183.618 87.174,183.096 87.520 C 182.575 87.865,181.624 88.148,180.982 88.150 C 180.341 88.151,179.729 88.292,179.623 88.463 C 179.424 88.786,175.009 90.995,174.565 90.995 C 174.427 90.995,173.731 91.462,173.018 92.034 C 172.305 92.605,171.367 93.304,170.932 93.589 C 169.525 94.509,164.613 99.479,164.613 99.981 C 164.613 100.249,164.317 100.648,163.955 100.866 C 163.223 101.309,161.326 105.107,161.023 106.739 C 160.915 107.318,160.627 108.242,160.382 108.793 C 159.643 110.454,158.919 114.053,158.924 116.035 C 158.925 116.339,158.913 116.872,158.897 117.220 C 158.858 118.084,158.872 122.724,158.916 123.697 C 158.936 124.131,158.948 124.664,158.942 124.882 C 158.906 126.295,160.322 134.248,161.149 137.283 C 161.339 137.978,161.624 139.158,161.783 139.906 C 161.942 140.653,162.289 141.573,162.553 141.951 C 162.817 142.328,163.034 142.996,163.034 143.435 C 163.035 143.874,163.461 145.087,163.981 146.130 C 164.501 147.172,164.927 148.325,164.928 148.691 C 164.928 149.058,165.420 150.300,166.021 151.453 C 166.622 152.605,167.286 154.154,167.497 154.894 C 167.709 155.634,168.046 156.453,168.247 156.714 C 168.449 156.975,168.875 157.899,169.194 158.768 C 169.931 160.773,172.077 164.891,172.816 165.719 C 173.558 166.549,174.092 167.606,174.092 168.244 C 174.092 168.526,174.504 169.282,175.007 169.924 C 175.511 170.565,176.029 171.443,176.158 171.874 C 176.403 172.694,177.460 174.330,178.097 174.878 C 178.302 175.054,178.929 176.122,179.490 177.251 C 180.051 178.381,180.986 179.838,181.566 180.491 C 182.147 181.143,182.622 181.864,182.622 182.093 C 182.622 182.321,183.062 182.996,183.599 183.592 C 184.136 184.188,184.904 185.316,185.305 186.098 C 185.707 186.880,186.405 187.864,186.857 188.286 C 187.308 188.707,187.678 189.239,187.678 189.468 C 187.678 189.697,187.962 190.062,188.310 190.279 C 188.657 190.496,188.942 190.802,188.942 190.960 C 188.942 191.117,189.475 192.023,190.126 192.974 C 190.778 193.924,191.453 194.934,191.627 195.218 C 191.801 195.502,192.441 196.336,193.049 197.072 C 195.071 199.517,196.855 201.720,198.104 203.318 C 202.784 209.301,204.993 211.690,205.845 211.690 C 206.558 211.690,208.064 210.182,211.216 206.314 C 212.085 205.248,213.258 203.836,213.823 203.176 C 214.388 202.517,214.850 201.866,214.850 201.730 C 214.850 201.594,215.525 200.727,216.351 199.804 C 218.984 196.859,219.821 195.762,220.302 194.629 C 220.560 194.021,221.145 193.178,221.602 192.757 C 222.059 192.336,222.433 191.824,222.433 191.619 C 222.433 191.414,222.824 190.806,223.302 190.267 C 225.806 187.443,229.295 182.216,230.339 179.725 C 230.533 179.261,230.887 178.807,231.126 178.715 C 231.365 178.623,231.999 177.640,232.534 176.529 C 233.070 175.418,233.931 174.105,234.448 173.610 C 234.964 173.115,235.387 172.544,235.387 172.342 C 235.387 171.808,237.573 167.727,238.269 166.962 C 238.595 166.604,238.863 166.044,238.863 165.719 C 238.863 165.394,239.161 164.810,239.526 164.421 C 240.396 163.496,244.234 155.845,244.234 155.037 C 244.234 154.487,245.631 151.432,246.936 149.131 C 247.183 148.697,247.386 147.926,247.389 147.418 C 247.391 146.911,247.612 146.253,247.880 145.958 C 248.148 145.662,248.481 144.697,248.621 143.813 C 248.760 142.929,249.040 142.007,249.241 141.764 C 249.605 141.326,250.031 139.674,250.559 136.651 C 250.711 135.782,250.994 134.360,251.187 133.491 C 251.699 131.190,252.761 124.464,252.745 123.618 C 252.741 123.400,252.753 122.867,252.770 122.433 C 252.809 121.454,252.821 118.073,252.789 117.220 C 252.775 116.872,252.768 116.339,252.772 116.035 C 252.781 115.297,252.245 111.499,252.047 110.900 C 251.961 110.640,251.571 109.360,251.180 108.057 C 250.185 104.737,249.723 103.728,248.521 102.244 C 247.943 101.531,247.381 100.655,247.272 100.297 C 246.992 99.380,241.756 94.020,240.537 93.403 C 239.981 93.121,239.412 92.713,239.273 92.496 C 238.973 92.027,237.985 91.369,237.177 91.100 C 236.858 90.994,235.382 90.287,233.897 89.530 C 232.411 88.772,230.824 88.151,230.369 88.150 C 229.914 88.148,229.115 87.865,228.594 87.520 C 228.073 87.174,227.242 86.891,226.747 86.890 C 226.252 86.889,225.471 86.682,225.009 86.430 C 223.607 85.665,215.587 84.387,211.777 84.322 C 210.348 84.298,208.822 84.093,208.386 83.866 C 207.950 83.640,207.519 83.577,207.427 83.725 M214.961 85.126 C 215.342 85.364,217.068 85.636,218.893 85.747 C 220.834 85.865,222.428 86.125,222.843 86.391 C 223.226 86.636,224.392 86.939,225.434 87.064 C 226.497 87.191,227.661 87.549,228.084 87.879 C 228.498 88.203,229.329 88.468,229.930 88.468 C 230.544 88.468,231.374 88.744,231.825 89.100 C 232.267 89.447,232.836 89.731,233.089 89.731 C 233.342 89.731,233.911 90.016,234.353 90.363 C 234.795 90.711,235.382 90.995,235.658 90.995 C 237.270 90.995,247.077 99.545,247.077 100.950 C 247.077 101.178,247.637 102.073,248.320 102.937 C 249.026 103.830,249.658 105.037,249.783 105.730 C 249.904 106.402,250.139 107.122,250.305 107.332 C 250.471 107.541,250.812 108.607,251.063 109.701 C 251.314 110.795,251.669 112.330,251.852 113.112 C 252.319 115.105,252.299 125.248,251.824 127.014 C 251.615 127.796,251.264 129.787,251.047 131.438 C 250.829 133.088,250.505 134.795,250.326 135.229 C 250.148 135.664,249.816 137.085,249.588 138.389 C 249.361 139.692,249.059 140.838,248.917 140.935 C 248.774 141.032,248.504 141.943,248.317 142.959 C 248.129 143.975,247.790 145.104,247.564 145.468 C 247.338 145.832,247.059 146.556,246.944 147.077 C 246.829 147.599,246.462 148.594,246.128 149.289 C 244.341 153.008,243.319 155.395,243.144 156.257 C 242.934 157.286,241.831 159.611,240.967 160.844 C 240.679 161.257,240.442 161.797,240.442 162.044 C 240.442 162.292,239.945 163.101,239.336 163.844 C 238.728 164.586,238.231 165.391,238.231 165.632 C 238.231 165.873,237.875 166.552,237.441 167.141 C 237.006 167.729,236.651 168.339,236.651 168.495 C 236.651 168.651,236.367 169.140,236.019 169.582 C 235.671 170.024,235.387 170.650,235.387 170.974 C 235.387 171.297,234.920 172.096,234.348 172.748 C 233.777 173.400,232.841 174.858,232.269 175.987 C 231.697 177.117,231.063 178.185,230.859 178.361 C 230.171 178.956,229.097 180.659,228.890 181.485 C 228.776 181.937,228.578 182.306,228.449 182.306 C 228.180 182.306,226.224 185.366,226.224 185.787 C 226.224 185.941,226.046 186.180,225.828 186.319 C 225.273 186.672,223.697 188.829,223.697 189.234 C 223.697 189.418,223.412 189.746,223.065 189.963 C 222.717 190.180,222.433 190.492,222.433 190.656 C 222.433 190.820,221.872 191.620,221.186 192.434 C 220.500 193.247,219.849 194.270,219.739 194.707 C 219.629 195.143,219.053 195.972,218.459 196.548 C 217.864 197.125,217.378 197.775,217.378 197.994 C 217.378 198.213,216.738 199.003,215.957 199.749 C 215.176 200.495,214.536 201.261,214.535 201.450 C 214.535 201.639,213.965 202.320,213.270 202.964 C 212.575 203.607,212.006 204.332,212.006 204.575 C 212.006 204.819,211.440 205.630,210.749 206.379 C 210.057 207.128,208.829 208.487,208.020 209.400 C 207.211 210.312,206.319 211.057,206.039 211.056 C 205.318 211.052,199.684 205.236,199.684 204.496 C 199.684 204.311,199.116 203.551,198.421 202.806 C 197.727 202.061,197.084 201.232,196.993 200.963 C 196.902 200.694,196.339 200.118,195.743 199.684 C 195.146 199.250,194.576 198.539,194.477 198.104 C 194.377 197.670,193.807 196.837,193.209 196.253 C 192.611 195.670,192.037 194.923,191.932 194.595 C 191.828 194.266,191.614 193.997,191.456 193.997 C 191.298 193.997,190.934 193.542,190.646 192.985 C 190.359 192.429,189.964 191.810,189.769 191.608 C 189.575 191.407,189.060 190.643,188.626 189.909 C 188.191 189.176,187.303 187.880,186.651 187.030 C 185.999 186.180,185.466 185.351,185.466 185.188 C 185.466 185.024,184.916 184.194,184.243 183.343 C 183.570 182.492,182.930 181.520,182.820 181.182 C 182.711 180.845,182.124 180.045,181.516 179.405 C 180.908 178.765,180.411 178.099,180.411 177.925 C 180.411 177.446,178.459 174.408,178.152 174.408 C 178.004 174.408,177.883 174.205,177.883 173.958 C 177.883 173.711,177.528 173.086,177.093 172.569 C 176.659 172.053,176.303 171.387,176.303 171.090 C 176.303 170.793,175.948 170.127,175.513 169.611 C 175.079 169.094,174.724 168.478,174.724 168.240 C 174.724 167.599,173.500 165.644,172.971 165.441 C 172.719 165.344,172.512 164.995,172.512 164.665 C 172.512 164.336,172.227 163.705,171.880 163.263 C 171.532 162.821,171.248 162.181,171.248 161.841 C 171.248 161.501,170.977 160.879,170.647 160.458 C 170.316 160.037,169.887 159.130,169.694 158.441 C 169.500 157.752,169.131 156.912,168.873 156.575 C 168.615 156.237,168.404 155.651,168.404 155.271 C 168.404 154.891,168.191 154.403,167.930 154.186 C 167.670 153.970,167.457 153.545,167.457 153.242 C 167.457 152.940,167.164 152.319,166.806 151.864 C 166.448 151.409,166.073 150.501,165.972 149.847 C 165.872 149.193,165.609 148.302,165.388 147.867 C 165.166 147.433,164.813 146.615,164.603 146.051 C 164.392 145.486,164.095 145.024,163.943 145.024 C 163.790 145.024,163.665 144.547,163.665 143.965 C 163.665 142.770,163.096 140.916,162.729 140.916 C 162.596 140.916,162.402 140.298,162.299 139.543 C 162.195 138.787,161.885 137.505,161.609 136.692 C 161.333 135.879,160.973 134.033,160.809 132.590 C 160.645 131.147,160.308 129.551,160.061 129.043 C 159.043 126.958,159.251 113.003,160.322 111.473 C 160.597 111.081,160.821 110.287,160.821 109.709 C 160.821 109.130,161.016 108.273,161.253 107.804 C 161.491 107.335,161.782 106.413,161.901 105.756 C 162.020 105.099,162.466 104.049,162.891 103.422 C 163.317 102.795,163.665 102.177,163.665 102.049 C 163.665 100.545,174.374 90.995,176.061 90.995 C 176.321 90.995,176.896 90.711,177.337 90.363 C 177.779 90.016,178.348 89.731,178.601 89.731 C 178.854 89.731,179.423 89.447,179.865 89.100 C 180.307 88.752,181.063 88.468,181.546 88.468 C 182.028 88.468,183.001 88.202,183.708 87.878 C 184.414 87.553,185.845 87.103,186.888 86.877 C 187.930 86.651,188.927 86.359,189.102 86.228 C 189.277 86.097,190.841 85.890,192.578 85.769 C 194.314 85.649,196.161 85.357,196.682 85.122 C 198.409 84.343,213.709 84.347,214.961 85.126 M287.975 120.853 C 287.975 125.719,288.019 127.665,288.072 125.178 C 288.126 122.692,288.125 118.710,288.072 116.332 C 288.018 113.953,287.974 115.987,287.975 120.853 " stroke="none" fill="#8f8d90" fill-rule="evenodd"></path><path id="path2" d="M200.474 54.985 C 192.112 55.373,178.269 57.715,174.566 59.368 C 174.218 59.523,172.796 60.042,171.406 60.521 C 134.954 73.068,121.006 109.012,135.489 153.081 C 137.433 158.998,142.213 170.196,145.301 176.067 C 147.069 179.428,147.496 180.218,149.618 184.044 C 151.921 188.197,154.976 193.126,158.822 198.894 C 164.310 207.127,166.284 209.881,171.864 217.089 C 172.481 217.886,173.412 219.094,173.933 219.774 C 182.818 231.377,195.862 245.613,199.126 247.271 C 206.671 251.104,213.377 248.694,221.205 239.336 C 221.786 238.641,223.411 236.793,224.815 235.229 C 229.128 230.424,235.298 222.962,239.233 217.791 C 240.133 216.608,241.426 214.929,242.105 214.060 C 250.260 203.624,257.371 192.565,265.521 177.641 C 287.583 137.241,287.166 97.514,264.447 75.468 C 249.534 60.997,226.922 53.757,200.474 54.985 M203.523 83.297 C 204.052 83.776,204.109 83.776,204.293 83.297 C 204.556 82.611,205.890 82.636,206.282 83.333 C 206.578 83.860,206.603 83.860,206.806 83.333 C 207.058 82.679,208.389 82.593,208.752 83.208 C 208.941 83.527,210.355 83.684,214.340 83.830 C 218.483 83.981,219.795 84.133,220.210 84.508 C 220.569 84.833,221.387 84.992,222.695 84.992 C 224.172 84.992,224.787 85.134,225.230 85.578 C 225.565 85.912,226.470 86.237,227.344 86.336 C 228.184 86.430,229.022 86.713,229.207 86.964 C 229.391 87.216,230.227 87.498,231.064 87.592 C 232.044 87.702,232.809 88.001,233.209 88.431 C 233.552 88.799,234.160 89.100,234.560 89.100 C 234.961 89.100,235.546 89.384,235.861 89.731 C 236.176 90.079,236.744 90.363,237.125 90.363 C 237.505 90.363,238.074 90.648,238.389 90.995 C 238.703 91.343,239.135 91.627,239.349 91.627 C 239.562 91.627,239.811 91.912,239.902 92.259 C 240.008 92.663,240.334 92.892,240.808 92.894 C 241.532 92.896,243.918 94.848,243.918 95.439 C 243.918 95.601,244.044 95.735,244.197 95.735 C 244.731 95.735,247.709 99.005,247.709 99.592 C 247.709 99.917,248.267 100.763,248.948 101.472 C 249.630 102.181,250.277 103.117,250.386 103.552 C 250.495 103.986,250.790 104.548,251.042 104.800 C 251.300 105.058,251.501 105.850,251.501 106.609 C 251.501 107.530,251.690 108.130,252.096 108.498 C 252.561 108.918,252.741 109.688,252.914 111.999 C 253.072 114.101,253.266 115.011,253.582 115.133 C 254.207 115.373,254.139 116.490,253.476 116.888 C 252.949 117.204,252.949 117.235,253.476 117.551 C 254.249 118.015,254.286 121.880,253.520 122.174 C 253.053 122.353,253.053 122.392,253.520 122.654 C 254.149 123.005,254.181 123.967,253.580 124.465 C 253.272 124.721,253.061 125.924,252.906 128.315 C 252.750 130.718,252.536 131.937,252.213 132.260 C 251.902 132.571,251.691 133.652,251.583 135.479 C 251.492 137.034,251.245 138.437,251.015 138.705 C 250.792 138.965,250.510 139.845,250.390 140.660 C 250.269 141.482,249.904 142.383,249.572 142.684 C 249.165 143.052,248.973 143.652,248.973 144.556 C 248.973 145.408,248.746 146.175,248.341 146.690 C 247.975 147.155,247.709 147.971,247.709 148.631 C 247.709 149.378,247.492 149.955,247.077 150.310 C 246.730 150.608,246.445 151.175,246.445 151.571 C 246.445 151.967,246.177 152.560,245.848 152.888 C 245.507 153.229,245.154 154.190,245.025 155.122 C 244.897 156.058,244.611 156.831,244.359 156.928 C 244.116 157.021,243.918 157.501,243.918 157.994 C 243.918 158.510,243.668 159.065,243.328 159.303 C 243.004 159.530,242.635 160.187,242.509 160.764 C 242.382 161.340,242.093 161.883,241.865 161.971 C 241.638 162.058,241.364 162.597,241.257 163.170 C 241.150 163.742,240.780 164.465,240.436 164.777 C 240.092 165.088,239.810 165.675,239.810 166.081 C 239.810 166.487,239.526 166.997,239.179 167.214 C 238.831 167.431,238.547 167.781,238.547 167.991 C 238.547 168.201,238.353 168.487,238.117 168.626 C 237.881 168.765,237.519 169.399,237.312 170.035 C 237.105 170.672,236.730 171.271,236.478 171.368 C 236.225 171.465,236.019 171.892,236.019 172.318 C 236.019 172.789,235.533 173.598,234.780 174.381 C 234.099 175.090,233.448 176.097,233.333 176.619 C 233.219 177.140,232.991 177.567,232.826 177.567 C 232.662 177.567,232.393 177.923,232.227 178.357 C 232.062 178.791,231.710 179.147,231.445 179.147 C 231.142 179.147,230.964 179.440,230.964 179.937 C 230.964 180.371,230.700 180.990,230.377 181.313 C 230.055 181.635,229.694 182.288,229.574 182.764 C 229.455 183.240,228.879 184.122,228.294 184.723 C 227.710 185.325,227.137 186.193,227.022 186.653 C 226.907 187.112,226.503 187.794,226.124 188.168 C 224.335 189.934,223.065 191.506,223.065 191.951 C 223.065 192.221,222.496 193.016,221.801 193.718 C 221.106 194.420,220.537 195.287,220.537 195.644 C 220.537 196.001,220.057 196.807,219.469 197.436 C 216.954 200.127,216.430 200.740,216.430 200.995 C 216.430 201.143,216.234 201.264,215.995 201.264 C 215.756 201.264,215.482 201.660,215.385 202.144 C 215.288 202.630,214.352 203.911,213.292 205.007 C 212.237 206.098,211.374 207.090,211.374 207.211 C 211.374 207.332,211.090 207.609,210.742 207.826 C 210.395 208.043,210.111 208.483,210.111 208.804 C 210.111 209.787,207.012 212.638,205.944 212.638 C 204.776 212.638,201.580 209.648,201.580 208.556 C 201.580 208.105,201.345 207.778,200.948 207.674 C 200.600 207.584,200.316 207.382,200.316 207.226 C 200.316 206.968,199.450 205.952,197.077 203.430 C 196.600 202.922,196.209 202.293,196.209 202.033 C 196.209 201.773,195.640 201.037,194.945 200.398 C 194.250 199.759,193.681 199.124,193.681 198.986 C 193.681 198.849,193.112 198.167,192.417 197.472 C 191.722 196.777,191.153 195.988,191.153 195.719 C 191.153 195.450,190.646 194.707,190.025 194.068 C 189.405 193.429,188.817 192.507,188.720 192.019 C 188.622 191.530,188.277 190.989,187.952 190.815 C 187.627 190.641,187.362 190.367,187.362 190.205 C 187.362 190.043,186.855 189.404,186.236 188.785 C 185.617 188.166,184.951 187.202,184.756 186.642 C 184.561 186.083,183.937 185.214,183.369 184.711 C 182.802 184.208,182.243 183.370,182.129 182.848 C 182.014 182.326,181.440 181.419,180.854 180.833 C 180.268 180.247,179.695 179.378,179.581 178.904 C 179.467 178.429,179.109 177.787,178.786 177.476 C 178.463 177.165,178.199 176.561,178.199 176.133 C 178.199 175.657,178.018 175.355,177.731 175.355 C 177.474 175.355,177.174 175.000,177.065 174.566 C 176.956 174.131,176.684 173.776,176.461 173.776 C 176.019 173.776,175.671 173.094,175.671 172.226 C 175.671 171.923,175.105 171.117,174.413 170.435 C 173.415 169.451,173.153 168.960,173.149 168.063 C 173.145 167.192,172.854 166.610,171.884 165.535 C 171.192 164.767,170.623 163.818,170.621 163.425 C 170.618 163.032,170.332 162.468,169.986 162.171 C 169.639 161.874,169.269 161.175,169.165 160.616 C 169.060 160.058,168.775 159.525,168.531 159.431 C 168.288 159.338,168.088 158.875,168.088 158.403 C 168.088 157.931,167.792 157.230,167.431 156.844 C 167.069 156.459,166.692 155.540,166.593 154.801 C 166.494 154.063,166.150 153.196,165.829 152.875 C 165.508 152.553,165.245 151.982,165.245 151.605 C 165.245 151.227,165.011 150.660,164.725 150.344 C 164.439 150.028,164.136 149.057,164.053 148.186 C 163.958 147.200,163.750 146.603,163.501 146.603 C 162.976 146.603,162.717 145.880,162.717 144.415 C 162.717 143.627,162.504 143.033,162.085 142.654 C 161.638 142.249,161.453 141.681,161.453 140.709 C 161.453 139.758,161.259 139.143,160.821 138.705 C 160.324 138.207,160.190 137.651,160.190 136.089 C 160.190 134.553,160.058 133.993,159.607 133.607 C 159.138 133.205,158.981 132.439,158.803 129.675 C 158.654 127.380,158.429 126.074,158.121 125.734 C 157.541 125.093,157.544 124.824,158.144 124.162 C 158.576 123.685,158.576 123.588,158.144 123.229 C 157.454 122.657,157.465 118.409,158.158 117.716 C 158.610 117.265,158.610 117.174,158.158 116.723 C 157.548 116.113,157.543 115.950,158.115 115.134 C 158.367 114.774,158.668 113.258,158.792 111.720 C 158.971 109.523,159.138 108.878,159.603 108.587 C 160.041 108.313,160.190 107.840,160.190 106.714 C 160.190 105.598,160.354 105.067,160.821 104.666 C 161.169 104.368,161.453 103.823,161.453 103.454 C 161.453 103.085,161.738 102.526,162.085 102.212 C 162.433 101.897,162.717 101.458,162.717 101.236 C 162.717 101.014,162.985 100.748,163.312 100.644 C 163.638 100.540,163.985 100.068,164.081 99.596 C 164.317 98.436,169.981 92.891,170.929 92.891 C 171.357 92.891,171.686 92.649,171.788 92.259 C 171.879 91.912,172.128 91.627,172.342 91.627 C 172.555 91.627,172.987 91.343,173.302 90.995 C 173.616 90.648,174.117 90.363,174.414 90.363 C 174.711 90.363,175.316 90.079,175.758 89.731 C 176.199 89.384,176.768 89.100,177.021 89.100 C 177.275 89.100,177.867 88.797,178.338 88.426 C 178.809 88.056,179.859 87.678,180.671 87.587 C 181.484 87.496,182.299 87.216,182.484 86.964 C 182.668 86.713,183.506 86.430,184.347 86.336 C 185.220 86.237,186.126 85.912,186.460 85.578 C 186.904 85.134,187.518 84.992,188.996 84.992 C 190.338 84.992,191.119 84.835,191.503 84.488 C 191.941 84.092,193.067 83.947,196.741 83.818 C 200.251 83.693,201.485 83.543,201.674 83.216 C 202.014 82.630,202.825 82.666,203.523 83.297 " stroke="none" fill="#3d3c3e" fill-rule="evenodd"></path><path id="path3" d="M191.153 49.431 C 191.153 50.651,191.778 50.750,196.751 50.322 C 201.866 49.881,204.368 49.399,202.054 49.299 C 201.044 49.256,200.917 49.190,201.422 48.973 C 201.809 48.807,199.942 48.693,196.603 48.679 L 191.153 48.657 191.153 49.431 M211.848 48.969 C 212.339 49.183,212.162 49.254,211.058 49.287 C 208.530 49.362,210.606 49.816,215.324 50.219 C 217.757 50.426,220.047 50.668,220.413 50.756 C 221.199 50.943,222.193 50.077,222.050 49.330 C 221.964 48.881,221.261 48.807,216.584 48.754 C 213.309 48.717,211.463 48.801,211.848 48.969 M182.082 50.553 C 181.934 51.117,181.651 51.185,179.426 51.185 C 177.163 51.185,176.935 51.241,176.935 51.804 C 176.935 52.361,176.675 52.432,174.329 52.515 C 171.942 52.599,171.714 52.663,171.626 53.281 C 171.546 53.841,171.330 53.949,170.362 53.913 C 169.311 53.875,169.184 53.957,169.094 54.739 C 169.013 55.443,169.120 55.608,169.659 55.608 C 170.844 55.608,175.987 53.895,175.987 53.501 C 175.987 52.896,176.550 52.705,177.242 53.076 C 178.070 53.519,181.359 52.622,181.359 51.952 C 181.359 51.414,181.517 51.394,182.329 51.829 C 182.768 52.064,183.676 52.017,185.537 51.664 C 187.941 51.208,189.412 50.598,188.294 50.521 C 188.042 50.504,188.191 50.376,188.626 50.237 C 189.129 50.076,188.115 49.973,185.831 49.953 C 182.499 49.923,182.236 49.965,182.082 50.553 M223.284 50.142 C 223.731 50.228,223.916 50.438,223.803 50.731 C 223.708 50.980,223.703 51.185,223.793 51.185 C 223.883 51.185,225.052 51.394,226.391 51.650 C 228.039 51.966,229.010 52.017,229.399 51.808 C 230.223 51.368,230.655 51.429,230.452 51.958 C 230.195 52.629,233.523 53.571,234.432 53.084 C 235.163 52.693,235.703 52.895,235.703 53.559 C 235.703 54.053,237.623 54.524,238.408 54.223 C 239.743 53.710,238.765 52.610,236.888 52.512 C 235.206 52.424,234.904 52.246,235.034 51.422 C 235.054 51.291,233.879 51.185,232.422 51.185 C 230.039 51.185,229.757 51.121,229.608 50.553 C 229.455 49.967,229.196 49.924,226.017 49.964 C 224.133 49.988,222.903 50.068,223.284 50.142 M240.047 53.923 C 238.836 54.255,239.698 55.295,241.370 55.519 C 242.690 55.696,242.704 55.688,242.600 54.784 C 242.493 53.846,241.524 53.519,240.047 53.923 M165.456 55.187 C 165.340 55.303,165.245 55.658,165.245 55.977 C 165.245 56.444,164.995 56.556,163.951 56.556 C 162.924 56.556,162.624 56.686,162.493 57.188 C 162.368 57.667,162.062 57.820,161.229 57.820 C 160.396 57.820,160.090 57.973,159.965 58.452 C 159.836 58.947,159.534 59.084,158.573 59.084 C 157.557 59.084,157.346 59.192,157.346 59.716 C 157.346 60.230,157.135 60.348,156.211 60.348 C 155.359 60.348,155.036 60.498,154.918 60.950 C 154.831 61.282,154.489 61.624,154.157 61.711 C 153.826 61.797,153.555 62.095,153.555 62.372 C 153.555 62.748,153.236 62.875,152.291 62.875 C 151.237 62.875,151.027 62.981,151.027 63.507 C 151.027 63.967,150.816 64.139,150.255 64.139 C 149.653 64.139,149.510 64.278,149.605 64.771 C 149.712 65.326,149.557 65.403,148.323 65.403 C 147.130 65.403,146.919 65.498,146.919 66.035 C 146.919 66.600,146.591 66.814,145.893 66.704 C 145.762 66.684,145.656 66.951,145.656 67.299 C 145.656 67.864,145.327 68.078,144.629 67.968 C 144.498 67.947,144.392 68.286,144.392 68.720 C 144.392 69.300,144.223 69.510,143.760 69.510 C 143.339 69.510,143.128 69.721,143.128 70.142 C 143.128 70.563,142.917 70.774,142.496 70.774 C 142.075 70.774,141.864 70.985,141.864 71.406 C 141.864 71.827,141.654 72.038,141.232 72.038 C 140.811 72.038,140.600 72.249,140.600 72.670 C 140.600 73.091,140.390 73.302,139.968 73.302 C 139.547 73.302,139.336 73.512,139.336 73.934 C 139.336 74.355,139.126 74.566,138.705 74.566 C 138.283 74.566,138.073 74.776,138.073 75.197 C 138.073 75.668,137.862 75.829,137.250 75.829 C 136.480 75.829,136.434 75.911,136.547 77.093 C 136.655 78.228,136.595 78.357,135.958 78.357 C 135.495 78.357,135.305 78.504,135.411 78.780 C 135.558 79.162,134.778 80.095,134.312 80.095 C 134.208 80.095,134.133 80.628,134.144 81.280 C 134.162 82.314,134.072 82.464,133.433 82.464 C 132.912 82.464,132.701 82.646,132.701 83.096 C 132.701 83.518,132.491 83.728,132.070 83.728 C 131.546 83.728,131.438 83.939,131.438 84.955 C 131.438 85.917,131.301 86.218,130.806 86.347 C 130.327 86.473,130.174 86.778,130.174 87.611 C 130.174 88.444,130.021 88.750,129.542 88.875 C 129.063 89.000,128.910 89.306,128.910 90.139 C 128.910 90.972,128.757 91.277,128.278 91.403 C 127.066 91.720,127.484 95.103,128.735 95.103 C 128.784 95.103,129.078 94.427,129.387 93.602 C 130.142 91.590,132.692 86.420,133.747 84.761 C 134.215 84.026,134.597 83.138,134.597 82.787 C 134.597 82.436,134.796 82.148,135.040 82.148 C 135.406 82.148,136.362 80.913,137.118 79.463 C 137.823 78.110,149.255 66.684,150.553 66.035 C 151.736 65.443,153.555 63.982,153.555 63.623 C 153.555 63.385,153.876 63.191,154.273 63.191 C 154.668 63.191,155.698 62.725,156.563 62.156 C 157.428 61.587,158.598 60.930,159.163 60.696 C 159.727 60.462,160.190 60.164,160.190 60.033 C 160.190 59.902,160.599 59.713,161.099 59.613 C 161.600 59.513,162.205 59.234,162.445 58.995 C 162.685 58.755,163.261 58.463,163.725 58.347 C 164.189 58.230,164.782 57.922,165.042 57.661 C 165.303 57.401,165.765 57.188,166.069 57.188 C 167.964 57.188,169.379 55.820,168.088 55.235 C 167.463 54.952,165.722 54.920,165.456 55.187 M243.602 55.228 C 242.285 55.846,246.314 58.452,248.587 58.452 C 248.799 58.452,248.973 58.579,248.973 58.733 C 248.973 58.888,249.506 59.246,250.158 59.528 C 250.810 59.810,252.108 60.473,253.043 61.002 C 253.978 61.531,254.938 61.889,255.176 61.797 C 255.829 61.546,255.694 60.627,254.976 60.439 C 254.627 60.348,254.344 60.008,254.344 59.679 C 254.344 59.195,254.108 59.084,253.081 59.084 C 252.027 59.084,251.817 58.978,251.817 58.452 C 251.817 57.928,251.606 57.820,250.590 57.820 C 249.629 57.820,249.327 57.683,249.198 57.188 C 249.067 56.688,248.767 56.556,247.761 56.556 C 246.683 56.556,246.474 56.448,246.388 55.845 C 246.282 55.098,244.650 54.736,243.602 55.228 M256.009 62.267 C 255.974 62.734,256.263 63.049,257.019 63.365 C 257.601 63.608,258.127 63.931,258.186 64.082 C 258.360 64.526,262.028 66.914,262.717 67.032 C 263.639 67.190,263.607 65.656,262.684 65.417 C 262.275 65.311,262.051 65.032,262.103 64.692 C 262.158 64.329,261.980 64.139,261.583 64.139 C 261.190 64.139,260.979 63.919,260.979 63.507 C 260.979 62.969,260.769 62.875,259.558 62.875 C 258.346 62.875,258.136 62.782,258.136 62.243 C 258.136 61.298,256.080 61.321,256.009 62.267 M263.718 66.877 C 263.198 67.397,263.619 68.224,265.008 69.412 C 266.724 70.880,270.709 74.925,271.736 76.242 C 272.744 77.534,273.745 77.304,273.874 75.750 C 273.964 74.664,273.904 74.566,273.163 74.566 C 272.565 74.566,272.354 74.401,272.354 73.934 C 272.354 73.512,272.143 73.302,271.722 73.302 C 271.301 73.302,271.090 73.091,271.090 72.670 C 271.090 72.249,270.879 72.038,270.458 72.038 C 270.037 72.038,269.826 71.827,269.826 71.406 C 269.826 70.985,269.616 70.774,269.194 70.774 C 268.773 70.774,268.562 70.563,268.562 70.142 C 268.562 69.721,268.352 69.510,267.930 69.510 C 267.500 69.510,267.299 69.300,267.299 68.849 C 267.299 68.453,267.045 68.121,266.667 68.022 C 266.317 67.931,266.035 67.591,266.035 67.262 C 266.035 66.663,264.231 66.364,263.718 66.877 M273.618 77.883 C 273.618 78.318,273.764 78.673,273.944 78.673 C 274.123 78.673,274.375 78.922,274.504 79.226 C 274.998 80.391,276.194 82.100,276.634 82.268 C 276.886 82.365,277.095 82.698,277.098 83.007 C 277.105 83.835,277.524 84.358,278.301 84.507 C 278.900 84.623,278.989 84.499,278.989 83.552 C 278.989 82.675,278.867 82.464,278.357 82.464 C 277.815 82.464,277.725 82.254,277.725 80.990 C 277.725 80.179,277.635 79.605,277.526 79.715 C 277.176 80.064,276.088 79.278,276.269 78.807 C 276.389 78.494,276.209 78.357,275.680 78.357 C 275.088 78.357,274.945 78.216,275.039 77.725 C 275.134 77.232,274.991 77.093,274.389 77.093 C 273.777 77.093,273.618 77.256,273.618 77.883 M278.673 85.565 C 278.673 86.718,280.223 89.415,280.885 89.415 C 281.825 89.415,281.825 86.593,280.885 86.347 C 280.535 86.256,280.253 85.917,280.253 85.587 C 280.253 85.163,280.026 84.992,279.463 84.992 C 278.911 84.992,278.673 85.165,278.673 85.565 M281.336 90.401 C 280.980 90.975,281.540 92.633,281.969 92.277 C 282.187 92.096,282.458 92.042,282.573 92.157 C 282.687 92.271,282.780 91.931,282.780 91.401 C 282.780 90.434,281.754 89.723,281.336 90.401 M282.492 93.015 C 282.035 93.566,283.934 99.819,284.563 99.834 C 285.543 99.856,285.667 95.453,284.693 95.199 C 284.252 95.083,284.051 94.713,283.982 93.888 C 283.877 92.632,283.160 92.211,282.492 93.015 M126.593 95.313 C 126.168 95.739,126.376 98.495,126.864 98.900 C 127.473 99.406,127.529 99.341,127.997 97.591 C 128.524 95.622,127.670 94.236,126.593 95.313 M125.118 102.151 C 125.118 103.863,125.858 105.566,126.173 104.581 C 127.063 101.804,126.970 100.474,125.885 100.474 C 125.170 100.474,125.118 100.586,125.118 102.151 M284.806 100.907 C 284.567 101.531,285.424 105.371,285.802 105.371 C 286.257 105.371,286.928 102.988,286.824 101.746 C 286.720 100.518,285.198 99.884,284.806 100.907 M124.065 105.740 C 123.723 106.083,123.829 111.584,124.204 112.937 C 124.687 114.675,124.943 113.984,125.417 109.674 C 125.746 106.681,125.741 106.034,125.387 105.809 C 124.871 105.482,124.350 105.455,124.065 105.740 M286.260 107.418 C 285.819 108.241,286.508 115.287,287.097 115.981 C 287.667 116.654,287.690 123.914,287.125 124.902 C 286.598 125.823,285.958 132.686,286.330 133.431 C 286.500 133.773,286.881 133.964,287.274 133.905 C 287.931 133.808,287.934 133.749,287.945 120.408 L 287.955 107.008 287.273 106.904 C 286.844 106.839,286.468 107.030,286.260 107.418 M124.366 126.066 C 124.231 126.501,124.042 128.740,123.946 131.043 L 123.772 135.229 124.570 135.229 C 125.008 135.229,125.448 135.017,125.548 134.758 C 125.747 134.239,125.208 127.735,124.841 126.224 L 124.611 125.276 124.366 126.066 M285.026 138.636 C 284.562 141.232,284.748 141.864,285.972 141.864 L 286.884 141.864 286.756 139.731 C 286.523 135.826,285.630 135.260,285.026 138.636 M125.310 137.309 C 124.815 138.600,125.102 141.864,125.712 141.864 C 126.812 141.864,127.176 141.030,126.757 139.465 C 126.551 138.694,126.382 137.781,126.382 137.436 C 126.382 136.690,125.584 136.595,125.310 137.309 M284.240 142.812 C 283.254 145.646,283.351 146.919,284.552 146.919 C 285.255 146.919,285.308 146.801,285.308 145.242 C 285.308 143.513,284.576 141.847,284.240 142.812 M126.761 143.191 C 125.974 143.979,126.283 146.919,127.154 146.919 C 128.237 146.919,128.372 146.524,127.961 144.545 C 127.589 142.753,127.406 142.546,126.761 143.191 M282.582 148.578 C 282.149 150.040,282.368 150.711,283.278 150.711 C 283.940 150.711,284.044 150.564,284.044 149.631 C 284.044 147.433,283.119 146.767,282.582 148.578 M128.480 148.112 C 128.345 148.331,128.095 148.423,127.924 148.318 C 127.731 148.198,127.650 148.878,127.709 150.130 C 127.813 152.331,129.253 153.322,129.471 151.343 C 129.594 150.229,128.791 147.609,128.480 148.112 M281.337 152.740 C 281.042 153.915,281.297 154.660,281.995 154.660 C 283.185 154.660,282.952 152.005,281.760 151.980 C 281.633 151.977,281.442 152.319,281.337 152.740 M128.910 154.216 C 128.910 155.560,129.014 155.853,129.542 155.991 C 129.970 156.103,130.175 156.424,130.179 156.988 C 130.185 158.108,130.632 158.744,131.248 158.508 C 131.862 158.272,131.915 156.926,131.330 156.440 C 131.096 156.246,130.841 156.152,130.762 156.231 C 130.684 156.309,130.672 155.917,130.736 155.359 C 130.902 153.926,130.333 152.607,129.550 152.607 C 128.991 152.607,128.910 152.811,128.910 154.216 M279.928 156.735 C 279.468 157.845,280.093 158.860,281.018 158.505 C 281.697 158.244,281.696 156.219,281.017 155.958 C 280.326 155.693,280.374 155.659,279.928 156.735 M131.463 160.742 C 131.441 162.199,131.515 162.401,132.070 162.401 C 132.604 162.401,132.701 162.612,132.701 163.770 C 132.701 164.994,132.777 165.134,133.412 165.089 C 134.449 165.015,134.663 163.033,133.635 163.033 C 133.050 163.033,132.980 162.909,133.159 162.195 C 133.418 161.165,132.770 159.464,132.203 159.681 C 131.978 159.768,131.725 159.668,131.641 159.461 C 131.557 159.253,131.476 159.830,131.463 160.742 M278.642 160.111 C 278.460 160.588,278.367 161.370,278.437 161.848 C 278.519 162.409,278.420 162.717,278.160 162.717 C 277.367 162.717,276.910 164.860,277.683 164.953 C 277.793 164.966,278.132 165.025,278.436 165.083 C 278.895 165.171,278.989 164.952,278.989 163.795 C 278.989 162.612,279.084 162.401,279.621 162.401 C 280.451 162.401,280.569 159.747,279.753 159.433 C 279.021 159.153,279.003 159.164,278.642 160.111 M276.902 165.814 C 276.432 165.881,276.111 166.299,275.812 167.236 C 275.579 167.965,275.208 168.850,274.987 169.202 C 274.767 169.554,274.552 170.300,274.509 170.861 C 274.465 171.432,274.255 171.880,274.030 171.880 C 273.508 171.880,273.126 173.411,273.544 173.828 C 274.268 174.552,275.042 173.959,274.970 172.737 C 274.913 171.770,275.006 171.564,275.502 171.564 C 276.190 171.564,276.598 170.598,276.303 169.668 C 276.146 169.173,276.247 169.036,276.766 169.036 C 277.578 169.036,277.795 168.530,277.666 166.940 C 277.582 165.903,277.467 165.733,276.902 165.814 M134.152 166.918 C 133.891 168.644,134.013 169.036,134.809 169.036 C 135.415 169.036,135.539 169.192,135.501 169.905 C 135.424 171.377,135.518 171.564,136.335 171.564 C 137.347 171.564,137.448 170.058,136.493 169.194 C 136.145 168.880,135.859 168.253,135.856 167.803 C 135.846 166.076,134.393 165.321,134.152 166.918 M136.878 172.433 C 136.458 173.296,136.597 173.915,137.237 174.038 C 138.073 174.199,138.502 173.638,138.265 172.693 C 138.031 171.760,137.274 171.619,136.878 172.433 M272.172 175.180 C 271.933 176.133,272.207 176.619,272.986 176.619 C 273.768 176.619,273.998 176.196,273.751 175.212 C 273.485 174.152,272.436 174.130,272.172 175.180 M138.283 174.934 C 137.721 175.496,138.080 176.662,138.784 176.562 C 139.442 176.469,139.527 176.249,139.376 175.039 C 139.331 174.683,138.604 174.613,138.283 174.934 M271.089 177.411 C 270.521 178.095,270.825 179.305,271.564 179.305 C 272.040 179.305,272.220 179.062,272.292 178.318 C 272.399 177.214,271.694 176.682,271.089 177.411 M139.458 177.707 C 139.171 178.454,139.457 179.240,140.046 179.326 C 140.767 179.431,141.022 178.980,140.782 178.023 C 140.570 177.179,139.737 176.980,139.458 177.707 M269.665 180.153 C 269.565 180.555,269.460 181.184,269.432 181.550 C 269.404 181.930,269.177 182.201,268.902 182.182 C 268.636 182.163,268.271 182.572,268.086 183.096 C 267.902 183.618,267.290 184.754,266.727 185.620 C 265.581 187.383,265.544 188.103,266.591 188.253 C 267.117 188.328,267.299 188.195,267.299 187.737 C 267.299 187.385,267.571 187.048,267.930 186.954 C 268.410 186.829,268.562 186.523,268.562 185.690 C 268.562 184.858,268.715 184.552,269.194 184.427 C 269.678 184.300,269.826 183.996,269.826 183.126 C 269.826 182.190,269.941 181.991,270.477 181.991 C 271.036 181.991,271.114 181.823,271.030 180.808 C 270.914 179.406,269.966 178.951,269.665 180.153 M140.600 180.757 C 140.600 181.335,140.799 181.653,141.232 181.766 C 142.013 181.970,142.298 181.555,142.051 180.570 C 141.775 179.472,140.600 179.623,140.600 180.757 M141.864 183.284 C 141.864 183.996,142.036 184.306,142.496 184.427 C 142.975 184.552,143.128 184.858,143.128 185.690 C 143.128 186.523,143.281 186.829,143.760 186.954 C 144.255 187.084,144.392 187.385,144.392 188.346 C 144.392 189.340,144.506 189.573,144.990 189.573 C 145.586 189.573,146.109 190.359,145.823 190.822 C 145.740 190.956,145.986 191.050,146.371 191.031 C 147.641 190.966,146.932 187.848,145.443 186.951 C 145.212 186.812,145.024 186.421,145.024 186.082 C 145.024 185.743,144.739 185.182,144.392 184.834 C 144.044 184.487,143.760 183.946,143.760 183.633 C 143.760 182.906,143.161 182.306,142.433 182.306 C 142.008 182.306,141.864 182.553,141.864 183.284 M265.166 188.951 C 264.492 189.222,264.100 190.801,264.692 190.861 C 264.822 190.875,265.178 190.933,265.482 190.991 C 265.932 191.078,266.035 190.868,266.035 189.861 C 266.035 189.182,265.999 188.635,265.956 188.646 C 265.912 188.657,265.557 188.794,265.166 188.951 M263.524 191.392 C 263.149 191.696,262.804 192.204,262.758 192.522 C 262.711 192.840,262.528 193.195,262.352 193.311 C 260.888 194.276,260.156 197.274,261.349 197.412 C 262.012 197.489,262.174 197.387,262.105 196.938 C 262.051 196.578,262.265 196.303,262.684 196.196 C 263.185 196.067,263.388 195.709,263.507 194.742 C 263.630 193.745,263.789 193.476,264.218 193.541 C 264.663 193.609,264.771 193.388,264.771 192.408 C 264.771 190.937,264.429 190.659,263.524 191.392 M147.134 191.909 C 146.880 192.573,147.090 193.518,147.502 193.562 C 147.703 193.584,147.974 193.620,148.104 193.641 C 148.235 193.663,148.320 194.249,148.294 194.945 C 148.253 196.073,148.327 196.209,148.987 196.209 C 149.557 196.209,149.699 196.354,149.605 196.840 C 149.453 197.629,150.853 197.750,151.150 196.974 C 151.359 196.429,149.908 193.717,149.278 193.475 C 149.063 193.392,148.803 192.907,148.701 192.397 C 148.502 191.405,147.453 191.078,147.134 191.909 M258.669 199.112 C 258.222 200.014,257.928 200.867,258.015 201.008 C 258.319 201.499,259.144 201.259,259.308 200.632 C 259.401 200.278,259.739 200.000,260.078 200.000 C 260.814 200.000,261.115 199.321,260.850 198.262 C 260.511 196.915,259.575 197.280,258.669 199.112 M151.027 198.894 C 151.027 199.767,151.152 200.000,151.622 200.000 C 151.951 200.000,152.291 200.282,152.382 200.632 C 152.555 201.292,153.377 201.490,153.710 200.952 C 154.034 200.428,152.297 197.788,151.629 197.788 C 151.152 197.788,151.027 198.017,151.027 198.894 M153.949 201.789 C 153.270 202.063,153.455 203.791,154.164 203.791 C 154.548 203.791,154.812 204.045,154.875 204.474 C 154.931 204.849,155.220 205.191,155.517 205.234 C 156.226 205.336,156.629 204.117,156.038 203.658 C 155.797 203.471,155.428 202.927,155.216 202.449 C 154.830 201.575,154.677 201.496,153.949 201.789 M256.144 202.879 C 255.157 204.310,255.135 205.213,256.086 205.213 C 256.497 205.213,256.749 204.967,256.815 204.502 C 256.881 204.037,257.133 203.791,257.546 203.791 C 258.066 203.791,258.159 203.613,258.077 202.767 C 257.937 201.316,257.191 201.359,256.144 202.879 M156.477 205.580 C 155.822 205.845,155.988 207.617,156.685 207.800 C 157.016 207.886,157.358 208.229,157.445 208.560 C 157.532 208.892,157.829 209.163,158.106 209.163 C 158.472 209.163,158.610 209.468,158.610 210.276 C 158.610 211.181,158.762 211.448,159.419 211.698 C 159.864 211.867,160.139 212.148,160.032 212.322 C 159.924 212.497,160.201 212.778,160.647 212.948 C 161.093 213.117,161.421 213.434,161.377 213.651 C 161.332 213.868,161.615 214.094,162.006 214.153 C 162.842 214.281,163.048 213.061,162.243 212.752 C 161.983 212.652,161.769 212.423,161.769 212.243 C 161.769 211.538,160.003 209.164,159.479 209.163 C 159.135 209.163,158.926 208.921,158.926 208.524 C 158.926 207.876,157.425 205.350,157.067 205.396 C 156.960 205.410,156.694 205.493,156.477 205.580 M253.611 206.663 C 253.145 207.374,252.765 208.211,252.765 208.522 C 252.765 208.834,252.492 209.160,252.160 209.247 C 251.589 209.396,249.921 211.658,249.921 212.282 C 249.921 212.441,249.708 212.652,249.447 212.752 C 248.719 213.032,248.847 214.218,249.605 214.218 C 249.953 214.218,250.201 214.045,250.158 213.835 C 250.115 213.624,250.399 213.306,250.790 213.128 C 251.181 212.950,251.501 212.621,251.501 212.398 C 251.501 212.174,251.856 211.856,252.291 211.690 C 252.932 211.446,253.081 211.176,253.081 210.247 C 253.081 209.369,253.227 209.065,253.712 208.938 C 254.060 208.847,254.344 208.593,254.344 208.373 C 254.344 208.153,254.629 207.898,254.976 207.807 C 256.090 207.516,255.700 205.371,254.533 205.371 C 254.491 205.371,254.076 205.953,253.611 206.663 M162.536 215.306 C 162.294 216.266,162.572 216.746,163.368 216.746 C 163.780 216.746,163.981 216.963,163.981 217.407 C 163.981 217.803,164.235 218.135,164.613 218.234 C 164.961 218.325,165.245 218.581,165.245 218.802 C 165.245 219.250,166.024 219.652,166.320 219.357 C 166.635 219.042,166.531 218.009,166.185 218.009 C 166.007 218.009,165.725 217.652,165.559 217.215 C 164.671 214.879,162.920 213.774,162.536 215.306 M247.346 215.302 C 247.142 215.749,246.871 216.114,246.742 216.114 C 246.613 216.114,246.359 216.540,246.177 217.062 C 245.995 217.583,245.712 218.009,245.548 218.009 C 245.069 218.009,244.808 219.042,245.221 219.298 C 245.734 219.614,246.445 219.305,246.445 218.766 C 246.445 218.523,246.588 218.308,246.761 218.286 C 246.935 218.264,247.255 218.229,247.472 218.207 C 247.690 218.185,247.885 217.990,247.907 217.773 C 247.929 217.555,247.964 217.252,247.986 217.098 C 248.008 216.945,248.320 216.742,248.680 216.648 C 249.184 216.516,249.312 216.270,249.233 215.584 C 249.091 214.344,247.866 214.161,247.346 215.302 M166.904 219.799 C 166.199 220.083,166.407 222.117,167.141 222.117 C 167.488 222.117,167.773 222.321,167.773 222.570 C 167.773 222.818,168.057 223.112,168.404 223.223 C 168.752 223.333,169.036 223.640,169.036 223.906 C 169.036 224.171,169.321 224.462,169.668 224.553 C 170.163 224.682,170.300 224.984,170.300 225.945 C 170.300 226.962,170.409 227.172,170.932 227.172 C 171.353 227.172,171.564 227.383,171.564 227.804 C 171.564 228.225,171.775 228.436,172.196 228.436 C 172.617 228.436,172.828 228.647,172.828 229.068 C 172.828 229.489,173.038 229.700,173.460 229.700 C 173.807 229.700,174.109 229.842,174.131 230.016 C 174.153 230.190,174.188 230.509,174.210 230.727 C 174.232 230.944,174.427 231.139,174.645 231.161 C 174.862 231.183,175.188 231.218,175.369 231.240 C 175.551 231.262,175.657 231.484,175.606 231.733 C 175.555 231.982,175.620 232.195,175.750 232.207 C 176.672 232.287,176.935 232.151,176.935 231.596 C 176.935 231.245,176.725 230.964,176.461 230.964 C 176.201 230.964,175.970 230.821,175.948 230.648 C 175.926 230.474,175.891 230.215,175.869 230.072 C 175.847 229.929,175.616 229.597,175.355 229.332 C 175.095 229.068,174.526 228.375,174.092 227.792 C 172.591 225.780,171.497 224.645,171.057 224.645 C 170.797 224.645,170.616 224.320,170.616 223.855 C 170.616 223.420,170.494 223.065,170.345 223.065 C 170.196 223.065,169.554 222.283,168.920 221.327 C 167.767 219.591,167.646 219.499,166.904 219.799 M244.281 220.096 C 243.783 220.659,243.942 220.945,244.610 220.689 C 244.866 220.590,245.076 220.303,245.076 220.050 C 245.076 219.467,244.824 219.482,244.281 220.096 M241.912 222.240 C 241.451 222.844,241.074 223.554,241.074 223.818 C 241.074 224.082,240.852 224.422,240.580 224.574 C 240.309 224.726,240.047 225.124,239.997 225.458 C 239.948 225.793,239.744 226.084,239.543 226.106 C 239.343 226.128,239.056 226.163,238.906 226.185 C 238.755 226.207,238.222 226.829,237.721 227.567 C 237.219 228.306,236.560 229.096,236.256 229.323 C 235.952 229.550,235.703 229.934,235.703 230.176 C 235.703 230.418,235.475 230.744,235.197 230.900 C 234.503 231.288,234.763 232.385,235.549 232.385 C 235.895 232.385,236.177 232.203,236.177 231.979 C 236.177 231.501,236.983 230.937,237.347 231.161 C 237.485 231.247,237.599 230.953,237.599 230.508 C 237.599 229.910,237.763 229.700,238.231 229.700 C 238.652 229.700,238.863 229.489,238.863 229.068 C 238.863 228.647,239.073 228.436,239.494 228.436 C 240.018 228.436,240.126 228.225,240.126 227.209 C 240.126 226.248,240.263 225.946,240.758 225.817 C 241.106 225.726,241.390 225.442,241.390 225.185 C 241.390 224.928,241.675 224.644,242.022 224.553 C 242.370 224.462,242.654 224.161,242.654 223.884 C 242.654 223.586,242.920 223.381,243.306 223.381 C 243.851 223.381,243.942 223.213,243.859 222.356 C 243.722 220.944,242.937 220.897,241.912 222.240 M176.935 233.807 C 176.935 234.860,177.041 235.071,177.567 235.071 C 177.988 235.071,178.199 235.282,178.199 235.703 C 178.199 236.124,178.410 236.335,178.831 236.335 C 179.252 236.335,179.463 236.546,179.463 236.967 C 179.463 237.388,179.674 237.599,180.095 237.599 C 180.462 237.599,180.727 237.809,180.727 238.102 C 180.727 238.379,180.998 238.677,181.329 238.763 C 181.661 238.850,182.003 239.192,182.090 239.524 C 182.176 239.855,182.464 240.126,182.730 240.126 C 182.995 240.126,183.302 240.411,183.412 240.758 C 183.523 241.106,183.807 241.390,184.044 241.390 C 184.281 241.390,184.566 241.675,184.676 242.022 C 184.917 242.781,185.327 242.840,185.590 242.154 C 185.861 241.448,185.840 241.390,185.308 241.390 C 185.047 241.390,184.834 241.248,184.834 241.074 C 184.834 240.446,184.740 240.278,184.160 239.871 C 183.836 239.644,183.570 239.331,183.570 239.175 C 183.570 239.019,183.250 238.554,182.859 238.142 C 182.468 237.730,181.237 236.301,180.123 234.968 C 177.773 232.153,176.935 231.849,176.935 233.807 M233.807 232.984 C 233.807 233.443,234.570 233.887,234.860 233.597 C 234.952 233.505,234.951 233.230,234.858 232.986 C 234.637 232.412,233.807 232.410,233.807 232.984 M230.490 236.181 C 229.447 237.473,228.487 238.535,228.357 238.539 C 228.227 238.543,228.120 238.755,228.120 239.009 C 228.120 239.264,227.836 239.624,227.488 239.810 C 227.141 239.996,226.856 240.428,226.856 240.769 C 226.856 241.111,226.643 241.390,226.382 241.390 C 226.119 241.390,225.908 241.671,225.908 242.022 C 225.908 242.443,225.698 242.654,225.278 242.654 C 224.811 242.654,224.675 242.830,224.753 243.339 C 224.859 244.031,225.962 244.494,225.879 243.812 C 225.773 242.951,225.946 242.654,226.554 242.654 C 226.994 242.654,227.170 242.478,227.107 242.101 C 227.045 241.732,227.251 241.515,227.725 241.447 C 228.182 241.382,228.436 241.128,228.436 240.736 C 228.436 240.389,228.653 240.126,228.940 240.126 C 229.216 240.126,229.517 239.842,229.608 239.494 C 229.700 239.145,230.039 238.863,230.369 238.863 C 230.753 238.863,230.964 238.639,230.964 238.231 C 230.964 237.809,231.174 237.599,231.596 237.599 C 232.017 237.599,232.227 237.388,232.227 236.967 C 232.227 236.520,232.438 236.335,232.948 236.335 C 233.765 236.335,234.086 234.998,233.453 234.235 C 232.842 233.499,232.440 233.763,230.490 236.181 M185.782 242.996 C 185.782 243.127,185.960 243.305,186.177 243.393 C 186.493 243.520,186.493 243.557,186.177 243.577 C 185.960 243.591,185.782 243.731,185.782 243.890 C 185.782 244.048,186.031 244.141,186.335 244.097 C 186.836 244.023,186.920 243.818,186.777 243.023 C 186.718 242.695,185.782 242.671,185.782 242.996 M223.539 244.234 C 222.675 244.565,219.190 248.267,219.409 248.622 C 219.620 248.963,218.707 249.367,218.297 249.113 C 218.139 249.016,218.009 249.079,218.009 249.253 C 218.009 249.428,217.665 249.756,217.245 249.983 C 216.824 250.209,215.722 250.840,214.796 251.384 C 207.299 255.785,199.084 254.391,191.748 247.472 C 189.520 245.371,188.726 245.062,188.494 246.209 C 188.240 247.462,188.395 248.025,188.994 248.025 C 189.363 248.025,189.573 248.255,189.573 248.657 C 189.573 249.121,189.784 249.289,190.363 249.289 C 190.943 249.289,191.153 249.458,191.153 249.921 C 191.153 250.342,191.364 250.553,191.785 250.553 C 192.206 250.553,192.417 250.764,192.417 251.185 C 192.417 251.708,192.628 251.817,193.644 251.817 C 194.605 251.817,194.907 251.954,195.036 252.449 C 195.163 252.933,195.467 253.081,196.337 253.081 C 197.262 253.081,197.472 253.198,197.472 253.712 C 197.472 254.236,197.683 254.344,198.699 254.344 C 199.661 254.344,199.962 254.481,200.092 254.976 C 200.249 255.579,200.523 255.608,205.974 255.608 C 211.480 255.608,211.690 255.585,211.690 254.976 C 211.690 254.450,211.901 254.344,212.954 254.344 C 214.007 254.344,214.218 254.239,214.218 253.712 C 214.218 253.198,214.429 253.081,215.353 253.081 C 216.223 253.081,216.528 252.933,216.654 252.449 C 216.746 252.099,217.085 251.817,217.414 251.817 C 217.799 251.817,218.009 251.593,218.009 251.185 C 218.009 250.764,218.220 250.553,218.641 250.553 C 219.063 250.553,219.273 250.342,219.273 249.921 C 219.273 249.383,219.484 249.289,220.695 249.289 C 221.906 249.289,222.117 249.195,222.117 248.657 C 222.117 248.236,222.328 248.025,222.749 248.025 C 223.170 248.025,223.381 247.815,223.381 247.393 C 223.381 246.972,223.591 246.761,224.013 246.761 C 224.538 246.761,224.645 246.551,224.645 245.516 C 224.645 244.114,224.448 243.886,223.539 244.234 " stroke="none" fill="#a4a5a5" fill-rule="evenodd"></path><path id="path4" d="M198.262 52.165 C 129.650 57.284,106.752 114.333,145.710 183.096 C 146.498 184.487,147.536 186.335,148.016 187.204 C 154.918 199.680,169.363 219.953,179.631 231.575 C 180.332 232.368,181.417 233.657,182.044 234.439 C 192.492 247.488,199.247 252.181,206.952 251.742 C 213.592 251.364,217.410 248.518,228.486 235.689 C 274.692 182.171,293.203 133.625,281.312 97.156 C 280.494 94.650,280.265 94.082,278.415 89.979 C 267.020 64.706,234.680 49.448,198.262 52.165 M214.964 55.157 C 222.260 55.553,233.815 58.031,240.672 60.670 C 269.990 71.950,284.183 95.266,281.540 127.806 C 280.360 142.328,274.000 162.113,265.521 177.641 C 257.371 192.565,250.260 203.624,242.105 214.060 C 241.426 214.929,240.133 216.608,239.233 217.791 C 235.298 222.962,229.128 230.424,224.815 235.229 C 223.411 236.793,221.786 238.641,221.205 239.336 C 213.377 248.694,206.671 251.104,199.126 247.271 C 195.862 245.613,182.818 231.377,173.933 219.774 C 173.412 219.094,172.481 217.886,171.864 217.089 C 166.284 209.881,164.310 207.127,158.822 198.894 C 154.976 193.126,151.921 188.197,149.618 184.044 C 149.136 183.175,148.388 181.825,147.956 181.043 C 139.164 165.138,133.098 148.535,130.757 133.965 C 129.187 124.193,129.766 110.066,132.107 101.036 C 136.819 82.855,152.005 67.199,171.406 60.521 C 172.796 60.042,174.218 59.523,174.566 59.368 C 175.535 58.936,180.821 57.635,184.518 56.919 C 194.673 54.954,202.696 54.490,214.964 55.157 M201.674 83.216 C 201.485 83.543,200.251 83.693,196.741 83.818 C 193.067 83.947,191.941 84.092,191.503 84.488 C 191.119 84.835,190.338 84.992,188.996 84.992 C 187.518 84.992,186.904 85.134,186.460 85.578 C 186.126 85.912,185.220 86.237,184.347 86.336 C 183.506 86.430,182.668 86.713,182.484 86.964 C 182.299 87.216,181.484 87.496,180.671 87.587 C 179.859 87.678,178.809 88.056,178.338 88.426 C 177.867 88.797,177.275 89.100,177.021 89.100 C 176.768 89.100,176.199 89.384,175.758 89.731 C 175.316 90.079,174.711 90.363,174.414 90.363 C 174.117 90.363,173.616 90.648,173.302 90.995 C 172.987 91.343,172.555 91.627,172.342 91.627 C 172.128 91.627,171.879 91.912,171.788 92.259 C 171.686 92.649,171.357 92.891,170.929 92.891 C 169.981 92.891,164.317 98.436,164.081 99.596 C 163.985 100.068,163.638 100.540,163.312 100.644 C 162.985 100.748,162.717 101.014,162.717 101.236 C 162.717 101.458,162.433 101.897,162.085 102.212 C 161.738 102.526,161.453 103.085,161.453 103.454 C 161.453 103.823,161.169 104.368,160.821 104.666 C 160.354 105.067,160.190 105.598,160.190 106.714 C 160.190 107.840,160.041 108.313,159.603 108.587 C 159.138 108.878,158.971 109.523,158.792 111.720 C 158.668 113.258,158.367 114.774,158.115 115.134 C 157.543 115.950,157.548 116.113,158.158 116.723 C 158.610 117.174,158.610 117.265,158.158 117.716 C 157.465 118.409,157.454 122.657,158.144 123.229 C 158.576 123.588,158.576 123.685,158.144 124.162 C 157.544 124.824,157.541 125.093,158.121 125.734 C 158.429 126.074,158.654 127.380,158.803 129.675 C 158.981 132.439,159.138 133.205,159.607 133.607 C 160.058 133.993,160.190 134.553,160.190 136.089 C 160.190 137.651,160.324 138.207,160.821 138.705 C 161.259 139.143,161.453 139.758,161.453 140.709 C 161.453 141.681,161.638 142.249,162.085 142.654 C 162.504 143.033,162.717 143.627,162.717 144.415 C 162.717 145.880,162.976 146.603,163.501 146.603 C 163.750 146.603,163.958 147.200,164.053 148.186 C 164.136 149.057,164.439 150.028,164.725 150.344 C 165.011 150.660,165.245 151.227,165.245 151.605 C 165.245 151.982,165.508 152.553,165.829 152.875 C 166.150 153.196,166.494 154.063,166.593 154.801 C 166.692 155.540,167.069 156.459,167.431 156.844 C 167.792 157.230,168.088 157.931,168.088 158.403 C 168.088 158.875,168.288 159.338,168.531 159.431 C 168.775 159.525,169.060 160.058,169.165 160.616 C 169.269 161.175,169.639 161.874,169.986 162.171 C 170.332 162.468,170.618 163.032,170.621 163.425 C 170.623 163.818,171.192 164.767,171.884 165.535 C 172.854 166.610,173.145 167.192,173.149 168.063 C 173.153 168.960,173.415 169.451,174.413 170.435 C 175.105 171.117,175.671 171.923,175.671 172.226 C 175.671 173.094,176.019 173.776,176.461 173.776 C 176.684 173.776,176.956 174.131,177.065 174.566 C 177.174 175.000,177.474 175.355,177.731 175.355 C 178.018 175.355,178.199 175.657,178.199 176.133 C 178.199 176.561,178.463 177.165,178.786 177.476 C 179.109 177.787,179.467 178.429,179.581 178.904 C 179.695 179.378,180.268 180.247,180.854 180.833 C 181.440 181.419,182.014 182.326,182.129 182.848 C 182.243 183.370,182.802 184.208,183.369 184.711 C 183.937 185.214,184.561 186.083,184.756 186.642 C 184.951 187.202,185.617 188.166,186.236 188.785 C 186.855 189.404,187.362 190.043,187.362 190.205 C 187.362 190.367,187.627 190.641,187.952 190.815 C 188.277 190.989,188.622 191.530,188.720 192.019 C 188.817 192.507,189.405 193.429,190.025 194.068 C 190.646 194.707,191.153 195.450,191.153 195.719 C 191.153 195.988,191.722 196.777,192.417 197.472 C 193.112 198.167,193.681 198.849,193.681 198.986 C 193.681 199.124,194.250 199.759,194.945 200.398 C 195.640 201.037,196.209 201.773,196.209 202.033 C 196.209 202.293,196.600 202.922,197.077 203.430 C 199.450 205.952,200.316 206.968,200.316 207.226 C 200.316 207.382,200.600 207.584,200.948 207.674 C 201.345 207.778,201.580 208.105,201.580 208.556 C 201.580 209.648,204.776 212.638,205.944 212.638 C 207.012 212.638,210.111 209.787,210.111 208.804 C 210.111 208.483,210.395 208.043,210.742 207.826 C 211.090 207.609,211.374 207.332,211.374 207.211 C 211.374 207.090,212.237 206.098,213.292 205.007 C 214.352 203.911,215.288 202.630,215.385 202.144 C 215.482 201.660,215.756 201.264,215.995 201.264 C 216.234 201.264,216.430 201.143,216.430 200.995 C 216.430 200.740,216.954 200.127,219.469 197.436 C 220.057 196.807,220.537 196.001,220.537 195.644 C 220.537 195.287,221.106 194.420,221.801 193.718 C 222.496 193.016,223.065 192.221,223.065 191.951 C 223.065 191.506,224.335 189.934,226.124 188.168 C 226.503 187.794,226.907 187.112,227.022 186.653 C 227.137 186.193,227.710 185.325,228.294 184.723 C 228.879 184.122,229.455 183.240,229.574 182.764 C 229.694 182.288,230.055 181.635,230.377 181.313 C 230.700 180.990,230.964 180.371,230.964 179.937 C 230.964 179.440,231.142 179.147,231.445 179.147 C 231.710 179.147,232.062 178.791,232.227 178.357 C 232.393 177.923,232.662 177.567,232.826 177.567 C 232.991 177.567,233.219 177.140,233.333 176.619 C 233.448 176.097,234.099 175.090,234.780 174.381 C 235.533 173.598,236.019 172.789,236.019 172.318 C 236.019 171.892,236.225 171.465,236.478 171.368 C 236.730 171.271,237.105 170.672,237.312 170.035 C 237.519 169.399,237.881 168.765,238.117 168.626 C 238.353 168.487,238.547 168.201,238.547 167.991 C 238.547 167.781,238.831 167.431,239.179 167.214 C 239.526 166.997,239.810 166.487,239.810 166.081 C 239.810 165.675,240.092 165.088,240.436 164.777 C 240.780 164.465,241.150 163.742,241.257 163.170 C 241.364 162.597,241.638 162.058,241.865 161.971 C 242.093 161.883,242.382 161.340,242.509 160.764 C 242.635 160.187,243.004 159.530,243.328 159.303 C 243.668 159.065,243.918 158.510,243.918 157.994 C 243.918 157.501,244.116 157.021,244.359 156.928 C 244.611 156.831,244.897 156.058,245.025 155.122 C 245.154 154.190,245.507 153.229,245.848 152.888 C 246.177 152.560,246.445 151.967,246.445 151.571 C 246.445 151.175,246.730 150.608,247.077 150.310 C 247.492 149.955,247.709 149.378,247.709 148.631 C 247.709 147.971,247.975 147.155,248.341 146.690 C 248.746 146.175,248.973 145.408,248.973 144.556 C 248.973 143.652,249.165 143.052,249.572 142.684 C 249.904 142.383,250.269 141.482,250.390 140.660 C 250.510 139.845,250.792 138.965,251.015 138.705 C 251.245 138.437,251.492 137.034,251.583 135.479 C 251.691 133.652,251.902 132.571,252.213 132.260 C 252.536 131.937,252.750 130.718,252.906 128.315 C 253.061 125.924,253.272 124.721,253.580 124.465 C 254.181 123.967,254.149 123.005,253.520 122.654 C 253.053 122.392,253.053 122.353,253.520 122.174 C 254.286 121.880,254.249 118.015,253.476 117.551 C 252.949 117.235,252.949 117.204,253.476 116.888 C 254.139 116.490,254.207 115.373,253.582 115.133 C 253.266 115.011,253.072 114.101,252.914 111.999 C 252.741 109.688,252.561 108.918,252.096 108.498 C 251.690 108.130,251.501 107.530,251.501 106.609 C 251.501 105.850,251.300 105.058,251.042 104.800 C 250.790 104.548,250.495 103.986,250.386 103.552 C 250.277 103.117,249.630 102.181,248.948 101.472 C 248.267 100.763,247.709 99.917,247.709 99.592 C 247.709 99.005,244.731 95.735,244.197 95.735 C 244.044 95.735,243.918 95.601,243.918 95.439 C 243.918 94.848,241.532 92.896,240.808 92.894 C 240.334 92.892,240.008 92.663,239.902 92.259 C 239.811 91.912,239.562 91.627,239.349 91.627 C 239.135 91.627,238.703 91.343,238.389 90.995 C 238.074 90.648,237.505 90.363,237.125 90.363 C 236.744 90.363,236.176 90.079,235.861 89.731 C 235.546 89.384,234.961 89.100,234.560 89.100 C 234.160 89.100,233.552 88.799,233.209 88.431 C 232.809 88.001,232.044 87.702,231.064 87.592 C 230.227 87.498,229.391 87.216,229.207 86.964 C 229.022 86.713,228.184 86.430,227.344 86.336 C 226.470 86.237,225.565 85.912,225.230 85.578 C 224.787 85.134,224.172 84.992,222.695 84.992 C 221.387 84.992,220.569 84.833,220.210 84.508 C 219.795 84.133,218.483 83.981,214.340 83.830 C 210.355 83.684,208.941 83.527,208.752 83.208 C 208.389 82.593,207.058 82.679,206.806 83.333 C 206.603 83.860,206.578 83.860,206.282 83.333 C 205.890 82.636,204.556 82.611,204.293 83.297 C 204.109 83.776,204.052 83.776,203.523 83.297 C 202.825 82.666,202.014 82.630,201.674 83.216 M211.777 84.322 C 215.587 84.387,223.607 85.665,225.009 86.430 C 225.471 86.682,226.252 86.889,226.747 86.890 C 227.242 86.891,228.073 87.174,228.594 87.520 C 229.115 87.865,229.914 88.148,230.369 88.150 C 230.824 88.151,232.411 88.772,233.897 89.530 C 235.382 90.287,236.858 90.994,237.177 91.100 C 237.985 91.369,238.973 92.027,239.273 92.496 C 239.412 92.713,239.981 93.121,240.537 93.403 C 241.756 94.020,246.992 99.380,247.272 100.297 C 247.381 100.655,247.943 101.531,248.521 102.244 C 249.723 103.728,250.185 104.737,251.180 108.057 C 251.571 109.360,251.961 110.640,252.047 110.900 C 252.245 111.499,252.781 115.297,252.772 116.035 C 252.768 116.339,252.775 116.872,252.789 117.220 C 252.821 118.073,252.809 121.454,252.770 122.433 C 252.753 122.867,252.741 123.400,252.745 123.618 C 252.761 124.464,251.699 131.190,251.187 133.491 C 250.994 134.360,250.711 135.782,250.559 136.651 C 250.031 139.674,249.605 141.326,249.241 141.764 C 249.040 142.007,248.760 142.929,248.621 143.813 C 248.481 144.697,248.148 145.662,247.880 145.958 C 247.612 146.253,247.391 146.911,247.389 147.418 C 247.386 147.926,247.183 148.697,246.936 149.131 C 245.631 151.432,244.234 154.487,244.234 155.037 C 244.234 155.845,240.396 163.496,239.526 164.421 C 239.161 164.810,238.863 165.394,238.863 165.719 C 238.863 166.044,238.595 166.604,238.269 166.962 C 237.573 167.727,235.387 171.808,235.387 172.342 C 235.387 172.544,234.964 173.115,234.448 173.610 C 233.931 174.105,233.070 175.418,232.534 176.529 C 231.999 177.640,231.365 178.623,231.126 178.715 C 230.887 178.807,230.533 179.261,230.339 179.725 C 229.295 182.216,225.806 187.443,223.302 190.267 C 222.824 190.806,222.433 191.414,222.433 191.619 C 222.433 191.824,222.059 192.336,221.602 192.757 C 221.145 193.178,220.560 194.021,220.302 194.629 C 219.821 195.762,218.984 196.859,216.351 199.804 C 215.525 200.727,214.850 201.594,214.850 201.730 C 214.850 201.866,214.388 202.517,213.823 203.176 C 213.258 203.836,212.085 205.248,211.216 206.314 C 208.064 210.182,206.558 211.690,205.845 211.690 C 204.993 211.690,202.784 209.301,198.104 203.318 C 196.855 201.720,195.071 199.517,193.049 197.072 C 192.441 196.336,191.801 195.502,191.627 195.218 C 191.453 194.934,190.778 193.924,190.126 192.974 C 189.475 192.023,188.942 191.117,188.942 190.960 C 188.942 190.802,188.657 190.496,188.310 190.279 C 187.962 190.062,187.678 189.697,187.678 189.468 C 187.678 189.239,187.308 188.707,186.857 188.286 C 186.405 187.864,185.707 186.880,185.305 186.098 C 184.904 185.316,184.136 184.188,183.599 183.592 C 183.062 182.996,182.622 182.321,182.622 182.093 C 182.622 181.864,182.147 181.143,181.566 180.491 C 180.986 179.838,180.051 178.381,179.490 177.251 C 178.929 176.122,178.302 175.054,178.097 174.878 C 177.460 174.330,176.403 172.694,176.158 171.874 C 176.029 171.443,175.511 170.565,175.007 169.924 C 174.504 169.282,174.092 168.526,174.092 168.244 C 174.092 167.606,173.558 166.549,172.816 165.719 C 172.077 164.891,169.931 160.773,169.194 158.768 C 168.875 157.899,168.449 156.975,168.247 156.714 C 168.046 156.453,167.709 155.634,167.497 154.894 C 167.286 154.154,166.622 152.605,166.021 151.453 C 165.420 150.300,164.928 149.058,164.928 148.691 C 164.927 148.325,164.501 147.172,163.981 146.130 C 163.461 145.087,163.035 143.874,163.034 143.435 C 163.034 142.996,162.817 142.328,162.553 141.951 C 162.289 141.573,161.942 140.653,161.783 139.906 C 161.624 139.158,161.339 137.978,161.149 137.283 C 160.322 134.248,158.906 126.295,158.942 124.882 C 158.948 124.664,158.936 124.131,158.916 123.697 C 158.872 122.724,158.858 118.084,158.897 117.220 C 158.913 116.872,158.925 116.339,158.924 116.035 C 158.919 114.053,159.643 110.454,160.382 108.793 C 160.627 108.242,160.915 107.318,161.023 106.739 C 161.326 105.107,163.223 101.309,163.955 100.866 C 164.317 100.648,164.613 100.249,164.613 99.981 C 164.613 99.479,169.525 94.509,170.932 93.589 C 171.367 93.304,172.305 92.605,173.018 92.034 C 173.731 91.462,174.427 90.995,174.565 90.995 C 175.009 90.995,179.424 88.786,179.623 88.463 C 179.729 88.292,180.341 88.151,180.982 88.150 C 181.624 88.148,182.575 87.865,183.096 87.520 C 183.618 87.174,184.475 86.891,185.001 86.890 C 185.527 86.889,186.242 86.689,186.589 86.445 C 186.936 86.202,188.070 85.900,189.108 85.774 C 190.146 85.648,191.213 85.432,191.478 85.295 C 191.744 85.157,192.811 84.958,193.848 84.853 C 194.886 84.747,197.156 84.514,198.894 84.335 C 200.632 84.156,203.225 84.006,204.657 84.001 C 206.089 83.997,207.336 83.873,207.427 83.725 C 207.519 83.577,207.950 83.640,208.386 83.866 C 208.822 84.093,210.348 84.298,211.777 84.322 " stroke="none" fill="#646464" fill-rule="evenodd"></path></g></svg>