<svg id="svg" version="1.1" xmlns="http://www.w3.org/2000/svg" xmlns:xlink="http://www.w3.org/1999/xlink" width="400" height="315.85760517799355" viewBox="0, 0, 400,315.85760517799355"><g id="svgg"><path id="path0" d="M202.358 84.243 C 202.111 84.634,201.488 84.767,199.769 84.796 C 197.702 84.831,197.489 84.896,197.325 85.543 C 197.226 85.933,197.041 86.236,196.914 86.217 C 195.227 85.957,190.567 86.322,190.712 86.702 C 190.975 87.388,189.803 87.464,189.255 86.798 C 188.794 86.237,188.733 86.239,187.359 86.862 C 186.579 87.216,185.336 87.509,184.597 87.513 C 183.525 87.518,183.254 87.633,183.254 88.080 C 183.254 88.775,180.568 89.510,179.700 89.053 C 179.285 88.834,179.147 88.885,179.147 89.256 C 179.147 89.529,178.898 89.840,178.594 89.947 C 176.539 90.676,176.090 93.839,178.041 93.839 C 179.121 93.839,179.147 93.809,179.147 92.575 C 179.147 91.438,179.226 91.311,179.937 91.311 C 180.648 91.311,180.727 91.438,180.727 92.575 L 180.727 93.839 181.991 93.839 C 183.044 93.839,183.254 93.734,183.254 93.207 C 183.254 92.645,183.465 92.575,185.150 92.575 C 186.835 92.575,187.046 92.645,187.046 93.207 C 187.046 94.229,190.733 94.154,190.930 93.128 L 191.067 92.417 191.110 93.128 C 191.171 94.136,193.681 94.213,193.681 93.207 C 193.681 92.680,193.892 92.575,194.945 92.575 C 195.998 92.575,196.209 92.470,196.209 91.943 C 196.209 91.522,196.419 91.311,196.840 91.311 C 197.367 91.311,197.472 91.522,197.472 92.575 L 197.472 93.839 199.368 93.839 C 201.053 93.839,201.264 93.769,201.264 93.207 C 201.264 92.786,201.474 92.575,201.896 92.575 C 202.317 92.575,202.528 92.786,202.528 93.207 C 202.528 93.734,202.738 93.839,203.791 93.839 C 204.845 93.839,205.055 93.734,205.055 93.207 C 205.055 92.669,205.266 92.575,206.477 92.575 C 207.688 92.575,207.899 92.669,207.899 93.207 C 207.899 93.734,208.110 93.839,209.163 93.839 C 210.216 93.839,210.427 93.734,210.427 93.207 C 210.427 92.786,210.637 92.575,211.058 92.575 C 211.480 92.575,211.690 92.786,211.690 93.207 C 211.690 93.786,211.901 93.839,214.218 93.839 L 216.746 93.839 216.789 92.496 C 216.812 91.758,216.893 91.473,216.969 91.864 C 217.054 92.309,217.334 92.575,217.715 92.575 C 218.115 92.575,218.325 92.793,218.325 93.207 C 218.325 93.813,218.536 93.839,223.381 93.839 C 228.225 93.839,228.436 93.813,228.436 93.207 C 228.436 92.640,228.647 92.575,230.490 92.575 C 232.333 92.575,232.543 92.640,232.543 93.207 C 232.543 93.786,232.754 93.839,235.071 93.839 C 237.388 93.839,237.599 93.892,237.599 94.471 C 237.599 94.892,237.809 95.103,238.231 95.103 C 238.694 95.103,238.863 95.313,238.863 95.893 C 238.863 96.472,238.694 96.682,238.231 96.682 C 237.651 96.682,237.599 96.893,237.599 99.210 L 237.599 101.738 238.863 101.738 L 240.126 101.738 240.126 103.002 L 240.126 104.265 241.390 104.265 C 242.443 104.265,242.654 104.160,242.654 103.633 C 242.654 103.212,242.865 103.002,243.286 103.002 C 243.817 103.002,243.918 102.791,243.918 101.685 C 243.918 100.961,244.011 100.462,244.125 100.575 C 244.238 100.689,244.306 101.566,244.275 102.524 L 244.218 104.265 245.332 104.265 C 246.235 104.265,246.445 104.146,246.445 103.633 C 246.445 103.170,246.656 103.002,247.235 103.002 C 248.456 103.002,248.221 102.061,246.603 100.474 C 245.821 99.706,245.182 98.824,245.182 98.512 C 245.182 98.064,244.903 97.937,243.839 97.903 C 243.100 97.880,242.816 97.799,243.207 97.723 C 243.996 97.571,244.226 96.367,243.465 96.367 C 243.216 96.367,242.922 96.082,242.812 95.735 C 242.702 95.387,242.403 95.103,242.148 95.103 C 241.269 95.103,240.126 94.100,240.126 93.329 C 240.126 92.702,239.967 92.575,239.181 92.575 C 238.578 92.575,238.093 92.346,237.841 91.943 C 237.624 91.596,237.125 91.311,236.733 91.311 C 236.340 91.311,235.737 91.030,235.393 90.686 C 234.944 90.236,234.259 90.036,232.964 89.975 C 231.657 89.913,230.949 89.704,230.394 89.214 C 228.229 87.307,228.451 87.396,227.676 88.123 C 226.941 88.814,226.224 88.994,226.224 88.487 C 226.224 88.324,225.809 87.736,225.301 87.180 C 224.358 86.147,223.381 86.074,223.381 87.036 C 223.381 87.309,223.106 87.520,222.749 87.520 C 222.328 87.520,222.117 87.309,222.117 86.888 C 222.117 86.326,221.906 86.256,220.221 86.256 L 218.325 86.256 218.282 88.231 C 218.259 89.317,218.178 89.885,218.102 89.494 C 218.017 89.050,217.737 88.784,217.356 88.784 C 216.531 88.784,216.550 87.645,217.378 87.428 C 218.342 87.176,218.294 84.992,217.323 84.992 C 216.946 84.992,216.384 85.222,216.073 85.502 C 215.561 85.967,215.465 85.968,215.013 85.516 C 214.544 85.048,213.843 85.095,213.112 85.643 C 212.274 86.273,210.872 86.189,210.825 85.507 C 210.781 84.861,210.797 84.858,211.218 85.424 C 211.645 85.999,211.655 85.998,211.611 85.408 C 211.540 84.468,210.427 84.541,210.427 85.486 C 210.427 86.045,210.254 86.256,209.795 86.256 C 209.386 86.256,209.163 86.045,209.163 85.659 C 209.163 85.226,208.856 85.005,208.040 84.852 C 207.423 84.736,206.843 84.447,206.752 84.209 C 206.622 83.872,206.452 83.912,205.971 84.392 C 205.348 85.015,204.107 84.777,204.107 84.033 C 204.107 83.524,202.705 83.693,202.358 84.243 M172.573 93.365 C 172.416 93.712,172.326 94.246,172.372 94.550 C 172.437 94.977,172.230 95.103,171.464 95.103 C 170.294 95.103,168.088 97.257,168.088 98.400 C 168.088 99.364,167.335 100.300,166.743 100.073 C 166.109 99.830,165.115 100.558,165.305 101.127 C 165.385 101.369,165.121 101.924,164.716 102.360 C 164.312 102.796,163.981 103.403,163.981 103.709 C 163.981 104.092,163.735 104.265,163.191 104.265 C 162.248 104.265,162.098 105.303,162.912 106.201 C 163.381 106.721,163.381 106.806,162.912 107.276 C 162.631 107.556,162.401 107.988,162.401 108.235 C 162.401 108.482,162.117 108.861,161.769 109.078 C 161.032 109.539,160.923 110.961,161.583 111.508 C 162.040 111.888,160.786 113.685,160.181 113.517 C 159.972 113.459,159.968 113.693,160.165 114.652 C 160.179 114.716,160.430 114.574,160.724 114.336 C 161.087 114.041,161.183 114.029,161.021 114.297 C 160.847 114.587,161.127 114.692,162.077 114.692 C 163.122 114.692,163.424 114.556,163.655 113.981 L 163.941 113.270 163.961 113.981 C 163.978 114.579,164.157 114.692,165.087 114.692 L 166.193 114.692 166.193 110.742 C 166.193 107.004,166.159 106.793,165.561 106.793 C 165.034 106.793,164.929 106.582,164.929 105.529 L 164.929 104.265 166.983 104.265 C 168.826 104.265,169.036 104.201,169.036 103.633 C 169.036 103.212,169.247 103.002,169.668 103.002 C 170.090 103.002,170.300 103.212,170.300 103.633 C 170.300 104.195,170.511 104.265,172.196 104.265 C 173.881 104.265,174.092 104.195,174.092 103.633 C 174.092 103.107,174.302 103.002,175.355 103.002 L 176.619 103.002 176.619 99.864 C 176.619 96.861,176.589 96.721,175.908 96.589 L 175.197 96.453 175.908 96.410 C 177.227 96.330,176.936 93.839,175.608 93.839 C 174.822 93.839,174.681 93.755,174.976 93.460 C 175.590 92.846,175.428 92.708,174.106 92.721 C 173.170 92.730,172.786 92.891,172.573 93.365 M173.223 97.859 C 172.658 97.929,171.734 97.929,171.169 97.859 C 170.604 97.789,171.066 97.731,172.196 97.731 C 173.325 97.731,173.788 97.789,173.223 97.859 M248.025 108.121 C 248.025 109.281,248.062 109.321,249.131 109.321 C 250.212 109.321,250.237 109.292,250.237 108.047 C 250.237 106.788,250.224 106.774,249.131 106.848 C 248.075 106.919,248.025 106.976,248.025 108.121 M249.381 110.269 C 249.289 110.618,248.950 110.900,248.620 110.900 C 248.137 110.900,248.025 111.137,248.025 112.164 C 248.025 113.217,248.131 113.428,248.657 113.428 C 249.056 113.428,249.289 113.639,249.289 113.998 C 249.289 114.440,249.573 114.585,250.553 114.643 C 252.047 114.731,252.312 113.838,251.156 112.608 L 250.496 111.905 251.156 111.245 C 252.181 110.220,252.008 109.637,250.681 109.637 C 249.812 109.637,249.507 109.785,249.381 110.269 M161.137 124.663 C 161.137 125.108,161.011 125.394,160.857 125.299 C 160.703 125.203,160.395 125.344,160.173 125.612 C 159.834 126.021,159.877 126.126,160.442 126.274 C 160.998 126.419,161.150 126.773,161.325 128.319 C 161.441 129.347,161.660 130.264,161.811 130.357 C 161.962 130.451,162.085 131.016,162.085 131.614 C 162.085 132.212,162.193 132.701,162.325 132.701 C 162.456 132.701,162.515 133.321,162.454 134.078 C 162.362 135.242,162.467 135.551,163.136 136.077 C 163.971 136.734,163.911 137.108,162.875 137.695 C 162.396 137.967,162.364 138.056,162.740 138.063 C 163.632 138.080,165.035 140.591,164.490 141.197 C 163.956 141.791,164.777 143.128,165.677 143.128 C 166.568 143.128,166.361 138.152,165.462 137.977 L 164.771 137.843 165.482 137.800 C 166.480 137.739,166.557 135.545,165.561 135.545 C 165.097 135.545,164.929 135.334,164.929 134.755 C 164.929 134.176,165.097 133.965,165.561 133.965 C 166.163 133.965,166.193 133.755,166.193 129.542 L 166.193 125.118 165.105 125.118 C 164.055 125.118,164.013 125.165,163.896 126.461 C 163.801 127.521,163.764 127.388,163.720 125.829 L 163.665 123.855 162.401 123.855 C 161.256 123.855,161.137 123.931,161.137 124.663 M248.025 130.806 C 248.025 134.967,248.061 135.229,248.636 135.229 C 248.994 135.229,249.336 134.935,249.463 134.518 C 249.582 134.127,249.890 133.567,250.147 133.274 C 250.404 132.981,250.520 132.588,250.404 132.400 C 250.049 131.826,250.604 128.543,251.147 127.999 C 251.918 127.229,250.945 126.382,249.289 126.382 L 248.025 126.382 248.025 130.806 M165.942 145.036 C 165.608 145.571,165.622 145.762,166.024 146.164 C 166.291 146.431,166.509 147.018,166.509 147.468 C 166.509 147.919,166.712 148.513,166.961 148.789 C 167.209 149.064,167.775 149.683,168.217 150.165 C 168.980 150.995,168.993 151.070,168.476 151.587 C 167.885 152.178,167.881 152.167,169.514 153.974 C 170.049 154.567,170.332 155.259,170.353 156.028 C 170.397 157.645,171.342 158.610,172.883 158.610 C 174.082 158.610,174.092 158.619,174.092 159.874 L 174.092 161.137 175.355 161.137 L 176.619 161.137 176.619 157.978 C 176.619 155.029,176.577 154.818,175.987 154.818 C 175.405 154.818,175.355 154.608,175.355 152.133 C 175.355 149.658,175.405 149.447,175.987 149.447 C 176.567 149.447,176.619 149.236,176.619 146.919 L 176.619 144.392 171.482 144.392 C 166.654 144.392,166.320 144.431,165.942 145.036 M237.599 146.288 L 237.599 148.183 239.494 148.183 C 241.180 148.183,241.390 148.113,241.390 147.551 C 241.390 147.025,241.601 146.919,242.654 146.919 L 243.918 146.919 243.918 145.656 L 243.918 144.392 242.654 144.392 C 241.601 144.392,241.390 144.497,241.390 145.024 C 241.390 145.445,241.180 145.656,240.758 145.656 C 240.337 145.656,240.126 145.445,240.126 145.024 C 240.126 144.497,239.916 144.392,238.863 144.392 L 237.599 144.392 237.599 146.288 M244.459 145.852 C 243.659 146.652,244.250 148.183,245.359 148.183 C 246.465 148.183,246.482 148.164,246.386 146.998 C 246.289 145.833,245.154 145.157,244.459 145.852 M237.599 151.659 C 237.599 154.608,237.641 154.818,238.231 154.818 C 238.757 154.818,238.863 155.029,238.863 156.082 C 238.863 157.135,238.757 157.346,238.231 157.346 C 237.198 157.346,237.316 159.746,238.359 159.945 C 239.485 160.160,240.126 159.659,240.126 158.565 C 240.126 157.868,240.301 157.557,240.758 157.438 C 241.106 157.347,241.390 157.062,241.390 156.806 C 241.390 156.549,241.675 156.265,242.022 156.174 C 242.370 156.083,242.654 155.896,242.654 155.759 C 242.654 155.622,242.334 155.592,241.943 155.693 C 241.301 155.858,241.276 155.823,241.681 155.329 C 241.927 155.029,241.998 154.808,241.839 154.838 C 240.819 155.032,240.126 154.768,240.126 154.186 C 240.126 153.325,241.311 153.330,241.447 154.192 C 241.656 155.508,243.740 153.915,243.856 152.350 L 243.953 151.058 241.961 150.945 C 240.101 150.840,240.142 150.829,242.575 150.772 L 245.182 150.711 245.182 149.605 L 245.182 148.499 241.390 148.499 L 237.599 148.499 237.599 151.659 M173.692 162.056 C 173.605 162.388,173.881 163.270,174.305 164.017 C 174.729 164.763,175.180 165.878,175.308 166.494 C 175.478 167.319,175.723 167.641,176.237 167.715 C 176.723 167.786,176.935 168.035,176.935 168.535 C 176.935 168.931,177.220 169.512,177.567 169.826 C 177.915 170.141,178.199 170.709,178.199 171.090 C 178.199 171.950,179.130 172.828,180.041 172.828 C 180.639 172.828,180.727 173.002,180.727 174.201 C 180.727 175.172,180.911 175.741,181.359 176.145 C 181.706 176.460,181.991 177.026,181.991 177.403 C 181.991 177.780,182.336 178.413,182.758 178.810 C 183.179 179.206,183.459 179.701,183.379 179.910 C 183.174 180.444,185.773 183.254,186.471 183.254 C 186.931 183.254,187.046 183.002,187.046 181.991 C 187.046 180.937,186.940 180.727,186.414 180.727 C 186.046 180.727,185.782 180.516,185.782 180.223 C 185.782 179.946,185.498 179.645,185.150 179.554 C 184.800 179.463,184.518 179.123,184.518 178.794 C 184.518 178.410,184.742 178.199,185.150 178.199 C 186.655 178.199,185.982 175.726,184.439 175.587 C 183.379 175.491,183.512 175.454,185.071 175.411 L 187.046 175.355 187.046 173.460 C 187.046 171.775,186.976 171.564,186.414 171.564 C 185.993 171.564,185.782 171.353,185.782 170.932 C 185.782 170.511,185.993 170.300,186.414 170.300 C 186.993 170.300,187.046 170.090,187.046 167.773 L 187.046 165.245 183.254 165.245 C 179.674 165.245,179.463 165.280,179.463 165.877 C 179.463 166.340,179.252 166.509,178.673 166.509 C 178.094 166.509,177.883 166.340,177.883 165.877 C 177.883 165.456,177.672 165.245,177.251 165.245 C 176.689 165.245,176.619 165.034,176.619 163.349 L 176.619 161.453 175.234 161.453 C 174.137 161.453,173.817 161.579,173.692 162.056 M237.599 162.559 C 237.599 163.411,237.726 163.659,238.152 163.640 C 238.482 163.625,238.546 163.551,238.310 163.456 C 238.092 163.368,237.915 162.965,237.915 162.559 C 237.915 162.154,238.092 161.750,238.310 161.663 C 238.546 161.567,238.482 161.493,238.152 161.478 C 237.726 161.459,237.599 161.707,237.599 162.559 M228.436 167.773 C 228.436 170.120,228.389 170.300,227.780 170.300 C 227.211 170.300,227.131 170.477,227.178 171.643 C 227.207 172.382,227.218 173.874,227.201 174.961 L 227.172 176.935 225.276 176.935 C 223.591 176.935,223.381 176.865,223.381 176.303 C 223.381 175.777,223.170 175.671,222.117 175.671 L 220.853 175.671 220.853 176.935 C 220.853 177.973,220.744 178.199,220.243 178.199 C 219.862 178.199,219.582 178.466,219.496 178.910 C 219.421 179.301,219.340 178.732,219.316 177.646 L 219.273 175.671 218.167 175.671 L 217.062 175.671 217.062 178.199 C 217.062 180.516,217.114 180.727,217.694 180.727 C 218.220 180.727,218.325 180.937,218.325 181.991 C 218.325 183.044,218.220 183.254,217.694 183.254 C 217.132 183.254,217.062 183.465,217.062 185.150 C 217.062 186.835,217.132 187.046,217.694 187.046 C 218.218 187.046,218.325 187.256,218.325 188.288 C 218.325 189.324,218.443 189.552,219.036 189.666 C 219.427 189.742,219.143 189.823,218.404 189.846 L 217.062 189.889 217.062 192.417 C 217.062 194.734,217.114 194.945,217.694 194.945 C 218.061 194.945,218.325 194.734,218.325 194.441 C 218.325 194.164,218.610 193.863,218.957 193.772 C 219.340 193.672,219.589 193.341,219.589 192.933 C 219.589 192.562,220.158 191.637,220.853 190.876 C 221.548 190.116,222.117 189.255,222.117 188.964 C 222.117 188.672,222.632 187.944,223.263 187.345 C 223.893 186.746,224.681 185.653,225.014 184.916 C 225.428 184.000,225.875 183.511,226.425 183.373 C 227.144 183.193,227.218 183.039,227.114 181.948 C 227.024 181.001,227.121 180.685,227.543 180.551 C 227.842 180.456,228.173 180.111,228.277 179.784 C 228.401 179.392,228.686 179.231,229.111 179.313 C 229.645 179.416,229.690 179.358,229.373 178.976 C 228.918 178.428,228.620 178.361,228.940 178.880 C 229.085 179.114,229.026 179.158,228.777 179.004 C 228.488 178.826,228.549 178.591,229.016 178.087 C 229.362 177.714,229.692 177.054,229.751 176.619 C 229.830 176.033,230.041 175.836,230.569 175.854 C 230.960 175.868,231.280 175.791,231.280 175.682 C 231.280 175.407,232.245 174.142,233.096 173.300 C 233.487 172.914,233.807 172.353,233.807 172.055 C 233.807 171.756,234.287 170.920,234.874 170.195 C 235.695 169.183,235.992 168.458,236.161 167.062 L 236.380 165.245 234.462 165.245 C 232.754 165.245,232.543 165.314,232.543 165.877 C 232.543 166.340,232.333 166.509,231.754 166.509 C 231.174 166.509,230.964 166.340,230.964 165.877 C 230.964 165.350,230.753 165.245,229.700 165.245 L 228.436 165.245 228.436 167.773 M231.187 172.275 C 231.111 172.666,231.050 172.346,231.050 171.564 C 231.050 170.782,231.111 170.462,231.187 170.853 C 231.262 171.244,231.262 171.884,231.187 172.275 M188.520 185.993 C 187.991 186.522,188.326 188.015,189.034 188.285 C 189.432 188.436,189.947 188.788,190.178 189.067 C 190.409 189.345,191.043 189.590,191.587 189.610 C 192.130 189.630,192.326 189.712,192.022 189.791 C 191.050 190.045,191.437 191.669,192.574 192.101 C 193.077 192.292,193.333 192.724,193.477 193.623 C 193.665 194.800,193.752 194.885,194.864 194.990 C 197.501 195.240,197.472 195.276,197.472 191.785 C 197.472 188.805,197.441 188.664,196.761 188.533 L 196.051 188.396 196.761 188.353 C 197.372 188.316,197.472 188.133,197.472 187.060 L 197.472 185.810 194.964 185.815 C 192.638 185.820,192.446 185.871,192.322 186.512 L 192.187 187.204 192.144 186.493 C 192.101 185.783,189.138 185.374,188.520 185.993 M196.209 197.472 C 196.209 198.526,196.314 198.736,196.840 198.736 C 197.220 198.736,197.472 198.947,197.472 199.263 C 197.472 199.814,197.554 199.917,199.810 202.212 C 200.579 202.994,201.256 203.989,201.315 204.423 C 201.395 205.016,201.638 205.238,202.287 205.313 C 202.763 205.368,203.358 205.706,203.610 206.065 C 204.329 207.092,205.047 206.573,205.103 204.986 C 205.136 204.044,205.190 203.897,205.282 204.502 C 205.364 205.046,205.608 205.371,205.935 205.371 C 206.222 205.371,206.781 205.749,207.178 206.210 C 207.718 206.839,207.899 206.919,207.899 206.529 C 207.899 206.243,208.183 205.831,208.531 205.614 C 208.878 205.397,209.163 204.961,209.163 204.645 C 209.163 204.329,209.290 204.149,209.446 204.245 C 209.602 204.342,210.171 204.332,210.710 204.224 C 211.987 203.969,212.181 202.073,210.979 201.590 C 210.357 201.339,210.412 201.301,211.420 201.284 C 212.602 201.263,212.954 200.884,212.954 199.629 C 212.954 199.259,213.218 198.924,213.586 198.828 C 214.081 198.698,214.218 198.397,214.218 197.436 L 214.218 196.209 210.445 196.209 L 206.671 196.209 206.550 197.551 L 206.430 198.894 206.374 197.551 C 206.311 196.022,204.107 195.331,204.107 196.840 C 204.107 197.304,203.897 197.472,203.318 197.472 C 202.738 197.472,202.528 197.304,202.528 196.840 C 202.528 196.314,202.317 196.209,201.264 196.209 C 200.211 196.209,200.000 196.314,200.000 196.840 C 200.000 197.249,199.789 197.472,199.405 197.472 C 199.076 197.472,198.736 197.190,198.645 196.840 C 198.282 195.453,196.209 195.991,196.209 197.472 M207.365 201.484 C 206.966 201.562,206.617 201.911,206.540 202.310 C 206.429 202.879,206.398 202.848,206.362 202.133 C 206.325 201.376,206.431 201.269,207.188 201.307 C 207.903 201.342,207.935 201.374,207.365 201.484 " stroke="none" fill="#c1c1c1" fill-rule="evenodd"></path><path id="path1" d="M201.896 50.128 C 142.101 53.222,113.401 94.362,131.507 151.027 C 139.099 174.787,154.507 201.238,175.496 226.540 C 186.181 239.421,193.535 247.125,197.442 249.530 C 204.550 253.904,212.192 252.753,219.322 246.234 C 228.246 238.074,250.230 210.489,258.392 197.210 C 271.994 175.081,278.363 161.133,282.757 143.850 C 295.373 94.230,271.118 57.678,221.169 51.035 C 217.519 50.550,207.257 49.888,204.897 49.986 C 204.202 50.014,202.852 50.078,201.896 50.128 M216.746 53.399 C 257.076 57.535,280.601 78.956,283.108 113.828 C 283.725 122.399,282.258 136.270,279.927 143.918 C 279.768 144.439,279.197 146.430,278.658 148.341 C 277.662 151.876,275.097 159.249,273.767 162.401 C 269.146 173.356,266.005 179.498,259.306 190.679 C 257.229 194.147,250.370 204.567,248.448 207.175 C 247.781 208.080,246.529 209.786,245.665 210.966 C 244.298 212.833,238.720 219.992,235.387 224.157 C 232.571 227.675,230.404 230.261,227.895 233.099 C 226.398 234.792,224.308 237.167,223.250 238.377 C 215.405 247.351,211.570 249.631,205.055 249.196 C 199.460 248.822,197.390 247.332,188.034 236.943 C 180.709 228.809,178.122 225.738,170.753 216.431 C 165.858 210.248,158.206 199.287,154.429 193.049 C 150.464 186.501,147.062 180.379,143.926 174.149 C 113.457 113.621,130.793 64.740,186.308 54.651 C 194.296 53.199,208.927 52.598,216.746 53.399 M200.158 79.175 C 164.654 82.693,148.923 103.401,157.217 135.703 C 160.597 148.870,167.486 164.164,176.143 177.725 C 181.569 186.225,185.487 191.809,191.372 199.428 C 192.621 201.046,194.192 203.081,194.862 203.949 C 196.310 205.829,196.583 206.166,198.862 208.894 C 202.656 213.434,208.533 213.923,212.289 210.012 C 213.859 208.376,214.745 207.266,220.006 200.347 C 221.539 198.332,223.174 196.198,223.640 195.605 C 224.105 195.013,224.913 193.921,225.434 193.179 C 225.956 192.437,227.596 190.149,229.079 188.095 C 231.577 184.636,232.966 182.576,236.712 176.777 C 257.249 144.991,262.775 114.302,250.958 97.665 C 242.169 85.293,219.968 77.212,200.158 79.175 M215.055 82.449 C 242.494 86.266,256.052 100.248,254.328 122.951 C 252.802 143.056,241.647 167.331,221.959 193.387 C 212.036 206.519,210.276 208.531,208.708 208.531 C 208.263 208.531,207.899 208.389,207.899 208.215 C 207.899 208.041,207.740 207.899,207.546 207.899 C 207.345 207.899,207.267 208.180,207.364 208.550 C 207.468 208.949,207.360 209.268,207.084 209.374 C 206.837 209.469,206.626 209.780,206.615 210.065 C 206.600 210.446,206.523 210.407,206.326 209.918 C 206.167 209.525,205.657 209.173,205.082 209.057 C 204.546 208.950,204.107 208.670,204.107 208.435 C 204.107 208.146,203.819 208.051,203.214 208.139 C 202.009 208.316,198.517 204.795,195.261 200.119 C 195.000 199.744,193.651 197.965,192.264 196.164 C 163.278 158.558,151.515 123.046,161.476 103.214 C 169.240 87.758,191.420 79.161,215.055 82.449 " stroke="none" fill="#585858" fill-rule="evenodd"></path><path id="path2" d="M197.472 48.007 C 197.472 49.029,197.949 49.088,205.934 49.067 C 213.715 49.046,214.512 48.931,214.112 47.889 C 213.785 47.035,197.472 47.151,197.472 48.007 M185.840 49.526 C 185.935 50.348,186.025 50.394,187.520 50.375 C 189.809 50.346,192.142 49.928,191.931 49.585 C 191.830 49.422,191.934 49.272,192.161 49.252 C 193.326 49.146,190.351 48.727,188.210 48.695 L 185.740 48.657 185.840 49.526 M220.695 48.973 C 220.174 49.106,219.933 49.231,220.161 49.252 C 220.388 49.272,220.487 49.431,220.379 49.605 C 220.272 49.779,220.299 49.922,220.439 49.923 C 220.580 49.925,221.597 50.072,222.700 50.251 C 225.152 50.649,225.908 50.454,225.908 49.426 C 225.908 48.601,223.111 48.358,220.695 48.973 M180.784 50.632 C 180.895 51.415,182.958 51.803,183.866 51.212 C 184.697 50.671,183.664 49.921,182.088 49.921 C 180.811 49.921,180.692 49.986,180.784 50.632 M228.831 50.130 C 228.018 50.458,228.477 51.171,229.715 51.505 C 231.379 51.953,232.227 51.677,232.227 50.690 C 232.227 49.927,230.173 49.589,228.831 50.130 M174.302 51.395 C 174.186 51.511,174.092 51.853,174.092 52.155 C 174.092 52.614,173.883 52.676,172.828 52.535 C 171.631 52.374,171.564 52.409,171.564 53.197 C 171.564 53.764,171.740 54.040,172.117 54.065 C 173.098 54.129,173.926 53.981,174.234 53.685 C 174.399 53.526,174.754 53.396,175.024 53.395 C 176.867 53.388,178.783 52.362,178.219 51.683 C 177.799 51.177,174.745 50.953,174.302 51.395 M234.103 51.683 C 233.761 52.096,233.768 52.230,234.144 52.468 C 235.125 53.089,236.564 52.554,236.233 51.691 C 235.984 51.041,234.640 51.036,234.103 51.683 M238.580 52.738 C 237.867 53.189,238.425 53.977,239.615 54.200 C 240.968 54.454,241.390 54.221,241.390 53.220 C 241.390 52.396,239.603 52.090,238.580 52.738 M168.483 54.035 C 167.034 54.625,167.777 55.796,169.378 55.445 C 170.129 55.280,170.315 55.087,170.239 54.555 C 170.129 53.788,169.527 53.609,168.483 54.035 M242.549 53.923 C 242.091 54.381,242.376 55.229,243.049 55.409 C 244.670 55.844,245.182 55.664,245.182 54.660 C 245.182 53.730,243.276 53.196,242.549 53.923 M165.245 55.766 C 165.245 56.433,165.392 56.556,166.193 56.556 C 167.243 56.556,167.575 55.527,166.641 55.168 C 165.661 54.792,165.245 54.970,165.245 55.766 M245.878 55.355 C 245.280 55.952,245.430 56.471,246.262 56.680 C 247.041 56.875,248.029 56.653,248.020 56.285 C 248.000 55.436,246.464 54.769,245.878 55.355 M161.137 57.188 C 161.137 57.715,160.927 57.820,159.874 57.820 C 158.820 57.820,158.610 57.925,158.610 58.452 C 158.610 58.978,158.399 59.084,157.346 59.084 C 156.319 59.084,156.082 59.195,156.082 59.679 C 156.082 60.008,155.800 60.348,155.450 60.439 C 154.733 60.627,154.597 61.546,155.249 61.797 C 155.780 62.000,158.288 60.730,158.513 60.143 C 158.604 59.908,158.940 59.716,159.261 59.716 C 160.014 59.716,161.453 59.060,161.453 58.717 C 161.453 58.571,161.660 58.452,161.912 58.452 C 162.812 58.452,163.981 57.709,163.981 57.137 C 163.981 56.659,163.729 56.556,162.559 56.556 C 161.348 56.556,161.137 56.650,161.137 57.188 M248.657 57.188 C 248.657 57.679,248.868 57.820,249.605 57.820 C 250.342 57.820,250.553 57.679,250.553 57.188 C 250.553 56.697,250.342 56.556,249.605 56.556 C 248.868 56.556,248.657 56.697,248.657 57.188 M251.185 58.452 C 251.185 58.943,251.395 59.084,252.133 59.084 C 252.870 59.084,253.081 58.943,253.081 58.452 C 253.081 57.960,252.870 57.820,252.133 57.820 C 251.395 57.820,251.185 57.960,251.185 58.452 M253.769 59.795 C 253.843 60.315,254.082 60.506,254.660 60.506 C 255.239 60.506,255.477 60.315,255.551 59.795 C 255.638 59.187,255.508 59.084,254.660 59.084 C 253.813 59.084,253.683 59.187,253.769 59.795 M256.135 60.558 C 255.680 61.013,255.965 61.643,256.793 62.009 C 257.271 62.221,257.819 62.596,258.011 62.844 C 258.480 63.448,259.400 63.057,259.400 62.253 C 259.400 61.822,259.192 61.611,258.768 61.611 C 258.346 61.611,258.136 61.401,258.136 60.979 C 258.136 60.349,256.655 60.038,256.135 60.558 M152.291 62.223 C 152.291 62.665,152.087 62.875,151.659 62.875 C 151.195 62.875,151.027 63.086,151.027 63.665 C 151.027 64.297,151.185 64.455,151.817 64.455 C 152.251 64.455,152.607 64.305,152.607 64.123 C 152.607 63.940,153.041 63.639,153.572 63.454 C 154.939 62.977,154.773 61.811,153.318 61.670 C 152.459 61.588,152.291 61.678,152.291 62.223 M259.828 63.353 C 259.613 63.914,260.236 64.771,260.857 64.771 C 261.095 64.771,261.468 65.055,261.685 65.403 C 261.902 65.750,262.314 66.035,262.601 66.035 C 262.889 66.035,263.205 66.248,263.305 66.509 C 263.624 67.339,264.771 67.091,264.771 66.193 C 264.771 65.613,264.602 65.403,264.139 65.403 C 263.718 65.403,263.507 65.192,263.507 64.771 C 263.507 64.363,263.296 64.139,262.912 64.139 C 262.583 64.139,262.243 63.857,262.152 63.507 C 261.948 62.726,260.115 62.605,259.828 63.353 M150.158 64.635 C 149.608 65.227,149.663 65.403,150.395 65.403 C 151.060 65.403,151.170 65.166,150.785 64.569 C 150.616 64.307,150.445 64.325,150.158 64.635 M147.108 66.182 C 146.974 66.719,146.761 66.902,146.423 66.772 C 146.102 66.649,145.876 66.806,145.766 67.228 C 145.673 67.582,145.326 67.943,144.994 68.030 C 144.644 68.121,144.392 68.464,144.392 68.849 C 144.392 69.300,144.191 69.510,143.760 69.510 C 143.339 69.510,143.128 69.721,143.128 70.142 C 143.128 70.563,142.917 70.774,142.496 70.774 C 142.075 70.774,141.864 70.985,141.864 71.406 C 141.864 71.827,141.654 72.038,141.232 72.038 C 140.811 72.038,140.600 72.249,140.600 72.670 C 140.600 73.091,140.390 73.302,139.968 73.302 C 139.547 73.302,139.336 73.512,139.336 73.934 C 139.336 74.355,139.126 74.566,138.705 74.566 C 138.193 74.566,138.073 74.776,138.073 75.671 C 138.073 77.182,138.976 77.152,140.158 75.601 C 141.348 74.042,146.453 68.930,147.946 67.802 C 149.468 66.653,149.609 65.403,148.218 65.403 C 147.510 65.403,147.260 65.579,147.108 66.182 M266.351 68.651 C 266.351 69.507,269.718 72.986,270.546 72.986 C 270.957 72.986,271.090 72.715,271.090 71.880 C 271.090 70.985,270.970 70.774,270.458 70.774 C 270.037 70.774,269.826 70.563,269.826 70.142 C 269.826 69.721,269.616 69.510,269.194 69.510 C 268.785 69.510,268.562 69.300,268.562 68.912 C 268.562 68.286,267.981 67.930,266.957 67.930 C 266.536 67.930,266.351 68.151,266.351 68.651 M272.749 74.793 C 272.232 74.978,272.236 76.145,272.753 76.145 C 272.972 76.145,273.292 76.401,273.464 76.713 C 274.579 78.742,275.080 79.314,275.671 79.233 C 276.578 79.109,276.752 77.426,275.882 77.198 C 275.538 77.108,275.185 76.764,275.098 76.432 C 275.007 76.081,274.664 75.829,274.279 75.829 C 273.914 75.829,273.618 75.626,273.618 75.374 C 273.618 74.825,273.283 74.601,272.749 74.793 M137.446 77.349 C 137.443 77.576,137.299 77.675,137.125 77.567 C 136.951 77.460,136.809 77.594,136.809 77.864 C 136.809 78.146,137.079 78.357,137.441 78.357 C 138.139 78.357,138.217 78.122,137.757 77.409 C 137.534 77.065,137.449 77.048,137.446 77.349 M135.461 78.546 C 135.358 78.650,135.344 78.921,135.432 79.149 C 135.521 79.381,135.303 79.655,134.937 79.771 C 134.189 80.009,133.720 81.398,134.220 81.898 C 134.657 82.335,135.506 81.997,135.757 81.287 C 135.866 80.979,136.236 80.414,136.580 80.032 C 137.498 79.010,136.424 77.583,135.461 78.546 M276.540 79.830 C 276.075 80.018,276.003 81.201,276.457 81.201 C 276.628 81.201,276.983 81.714,277.245 82.341 C 277.589 83.164,277.861 83.428,278.223 83.289 C 278.499 83.183,278.784 83.096,278.857 83.096 C 279.349 83.096,278.908 81.120,278.386 80.984 C 278.055 80.897,277.713 80.555,277.626 80.224 C 277.467 79.615,277.260 79.540,276.540 79.830 M132.758 83.175 C 132.913 84.266,134.281 84.357,134.281 83.276 C 134.281 82.615,134.131 82.464,133.469 82.464 C 132.808 82.464,132.676 82.596,132.758 83.175 M204.642 83.028 C 204.263 83.109,204.103 83.380,204.168 83.834 C 204.307 84.813,206.117 84.826,206.257 83.848 C 206.358 83.141,205.694 82.803,204.642 83.028 M207.104 83.219 C 205.699 84.246,207.960 85.046,211.388 84.735 C 211.482 84.727,211.581 85.011,211.608 85.367 C 211.655 85.992,211.641 85.994,211.218 85.424 C 210.797 84.858,210.781 84.861,210.825 85.507 C 210.872 86.189,212.274 86.273,213.112 85.643 C 213.843 85.095,214.544 85.048,215.013 85.516 C 215.607 86.110,216.746 85.333,216.746 84.333 C 216.746 83.543,215.935 83.366,211.854 83.263 C 209.887 83.213,208.142 83.089,207.977 82.986 C 207.811 82.884,207.419 82.989,207.104 83.219 M195.735 83.443 C 193.001 83.833,192.417 84.159,192.417 85.301 C 192.417 86.292,193.964 86.760,194.480 85.925 C 194.623 85.694,194.806 85.694,195.085 85.925 C 195.748 86.475,197.160 86.194,197.342 85.475 C 197.485 84.912,197.775 84.830,199.721 84.798 C 202.022 84.760,202.746 84.436,202.422 83.592 C 202.206 83.029,199.122 82.961,195.735 83.443 M278.673 84.500 C 278.673 85.392,279.037 85.707,279.750 85.433 C 280.619 85.100,280.387 83.728,279.463 83.728 C 278.836 83.728,278.673 83.887,278.673 84.500 M189.021 84.583 C 188.630 84.658,188.310 84.852,188.310 85.014 C 188.310 85.176,187.904 85.308,187.409 85.308 C 185.361 85.308,183.561 86.273,184.191 87.032 C 184.733 87.686,185.652 87.636,187.359 86.862 C 188.733 86.239,188.794 86.237,189.255 86.798 C 189.803 87.464,190.975 87.388,190.712 86.702 C 190.593 86.392,190.779 86.256,191.321 86.256 C 191.977 86.256,192.101 86.105,192.101 85.308 C 192.101 84.318,191.335 84.137,189.021 84.583 M219.984 84.569 C 218.974 84.977,219.564 86.098,220.774 86.073 C 222.605 86.034,222.749 85.981,222.749 85.348 C 222.749 84.618,221.049 84.140,219.984 84.569 M131.438 85.624 C 131.438 86.045,131.227 86.256,130.806 86.256 C 130.279 86.256,130.174 86.467,130.174 87.520 C 130.174 88.584,130.071 88.784,129.525 88.784 C 128.947 88.784,128.886 88.950,128.972 90.282 C 129.100 92.286,129.963 92.539,130.678 90.783 C 130.949 90.118,131.515 88.870,131.936 88.011 C 132.894 86.055,132.941 84.992,132.070 84.992 C 131.648 84.992,131.438 85.203,131.438 85.624 M225.197 85.843 C 224.454 86.036,224.500 86.323,225.434 87.332 C 225.869 87.801,226.224 88.319,226.224 88.484 C 226.224 88.993,226.939 88.816,227.676 88.123 C 228.451 87.396,228.241 87.312,230.391 89.214 C 231.463 90.164,234.238 90.193,234.372 89.256 C 234.484 88.477,230.215 86.682,229.096 87.037 C 228.654 87.177,228.373 87.092,228.254 86.780 C 228.155 86.523,227.742 86.230,227.337 86.128 C 226.931 86.026,226.408 85.888,226.175 85.821 C 225.941 85.754,225.502 85.764,225.197 85.843 M280.160 86.892 C 279.922 87.803,281.076 88.411,281.358 87.522 C 281.468 87.176,281.469 86.750,281.360 86.575 C 281.028 86.037,280.336 86.220,280.160 86.892 M180.490 87.516 C 178.566 88.689,179.528 89.796,181.666 88.870 C 182.961 88.309,183.510 87.369,182.720 87.066 C 181.965 86.776,181.574 86.855,180.490 87.516 M176.742 89.208 C 173.462 90.928,171.981 92.962,174.174 92.736 C 174.737 92.677,175.517 92.618,175.908 92.602 C 176.376 92.584,176.619 92.378,176.619 91.998 C 176.619 91.372,177.693 90.265,178.617 89.937 C 179.291 89.699,179.210 88.658,178.511 88.580 C 178.253 88.551,177.457 88.834,176.742 89.208 M281.411 88.994 C 280.994 89.411,281.213 90.348,281.801 90.662 C 282.450 91.010,282.780 90.580,282.780 89.390 C 282.780 88.797,281.871 88.535,281.411 88.994 M235.071 90.194 C 235.071 90.834,236.304 91.468,236.727 91.046 C 236.905 90.868,236.965 90.499,236.861 90.227 C 236.617 89.590,235.071 89.562,235.071 90.194 M237.599 91.588 C 237.599 92.218,238.580 92.716,238.882 92.239 C 239.340 91.515,239.232 91.311,238.389 91.311 C 237.954 91.311,237.599 91.436,237.599 91.588 M282.464 92.406 C 282.464 93.165,282.652 93.601,283.076 93.828 C 283.997 94.321,284.044 94.268,284.044 92.733 C 284.044 91.427,283.980 91.311,283.254 91.311 C 282.564 91.311,282.464 91.449,282.464 92.406 M128.357 92.901 C 127.615 93.199,127.383 94.514,127.921 95.363 C 128.356 96.049,129.226 94.913,129.226 93.658 C 129.226 93.063,129.190 92.584,129.147 92.595 C 129.103 92.606,128.748 92.744,128.357 92.901 M168.674 95.183 C 167.171 96.616,165.698 98.178,165.400 98.655 C 164.739 99.714,164.972 100.637,165.793 100.214 C 166.100 100.057,166.552 99.999,166.797 100.086 C 167.352 100.283,168.088 99.322,168.088 98.400 C 168.088 97.279,170.294 95.103,171.429 95.103 C 172.204 95.103,172.389 94.968,172.405 94.392 C 172.416 94.001,172.531 93.432,172.660 93.128 C 173.294 91.638,171.329 92.651,168.674 95.183 M240.126 93.645 C 240.126 94.145,241.454 95.103,242.148 95.103 C 242.403 95.103,242.702 95.387,242.812 95.735 C 243.050 96.485,243.918 96.586,243.918 95.863 C 243.918 95.586,243.633 95.285,243.286 95.194 C 242.938 95.103,242.654 94.766,242.654 94.445 C 242.654 94.124,242.379 93.714,242.043 93.534 C 241.174 93.069,240.126 93.129,240.126 93.645 M283.935 95.804 C 283.651 96.889,284.034 97.946,284.710 97.946 C 285.208 97.946,285.308 97.708,285.308 96.524 C 285.308 94.937,284.300 94.408,283.935 95.804 M126.382 98.420 C 126.382 99.376,126.489 100.156,126.619 100.153 C 128.139 100.122,128.664 96.682,127.149 96.682 C 126.430 96.682,126.382 96.791,126.382 98.420 M245.498 98.672 C 245.498 99.349,246.918 100.951,248.499 102.056 C 249.041 102.434,249.075 102.434,248.736 102.054 C 248.519 101.811,248.341 101.368,248.341 101.071 C 248.341 100.774,247.961 99.949,247.495 99.238 C 246.547 97.790,245.498 97.493,245.498 98.672 M285.136 99.548 C 284.701 100.253,285.313 102.686,285.925 102.686 C 286.622 102.686,286.964 101.566,286.689 100.189 C 286.491 99.199,285.584 98.825,285.136 99.548 M163.473 101.603 C 163.361 102.051,163.423 102.570,163.612 102.759 C 164.102 103.249,164.929 102.485,164.929 101.541 C 164.929 100.461,163.747 100.511,163.473 101.603 M125.118 103.949 C 125.118 105.951,125.179 106.161,125.750 106.161 C 126.209 106.161,126.382 105.951,126.382 105.392 C 126.382 104.969,126.506 104.293,126.658 103.891 C 127.035 102.891,126.554 101.738,125.761 101.738 C 125.176 101.738,125.118 101.937,125.118 103.949 M249.467 104.484 C 249.134 105.354,249.288 106.496,249.763 106.679 C 250.072 106.797,250.237 107.289,250.237 108.091 C 250.237 109.192,250.320 109.321,251.027 109.321 C 252.094 109.321,252.260 107.661,251.266 106.934 C 250.994 106.735,250.869 106.416,250.988 106.224 C 251.107 106.031,251.117 105.526,251.010 105.100 C 250.786 104.207,249.735 103.787,249.467 104.484 M286.287 104.839 C 285.958 105.453,286.541 110.027,287.007 110.493 C 287.595 111.081,287.994 109.739,287.994 107.173 C 287.994 104.263,287.186 103.159,286.287 104.839 M161.892 105.777 C 161.368 106.115,160.506 107.931,160.506 108.695 C 160.506 109.724,161.816 109.387,162.368 108.215 C 162.614 107.694,162.971 107.165,163.161 107.040 C 163.392 106.889,163.297 106.604,162.875 106.182 C 162.528 105.834,162.085 105.652,161.892 105.777 M123.855 119.295 L 123.855 128.954 124.566 128.853 L 125.276 128.752 125.181 122.433 C 125.128 118.957,125.202 114.905,125.344 113.428 C 125.670 110.050,125.591 109.637,124.621 109.637 L 123.855 109.637 123.855 119.295 M160.032 110.387 C 159.596 110.706,159.519 111.060,159.674 112.032 C 159.784 112.713,159.897 113.448,159.926 113.665 C 159.995 114.180,159.934 114.217,161.000 113.014 L 161.927 111.967 161.257 110.974 C 160.675 110.110,160.515 110.034,160.032 110.387 M250.915 111.435 C 250.666 111.877,250.752 112.185,251.295 112.796 C 252.302 113.927,252.178 123.855,251.157 123.855 C 250.338 123.855,250.300 126.129,251.106 126.935 C 251.615 127.445,251.619 127.528,251.147 127.999 C 250.604 128.543,250.049 131.826,250.404 132.400 C 250.520 132.588,250.371 133.011,250.073 133.340 C 249.774 133.670,249.458 134.585,249.369 135.374 C 249.243 136.486,249.079 136.809,248.638 136.809 C 248.139 136.809,248.068 137.111,248.065 139.258 C 248.061 142.150,248.216 142.840,248.816 142.610 C 249.461 142.362,250.064 140.363,249.645 139.859 C 249.402 139.566,249.476 139.317,249.916 138.941 C 250.626 138.332,251.235 136.281,251.298 134.281 C 251.323 133.499,251.510 132.682,251.715 132.465 C 252.164 131.988,252.601 128.815,252.319 128.079 C 252.208 127.791,252.318 127.326,252.563 127.048 C 253.598 125.869,253.768 116.386,252.829 112.164 C 252.546 110.890,251.456 110.475,250.915 111.435 M159.680 126.886 C 159.575 127.305,159.569 128.110,159.666 128.674 C 160.285 132.252,160.489 132.701,161.492 132.701 C 162.121 132.701,162.391 130.716,161.811 130.357 C 161.660 130.264,161.441 129.347,161.325 128.319 C 161.088 126.220,160.070 125.334,159.680 126.886 M286.743 128.335 C 285.875 132.117,286.018 133.965,287.178 133.965 C 287.883 133.965,288.153 133.103,288.116 130.964 C 288.070 128.274,287.157 126.527,286.743 128.335 M125.118 135.387 C 125.118 137.685,125.142 137.757,125.885 137.757 C 126.834 137.757,126.958 137.224,126.563 134.837 C 126.071 131.864,125.118 132.227,125.118 135.387 M160.823 133.864 C 160.828 136.244,161.845 137.976,163.018 137.604 C 163.832 137.345,163.844 136.753,163.050 136.034 C 162.709 135.726,162.393 134.965,162.339 134.327 C 162.212 132.803,160.820 132.378,160.823 133.864 M285.137 137.910 C 284.882 139.953,285.066 140.600,285.902 140.600 C 286.624 140.600,287.077 138.705,286.731 137.132 C 286.352 135.404,285.392 135.873,285.137 137.910 M162.231 138.409 C 161.908 138.932,162.367 140.837,162.958 141.428 C 163.253 141.723,163.451 142.331,163.403 142.791 C 163.352 143.281,163.649 144.114,164.128 144.819 C 164.574 145.477,164.862 146.141,164.766 146.295 C 164.358 146.955,165.000 148.183,165.753 148.183 C 166.669 148.183,166.812 146.952,165.992 146.132 C 165.606 145.746,165.566 145.524,165.834 145.256 C 166.392 144.698,166.286 143.128,165.690 143.128 C 164.780 143.128,163.951 141.795,164.490 141.197 C 164.895 140.747,164.848 140.534,164.093 139.380 C 163.243 138.083,162.630 137.763,162.231 138.409 M126.382 142.180 C 126.382 144.312,126.410 144.392,127.151 144.392 C 128.761 144.392,128.234 140.006,126.619 139.973 C 126.489 139.971,126.382 140.964,126.382 142.180 M283.903 143.601 C 283.660 145.224,283.826 145.656,284.695 145.656 C 285.228 145.656,285.308 145.427,285.308 143.918 C 285.308 141.564,284.244 141.324,283.903 143.601 M246.889 145.331 C 246.972 146.521,247.152 146.693,247.806 146.205 C 248.479 145.704,248.176 144.392,247.388 144.392 C 246.959 144.392,246.840 144.616,246.889 145.331 M127.779 146.116 C 127.508 147.198,127.730 148.002,128.334 148.119 C 129.363 148.317,129.450 145.930,128.427 145.538 C 128.128 145.423,127.903 145.624,127.779 146.116 M282.989 147.704 C 282.381 148.312,282.681 149.447,283.449 149.447 C 283.919 149.447,284.044 149.214,284.044 148.341 C 284.044 147.150,283.732 146.961,282.989 147.704 M165.699 148.911 C 165.480 149.482,166.428 151.648,166.993 151.864 C 167.248 151.962,167.457 152.427,167.457 152.897 C 167.457 153.367,167.741 154.340,168.088 155.060 C 168.436 155.779,168.720 156.517,168.720 156.699 C 168.720 157.164,169.895 157.113,170.193 156.635 C 170.599 155.983,170.300 154.852,169.479 153.940 C 167.883 152.166,167.887 152.176,168.476 151.587 C 168.993 151.070,168.985 151.001,168.318 150.274 C 167.931 149.852,167.431 149.280,167.207 149.003 C 166.715 148.394,165.916 148.345,165.699 148.911 M245.994 148.996 C 245.319 149.671,245.370 150.079,246.130 150.079 C 246.593 150.079,246.761 149.868,246.761 149.289 C 246.761 148.365,246.663 148.327,245.994 148.996 M129.051 150.766 C 128.735 151.760,129.880 152.611,130.291 151.688 C 130.445 151.344,130.486 150.841,130.382 150.570 C 130.107 149.852,129.303 149.970,129.051 150.766 M243.857 152.334 C 243.774 153.449,243.604 153.725,242.705 154.205 C 242.125 154.515,241.556 154.874,241.441 155.002 C 241.326 155.131,241.445 155.114,241.706 154.966 C 242.127 154.727,242.127 154.763,241.706 155.286 C 241.268 155.832,241.285 155.862,241.943 155.693 C 242.334 155.592,242.654 155.622,242.654 155.759 C 242.654 155.896,242.370 156.083,242.022 156.174 C 241.675 156.265,241.390 156.549,241.390 156.806 C 241.390 157.062,241.106 157.347,240.758 157.438 C 240.300 157.557,240.126 157.868,240.126 158.569 C 240.126 159.212,239.915 159.649,239.494 159.874 C 239.147 160.060,238.863 160.496,238.863 160.843 C 238.863 161.189,238.649 161.555,238.389 161.655 C 238.128 161.755,237.915 162.174,237.915 162.587 C 237.915 163.380,239.034 163.909,239.959 163.554 C 240.580 163.316,243.357 157.339,243.173 156.635 C 243.088 156.307,243.205 156.082,243.462 156.082 C 244.043 156.082,244.645 154.902,244.449 154.150 C 244.348 153.765,244.510 153.429,244.894 153.223 C 245.852 152.711,245.723 151.027,244.726 151.027 C 244.048 151.027,243.942 151.185,243.857 152.334 M281.392 152.159 C 280.915 153.402,281.174 154.550,281.908 154.445 C 282.681 154.335,282.943 153.615,282.644 152.424 C 282.428 151.560,281.683 151.402,281.392 152.159 M130.553 154.250 C 129.929 154.874,130.081 156.082,130.784 156.082 C 131.462 156.082,131.876 155.189,131.569 154.389 C 131.332 153.773,131.066 153.736,130.553 154.250 M280.627 155.688 C 280.059 155.886,279.562 157.295,279.798 158.038 C 280.131 159.086,281.340 158.645,281.457 157.432 C 281.573 156.236,281.214 155.483,280.627 155.688 M169.879 157.557 C 169.448 157.988,169.692 158.919,170.452 159.739 C 170.883 160.204,171.160 160.708,171.068 160.858 C 170.814 161.268,173.761 166.795,174.423 167.149 C 175.472 167.710,175.505 166.361,174.489 164.363 C 173.985 163.371,173.629 162.310,173.697 162.006 C 173.773 161.670,173.636 161.453,173.347 161.453 C 173.086 161.453,172.826 161.133,172.771 160.742 C 172.708 160.298,172.416 159.995,171.993 159.935 C 171.492 159.864,171.359 159.676,171.480 159.214 C 171.720 158.294,170.453 156.982,169.879 157.557 M131.659 157.862 C 131.037 158.484,131.443 159.874,132.248 159.874 C 132.971 159.874,133.047 159.764,132.958 158.849 C 132.864 157.873,132.173 157.347,131.659 157.862 M278.796 159.692 C 278.509 160.441,278.915 161.198,279.541 161.077 C 279.891 161.010,280.095 160.683,280.095 160.190 C 280.095 159.289,279.098 158.907,278.796 159.692 M133.081 161.201 C 132.239 162.042,132.614 163.665,133.649 163.665 C 134.456 163.665,134.597 163.545,134.597 162.854 C 134.597 161.289,133.830 160.452,133.081 161.201 M277.422 163.157 C 276.990 164.294,277.356 165.297,278.161 165.182 C 278.945 165.071,279.262 163.585,278.657 162.856 C 278.116 162.204,277.751 162.293,277.422 163.157 M134.132 164.282 C 133.803 164.814,134.316 166.128,134.913 166.284 C 135.614 166.468,135.980 165.426,135.518 164.562 C 135.185 163.939,134.437 163.789,134.132 164.282 M237.657 164.847 C 237.764 165.774,238.760 166.238,239.181 165.557 C 239.616 164.853,239.146 163.981,238.331 163.981 C 237.673 163.981,237.572 164.111,237.657 164.847 M276.145 166.602 C 276.145 167.526,276.250 167.681,276.856 167.650 C 277.428 167.622,277.567 167.428,277.567 166.667 C 277.567 165.924,277.413 165.697,276.856 165.618 C 276.237 165.530,276.145 165.657,276.145 166.602 M236.230 166.719 C 236.114 166.835,236.019 167.354,236.019 167.872 C 236.019 168.480,235.628 169.291,234.913 170.163 C 234.305 170.905,233.807 171.756,233.807 172.055 C 233.807 172.353,233.487 172.914,233.096 173.300 C 232.245 174.142,231.280 175.407,231.280 175.682 C 231.280 175.791,230.960 175.868,230.569 175.854 C 230.041 175.836,229.830 176.033,229.751 176.619 C 229.692 177.054,229.362 177.714,229.016 178.087 C 228.549 178.591,228.488 178.826,228.777 179.004 C 229.026 179.158,229.085 179.114,228.940 178.880 C 228.598 178.326,228.933 178.444,229.424 179.050 C 229.671 179.354,229.697 179.488,229.485 179.360 C 229.277 179.236,228.731 179.489,228.254 179.932 C 227.782 180.369,227.306 180.727,227.197 180.727 C 227.087 180.727,227.050 181.277,227.114 181.949 C 227.218 183.039,227.143 183.193,226.425 183.373 C 225.875 183.511,225.428 184.000,225.014 184.916 C 224.681 185.653,223.893 186.746,223.263 187.345 C 222.632 187.944,222.117 188.672,222.117 188.964 C 222.117 189.255,221.548 190.116,220.853 190.876 C 220.158 191.637,219.589 192.579,219.589 192.970 C 219.589 193.410,219.397 193.681,219.086 193.681 C 218.809 193.681,218.508 193.965,218.417 194.313 C 218.326 194.663,217.986 194.945,217.657 194.945 C 217.272 194.945,217.062 195.168,217.062 195.577 C 217.062 196.001,216.851 196.209,216.420 196.209 C 216.067 196.209,215.688 196.443,215.578 196.729 C 215.342 197.344,213.611 199.052,213.223 199.052 C 213.075 199.052,212.952 199.372,212.949 199.763 C 212.944 200.614,212.653 201.089,211.987 201.333 C 211.171 201.633,211.566 203.855,212.412 203.730 C 213.196 203.613,218.085 197.484,218.725 195.814 C 218.842 195.509,219.084 195.261,219.263 195.261 C 219.443 195.261,219.589 194.905,219.589 194.471 C 219.589 193.906,219.760 193.681,220.188 193.681 C 220.567 193.681,221.171 193.072,221.833 192.022 C 222.409 191.110,223.270 189.952,223.747 189.449 C 224.225 188.947,224.826 188.092,225.083 187.549 C 225.341 187.006,225.916 186.220,226.362 185.801 C 226.852 185.341,227.172 184.695,227.172 184.168 C 227.172 183.573,227.373 183.233,227.808 183.095 C 228.596 182.845,230.024 180.801,229.807 180.234 C 229.719 180.005,229.957 179.631,230.336 179.403 C 230.939 179.041,233.175 175.955,233.175 175.485 C 233.175 175.389,233.389 175.097,233.649 174.836 C 233.910 174.576,234.123 174.034,234.123 173.632 C 234.123 173.166,234.353 172.841,234.757 172.736 C 235.154 172.632,235.464 172.204,235.587 171.593 C 235.694 171.056,235.906 170.616,236.058 170.616 C 236.211 170.616,236.335 170.277,236.335 169.863 C 236.335 169.407,236.648 168.904,237.125 168.591 C 238.191 167.893,238.226 166.509,237.177 166.509 C 236.772 166.509,236.345 166.603,236.230 166.719 M135.343 167.615 C 135.061 168.350,135.459 169.036,136.167 169.036 C 136.670 169.036,136.809 168.831,136.809 168.088 C 136.809 167.049,135.698 166.690,135.343 167.615 M175.144 168.272 C 174.935 168.817,176.055 171.069,176.985 171.971 C 177.305 172.282,177.567 172.730,177.567 172.966 C 177.567 173.203,178.029 174.090,178.594 174.938 C 179.159 175.786,179.823 176.866,180.069 177.339 C 180.316 177.812,180.689 178.199,180.899 178.199 C 181.108 178.199,181.365 178.626,181.469 179.147 C 181.662 180.111,182.329 180.371,183.197 179.821 C 183.515 179.619,183.401 179.375,182.718 178.799 C 182.182 178.346,181.867 177.807,181.934 177.460 C 181.997 177.140,181.761 176.572,181.411 176.196 C 181.060 175.821,180.728 175.019,180.671 174.415 C 180.600 173.655,180.350 173.208,179.860 172.965 C 178.672 172.376,177.883 171.502,177.883 170.774 C 177.883 170.394,177.599 169.825,177.251 169.510 C 176.904 169.196,176.619 168.676,176.619 168.355 C 176.619 167.626,175.418 167.558,175.144 168.272 M275.092 168.615 C 274.976 168.731,274.882 169.157,274.882 169.563 C 274.882 170.417,276.042 170.622,276.349 169.822 C 276.645 169.049,275.632 168.076,275.092 168.615 M136.809 170.563 C 136.809 171.309,137.074 171.563,137.630 171.350 C 138.329 171.082,138.177 169.984,137.441 169.984 C 137.039 169.984,136.809 170.195,136.809 170.563 M273.310 172.493 C 273.098 173.004,273.018 173.572,273.132 173.757 C 273.246 173.941,273.140 174.092,272.897 174.092 C 272.440 174.092,271.722 175.355,271.722 176.160 C 271.722 176.413,271.585 176.619,271.418 176.619 C 271.251 176.619,270.963 177.182,270.778 177.870 C 270.592 178.558,270.302 179.206,270.131 179.312 C 269.742 179.552,268.562 181.968,268.562 182.524 C 268.562 183.092,269.172 183.048,269.396 182.464 C 269.496 182.204,269.918 181.991,270.334 181.991 C 271.005 181.991,271.090 181.849,271.090 180.727 C 271.090 179.674,271.195 179.463,271.722 179.463 C 272.260 179.463,272.354 179.252,272.354 178.041 C 272.354 176.716,272.411 176.619,273.185 176.619 C 273.973 176.619,274.008 176.553,273.847 175.355 C 273.703 174.281,273.764 174.092,274.255 174.092 C 274.860 174.092,275.428 172.508,275.044 171.888 C 274.643 171.238,273.692 171.570,273.310 172.493 M138.073 174.092 C 138.073 175.145,138.178 175.355,138.705 175.355 C 139.244 175.355,139.336 175.566,139.336 176.791 C 139.336 177.875,139.448 178.204,139.793 178.134 C 140.044 178.083,140.461 178.325,140.719 178.673 C 142.075 180.494,141.958 177.841,140.587 175.671 C 140.422 175.411,140.058 174.664,139.778 174.013 C 139.048 172.318,138.073 172.363,138.073 174.092 M142.078 180.619 C 141.838 180.858,142.436 181.675,142.851 181.675 C 143.003 181.675,143.128 181.390,143.128 181.043 C 143.128 180.435,142.510 180.186,142.078 180.619 M182.938 180.891 C 182.938 181.083,184.518 184.050,185.154 185.051 C 185.395 185.431,185.849 185.808,186.161 185.890 C 186.476 185.973,186.730 186.329,186.730 186.689 C 186.730 187.643,187.888 188.193,188.151 187.364 C 188.390 186.612,188.126 186.098,187.501 186.098 C 187.172 186.098,187.046 185.703,187.046 184.676 C 187.046 183.476,186.949 183.254,186.429 183.254 C 186.089 183.254,185.356 182.687,184.796 181.991 C 183.933 180.916,182.938 180.327,182.938 180.891 M143.248 183.397 C 143.028 183.971,143.348 184.518,143.903 184.518 C 144.301 184.518,144.708 183.867,144.708 183.229 C 144.708 182.753,143.439 182.900,143.248 183.397 M267.565 184.224 C 266.946 184.570,267.144 185.782,267.819 185.782 C 268.393 185.782,268.692 185.009,268.352 184.402 C 268.166 184.070,267.934 184.017,267.565 184.224 M144.613 185.350 C 144.019 185.944,144.401 187.046,145.203 187.046 C 145.900 187.046,146.000 186.925,145.914 186.180 C 145.818 185.352,145.082 184.882,144.613 185.350 M266.351 186.351 C 265.183 186.740,265.339 188.310,266.546 188.310 C 267.117 188.310,267.297 188.138,267.294 187.599 C 267.287 186.640,266.924 186.159,266.351 186.351 M145.866 187.572 C 145.263 188.176,145.667 189.573,146.445 189.573 C 146.910 189.573,147.235 189.755,147.235 190.014 C 147.235 190.651,148.076 190.888,148.088 190.254 C 148.093 189.967,147.994 189.589,147.868 189.415 C 147.742 189.242,147.545 188.709,147.431 188.231 C 147.234 187.405,146.389 187.050,145.866 187.572 M188.626 189.287 C 188.626 190.191,192.120 194.895,192.812 194.923 C 193.151 194.936,193.365 195.194,193.365 195.589 C 193.365 196.598,194.641 198.104,195.495 198.104 C 196.990 198.104,196.387 195.131,194.866 195.005 C 193.751 194.912,193.671 194.833,193.479 193.637 C 193.330 192.702,193.082 192.294,192.540 192.088 C 192.124 191.930,191.709 191.433,191.587 190.950 C 191.158 189.240,188.626 187.818,188.626 189.287 M264.771 189.100 C 264.771 189.360,265.020 189.562,265.324 189.549 C 265.657 189.533,265.719 189.460,265.480 189.364 C 265.262 189.276,265.163 189.073,265.262 188.915 C 265.360 188.756,265.290 188.626,265.106 188.626 C 264.922 188.626,264.771 188.839,264.771 189.100 M263.347 190.840 C 263.007 191.391,263.527 192.460,264.083 192.352 C 264.747 192.225,264.969 191.157,264.407 190.801 C 263.845 190.445,263.586 190.454,263.347 190.840 M148.439 191.951 C 148.078 192.311,148.564 193.308,149.179 193.469 C 149.697 193.604,149.784 193.491,149.703 192.790 C 149.612 192.010,148.872 191.518,148.439 191.951 M261.951 193.178 C 261.321 193.937,261.670 194.775,262.663 194.889 C 263.494 194.984,263.544 194.924,263.450 193.944 C 263.338 192.785,262.594 192.404,261.951 193.178 M149.568 194.452 C 149.254 195.271,149.597 196.049,150.319 196.152 C 150.708 196.207,151.027 196.464,151.027 196.723 C 151.027 196.982,151.169 197.106,151.343 196.998 C 151.517 196.891,151.659 196.962,151.659 197.156 C 151.659 197.351,151.801 197.422,151.975 197.314 C 152.449 197.021,152.355 195.893,151.856 195.893 C 151.617 195.893,151.336 195.466,151.232 194.945 C 151.027 193.920,149.901 193.587,149.568 194.452 M259.330 197.393 C 259.128 198.171,259.372 198.736,259.910 198.736 C 260.380 198.736,261.016 197.502,260.766 197.077 C 260.497 196.620,259.472 196.846,259.330 197.393 M152.291 199.052 C 152.291 199.900,152.394 200.029,153.002 199.943 C 153.522 199.869,153.712 199.631,153.712 199.052 C 153.712 198.474,153.522 198.235,153.002 198.161 C 152.394 198.075,152.291 198.204,152.291 199.052 M197.472 200.790 C 197.472 201.267,197.653 201.580,197.928 201.580 C 198.638 201.580,198.792 201.049,198.243 200.499 C 197.571 199.828,197.472 199.865,197.472 200.790 M153.752 200.568 C 153.623 200.777,153.585 200.948,153.668 200.948 C 153.751 200.948,154.044 201.034,154.319 201.140 C 154.598 201.247,154.818 201.169,154.818 200.963 C 154.818 200.760,154.688 200.675,154.529 200.773 C 154.370 200.871,154.183 200.780,154.113 200.570 C 154.015 200.274,153.934 200.274,153.752 200.568 M256.872 201.738 C 256.872 202.317,257.041 202.528,257.504 202.528 C 257.967 202.528,258.136 202.317,258.136 201.738 C 258.136 201.159,257.967 200.948,257.504 200.948 C 257.041 200.948,256.872 201.159,256.872 201.738 M198.420 202.032 C 198.420 202.815,199.817 204.712,200.405 204.726 C 201.439 204.751,201.380 203.819,200.274 202.681 C 199.156 201.530,198.420 201.273,198.420 202.032 M155.018 202.117 C 154.436 202.699,154.843 203.791,155.642 203.791 C 156.296 203.791,156.422 203.905,156.255 204.344 C 156.117 204.708,156.151 204.789,156.355 204.581 C 156.803 204.125,156.416 202.559,155.769 202.213 C 155.466 202.051,155.128 202.008,155.018 202.117 M209.164 204.742 C 209.163 205.005,208.878 205.397,208.531 205.614 C 208.183 205.831,207.899 206.243,207.899 206.529 C 207.899 206.919,207.718 206.839,207.178 206.210 C 206.316 205.207,205.371 205.099,205.371 206.003 C 205.371 206.351,205.265 206.618,205.134 206.598 C 203.950 206.411,203.777 207.221,204.739 208.445 C 205.087 208.886,205.371 209.090,205.371 208.897 C 205.371 208.301,206.879 207.520,208.030 207.520 C 209.309 207.520,211.690 205.700,211.690 204.722 C 211.690 204.221,211.483 204.134,210.428 204.194 C 209.546 204.244,209.165 204.409,209.164 204.742 M254.250 204.939 C 253.651 205.538,254.025 206.616,254.739 206.352 C 255.546 206.053,255.704 204.955,254.961 204.812 C 254.692 204.760,254.372 204.817,254.250 204.939 M202.016 205.830 C 201.782 206.439,202.058 206.837,202.858 207.046 C 203.655 207.255,204.032 206.515,203.472 205.841 C 202.975 205.242,202.243 205.237,202.016 205.830 M157.346 206.987 C 157.346 207.892,157.419 207.960,158.261 207.836 C 158.897 207.743,159.131 207.821,159.026 208.092 C 158.944 208.307,159.172 208.640,159.533 208.834 C 160.363 209.278,160.373 208.850,159.558 207.813 C 159.210 207.371,158.926 206.783,158.926 206.506 C 158.926 206.180,158.648 206.003,158.136 206.003 C 157.462 206.003,157.346 206.148,157.346 206.987 M251.454 209.298 C 251.250 209.745,250.964 210.111,250.818 210.111 C 250.672 210.111,250.553 210.395,250.553 210.742 C 250.553 211.481,251.122 211.589,251.387 210.900 C 251.487 210.640,251.918 210.427,252.345 210.427 C 253.006 210.427,253.108 210.297,253.023 209.560 C 252.888 208.392,251.939 208.233,251.454 209.298 M160.041 209.780 C 159.692 210.344,160.241 211.690,160.819 211.690 C 161.127 211.690,161.454 211.975,161.545 212.322 C 161.789 213.254,162.717 213.129,162.717 212.164 C 162.717 211.730,162.568 211.374,162.385 211.374 C 162.202 211.374,161.904 210.948,161.722 210.427 C 161.397 209.495,160.444 209.128,160.041 209.780 M248.351 213.186 C 247.591 214.346,247.515 214.510,247.433 215.166 C 247.411 215.340,247.180 215.482,246.919 215.482 C 246.648 215.482,246.445 215.766,246.445 216.148 C 246.445 216.625,246.587 216.759,246.945 216.621 C 247.220 216.516,247.505 216.430,247.577 216.430 C 247.650 216.430,247.709 216.216,247.709 215.956 C 247.709 215.661,248.008 215.482,248.499 215.482 C 249.078 215.482,249.289 215.313,249.289 214.850 C 249.289 214.422,249.500 214.218,249.941 214.218 C 250.486 214.218,250.577 214.050,250.494 213.191 C 250.347 211.669,249.347 211.667,248.351 213.186 M163.981 215.798 C 163.981 216.535,164.121 216.746,164.613 216.746 C 165.076 216.746,165.245 216.956,165.245 217.536 C 165.245 218.007,165.426 218.325,165.693 218.325 C 165.939 218.325,166.401 218.410,166.720 218.513 C 167.060 218.623,167.162 218.591,166.967 218.434 C 166.785 218.288,166.614 217.814,166.587 217.382 C 166.559 216.950,166.379 216.544,166.186 216.480 C 165.994 216.416,165.706 216.023,165.548 215.607 C 165.108 214.449,163.981 214.587,163.981 215.798 M244.550 218.250 C 244.115 218.900,243.658 219.680,243.533 219.984 C 243.408 220.288,243.160 220.537,242.980 220.537 C 242.801 220.537,242.654 220.893,242.654 221.327 C 242.654 221.906,242.823 222.117,243.286 222.117 C 243.707 222.117,243.918 221.906,243.918 221.485 C 243.918 221.064,244.128 220.853,244.550 220.853 C 244.971 220.853,245.182 220.642,245.182 220.221 C 245.182 219.800,245.392 219.589,245.814 219.589 C 246.340 219.589,246.445 219.379,246.445 218.325 C 246.445 216.660,245.635 216.628,244.550 218.250 M167.994 220.105 C 167.465 220.634,167.767 222.117,168.404 222.117 C 168.826 222.117,169.036 222.328,169.036 222.749 C 169.036 223.170,169.247 223.381,169.668 223.381 C 170.090 223.381,170.300 223.591,170.300 224.013 C 170.300 224.476,170.511 224.645,171.090 224.645 C 171.994 224.645,172.154 223.891,171.421 223.091 C 170.403 221.982,169.809 221.242,169.476 220.667 C 169.103 220.023,168.359 219.740,167.994 220.105 M240.205 224.040 C 239.814 224.187,239.494 224.511,239.494 224.759 C 239.494 225.006,239.281 225.291,239.021 225.391 C 238.760 225.491,238.547 225.782,238.547 226.039 C 238.547 226.295,238.244 226.717,237.873 226.976 C 237.069 227.539,237.283 228.436,238.221 228.436 C 238.652 228.436,238.863 228.229,238.863 227.804 C 238.863 227.383,239.073 227.172,239.494 227.172 C 239.903 227.172,240.126 226.962,240.126 226.577 C 240.126 226.248,240.409 225.908,240.758 225.817 C 241.181 225.706,241.390 225.386,241.390 224.851 C 241.390 223.870,241.128 223.691,240.205 224.040 M173.038 226.435 C 172.518 226.955,172.830 228.436,173.460 228.436 C 173.881 228.436,174.092 228.647,174.092 229.068 C 174.092 229.482,174.302 229.700,174.702 229.700 C 175.038 229.700,175.398 229.969,175.503 230.298 C 175.607 230.626,175.972 230.969,176.314 231.058 C 176.667 231.150,176.935 231.490,176.935 231.845 C 176.935 232.246,177.196 232.520,177.662 232.609 C 178.304 232.731,178.374 232.643,178.258 231.856 C 178.186 231.365,177.998 230.964,177.839 230.964 C 177.681 230.964,177.416 230.608,177.251 230.174 C 177.086 229.739,176.823 229.384,176.666 229.384 C 176.510 229.384,175.902 228.677,175.316 227.812 C 174.335 226.366,173.570 225.903,173.038 226.435 M233.798 231.675 C 233.213 232.413,232.549 233.131,232.323 233.270 C 232.097 233.409,231.912 233.800,231.912 234.139 C 231.912 234.478,231.698 234.755,231.438 234.755 C 231.143 234.755,230.964 235.054,230.964 235.545 C 230.964 236.124,230.795 236.335,230.332 236.335 C 229.930 236.335,229.700 236.546,229.700 236.914 C 229.700 237.233,229.911 237.493,230.169 237.493 C 230.427 237.493,230.721 237.233,230.822 236.914 C 230.924 236.596,231.281 236.335,231.617 236.335 C 232.010 236.335,232.227 236.117,232.227 235.725 C 232.227 235.333,232.482 235.079,232.938 235.014 C 233.395 234.949,233.685 234.659,233.750 234.202 C 233.806 233.811,234.055 233.491,234.303 233.491 C 234.552 233.491,234.755 233.278,234.755 233.017 C 234.755 232.757,234.887 232.543,235.049 232.543 C 235.558 232.543,236.335 231.575,236.335 230.941 C 236.335 229.807,234.962 230.204,233.798 231.675 M180.937 235.598 C 180.474 236.061,180.738 237.345,181.329 237.500 C 181.661 237.586,182.003 237.928,182.090 238.260 C 182.176 238.591,182.474 238.863,182.751 238.863 C 183.044 238.863,183.254 239.127,183.254 239.494 C 183.254 239.916,183.465 240.126,183.886 240.126 C 184.308 240.126,184.518 240.337,184.518 240.758 C 184.518 241.180,184.729 241.390,185.150 241.390 C 185.571 241.390,185.782 241.601,185.782 242.022 C 185.782 242.443,185.993 242.654,186.414 242.654 C 186.762 242.654,187.046 242.865,187.046 243.124 C 187.046 243.382,187.527 243.795,188.115 244.040 C 188.704 244.286,189.445 244.928,189.763 245.466 C 190.081 246.005,190.524 246.445,190.747 246.445 C 190.971 246.445,191.153 246.738,191.153 247.096 C 191.153 247.454,191.295 247.659,191.469 247.551 C 191.643 247.444,191.785 247.515,191.785 247.709 C 191.785 247.904,191.927 247.975,192.101 247.867 C 192.690 247.503,192.455 246.445,191.785 246.445 C 191.364 246.445,191.153 246.235,191.153 245.814 C 191.153 245.405,190.943 245.182,190.558 245.182 C 190.229 245.182,189.889 244.899,189.798 244.550 C 189.707 244.202,189.406 243.918,189.129 243.918 C 188.847 243.918,188.626 243.657,188.626 243.323 C 188.626 242.993,188.343 242.654,187.994 242.562 C 187.646 242.472,187.362 242.180,187.362 241.915 C 187.362 241.650,187.077 241.343,186.730 241.232 C 186.382 241.122,186.098 240.830,186.098 240.584 C 186.098 240.338,185.607 239.601,185.006 238.947 C 184.406 238.292,183.467 237.224,182.920 236.572 C 181.963 235.433,181.386 235.149,180.937 235.598 M224.852 241.828 C 218.851 249.694,210.241 254.170,203.528 252.912 C 200.486 252.342,200.000 252.429,200.000 253.545 L 200.000 254.344 206.477 254.344 C 212.744 254.344,212.954 254.324,212.954 253.712 C 212.954 253.198,213.165 253.081,214.090 253.081 C 214.959 253.081,215.264 252.933,215.390 252.449 C 215.520 251.954,215.821 251.817,216.783 251.817 C 217.799 251.817,218.009 251.708,218.009 251.185 C 218.009 250.764,218.220 250.553,218.641 250.553 C 219.063 250.553,219.273 250.342,219.273 249.921 C 219.273 249.490,219.484 249.289,219.935 249.289 C 220.320 249.289,220.662 249.037,220.754 248.686 C 220.841 248.355,221.183 248.013,221.514 247.926 C 221.865 247.834,222.117 247.492,222.117 247.107 C 222.117 246.730,222.320 246.445,222.591 246.445 C 222.852 246.445,223.065 246.232,223.065 245.972 C 223.065 245.701,223.349 245.498,223.726 245.498 C 224.111 245.498,224.454 245.246,224.545 244.895 C 224.632 244.563,224.974 244.221,225.306 244.135 C 225.657 244.043,225.908 243.701,225.908 243.316 C 225.908 242.865,226.110 242.654,226.540 242.654 C 227.032 242.654,227.172 242.443,227.172 241.706 C 227.172 240.332,225.943 240.397,224.852 241.828 M192.417 248.499 C 192.417 249.062,192.588 249.289,193.012 249.289 C 193.341 249.289,193.681 249.571,193.772 249.921 C 193.863 250.269,194.148 250.553,194.404 250.553 C 194.661 250.553,194.945 250.837,195.036 251.185 C 195.127 251.532,195.428 251.817,195.705 251.817 C 195.998 251.817,196.209 252.081,196.209 252.449 C 196.209 252.985,196.419 253.081,197.604 253.081 C 200.157 253.081,200.599 252.300,198.619 251.288 C 197.032 250.478,194.177 248.557,193.902 248.116 C 193.437 247.368,192.417 247.631,192.417 248.499 " stroke="none" fill="#848484" fill-rule="evenodd"></path><path id="path3" d="M191.627 48.963 C 192.148 49.101,192.389 49.231,192.161 49.252 C 191.934 49.272,191.825 49.414,191.919 49.567 C 192.117 49.887,191.056 50.132,188.204 50.424 C 186.842 50.564,186.112 50.516,185.964 50.276 C 185.843 50.081,185.238 49.921,184.619 49.921 C 183.630 49.921,183.543 49.981,183.906 50.419 C 184.620 51.279,183.669 51.530,180.570 51.301 C 177.903 51.104,177.756 51.125,178.180 51.636 C 178.783 52.362,176.943 53.388,175.024 53.395 C 174.754 53.396,174.393 53.538,174.220 53.711 C 173.832 54.098,172.718 54.155,171.206 53.863 C 170.108 53.651,170.065 53.676,170.210 54.435 C 170.382 55.336,168.686 56.016,167.994 55.324 C 167.803 55.133,167.355 54.988,166.998 55.001 C 166.642 55.015,166.528 55.098,166.746 55.186 C 167.906 55.654,167.126 56.556,165.561 56.556 C 164.238 56.556,163.981 56.650,163.981 57.137 C 163.981 57.709,162.812 58.452,161.912 58.452 C 161.660 58.452,161.453 58.571,161.453 58.717 C 161.453 59.060,160.014 59.716,159.261 59.716 C 158.940 59.716,158.604 59.908,158.513 60.143 C 158.244 60.845,155.819 61.953,155.001 61.747 C 154.356 61.585,154.283 61.658,154.413 62.336 C 154.535 62.974,154.390 63.169,153.583 63.450 C 153.046 63.637,152.607 63.956,152.607 64.158 C 152.607 64.388,152.249 64.474,151.655 64.387 C 150.847 64.268,150.730 64.335,150.886 64.825 C 151.023 65.258,150.905 65.403,150.416 65.403 C 150.057 65.403,149.763 65.261,149.763 65.087 C 149.763 64.913,149.905 64.771,150.079 64.771 C 150.253 64.771,150.395 64.629,150.395 64.455 C 150.395 64.281,150.276 64.139,150.130 64.139 C 149.787 64.139,149.131 65.578,149.131 66.328 C 149.131 66.647,148.598 67.310,147.946 67.802 C 146.461 68.923,141.351 74.038,140.173 75.582 C 139.687 76.219,138.981 76.784,138.603 76.838 C 138.101 76.910,137.935 77.129,137.990 77.647 C 138.045 78.170,137.900 78.357,137.437 78.357 C 137.092 78.357,136.809 78.191,136.809 77.988 C 136.809 77.786,136.728 77.701,136.629 77.800 C 136.530 77.899,136.630 78.270,136.852 78.625 C 137.193 79.171,137.165 79.369,136.665 79.921 C 136.340 80.280,135.913 80.892,135.715 81.282 C 135.506 81.694,135.077 81.981,134.689 81.969 C 134.103 81.949,134.045 82.078,134.201 83.042 C 134.371 84.088,134.342 84.129,133.540 83.976 C 132.741 83.823,132.701 83.878,132.701 85.132 C 132.701 85.884,132.373 87.118,131.936 88.011 C 131.515 88.870,130.947 90.123,130.673 90.795 C 130.277 91.766,130.045 91.983,129.543 91.852 C 129.131 91.744,128.910 91.842,128.910 92.131 C 128.910 92.375,128.705 92.575,128.455 92.575 C 128.204 92.575,127.912 92.717,127.805 92.890 C 127.676 93.098,127.884 93.101,128.418 92.898 C 129.187 92.606,129.226 92.643,129.226 93.666 C 129.226 94.915,128.355 96.047,127.921 95.363 C 127.561 94.794,127.555 96.075,127.913 97.057 C 128.296 98.104,127.769 99.760,126.973 100.013 C 126.388 100.199,126.334 100.382,126.520 101.534 C 126.929 104.062,126.545 106.161,125.672 106.161 C 125.089 106.161,125.059 106.313,125.237 108.294 C 125.342 109.467,125.425 110.569,125.422 110.742 C 125.115 125.295,125.219 133.017,125.722 133.017 C 126.341 133.017,127.054 136.322,126.654 137.338 C 126.188 138.521,126.354 139.917,126.986 140.117 C 127.785 140.371,128.484 143.101,127.987 144.029 C 127.575 144.798,127.514 146.353,127.921 145.711 C 128.598 144.644,129.195 146.199,129.024 148.582 C 128.913 150.122,128.960 150.725,129.169 150.428 C 129.951 149.313,130.474 150.304,130.269 152.514 C 130.083 154.528,130.104 154.632,130.620 154.207 C 131.425 153.543,131.735 154.238,131.528 156.242 C 131.367 157.807,131.392 157.877,132.109 157.849 C 132.826 157.821,132.856 157.902,132.774 159.681 C 132.696 161.370,132.735 161.503,133.203 161.115 C 133.643 160.749,133.781 160.774,134.157 161.289 C 134.663 161.981,134.751 163.665,134.281 163.665 C 134.107 163.665,133.965 163.794,133.965 163.951 C 133.965 164.109,134.237 164.167,134.570 164.080 C 135.298 163.889,135.907 164.844,135.660 165.789 C 135.459 166.554,134.394 166.424,134.177 165.607 C 134.062 165.174,134.032 165.185,134.002 165.669 C 133.981 166.006,134.232 166.322,134.597 166.417 C 134.945 166.508,135.229 166.759,135.229 166.976 C 135.229 167.229,135.522 167.313,136.055 167.211 L 136.881 167.053 136.704 169.072 C 136.606 170.182,136.600 170.841,136.691 170.537 C 136.931 169.728,138.073 169.821,138.073 170.650 C 138.073 171.105,137.926 171.259,137.609 171.138 C 137.354 171.040,137.059 171.099,136.953 171.270 C 136.848 171.440,136.879 171.559,137.022 171.534 C 137.735 171.411,138.073 171.623,138.073 172.196 C 138.073 172.605,138.283 172.828,138.670 172.828 C 139.060 172.828,139.446 173.241,139.778 174.013 C 140.058 174.664,140.422 175.411,140.587 175.671 C 141.842 177.658,142.073 179.416,141.026 179.014 C 140.770 178.916,140.653 178.976,140.761 179.151 C 140.867 179.322,141.158 179.463,141.409 179.463 C 141.659 179.463,141.864 179.734,141.864 180.065 C 141.864 180.512,142.027 180.625,142.496 180.502 C 142.981 180.375,143.128 180.493,143.128 181.006 C 143.128 181.756,142.808 181.861,142.243 181.295 C 141.948 181.001,141.864 181.007,141.864 181.325 C 141.864 181.550,142.148 181.808,142.496 181.899 C 142.844 181.990,143.128 182.312,143.128 182.615 C 143.128 183.035,143.319 183.130,143.928 183.014 C 144.699 182.866,144.721 182.905,144.527 184.113 C 144.341 185.279,144.378 185.363,145.070 185.337 C 145.723 185.312,145.810 185.446,145.782 186.440 C 145.754 187.458,145.824 187.558,146.479 187.433 C 147.068 187.320,147.247 187.465,147.422 188.197 C 147.541 188.693,147.742 189.242,147.868 189.415 C 148.256 189.951,148.109 190.789,147.657 190.615 C 147.425 190.526,147.235 190.611,147.235 190.803 C 147.235 190.996,147.449 191.153,147.709 191.153 C 147.970 191.153,148.183 191.342,148.183 191.573 C 148.183 191.806,148.501 191.982,148.894 191.968 C 149.438 191.949,149.628 192.142,149.703 192.787 C 149.815 193.758,148.653 193.751,148.395 192.780 C 148.280 192.346,148.250 192.357,148.220 192.842 C 148.199 193.178,148.450 193.494,148.815 193.589 C 149.163 193.680,149.447 193.860,149.447 193.990 C 149.447 194.119,149.803 194.157,150.237 194.074 C 150.916 193.944,151.056 194.062,151.225 194.908 C 151.336 195.466,151.620 195.893,151.879 195.893 C 152.159 195.893,152.314 196.167,152.278 196.603 C 152.177 197.848,152.275 198.058,153.002 198.161 C 153.611 198.248,153.702 198.433,153.641 199.461 C 153.599 200.175,153.695 200.583,153.878 200.469 C 154.048 200.364,154.186 200.429,154.186 200.613 C 154.186 200.797,154.021 200.948,153.818 200.948 C 153.615 200.948,153.541 201.039,153.652 201.151 C 153.764 201.263,154.072 201.174,154.337 200.954 C 154.749 200.612,154.818 200.682,154.818 201.436 C 154.818 201.920,154.908 202.227,155.018 202.117 C 155.623 201.512,156.418 202.604,156.275 203.845 C 156.153 204.915,156.229 205.153,156.737 205.286 C 157.072 205.373,157.346 205.571,157.346 205.724 C 157.346 205.878,157.685 206.003,158.099 206.003 C 158.869 206.003,159.487 207.394,158.883 207.767 C 158.377 208.080,158.604 208.904,159.242 209.071 C 159.589 209.162,159.874 209.342,159.874 209.472 C 159.874 209.601,160.211 209.643,160.622 209.564 C 161.232 209.447,161.435 209.602,161.712 210.398 C 161.899 210.935,162.220 211.374,162.425 211.374 C 162.684 211.374,162.736 211.765,162.595 212.646 C 162.378 214.000,163.100 214.804,163.692 213.869 C 163.902 213.538,163.973 213.605,163.976 214.139 C 163.980 214.641,164.169 214.850,164.621 214.850 C 165.005 214.850,165.375 215.152,165.548 215.607 C 165.706 216.023,166.005 216.420,166.212 216.489 C 166.419 216.558,166.588 216.999,166.588 217.470 C 166.588 217.940,166.748 218.328,166.943 218.330 C 167.147 218.333,167.113 218.452,166.863 218.611 C 166.353 218.934,166.658 219.589,167.317 219.589 C 167.568 219.589,167.773 219.707,167.773 219.851 C 167.773 219.995,168.074 220.102,168.442 220.088 C 168.810 220.074,169.272 220.335,169.469 220.667 C 169.816 221.254,170.445 222.033,171.451 223.120 C 171.796 223.493,171.876 223.942,171.722 224.643 C 171.538 225.482,171.606 225.663,172.166 225.809 C 172.530 225.904,172.828 226.088,172.828 226.217 C 172.828 226.347,173.148 226.397,173.539 226.329 C 174.097 226.232,174.453 226.517,175.197 227.658 C 175.719 228.457,176.394 229.248,176.698 229.416 C 177.002 229.584,177.251 229.923,177.251 230.169 C 177.251 230.415,177.468 230.737,177.732 230.886 C 178.012 231.042,178.232 231.643,178.257 232.319 C 178.295 233.321,178.369 233.429,178.783 233.093 C 179.187 232.765,179.232 232.791,179.058 233.254 C 178.944 233.558,178.979 233.807,179.136 233.807 C 179.292 233.807,179.511 234.092,179.621 234.439 C 179.731 234.787,180.025 235.071,180.274 235.071 C 180.523 235.071,180.727 235.200,180.727 235.357 C 180.727 235.515,180.987 235.576,181.306 235.492 C 181.699 235.390,182.211 235.729,182.900 236.549 C 183.458 237.213,184.406 238.292,185.006 238.947 C 185.607 239.601,186.098 240.338,186.098 240.584 C 186.098 240.830,186.367 241.117,186.696 241.221 C 187.025 241.326,187.367 241.691,187.456 242.033 C 187.545 242.374,187.845 242.654,188.122 242.654 C 188.415 242.654,188.626 242.918,188.626 243.286 C 188.626 243.654,188.836 243.918,189.129 243.918 C 189.406 243.918,189.707 244.202,189.798 244.550 C 189.889 244.899,190.229 245.182,190.558 245.182 C 191.235 245.182,191.397 246.292,190.758 246.556 C 190.541 246.645,190.846 246.635,191.436 246.533 C 192.448 246.359,192.501 246.394,192.357 247.143 C 192.229 247.813,192.305 247.913,192.832 247.775 C 193.178 247.684,193.615 247.813,193.807 248.063 C 194.194 248.566,197.092 250.508,198.619 251.288 C 199.622 251.801,200.277 252.765,199.621 252.765 C 199.424 252.765,199.354 252.856,199.466 252.968 C 199.577 253.079,199.883 252.993,200.145 252.776 C 200.527 252.458,201.169 252.482,203.413 252.894 C 210.278 254.156,218.806 249.754,224.852 241.828 C 225.376 241.140,225.936 240.758,226.420 240.758 C 226.834 240.758,227.172 240.616,227.172 240.442 C 227.172 240.269,227.457 240.126,227.804 240.126 C 228.225 240.126,228.436 239.916,228.436 239.494 C 228.436 238.929,228.764 238.715,229.463 238.825 C 229.593 238.846,229.683 238.756,229.662 238.626 C 229.460 237.345,229.755 236.335,230.332 236.335 C 230.795 236.335,230.964 236.124,230.964 235.545 C 230.964 235.054,231.143 234.755,231.438 234.755 C 231.698 234.755,231.912 234.478,231.912 234.139 C 231.912 233.800,232.097 233.409,232.323 233.270 C 232.549 233.131,233.213 232.413,233.798 231.675 C 234.504 230.782,235.108 230.332,235.598 230.332 C 236.042 230.332,236.335 230.144,236.335 229.858 C 236.335 229.597,236.609 229.384,236.944 229.384 C 237.444 229.384,237.530 229.205,237.426 228.381 C 237.333 227.645,237.465 227.262,237.923 226.941 C 238.266 226.701,238.547 226.295,238.547 226.039 C 238.547 225.782,238.760 225.491,239.021 225.391 C 239.281 225.291,239.494 225.006,239.494 224.759 C 239.494 224.295,240.732 223.662,241.153 223.910 C 241.284 223.987,241.390 223.916,241.390 223.752 C 241.390 223.588,241.675 223.380,242.022 223.289 C 242.524 223.158,242.654 222.858,242.654 221.831 C 242.654 221.119,242.801 220.537,242.980 220.537 C 243.160 220.537,243.408 220.288,243.533 219.984 C 244.058 218.704,245.380 217.069,245.893 217.066 C 246.271 217.063,246.445 216.812,246.445 216.272 C 246.445 215.780,246.625 215.482,246.919 215.482 C 247.180 215.482,247.411 215.340,247.433 215.166 C 247.515 214.511,247.591 214.346,248.351 213.179 C 248.948 212.262,249.298 212.011,249.842 212.108 C 250.233 212.178,250.553 212.129,250.553 211.999 C 250.553 211.870,250.837 211.690,251.185 211.599 C 251.534 211.507,251.812 211.173,251.807 210.851 C 251.798 210.304,251.778 210.302,251.475 210.821 C 251.043 211.564,250.553 211.522,250.553 210.742 C 250.553 210.395,250.672 210.111,250.818 210.111 C 250.964 210.111,251.252 209.740,251.459 209.286 C 251.731 208.689,252.006 208.507,252.458 208.625 C 252.840 208.725,253.081 208.630,253.081 208.380 C 253.081 208.156,253.365 207.898,253.712 207.807 C 254.060 207.716,254.344 207.416,254.344 207.139 C 254.344 206.862,254.549 206.635,254.800 206.635 C 255.050 206.635,255.343 206.493,255.450 206.320 C 255.579 206.111,255.366 206.111,254.815 206.320 C 254.035 206.617,253.992 206.584,254.086 205.766 C 254.164 205.096,254.349 204.903,254.897 204.922 C 255.385 204.940,255.608 204.766,255.608 204.369 C 255.608 204.002,255.838 203.791,256.240 203.791 C 256.778 203.791,256.872 203.581,256.872 202.370 C 256.872 201.159,256.966 200.948,257.504 200.948 C 257.855 200.948,258.136 200.737,258.136 200.474 C 258.136 200.040,258.522 199.855,259.188 199.971 C 259.332 199.996,259.424 199.551,259.393 198.981 C 259.279 196.918,259.342 196.756,260.190 196.918 C 260.719 197.019,260.979 196.927,260.979 196.639 C 260.979 196.402,261.178 196.209,261.420 196.209 C 262.060 196.209,262.294 195.333,261.846 194.615 C 261.344 193.812,261.892 192.880,262.845 192.917 C 263.430 192.939,263.510 192.790,263.435 191.811 C 263.359 190.804,263.428 190.688,264.060 190.755 C 264.676 190.820,264.771 190.682,264.771 189.728 C 264.771 189.122,264.922 188.626,265.106 188.626 C 265.290 188.626,265.352 188.768,265.245 188.942 C 265.137 189.115,265.262 189.258,265.521 189.258 C 265.858 189.258,265.950 189.020,265.842 188.427 C 265.645 187.337,265.637 187.266,265.681 186.846 C 265.733 186.348,266.916 186.085,267.117 186.526 C 267.207 186.725,267.252 186.348,267.217 185.687 C 267.151 184.432,267.841 183.556,268.312 184.298 C 268.466 184.539,268.554 184.432,268.558 184.002 C 268.560 183.596,268.814 183.262,269.194 183.163 C 269.544 183.071,269.822 182.737,269.817 182.415 C 269.808 181.868,269.787 181.866,269.485 182.385 C 269.106 183.035,268.562 183.117,268.562 182.524 C 268.562 181.968,269.742 179.552,270.131 179.312 C 270.302 179.206,270.592 178.558,270.778 177.870 C 270.963 177.182,271.251 176.619,271.418 176.619 C 271.585 176.619,271.722 176.413,271.722 176.160 C 271.722 175.355,272.440 174.092,272.897 174.092 C 273.140 174.092,273.246 173.941,273.132 173.757 C 272.685 173.033,273.669 171.500,274.482 171.655 C 275.225 171.798,275.240 171.761,275.039 170.295 C 274.819 168.698,275.190 168.059,275.963 168.700 C 276.292 168.974,276.418 168.878,276.535 168.263 C 276.618 167.830,276.564 167.551,276.416 167.643 C 276.267 167.735,276.145 167.287,276.145 166.648 C 276.145 165.577,276.207 165.499,276.943 165.640 C 277.641 165.773,277.712 165.708,277.512 165.124 C 276.943 163.460,277.590 161.949,278.535 162.733 C 279.010 163.128,279.045 163.001,278.943 161.282 C 278.836 159.484,278.864 159.401,279.565 159.427 C 280.175 159.450,280.262 159.343,280.076 158.795 C 279.495 157.076,280.477 154.619,281.256 155.845 C 281.423 156.108,281.509 156.002,281.512 155.529 C 281.515 155.123,281.712 154.818,281.972 154.818 C 282.222 154.818,282.502 154.697,282.594 154.548 C 282.686 154.399,282.410 154.345,281.981 154.427 C 281.290 154.559,281.201 154.466,281.201 153.617 C 281.201 151.920,282.088 150.917,282.584 152.054 C 282.679 152.271,282.751 151.524,282.744 150.395 C 282.726 147.535,282.706 147.617,283.451 147.381 C 284.037 147.195,284.098 147.001,283.937 145.826 C 283.650 143.735,284.001 142.180,284.758 142.180 C 285.335 142.180,285.371 142.040,285.176 140.570 C 284.770 137.512,286.029 134.277,286.670 136.730 C 286.750 137.034,286.831 136.602,286.851 135.771 C 286.871 134.939,286.687 133.944,286.441 133.559 C 286.012 132.888,286.118 131.060,286.743 128.335 C 286.951 127.428,287.587 127.587,287.874 128.617 C 287.992 129.039,288.094 124.834,288.100 119.273 C 288.107 112.944,288.005 109.429,287.826 109.874 C 287.460 110.785,286.944 110.785,286.744 109.874 C 286.031 106.615,285.954 105.398,286.414 104.694 C 286.675 104.297,286.871 103.434,286.851 102.776 C 286.831 102.118,286.750 101.829,286.670 102.133 C 286.108 104.282,284.786 101.713,285.182 99.241 C 285.366 98.086,285.320 97.946,284.753 97.946 C 283.992 97.946,283.727 97.137,283.949 95.486 C 284.093 94.414,284.018 94.244,283.245 93.892 C 282.425 93.518,282.388 93.411,282.552 91.852 C 282.647 90.946,282.654 90.382,282.569 90.598 C 282.120 91.731,281.166 90.340,281.365 88.843 C 281.476 88.004,281.445 87.526,281.294 87.740 C 280.788 88.455,280.101 87.628,280.205 86.429 C 280.292 85.419,280.228 85.315,279.566 85.386 C 278.907 85.458,278.835 85.343,278.868 84.273 C 278.900 83.241,278.824 83.106,278.308 83.270 C 277.844 83.417,277.608 83.209,277.241 82.330 C 276.981 81.709,276.628 81.201,276.457 81.201 C 276.286 81.201,276.145 80.916,276.145 80.569 C 276.145 80.221,276.283 79.937,276.451 79.937 C 276.620 79.937,276.684 79.745,276.594 79.510 C 276.501 79.269,276.127 79.138,275.735 79.209 C 275.062 79.331,274.658 78.887,273.464 76.713 C 273.292 76.401,272.972 76.145,272.753 76.145 C 272.234 76.145,272.230 74.885,272.749 74.872 C 272.974 74.866,272.912 74.727,272.604 74.548 C 272.298 74.369,272.144 74.026,272.248 73.754 C 272.349 73.491,272.307 73.305,272.156 73.341 C 270.575 73.712,266.550 70.252,266.229 68.246 C 266.019 66.932,265.630 66.650,264.360 66.893 C 263.768 67.006,263.456 66.902,263.319 66.545 C 263.212 66.264,262.870 66.035,262.559 66.035 C 262.249 66.035,261.918 65.834,261.823 65.588 C 261.729 65.342,261.252 64.946,260.763 64.708 C 260.160 64.415,259.882 64.046,259.900 63.562 C 259.923 62.944,259.810 62.874,259.058 63.039 C 258.499 63.162,258.095 63.080,257.925 62.809 C 257.780 62.577,257.255 62.209,256.759 61.991 C 256.097 61.700,255.898 61.431,256.015 60.984 C 256.153 60.456,256.019 60.383,255.022 60.440 C 254.045 60.496,253.855 60.398,253.770 59.795 C 253.684 59.195,253.474 59.084,252.427 59.084 C 251.395 59.084,251.185 58.977,251.185 58.452 C 251.185 57.925,250.974 57.820,249.921 57.820 C 248.885 57.820,248.657 57.711,248.657 57.212 C 248.657 56.696,248.447 56.612,247.261 56.658 C 245.618 56.722,245.220 56.441,245.749 55.594 C 246.068 55.084,246.052 54.976,245.658 54.976 C 245.396 54.976,245.182 55.118,245.182 55.292 C 245.182 55.647,244.136 55.700,243.021 55.402 C 242.449 55.249,242.314 55.035,242.424 54.458 C 242.580 53.643,241.821 53.408,241.161 54.068 C 240.678 54.551,238.566 54.132,238.326 53.505 C 238.223 53.237,238.337 52.877,238.580 52.707 C 238.877 52.498,238.294 52.450,236.790 52.558 C 234.257 52.739,233.446 52.475,234.103 51.683 C 234.613 51.068,233.061 50.963,231.822 51.527 C 231.279 51.775,230.705 51.771,229.753 51.515 C 228.474 51.171,228.018 50.477,228.831 50.113 C 229.048 50.015,228.373 50.009,227.330 50.098 C 223.315 50.442,220.013 50.198,220.392 49.585 C 220.492 49.422,220.388 49.272,220.161 49.252 C 219.933 49.231,220.174 49.101,220.695 48.963 C 221.258 48.814,219.973 48.749,217.536 48.802 C 211.760 48.929,198.978 48.935,194.471 48.813 C 192.205 48.752,191.061 48.812,191.627 48.963 M211.848 50.242 C 267.761 53.283,296.229 90.864,282.757 143.850 C 278.363 161.133,271.994 175.081,258.392 197.210 C 250.230 210.489,228.246 238.074,219.322 246.234 C 212.192 252.753,204.550 253.904,197.442 249.530 C 191.005 245.568,171.268 222.704,159.558 205.642 C 118.118 145.266,115.060 94.395,151.185 66.349 C 163.967 56.426,181.990 50.935,204.897 49.986 C 205.592 49.957,208.720 50.072,211.848 50.242 M195.893 82.485 C 178.986 84.806,167.137 91.943,161.476 103.214 C 151.515 123.046,163.278 158.558,192.264 196.164 C 193.651 197.965,195.000 199.744,195.261 200.119 C 199.377 206.030,203.791 209.883,203.791 207.564 C 203.791 207.206,203.685 206.977,203.555 207.053 C 202.977 207.393,201.826 206.619,201.988 206.000 C 202.095 205.592,201.996 205.371,201.708 205.371 C 201.464 205.371,201.264 205.178,201.264 204.941 C 201.264 204.671,200.999 204.555,200.553 204.628 C 199.730 204.763,198.275 202.800,198.516 201.880 C 198.620 201.483,198.502 201.384,198.064 201.499 C 197.558 201.631,197.472 201.469,197.472 200.374 C 197.472 199.372,197.335 199.051,196.840 198.894 C 196.493 198.784,196.209 198.561,196.209 198.399 C 196.209 198.237,195.880 198.104,195.478 198.104 C 194.641 198.104,193.365 196.585,193.365 195.589 C 193.365 195.194,193.151 194.936,192.812 194.923 C 191.921 194.887,188.747 190.294,188.460 188.626 C 188.326 187.844,188.155 187.380,188.080 187.596 C 187.863 188.217,186.730 187.456,186.730 186.689 C 186.730 186.329,186.476 185.973,186.161 185.890 C 185.548 185.730,185.191 185.245,183.846 182.743 C 183.346 181.814,183.047 180.855,183.142 180.491 C 183.283 179.951,183.185 179.880,182.491 180.012 C 181.781 180.148,181.648 180.039,181.477 179.184 C 181.368 178.642,181.108 178.199,180.899 178.199 C 180.689 178.199,180.317 177.808,180.071 177.330 C 179.825 176.852,179.240 175.917,178.770 175.252 C 178.300 174.586,177.755 173.555,177.559 172.961 C 177.363 172.366,177.083 171.880,176.938 171.880 C 176.275 171.880,175.030 168.933,175.216 167.803 C 175.342 167.034,175.305 166.807,175.100 167.099 C 174.526 167.920,170.534 161.722,171.074 160.848 C 171.163 160.703,170.883 160.204,170.452 159.739 C 169.644 158.867,169.430 157.846,169.984 157.504 C 170.583 157.134,170.298 156.802,169.510 156.953 C 169.033 157.044,168.720 156.958,168.720 156.736 C 168.720 156.533,168.436 155.779,168.088 155.060 C 167.741 154.340,167.457 153.367,167.457 152.897 C 167.457 152.427,167.248 151.962,166.993 151.864 C 166.244 151.577,165.453 149.395,165.858 148.736 C 166.136 148.284,166.088 148.183,165.598 148.183 C 164.993 148.183,164.413 146.866,164.766 146.295 C 164.862 146.141,164.574 145.477,164.128 144.819 C 163.649 144.114,163.352 143.281,163.403 142.791 C 163.451 142.331,163.253 141.723,162.958 141.428 C 162.370 140.840,161.907 138.933,162.226 138.416 C 162.338 138.235,162.136 137.689,161.777 137.203 C 161.414 136.712,161.035 135.567,160.924 134.623 L 160.722 132.925 161.552 133.083 C 162.009 133.171,162.307 133.120,162.215 132.972 C 162.123 132.823,161.789 132.701,161.473 132.701 C 160.005 132.701,159.872 131.681,159.834 120.104 C 159.803 110.568,159.979 108.936,160.887 110.364 C 161.038 110.602,161.130 110.479,161.133 110.032 C 161.135 109.641,160.995 109.321,160.821 109.321 C 160.026 109.321,160.989 106.325,161.970 105.750 C 162.207 105.612,162.401 105.221,162.401 104.882 C 162.401 104.543,162.615 104.265,162.875 104.265 C 163.326 104.265,163.504 103.732,163.403 102.686 C 163.300 101.616,163.692 100.830,164.377 100.733 C 164.865 100.663,165.056 100.451,164.988 100.054 C 164.792 98.905,170.656 92.579,171.919 92.576 C 172.201 92.576,173.054 91.996,173.815 91.289 C 175.422 89.794,178.088 88.390,178.856 88.633 C 179.159 88.730,179.465 88.602,179.567 88.336 C 179.837 87.631,181.644 86.812,182.469 87.019 C 183.310 87.230,183.227 88.340,182.353 88.572 C 181.920 88.687,181.930 88.716,182.415 88.747 C 182.751 88.768,183.067 88.516,183.163 88.152 C 183.259 87.785,183.594 87.520,183.962 87.520 C 184.497 87.520,184.533 87.444,184.191 87.032 C 183.565 86.278,185.359 85.308,187.383 85.308 C 187.864 85.308,188.313 85.141,188.380 84.938 C 188.453 84.721,189.304 84.535,190.435 84.489 C 191.497 84.445,192.632 84.267,192.958 84.093 C 193.925 83.575,198.483 83.068,201.801 83.108 C 206.107 83.161,206.058 83.161,207.662 83.095 C 212.046 82.915,216.746 83.520,216.746 84.266 C 216.746 84.683,217.092 84.736,218.951 84.603 C 221.769 84.402,222.749 84.586,222.749 85.319 C 222.749 85.631,222.571 85.959,222.354 86.047 C 221.606 86.348,224.288 86.256,225.086 85.952 C 226.000 85.605,227.802 86.089,228.223 86.795 C 228.382 87.063,228.730 87.153,229.121 87.029 C 230.290 86.658,234.505 88.499,234.351 89.313 C 234.232 89.934,234.344 89.994,235.514 89.944 C 236.669 89.895,236.806 89.966,236.784 90.600 C 236.762 91.220,236.916 91.311,237.990 91.311 C 239.077 91.311,239.198 91.385,239.021 91.943 C 238.864 92.436,238.964 92.575,239.473 92.575 C 239.832 92.575,240.126 92.717,240.126 92.891 C 240.126 93.065,240.420 93.207,240.779 93.207 C 241.769 93.207,242.654 93.792,242.654 94.445 C 242.654 94.766,242.929 95.101,243.265 95.189 C 243.664 95.293,243.949 95.737,244.086 96.467 C 244.272 97.461,244.428 97.608,245.486 97.786 C 246.725 97.996,248.341 99.855,248.341 101.071 C 248.341 101.368,248.519 101.811,248.736 102.054 C 249.072 102.431,249.049 102.435,248.578 102.079 C 248.104 101.720,248.025 101.737,248.025 102.203 C 248.025 102.501,248.310 102.819,248.657 102.910 C 249.078 103.020,249.297 103.354,249.314 103.907 C 249.328 104.365,249.406 104.577,249.487 104.378 C 249.569 104.179,249.901 104.086,250.225 104.171 C 250.857 104.336,251.345 105.647,250.988 106.224 C 250.869 106.416,251.029 106.761,251.344 106.991 C 251.787 107.315,251.902 107.790,251.859 109.118 C 251.820 110.312,251.933 110.878,252.234 110.993 C 252.647 111.151,253.219 113.935,253.514 117.220 C 253.727 119.594,253.061 126.481,252.563 127.048 C 252.318 127.326,252.208 127.791,252.319 128.079 C 252.601 128.815,252.164 131.988,251.715 132.465 C 251.510 132.682,251.323 133.499,251.298 134.281 C 251.235 136.281,250.626 138.332,249.916 138.941 C 249.476 139.317,249.402 139.566,249.645 139.859 C 249.879 140.141,249.871 140.584,249.618 141.350 C 249.241 142.492,248.503 143.043,248.211 142.399 C 248.117 142.192,248.072 142.916,248.112 144.008 C 248.184 146.005,247.613 147.138,247.012 146.192 C 246.879 145.984,246.769 146.773,246.766 147.946 C 246.762 149.867,246.699 150.079,246.130 150.079 C 245.592 150.079,245.498 150.290,245.498 151.490 C 245.498 152.555,245.350 152.979,244.894 153.223 C 244.510 153.429,244.348 153.765,244.449 154.150 C 244.643 154.893,244.045 156.082,243.477 156.082 C 243.222 156.082,243.098 156.362,243.160 156.793 C 243.326 157.950,240.424 163.487,239.589 163.606 C 239.007 163.689,238.938 163.822,239.166 164.422 C 239.525 165.366,239.099 166.012,238.264 165.794 C 237.654 165.634,237.616 165.717,237.793 166.824 C 237.962 167.879,237.884 168.094,237.160 168.568 C 236.652 168.901,236.335 169.399,236.335 169.863 C 236.335 170.277,236.211 170.616,236.058 170.616 C 235.906 170.616,235.694 171.056,235.587 171.593 C 235.464 172.204,235.154 172.632,234.757 172.736 C 234.353 172.841,234.123 173.166,234.123 173.632 C 234.123 174.034,233.910 174.576,233.649 174.836 C 233.389 175.097,233.175 175.389,233.175 175.485 C 233.175 175.955,230.939 179.041,230.336 179.403 C 229.957 179.631,229.719 180.005,229.807 180.234 C 230.024 180.801,228.596 182.845,227.808 183.095 C 227.373 183.233,227.172 183.573,227.172 184.168 C 227.172 184.695,226.852 185.341,226.362 185.801 C 225.916 186.220,225.341 187.006,225.083 187.549 C 224.826 188.092,224.225 188.947,223.747 189.449 C 223.270 189.952,222.409 191.110,221.833 192.022 C 221.171 193.072,220.567 193.681,220.188 193.681 C 219.767 193.681,219.589 193.905,219.589 194.437 C 219.589 194.853,219.376 195.275,219.115 195.375 C 218.855 195.475,218.641 195.696,218.641 195.867 C 218.641 196.795,213.213 203.611,212.375 203.734 C 211.895 203.805,211.690 204.058,211.690 204.579 C 211.690 205.513,209.263 207.683,208.454 207.471 C 208.068 207.370,207.899 207.509,207.899 207.928 C 207.899 208.364,208.123 208.531,208.708 208.531 C 210.276 208.531,212.036 206.519,221.959 193.387 C 251.406 154.414,261.790 118.818,249.176 100.084 C 240.172 86.713,218.128 79.432,195.893 82.485 M160.190 208.918 C 160.190 209.065,159.905 209.033,159.558 208.847 C 158.896 208.493,158.770 208.160,159.154 207.776 C 159.386 207.544,160.190 208.431,160.190 208.918 M204.107 208.300 C 204.107 208.564,204.321 208.861,204.581 208.961 C 204.842 209.061,205.055 209.023,205.055 208.876 C 205.055 208.728,204.842 208.431,204.581 208.215 C 204.196 207.895,204.107 207.911,204.107 208.300 M205.679 208.383 C 205.351 208.778,205.366 208.937,205.762 209.252 C 206.028 209.463,206.323 209.850,206.416 210.111 C 206.556 210.503,206.589 210.495,206.610 210.065 C 206.624 209.780,206.837 209.469,207.084 209.374 C 207.711 209.134,207.336 207.899,206.637 207.899 C 206.331 207.899,205.900 208.117,205.679 208.383 M234.755 232.942 C 234.755 233.218,234.506 233.510,234.202 233.589 C 233.684 233.725,233.685 233.736,234.212 233.771 C 234.783 233.808,235.313 232.996,234.952 232.635 C 234.844 232.527,234.755 232.665,234.755 232.942 M187.212 243.931 C 187.315 244.097,187.587 244.234,187.817 244.234 C 188.048 244.234,188.310 244.518,188.401 244.866 C 188.492 245.213,188.793 245.498,189.070 245.498 C 189.347 245.498,189.573 245.711,189.573 245.972 C 189.573 246.232,189.716 246.445,189.889 246.445 C 190.349 246.445,190.282 246.177,189.574 245.183 C 189.005 244.383,186.754 243.190,187.212 243.931 M223.065 245.896 C 223.065 246.173,222.816 246.464,222.512 246.544 C 221.994 246.679,221.994 246.690,222.522 246.725 C 223.093 246.762,223.622 245.950,223.262 245.589 C 223.153 245.481,223.065 245.619,223.065 245.896 " stroke="none" fill="#747474" fill-rule="evenodd"></path><path id="path4" d="M193.788 53.570 C 132.845 60.223,111.978 110.684,143.926 174.149 C 145.597 177.467,146.163 178.538,148.740 183.254 C 154.503 193.801,163.121 206.791,170.753 216.431 C 182.493 231.261,193.805 243.928,197.799 246.718 C 201.057 248.993,205.521 249.803,209.564 248.851 C 214.171 247.766,216.802 245.753,223.250 238.377 C 224.308 237.167,226.398 234.792,227.895 233.099 C 230.404 230.261,232.571 227.675,235.387 224.157 C 238.720 219.992,244.298 212.833,245.665 210.966 C 246.529 209.786,247.781 208.080,248.448 207.175 C 250.370 204.567,257.229 194.147,259.306 190.679 C 266.005 179.498,269.146 173.356,273.767 162.401 C 275.097 159.249,277.662 151.876,278.658 148.341 C 279.197 146.430,279.768 144.439,279.927 143.918 C 282.258 136.270,283.725 122.399,283.108 113.828 C 280.601 78.956,257.076 57.535,216.746 53.399 C 212.512 52.965,198.366 53.071,193.788 53.570 M216.528 79.761 C 241.341 83.621,255.321 95.832,257.197 115.283 C 258.683 130.693,250.378 155.625,236.712 176.777 C 232.966 182.576,231.577 184.636,229.079 188.095 C 227.596 190.149,225.956 192.437,225.434 193.179 C 224.913 193.921,224.105 195.013,223.640 195.605 C 223.174 196.198,221.539 198.332,220.006 200.347 C 210.955 212.251,210.696 212.475,206.003 212.465 C 202.776 212.459,201.169 211.655,198.862 208.894 C 196.583 206.166,196.310 205.829,194.862 203.949 C 194.192 203.081,192.621 201.046,191.372 199.428 C 185.487 191.809,181.569 186.225,176.143 177.725 C 141.105 122.840,150.547 84.091,200.158 79.175 C 202.795 78.913,213.557 79.299,216.528 79.761 " stroke="none" fill="#060606" fill-rule="evenodd"></path></g></svg>