<svg id="svg" version="1.1" xmlns="http://www.w3.org/2000/svg" xmlns:xlink="http://www.w3.org/1999/xlink" width="400" height="315.85760517799355" viewBox="0, 0, 400,315.85760517799355"><g id="svgg"><path id="path0" d="M206.161 90.250 C 205.640 90.310,202.938 90.592,200.158 90.877 C 197.195 91.181,194.122 91.696,192.733 92.121 C 191.430 92.521,189.510 93.023,188.468 93.238 C 187.425 93.452,185.623 94.173,184.463 94.839 C 183.303 95.505,182.266 96.051,182.159 96.051 C 181.480 96.051,177.883 98.058,177.113 98.867 C 176.603 99.403,176.019 99.842,175.817 99.842 C 175.363 99.842,170.932 104.138,170.932 104.578 C 170.932 104.753,170.442 105.438,169.843 106.101 C 169.244 106.764,168.360 108.222,167.879 109.341 C 167.397 110.459,166.821 111.562,166.599 111.791 C 166.376 112.021,166.129 112.518,166.050 112.897 C 165.971 113.276,165.672 114.581,165.384 115.798 C 165.097 117.014,164.680 119.218,164.457 120.695 C 164.234 122.172,163.948 123.835,163.822 124.390 C 163.424 126.144,165.297 139.607,166.385 142.812 C 166.978 144.561,167.266 145.549,167.950 148.183 C 168.521 150.387,169.390 152.698,170.341 154.545 C 170.666 155.177,170.932 155.874,170.932 156.095 C 170.932 156.532,172.154 159.347,173.149 161.200 C 173.494 161.843,173.776 162.579,173.776 162.836 C 173.776 163.094,173.958 163.492,174.181 163.722 C 174.404 163.951,174.979 164.992,175.459 166.035 C 175.939 167.077,176.524 168.286,176.760 168.720 C 176.995 169.155,177.565 170.292,178.027 171.248 C 179.699 174.713,180.263 175.719,180.806 176.214 C 181.110 176.491,181.359 177.042,181.359 177.439 C 181.359 177.837,181.493 178.245,181.658 178.347 C 182.128 178.638,183.801 181.221,184.049 182.040 C 184.172 182.447,184.596 183.136,184.992 183.570 C 185.387 184.005,185.926 184.787,186.189 185.308 C 186.453 185.829,187.122 186.825,187.676 187.520 C 188.229 188.215,188.882 189.260,189.125 189.841 C 189.368 190.423,189.898 191.159,190.302 191.477 C 190.706 191.795,191.304 192.648,191.630 193.372 C 191.957 194.096,192.658 195.150,193.189 195.714 C 193.720 196.278,194.553 197.366,195.039 198.133 C 195.526 198.899,196.379 200.120,196.935 200.845 C 197.491 201.571,198.302 202.681,198.736 203.312 C 199.171 203.943,200.059 205.032,200.711 205.731 C 201.363 206.430,201.896 207.132,201.896 207.289 C 201.896 207.447,202.601 208.395,203.464 209.396 C 204.326 210.397,205.535 211.801,206.149 212.515 C 206.764 213.229,207.267 213.956,207.267 214.130 C 207.267 214.688,210.376 217.378,211.021 217.378 C 211.880 217.378,213.380 216.046,214.320 214.449 C 214.753 213.714,215.582 212.666,216.163 212.121 C 216.744 211.575,217.615 210.580,218.097 209.909 C 220.587 206.449,221.428 205.334,222.502 204.069 C 223.148 203.308,224.570 201.515,225.661 200.084 C 227.513 197.658,228.400 196.390,230.118 193.715 C 230.496 193.126,231.161 192.254,231.596 191.777 C 232.030 191.301,232.812 190.077,233.333 189.058 C 233.855 188.039,234.519 186.967,234.810 186.675 C 235.101 186.384,235.511 185.815,235.721 185.411 C 235.930 185.007,236.709 183.752,237.452 182.622 C 238.194 181.493,239.265 179.716,239.831 178.673 C 240.397 177.630,241.121 176.438,241.441 176.024 C 241.761 175.609,242.022 175.083,242.022 174.855 C 242.022 174.626,242.451 173.803,242.976 173.026 C 243.501 172.249,244.138 171.114,244.393 170.504 C 244.648 169.894,244.985 169.316,245.142 169.219 C 245.299 169.122,245.524 168.657,245.642 168.186 C 245.761 167.715,246.329 166.525,246.907 165.540 C 247.484 164.555,248.060 163.411,248.188 162.997 C 248.316 162.582,248.986 161.106,249.676 159.716 C 250.366 158.325,251.051 156.761,251.199 156.240 C 251.346 155.719,251.910 154.084,252.452 152.607 C 252.994 151.130,253.564 149.423,253.718 148.815 C 253.872 148.207,254.340 146.714,254.758 145.498 C 255.177 144.281,255.691 142.291,255.902 141.074 C 256.112 139.858,256.552 137.583,256.879 136.019 C 257.504 133.030,258.282 124.979,257.991 124.508 C 257.898 124.357,257.685 122.833,257.518 121.121 C 257.351 119.410,257.073 117.441,256.901 116.746 C 256.728 116.051,256.438 114.786,256.257 113.936 C 256.075 113.085,255.771 112.202,255.580 111.972 C 255.107 111.402,253.419 107.978,253.406 107.564 C 253.395 107.163,250.741 104.115,248.438 101.856 C 246.574 100.028,242.537 97.127,240.758 96.339 C 240.324 96.146,239.400 95.731,238.705 95.416 C 236.185 94.274,234.718 93.790,230.016 92.555 C 229.234 92.350,227.939 91.990,227.139 91.755 C 223.260 90.618,210.784 89.723,206.161 90.250 " stroke="none" fill="#f9fa07" fill-rule="evenodd"></path><path id="path1" d="M205.055 60.376 C 187.348 61.899,178.700 64.091,167.457 69.907 C 141.181 83.500,130.205 108.736,135.887 142.496 C 136.223 144.494,136.581 146.343,136.682 146.603 C 136.784 146.864,137.270 148.712,137.764 150.711 C 140.164 160.431,145.344 173.371,151.487 184.992 C 156.182 193.874,157.831 196.653,162.918 204.265 C 168.435 212.520,169.216 213.626,174.081 220.063 C 180.205 228.165,180.314 228.305,182.303 230.626 C 183.261 231.744,185.039 233.889,186.256 235.393 C 188.782 238.517,195.070 245.641,197.918 248.606 C 207.702 258.791,216.902 257.583,227.642 244.702 C 228.508 243.662,230.229 241.675,231.466 240.284 C 232.702 238.894,235.588 235.482,237.878 232.701 C 240.169 229.921,242.500 227.096,243.059 226.423 C 244.128 225.137,245.571 223.230,248.165 219.675 C 249.023 218.498,250.333 216.754,251.076 215.798 C 252.949 213.388,253.435 212.733,254.830 210.742 C 264.103 197.513,274.330 178.942,278.665 167.457 C 279.223 165.979,279.897 164.273,280.163 163.665 C 281.810 159.907,284.504 150.461,285.615 144.550 C 285.974 142.638,286.399 140.577,286.558 139.968 C 287.484 136.447,287.705 120.798,286.900 115.798 C 284.371 100.087,279.948 90.986,270.001 81.022 C 255.598 66.598,229.431 58.279,205.055 60.376 M221.160 89.810 C 221.726 90.211,222.556 90.363,224.167 90.363 C 225.788 90.363,226.712 90.535,227.571 90.995 C 228.219 91.343,229.338 91.627,230.056 91.627 C 230.775 91.627,231.806 91.893,232.348 92.219 C 232.890 92.544,233.956 92.904,234.716 93.019 C 235.477 93.133,236.397 93.436,236.761 93.691 C 237.125 93.946,237.810 94.155,238.283 94.155 C 238.764 94.155,239.325 94.415,239.556 94.744 C 239.783 95.068,240.440 95.437,241.017 95.564 C 241.593 95.691,242.142 95.994,242.235 96.238 C 242.329 96.483,242.568 96.685,242.767 96.688 C 243.367 96.698,246.052 98.606,247.538 100.079 C 247.933 100.470,248.390 100.790,248.554 100.790 C 249.001 100.790,250.852 102.684,251.354 103.655 C 251.596 104.122,252.012 104.589,252.279 104.691 C 252.546 104.794,252.765 105.061,252.765 105.285 C 252.765 105.510,253.049 105.871,253.397 106.088 C 253.744 106.305,254.028 106.815,254.028 107.221 C 254.028 107.627,254.299 108.204,254.629 108.502 C 254.959 108.801,255.319 109.521,255.428 110.101 C 255.536 110.681,255.827 111.233,256.073 111.327 C 256.320 111.422,256.622 112.040,256.744 112.701 C 256.867 113.361,257.147 114.186,257.367 114.534 C 257.587 114.882,257.867 116.303,257.989 117.694 C 258.112 119.084,258.367 120.415,258.558 120.651 C 259.002 121.204,258.973 130.906,258.524 131.858 C 258.347 132.235,258.043 134.023,257.850 135.832 C 257.657 137.640,257.369 139.277,257.210 139.468 C 257.051 139.660,256.817 140.739,256.691 141.867 C 256.564 142.995,256.280 144.202,256.058 144.550 C 255.836 144.897,255.556 145.750,255.435 146.445 C 255.314 147.141,254.948 148.153,254.622 148.694 C 254.295 149.236,254.027 150.089,254.026 150.590 C 254.025 151.091,253.742 151.927,253.397 152.449 C 253.051 152.970,252.767 153.823,252.765 154.344 C 252.762 154.866,252.478 155.719,252.133 156.240 C 251.787 156.761,251.504 157.419,251.503 157.702 C 251.502 157.985,251.286 158.395,251.024 158.612 C 250.762 158.830,250.460 159.552,250.354 160.216 C 250.248 160.881,249.894 161.666,249.567 161.962 C 249.240 162.257,248.973 162.833,248.973 163.240 C 248.973 163.648,248.689 164.265,248.341 164.613 C 247.994 164.961,247.709 165.524,247.709 165.864 C 247.709 166.205,247.442 166.738,247.114 167.049 C 246.787 167.360,246.418 168.086,246.295 168.663 C 246.171 169.239,245.870 169.788,245.626 169.881 C 245.382 169.975,245.182 170.392,245.182 170.808 C 245.182 171.224,244.933 171.815,244.629 172.121 C 244.325 172.428,243.899 173.032,243.683 173.464 C 243.467 173.896,243.155 174.463,242.989 174.724 C 242.656 175.246,241.999 176.524,241.223 178.158 C 240.769 179.116,240.264 179.930,238.469 182.594 C 238.166 183.044,237.651 183.981,237.325 184.676 C 236.999 185.371,236.409 186.224,236.014 186.572 C 235.619 186.919,234.961 187.915,234.552 188.784 C 233.590 190.826,233.143 191.523,232.464 192.035 C 232.160 192.265,231.912 192.601,231.912 192.783 C 231.912 192.964,231.058 194.173,230.016 195.469 C 228.973 196.765,228.120 197.953,228.120 198.109 C 228.120 198.597,226.676 200.546,225.478 201.677 C 224.846 202.273,224.329 202.942,224.329 203.164 C 224.329 203.386,223.724 204.250,222.986 205.083 C 220.834 207.510,220.221 208.295,220.221 208.625 C 220.221 208.951,218.524 210.987,216.475 213.119 C 215.804 213.818,215.157 214.695,215.039 215.069 C 214.603 216.440,212.443 218.009,210.991 218.009 C 209.643 218.009,206.951 215.985,206.951 214.973 C 206.951 214.765,206.387 213.977,205.698 213.222 C 202.551 209.771,201.580 208.596,201.580 208.236 C 201.580 208.024,201.011 207.319,200.316 206.671 C 199.621 206.023,199.052 205.335,199.052 205.142 C 199.052 204.949,198.564 204.331,197.968 203.768 C 197.372 203.206,196.802 202.417,196.701 202.014 C 196.600 201.611,196.234 201.131,195.889 200.946 C 195.543 200.761,195.261 200.423,195.261 200.196 C 195.261 199.968,194.976 199.525,194.629 199.210 C 194.281 198.896,193.997 198.460,193.997 198.242 C 193.997 198.024,193.357 197.188,192.575 196.383 C 191.793 195.579,191.153 194.713,191.153 194.459 C 191.153 194.205,191.014 193.997,190.843 193.997 C 190.673 193.997,190.443 193.638,190.333 193.200 C 190.223 192.761,189.892 192.228,189.598 192.015 C 189.303 191.802,188.598 190.810,188.031 189.810 C 187.464 188.811,186.901 187.994,186.780 187.994 C 186.659 187.994,186.100 187.158,185.539 186.136 C 184.977 185.115,184.305 184.102,184.044 183.886 C 183.783 183.670,183.570 183.156,183.570 182.744 C 183.570 182.333,183.286 181.818,182.938 181.601 C 182.591 181.384,182.306 181.047,182.306 180.851 C 182.306 180.656,182.031 180.146,181.694 179.718 C 181.357 179.289,180.989 178.570,180.876 178.118 C 180.763 177.667,180.398 177.052,180.066 176.752 C 179.734 176.451,179.463 176.032,179.463 175.819 C 179.463 175.607,179.259 175.263,179.009 175.056 C 178.760 174.849,178.461 174.249,178.345 173.722 C 178.229 173.195,177.865 172.494,177.535 172.164 C 177.205 171.834,176.935 171.243,176.935 170.850 C 176.935 170.457,176.651 169.959,176.303 169.742 C 175.919 169.501,175.671 169.005,175.671 168.472 C 175.671 167.988,175.389 167.355,175.039 167.056 C 174.692 166.758,174.408 166.192,174.408 165.798 C 174.408 165.404,174.123 164.903,173.776 164.686 C 173.391 164.446,173.144 163.949,173.144 163.417 C 173.144 162.933,172.861 162.300,172.512 162.001 C 172.164 161.703,171.880 161.158,171.880 160.789 C 171.880 160.420,171.613 159.601,171.287 158.969 C 170.960 158.337,170.535 157.464,170.341 157.030 C 170.147 156.596,169.861 156.027,169.704 155.766 C 168.881 154.395,167.812 151.111,167.786 149.876 C 167.779 149.503,167.559 149.117,167.299 149.017 C 167.033 148.915,166.825 148.445,166.825 147.948 C 166.825 147.459,166.636 146.780,166.405 146.437 C 166.174 146.094,165.792 144.747,165.557 143.444 C 165.322 142.141,165.023 141.001,164.894 140.911 C 164.764 140.822,164.492 139.187,164.290 137.278 C 164.088 135.369,163.734 133.381,163.504 132.859 C 163.039 131.807,162.977 131.124,162.931 126.540 C 162.896 123.153,163.287 119.431,163.678 119.431 C 163.809 119.431,164.018 118.400,164.141 117.141 C 164.264 115.881,164.545 114.637,164.765 114.376 C 164.985 114.115,165.258 113.383,165.371 112.749 C 165.485 112.115,165.772 111.434,166.010 111.237 C 166.248 111.039,166.531 110.421,166.639 109.862 C 166.866 108.696,168.567 105.845,169.037 105.845 C 169.210 105.845,169.352 105.596,169.352 105.291 C 169.352 104.623,174.255 99.526,174.898 99.526 C 175.146 99.526,175.528 99.242,175.745 98.894 C 175.962 98.547,176.313 98.262,176.526 98.262 C 176.739 98.262,177.059 97.989,177.237 97.656 C 177.416 97.323,177.999 96.954,178.534 96.836 C 179.068 96.719,179.576 96.439,179.662 96.214 C 179.749 95.989,180.248 95.720,180.773 95.615 C 181.297 95.510,182.089 95.139,182.533 94.790 C 182.976 94.440,183.547 94.155,183.800 94.155 C 184.053 94.155,184.622 93.870,185.064 93.523 C 185.506 93.175,186.217 92.891,186.644 92.891 C 187.071 92.891,187.782 92.607,188.223 92.259 C 188.777 91.824,189.505 91.627,190.565 91.627 C 191.500 91.627,192.566 91.379,193.282 90.995 C 194.206 90.500,195.065 90.363,197.251 90.363 C 198.803 90.363,200.348 90.197,200.732 89.989 C 202.699 88.921,219.695 88.773,221.160 89.810 " stroke="none" fill="#3d3d3d" fill-rule="evenodd"></path><path id="path2" d="M197.314 55.292 C 198.357 55.408,199.005 55.526,198.755 55.555 C 198.401 55.596,198.426 55.700,198.865 56.022 C 199.353 56.378,198.968 56.489,196.071 56.826 C 194.223 57.040,192.521 57.289,192.289 57.378 C 192.057 57.467,191.667 57.340,191.422 57.096 C 191.068 56.742,190.902 56.731,190.610 57.044 C 190.408 57.260,190.304 57.498,190.379 57.572 C 190.609 57.803,185.508 58.535,185.007 58.343 C 184.742 58.241,184.403 58.398,184.233 58.701 C 183.992 59.132,183.469 59.240,181.618 59.241 C 179.692 59.242,179.318 59.325,179.385 59.738 C 179.496 60.431,174.514 62.091,173.145 61.817 C 172.346 61.657,172.187 61.718,172.262 62.155 C 172.331 62.553,171.315 63.211,168.246 64.756 C 165.987 65.894,163.472 67.217,162.657 67.695 C 161.843 68.174,160.828 68.595,160.402 68.630 C 159.976 68.666,159.688 68.851,159.762 69.043 C 159.836 69.235,159.500 69.596,159.016 69.846 C 158.532 70.096,157.948 70.478,157.718 70.695 C 157.489 70.912,157.027 71.090,156.691 71.090 C 156.356 71.090,156.082 71.294,156.082 71.543 C 156.082 71.793,155.498 72.397,154.784 72.886 C 154.070 73.375,153.256 74.024,152.976 74.329 C 152.695 74.633,152.344 74.882,152.196 74.882 C 152.047 74.882,151.403 75.423,150.765 76.084 C 150.127 76.745,149.356 77.381,149.052 77.496 C 148.748 77.611,148.499 77.923,148.499 78.189 C 148.499 78.455,148.296 78.673,148.047 78.673 C 147.798 78.673,147.506 78.950,147.398 79.289 C 147.291 79.627,146.926 79.992,146.587 80.100 C 146.249 80.207,145.972 80.503,145.972 80.758 C 145.972 81.012,145.758 81.302,145.498 81.402 C 145.237 81.502,145.024 81.729,145.024 81.905 C 145.024 82.308,141.839 86.256,141.514 86.256 C 141.383 86.256,141.174 86.574,141.050 86.963 C 140.685 88.113,139.287 90.047,138.821 90.047 C 138.583 90.047,138.416 90.154,138.449 90.284 C 138.482 90.415,138.406 90.954,138.280 91.482 C 138.027 92.547,136.945 92.904,136.707 92.001 C 136.604 91.611,136.556 91.652,136.530 92.154 C 136.509 92.530,136.658 92.893,136.859 92.960 C 137.474 93.166,136.887 94.787,136.197 94.787 C 135.867 94.787,135.526 94.609,135.438 94.392 C 135.351 94.175,135.268 94.317,135.254 94.708 C 135.240 95.099,135.371 95.419,135.545 95.419 C 135.896 95.419,135.965 96.360,135.669 97.131 C 135.411 97.804,134.363 97.767,134.183 97.077 C 134.074 96.661,134.029 96.700,134.002 97.235 C 133.979 97.673,134.147 97.946,134.439 97.946 C 135.010 97.946,135.028 98.280,134.543 99.897 C 134.277 100.787,134.041 101.081,133.700 100.950 C 133.045 100.699,132.676 101.416,133.075 102.162 C 133.519 102.992,132.847 105.337,132.233 105.101 C 131.998 105.011,131.727 105.142,131.632 105.391 C 131.536 105.641,131.580 105.845,131.730 105.845 C 132.197 105.845,132.371 106.737,132.082 107.653 C 131.930 108.136,131.717 108.935,131.608 109.428 C 131.473 110.044,131.266 110.270,130.950 110.149 C 130.676 110.044,130.490 110.160,130.490 110.436 C 130.490 110.692,130.651 110.900,130.849 110.900 C 131.103 110.900,131.140 111.433,130.975 112.717 C 130.846 113.716,130.578 116.027,130.379 117.852 C 130.016 121.167,129.562 121.985,129.189 119.997 C 129.081 119.425,128.991 122.299,128.988 126.382 C 128.985 130.466,129.086 133.273,129.213 132.619 C 129.715 130.030,129.909 130.579,130.646 136.674 C 131.115 140.564,131.075 141.864,130.486 141.864 C 130.347 141.864,130.308 142.151,130.400 142.503 C 130.526 142.984,130.668 143.058,130.976 142.802 C 131.298 142.534,131.464 142.852,131.754 144.296 C 131.957 145.304,132.192 146.429,132.277 146.795 C 132.362 147.161,132.221 147.671,131.963 147.929 C 131.458 148.434,131.768 149.355,132.327 149.010 C 132.520 148.890,132.858 149.508,133.152 150.519 C 133.731 152.510,133.770 153.127,133.333 153.397 C 132.781 153.738,132.993 154.237,133.608 154.041 C 134.078 153.892,134.240 154.058,134.398 154.850 C 134.690 156.309,134.641 157.346,134.281 157.346 C 134.107 157.346,133.979 157.808,133.997 158.373 C 134.021 159.150,134.078 159.246,134.234 158.768 C 134.347 158.420,134.675 158.097,134.963 158.050 C 135.615 157.942,136.134 160.359,135.578 160.915 C 135.386 161.107,135.243 161.697,135.261 162.227 C 135.285 162.988,135.335 163.057,135.498 162.554 C 135.822 161.548,136.583 161.819,137.077 163.117 C 137.486 164.191,137.477 164.365,136.984 164.910 C 136.683 165.242,136.505 165.773,136.587 166.090 C 136.709 166.565,136.742 166.545,136.772 165.975 C 136.842 164.668,137.982 165.215,138.416 166.763 C 138.629 167.525,139.057 168.647,139.367 169.254 C 139.779 170.062,139.852 170.564,139.641 171.120 C 139.400 171.755,139.449 171.880,139.942 171.880 C 140.695 171.880,140.982 172.631,140.734 173.955 C 140.561 174.875,140.610 174.978,141.152 174.836 C 141.649 174.706,141.902 174.996,142.484 176.358 C 142.878 177.284,143.611 178.873,144.113 179.890 C 144.614 180.907,145.024 182.009,145.024 182.339 C 145.024 182.669,145.163 182.938,145.332 182.938 C 145.502 182.938,146.261 184.182,147.018 185.703 C 147.775 187.224,148.708 189.016,149.093 189.687 C 149.635 190.633,149.756 191.236,149.632 192.373 C 149.545 193.179,149.549 193.590,149.641 193.286 C 149.896 192.447,150.981 192.598,151.209 193.505 C 151.315 193.930,151.309 194.427,151.196 194.611 C 151.078 194.801,151.252 194.945,151.602 194.945 C 151.997 194.945,152.361 195.309,152.629 195.972 C 152.858 196.536,153.138 197.070,153.252 197.156 C 153.959 197.694,155.174 200.178,155.049 200.830 C 154.940 201.400,155.046 201.580,155.490 201.580 C 156.226 201.580,157.729 203.901,157.599 204.838 C 157.533 205.321,157.670 205.530,158.055 205.533 C 159.019 205.538,160.243 207.725,160.045 209.087 C 159.950 209.737,159.956 210.091,160.057 209.874 C 160.691 208.520,162.939 210.976,162.603 212.655 C 162.457 213.388,162.524 213.475,163.148 213.356 C 163.919 213.208,165.561 215.150,165.561 216.210 C 165.561 216.504,165.740 216.746,165.959 216.746 C 166.455 216.746,169.352 220.693,169.352 221.367 C 169.352 221.638,169.601 221.929,169.905 222.013 C 170.467 222.168,172.196 224.396,172.196 224.965 C 172.196 225.136,172.342 225.276,172.520 225.276 C 172.698 225.276,172.979 225.632,173.144 226.066 C 173.309 226.501,173.562 226.856,173.707 226.856 C 173.852 226.856,174.807 227.994,175.829 229.384 C 176.852 230.774,177.787 231.912,177.907 231.912 C 178.291 231.912,178.504 233.303,178.153 233.520 C 177.916 233.666,177.919 233.792,178.165 233.944 C 178.358 234.063,178.515 234.034,178.515 233.879 C 178.515 233.724,178.733 233.597,179.000 233.597 C 179.306 233.597,179.452 233.833,179.395 234.237 C 179.333 234.677,179.525 234.933,180.006 235.054 C 180.694 235.226,183.886 238.880,183.886 239.496 C 183.886 239.669,184.032 239.810,184.210 239.810 C 184.388 239.810,184.669 240.166,184.834 240.600 C 184.999 241.035,185.297 241.390,185.495 241.390 C 185.703 241.390,185.784 241.664,185.687 242.035 C 185.552 242.551,185.702 242.717,186.433 242.863 C 187.716 243.120,188.790 244.927,187.881 245.300 C 187.632 245.402,187.643 245.456,187.915 245.473 C 188.132 245.486,188.321 245.746,188.335 246.051 C 188.349 246.381,188.424 246.444,188.519 246.209 C 188.812 245.483,189.806 245.802,190.633 246.887 C 203.571 263.850,217.042 263.849,231.327 246.884 C 233.391 244.434,234.747 243.543,234.760 244.629 C 234.763 244.896,234.860 244.873,235.059 244.558 C 235.221 244.302,235.241 244.018,235.102 243.926 C 234.683 243.649,234.831 242.654,235.292 242.654 C 235.529 242.654,235.814 242.416,235.926 242.125 C 236.037 241.834,236.353 241.348,236.627 241.044 C 236.901 240.740,237.765 239.633,238.547 238.584 C 239.518 237.281,240.189 236.673,240.664 236.664 C 241.046 236.657,241.505 236.402,241.685 236.098 C 241.969 235.616,242.051 235.606,242.327 236.019 C 242.599 236.426,242.645 236.414,242.649 235.940 C 242.652 235.634,242.420 235.387,242.131 235.387 C 241.645 235.387,241.645 235.347,242.131 234.809 C 242.419 234.491,242.654 234.065,242.654 233.861 C 242.654 233.658,242.867 233.491,243.128 233.491 C 243.389 233.491,243.602 233.267,243.602 232.993 C 243.602 231.915,246.473 228.684,247.292 228.840 C 247.991 228.974,248.040 228.908,247.858 228.079 C 247.712 227.414,247.792 227.121,248.158 226.980 C 248.433 226.875,248.657 226.664,248.657 226.511 C 248.657 225.780,250.469 223.741,251.264 223.577 C 251.742 223.478,252.133 223.242,252.133 223.054 C 252.133 222.866,252.004 222.791,251.846 222.889 C 251.689 222.986,251.634 222.781,251.725 222.433 C 251.816 222.086,252.102 221.801,252.361 221.801 C 252.646 221.801,252.762 221.617,252.654 221.336 C 252.556 221.081,252.657 220.690,252.878 220.467 C 253.099 220.245,253.543 219.662,253.864 219.171 C 254.243 218.592,254.643 218.330,255.003 218.424 C 255.410 218.530,255.528 218.412,255.444 217.977 C 255.381 217.651,255.501 217.206,255.711 216.986 C 255.920 216.767,256.582 215.770,257.181 214.771 C 257.806 213.727,258.492 212.954,258.793 212.954 C 259.091 212.954,259.307 212.715,259.293 212.401 C 259.225 210.825,261.522 208.725,262.059 209.874 C 262.161 210.091,262.168 209.741,262.074 209.096 C 261.867 207.675,263.170 205.289,264.071 205.439 C 264.489 205.509,264.590 205.336,264.514 204.683 C 264.420 203.877,265.821 201.264,266.347 201.264 C 266.473 201.264,266.710 200.802,266.875 200.237 C 267.103 199.459,267.347 199.217,267.883 199.237 C 268.493 199.260,268.564 199.145,268.398 198.393 C 268.227 197.613,269.314 195.248,270.128 194.629 C 270.243 194.542,270.523 194.009,270.751 193.444 C 270.992 192.849,271.393 192.417,271.706 192.417 C 272.121 192.417,272.213 192.206,272.109 191.497 C 271.936 190.316,273.050 189.531,273.609 190.440 C 273.868 190.863,273.901 190.637,273.748 189.494 C 273.546 187.994,274.458 187.197,275.013 188.389 C 275.114 188.606,275.121 188.133,275.028 187.337 C 274.809 185.460,278.530 177.567,279.634 177.567 C 280.178 177.567,280.253 177.383,280.180 176.224 C 280.103 175.019,280.166 174.884,280.792 174.905 C 281.430 174.927,281.474 174.818,281.310 173.620 C 281.178 172.656,281.265 172.177,281.640 171.802 C 281.919 171.522,282.148 171.091,282.148 170.844 C 282.148 169.782,282.866 168.404,283.419 168.404 C 283.903 168.404,283.987 168.167,283.941 166.930 C 283.906 165.989,284.029 165.408,284.281 165.324 C 284.498 165.251,284.676 164.858,284.676 164.449 C 284.676 162.371,286.337 160.463,286.665 162.164 C 286.782 162.774,286.808 162.751,286.845 162.006 C 286.868 161.528,286.761 161.137,286.606 161.137 C 286.095 161.137,285.976 160.265,286.330 159.111 C 286.713 157.862,287.530 157.682,287.883 158.768 C 288.039 159.246,288.096 159.150,288.120 158.373 C 288.137 157.808,288.026 157.346,287.873 157.346 C 287.284 157.346,287.273 155.956,287.847 154.238 C 288.177 153.254,288.638 151.596,288.873 150.553 C 289.190 149.143,289.427 148.679,289.796 148.742 C 290.400 148.845,290.869 147.298,290.381 146.811 C 289.684 146.114,290.428 141.578,291.142 142.171 C 291.784 142.703,292.078 140.690,291.450 140.062 C 291.147 139.759,291.025 139.260,291.127 138.744 C 292.002 134.350,292.084 121.540,291.276 115.513 C 290.955 113.123,290.967 112.648,291.353 112.353 C 291.919 111.921,291.751 110.873,291.153 111.102 C 290.851 111.218,290.610 110.849,290.367 109.900 C 290.174 109.147,289.958 108.357,289.887 108.145 C 289.816 107.933,289.975 107.542,290.240 107.277 C 290.886 106.632,290.524 105.436,289.756 105.679 C 289.295 105.826,289.120 105.518,288.727 103.876 C 288.278 101.998,288.283 101.891,288.835 101.795 C 289.205 101.730,289.402 101.444,289.379 101.005 C 289.350 100.470,289.310 100.440,289.198 100.869 C 288.821 102.311,287.204 100.659,287.204 98.831 C 287.204 98.561,286.989 98.162,286.727 97.944 C 286.465 97.726,286.163 97.001,286.056 96.331 C 285.949 95.662,285.757 95.178,285.631 95.256 C 285.329 95.443,284.676 93.995,284.676 93.139 C 284.676 92.771,284.587 92.559,284.478 92.668 C 284.369 92.777,283.494 91.557,282.535 89.956 C 281.575 88.355,280.581 86.802,280.324 86.503 C 280.068 86.205,279.933 85.672,280.026 85.318 C 280.156 84.821,280.040 84.674,279.512 84.665 C 278.964 84.657,274.889 80.324,273.302 78.062 C 273.215 77.938,272.895 77.745,272.591 77.633 C 272.287 77.521,272.038 77.211,272.038 76.945 C 272.038 76.679,271.833 76.461,271.582 76.461 C 271.331 76.461,270.940 76.207,270.713 75.897 C 270.486 75.586,269.269 74.571,268.009 73.642 C 266.750 72.712,265.719 71.843,265.719 71.710 C 265.719 71.578,265.161 71.179,264.478 70.823 C 262.500 69.792,261.927 69.383,261.927 69.000 C 261.927 68.803,261.501 68.556,260.979 68.452 C 259.990 68.254,259.631 67.218,260.427 66.855 C 260.644 66.756,260.253 66.749,259.558 66.841 C 258.370 66.997,257.077 66.561,255.292 65.402 C 255.032 65.233,253.636 64.567,252.191 63.923 C 250.167 63.021,249.596 62.629,249.704 62.217 C 249.821 61.769,249.657 61.705,248.697 61.826 C 247.914 61.924,246.550 61.625,244.392 60.882 C 242.654 60.284,240.494 59.610,239.592 59.384 C 238.690 59.158,237.960 58.892,237.970 58.792 C 238.055 57.987,237.889 57.831,237.325 58.183 C 236.763 58.534,231.690 57.936,232.063 57.563 C 232.462 57.164,231.238 56.513,230.789 56.886 C 230.258 57.327,222.749 56.668,222.749 56.181 C 222.749 56.040,222.998 55.922,223.302 55.919 C 223.763 55.915,223.778 55.866,223.393 55.622 C 223.068 55.417,223.444 55.295,224.656 55.212 C 226.019 55.118,225.833 55.081,223.776 55.035 C 221.506 54.984,221.084 55.062,220.508 55.637 C 220.028 56.117,219.660 56.232,219.165 56.057 C 218.790 55.924,215.038 55.799,210.828 55.781 C 205.265 55.756,203.067 55.642,202.787 55.362 C 202.523 55.098,201.299 54.993,198.910 55.029 C 195.896 55.075,195.678 55.111,197.314 55.292 M225.118 58.730 C 236.777 60.308,244.471 62.498,253.582 66.832 C 282.455 80.569,294.994 109.305,287.837 145.332 C 286.926 149.919,284.471 158.893,283.513 161.137 C 283.254 161.746,282.495 163.736,281.828 165.561 C 278.036 175.929,269.197 193.149,262.123 203.949 C 259.440 208.045,256.783 211.956,255.145 214.218 C 254.202 215.521,252.969 217.227,252.405 218.009 C 249.475 222.073,241.437 232.316,238.877 235.249 C 238.261 235.954,237.117 237.305,236.335 238.250 C 235.553 239.195,234.339 240.608,233.638 241.390 C 232.936 242.172,231.120 244.256,229.601 246.022 C 215.479 262.440,206.426 261.935,190.416 243.836 C 176.183 227.744,163.937 211.101,153.880 194.176 C 150.435 188.379,143.621 174.498,141.385 168.720 C 140.747 167.070,139.968 165.079,139.656 164.297 C 128.013 135.157,130.082 103.935,144.892 85.261 C 157.654 69.170,176.467 60.514,204.107 58.016 C 207.820 57.681,220.564 58.114,225.118 58.730 M292.689 125.750 C 292.689 127.401,292.742 128.077,292.807 127.251 C 292.872 126.426,292.872 125.075,292.807 124.250 C 292.742 123.424,292.689 124.100,292.689 125.750 " stroke="none" fill="#8c8c8c" fill-rule="evenodd"></path><path id="path3" d="M202.627 54.224 C 202.084 55.639,202.695 55.773,209.199 55.662 C 212.568 55.605,216.307 55.704,217.508 55.882 C 220.134 56.273,220.940 55.987,220.793 54.718 L 220.695 53.870 211.761 53.787 C 203.700 53.711,202.808 53.754,202.627 54.224 M191.153 56.048 C 191.153 57.425,191.401 57.493,194.629 57.000 C 196.106 56.775,197.812 56.578,198.420 56.563 C 199.462 56.538,199.491 56.509,198.913 56.072 C 198.455 55.726,198.415 55.596,198.755 55.560 C 199.550 55.476,195.184 55.052,193.128 55.013 L 191.153 54.976 191.153 56.048 M224.656 55.212 C 223.444 55.295,223.068 55.417,223.393 55.622 C 223.778 55.866,223.763 55.915,223.302 55.919 C 221.399 55.936,223.340 56.503,226.502 56.855 C 230.652 57.316,230.964 57.250,230.964 55.906 L 230.964 54.976 228.673 55.035 C 227.413 55.067,225.606 55.146,224.656 55.212 M184.518 57.188 C 184.518 57.750,184.308 57.820,182.600 57.820 C 180.792 57.820,180.689 57.861,180.784 58.531 C 180.909 59.412,183.782 59.507,184.264 58.646 C 184.413 58.380,184.748 58.244,185.007 58.343 C 185.657 58.593,190.530 57.774,190.330 57.449 C 190.241 57.306,190.319 57.188,190.503 57.188 C 190.687 57.188,190.837 57.046,190.837 56.872 C 190.837 56.682,189.573 56.556,187.678 56.556 C 184.729 56.556,184.518 56.598,184.518 57.188 M231.596 56.872 C 231.596 57.046,231.746 57.188,231.930 57.188 C 232.114 57.188,232.193 57.303,232.106 57.444 C 231.903 57.773,236.461 58.592,237.110 58.343 C 237.379 58.240,237.599 57.796,237.599 57.356 C 237.599 56.556,237.598 56.556,234.597 56.556 C 232.807 56.556,231.596 56.684,231.596 56.872 M237.998 58.408 C 238.031 58.840,238.469 59.104,239.637 59.396 C 240.515 59.615,242.641 60.274,244.362 60.861 C 248.165 62.157,249.333 62.243,249.178 61.216 C 249.090 60.630,248.842 60.489,247.758 60.408 C 246.702 60.330,246.445 60.191,246.445 59.697 C 246.445 59.158,246.216 59.084,244.550 59.084 C 242.865 59.084,242.654 59.014,242.654 58.452 C 242.654 57.877,242.443 57.820,240.304 57.820 C 238.206 57.820,237.959 57.883,237.998 58.408 M175.355 59.697 C 175.355 60.177,175.099 60.331,174.171 60.407 C 172.674 60.531,172.153 61.927,173.604 61.927 C 175.250 61.927,179.419 60.291,179.372 59.663 C 179.304 58.762,175.355 58.794,175.355 59.697 M169.036 62.243 C 169.036 62.770,168.826 62.875,167.773 62.875 C 166.719 62.875,166.509 62.981,166.509 63.507 C 166.509 64.034,166.298 64.139,165.245 64.139 C 164.192 64.139,163.981 64.244,163.981 64.771 C 163.981 65.309,163.770 65.403,162.559 65.403 C 161.377 65.403,161.137 65.503,161.137 65.998 C 161.137 66.340,160.851 66.668,160.464 66.769 C 159.979 66.896,159.836 67.121,159.954 67.570 C 160.101 68.134,159.982 68.184,158.731 68.082 C 157.443 67.977,157.346 68.023,157.346 68.740 C 157.346 69.300,157.173 69.510,156.714 69.510 C 156.293 69.510,156.082 69.721,156.082 70.142 C 156.082 70.669,155.872 70.774,154.818 70.774 C 153.765 70.774,153.555 70.879,153.555 71.406 C 153.555 71.827,153.344 72.038,152.923 72.038 C 152.501 72.038,152.291 72.249,152.291 72.670 C 152.291 73.091,152.080 73.302,151.659 73.302 C 151.245 73.302,151.027 73.512,151.027 73.912 C 151.027 74.304,150.773 74.558,150.316 74.623 C 149.925 74.678,149.605 74.930,149.605 75.183 C 149.605 75.436,149.277 75.720,148.876 75.815 C 148.474 75.910,148.154 76.094,148.165 76.224 C 148.240 77.183,148.138 77.338,147.538 77.181 C 147.183 77.088,146.915 77.137,146.943 77.290 C 147.076 78.014,146.866 78.357,146.288 78.357 C 145.866 78.357,145.656 78.568,145.656 78.989 C 145.656 79.555,145.327 79.769,144.629 79.658 C 144.498 79.638,144.392 79.896,144.392 80.231 C 144.392 80.567,144.107 80.932,143.760 81.043 C 143.412 81.153,143.128 81.518,143.128 81.854 C 143.128 82.254,142.910 82.464,142.496 82.464 C 142.075 82.464,141.864 82.675,141.864 83.096 C 141.864 83.518,141.654 83.728,141.232 83.728 C 140.706 83.728,140.600 83.939,140.600 84.992 C 140.600 86.045,140.495 86.256,139.968 86.256 C 139.547 86.256,139.336 86.467,139.336 86.888 C 139.336 87.309,139.126 87.520,138.705 87.520 C 138.178 87.520,138.073 87.730,138.073 88.784 C 138.073 89.900,137.986 90.047,137.330 90.047 C 136.715 90.047,136.598 90.197,136.649 90.916 C 136.757 92.453,136.799 92.537,137.430 92.489 C 137.991 92.447,138.641 91.040,138.449 90.284 C 138.416 90.154,138.583 90.047,138.821 90.047 C 139.287 90.047,140.685 88.113,141.050 86.963 C 141.174 86.574,141.383 86.256,141.514 86.256 C 141.839 86.256,145.024 82.308,145.024 81.905 C 145.024 81.729,145.237 81.502,145.498 81.402 C 145.758 81.302,145.972 81.012,145.972 80.758 C 145.972 80.503,146.249 80.207,146.587 80.100 C 146.926 79.992,147.291 79.627,147.398 79.289 C 147.506 78.950,147.798 78.673,148.047 78.673 C 148.296 78.673,148.499 78.455,148.499 78.189 C 148.499 77.923,148.748 77.611,149.052 77.496 C 149.356 77.381,150.127 76.745,150.765 76.084 C 151.403 75.423,152.047 74.882,152.196 74.882 C 152.344 74.882,152.695 74.633,152.976 74.329 C 153.256 74.024,154.070 73.375,154.784 72.886 C 155.498 72.397,156.082 71.793,156.082 71.543 C 156.082 71.294,156.356 71.090,156.691 71.090 C 157.027 71.090,157.489 70.912,157.718 70.695 C 157.948 70.478,158.532 70.096,159.016 69.846 C 159.500 69.596,159.836 69.235,159.762 69.043 C 159.688 68.851,159.978 68.665,160.406 68.630 C 160.834 68.595,161.991 68.095,162.977 67.520 C 163.964 66.944,166.335 65.709,168.246 64.774 C 172.348 62.769,172.527 62.649,172.301 62.062 C 172.002 61.283,169.036 61.447,169.036 62.243 M249.816 61.822 C 249.297 62.341,249.733 62.823,251.422 63.598 C 252.421 64.056,253.736 64.660,254.344 64.939 C 254.953 65.218,256.019 65.780,256.714 66.189 C 258.319 67.132,259.400 67.206,259.400 66.372 C 259.400 66.036,259.115 65.671,258.768 65.561 C 258.420 65.451,258.136 65.085,258.136 64.750 C 258.136 64.251,257.911 64.139,256.909 64.139 C 255.948 64.139,255.646 64.002,255.517 63.507 C 255.391 63.028,255.086 62.875,254.253 62.875 C 253.420 62.875,253.114 62.722,252.989 62.243 C 252.823 61.610,250.356 61.282,249.816 61.822 M260.427 66.870 C 259.626 67.205,259.993 68.254,260.979 68.452 C 261.501 68.556,261.927 68.811,261.927 69.018 C 261.927 69.361,263.810 70.607,265.163 71.159 C 265.469 71.284,265.719 71.513,265.719 71.668 C 265.719 71.824,266.750 72.712,268.009 73.642 C 269.269 74.571,270.486 75.586,270.713 75.897 C 270.940 76.207,271.331 76.461,271.582 76.461 C 271.833 76.461,272.038 76.679,272.038 76.945 C 272.038 77.211,272.287 77.521,272.591 77.633 C 272.895 77.745,273.215 77.938,273.302 78.062 C 276.835 83.098,280.253 85.806,280.253 83.570 C 280.253 82.675,280.132 82.464,279.621 82.464 C 279.157 82.464,278.989 82.254,278.989 81.675 C 278.989 81.240,278.882 80.902,278.752 80.922 C 278.049 81.033,277.725 80.816,277.725 80.234 C 277.725 79.876,277.594 79.664,277.435 79.763 C 277.056 79.997,276.085 79.026,276.319 78.648 C 276.418 78.488,276.206 78.357,275.848 78.357 C 275.266 78.357,275.049 78.033,275.160 77.330 C 275.181 77.200,274.913 77.093,274.566 77.093 C 274.000 77.093,273.786 76.765,273.896 76.066 C 273.917 75.936,273.578 75.829,273.144 75.829 C 272.565 75.829,272.354 75.661,272.354 75.197 C 272.354 74.776,272.143 74.566,271.722 74.566 C 271.301 74.566,271.090 74.355,271.090 73.934 C 271.090 73.512,270.879 73.302,270.458 73.302 C 270.037 73.302,269.826 73.091,269.826 72.670 C 269.826 72.249,269.616 72.038,269.194 72.038 C 268.773 72.038,268.562 71.827,268.562 71.406 C 268.562 70.879,268.352 70.774,267.299 70.774 C 266.245 70.774,266.035 70.669,266.035 70.142 C 266.035 69.721,265.824 69.510,265.403 69.510 C 264.947 69.510,264.771 69.300,264.771 68.753 C 264.771 68.073,264.643 68.000,263.519 68.042 C 262.488 68.080,262.250 67.977,262.176 67.457 C 262.086 66.831,261.217 66.540,260.427 66.870 M279.937 85.520 C 279.937 85.811,280.129 86.273,280.364 86.547 C 280.598 86.821,281.575 88.355,282.535 89.956 C 283.494 91.557,284.369 92.777,284.478 92.668 C 284.587 92.559,284.676 92.771,284.676 93.139 C 284.676 93.995,285.329 95.443,285.631 95.256 C 285.757 95.178,285.949 95.662,286.056 96.331 C 286.163 97.001,286.465 97.726,286.727 97.944 C 286.989 98.162,287.204 98.561,287.204 98.831 C 287.204 100.776,288.800 102.266,289.216 100.711 C 289.667 99.029,289.456 97.946,288.677 97.946 C 288.015 97.946,287.942 97.808,287.966 96.603 C 287.989 95.468,287.891 95.246,287.327 95.166 C 286.779 95.087,286.667 94.863,286.695 93.902 C 286.724 92.918,286.618 92.717,286.019 92.632 C 285.419 92.547,285.308 92.337,285.308 91.289 C 285.308 90.258,285.201 90.047,284.676 90.047 C 284.150 90.047,284.044 89.837,284.044 88.784 C 284.044 87.730,283.939 87.520,283.412 87.520 C 282.991 87.520,282.780 87.309,282.780 86.888 C 282.780 86.467,282.570 86.256,282.148 86.256 C 281.727 86.256,281.517 86.045,281.517 85.624 C 281.517 85.161,281.306 84.992,280.727 84.992 C 280.199 84.992,279.937 85.168,279.937 85.520 M135.376 92.909 C 134.991 93.531,135.527 94.787,136.177 94.787 C 136.960 94.787,137.428 93.277,136.773 92.862 C 136.180 92.487,135.625 92.505,135.376 92.909 M134.118 95.426 C 134.008 95.604,134.011 96.173,134.125 96.690 C 134.478 98.297,135.861 97.793,135.861 96.059 C 135.861 95.247,134.528 94.763,134.118 95.426 M132.706 99.763 C 132.709 100.822,132.818 101.411,132.968 101.174 C 133.110 100.951,133.439 100.850,133.700 100.950 C 134.041 101.081,134.277 100.787,134.543 99.897 C 135.083 98.095,135.027 97.946,133.807 97.946 L 132.701 97.946 132.706 99.763 M131.648 101.948 C 131.532 102.064,131.449 102.953,131.463 103.923 C 131.476 104.893,131.557 105.517,131.641 105.310 C 131.725 105.103,131.984 105.006,132.216 105.095 C 132.747 105.298,133.462 103.273,133.177 102.375 C 132.982 101.762,132.085 101.512,131.648 101.948 M288.501 102.905 C 288.661 103.566,288.881 104.506,288.989 104.994 C 289.128 105.622,289.326 105.826,289.670 105.694 C 289.937 105.592,290.275 105.690,290.422 105.913 C 290.576 106.149,290.653 105.390,290.605 104.107 L 290.521 101.896 289.366 101.799 L 288.210 101.703 288.501 102.905 M130.174 108.258 C 130.174 110.690,130.123 110.900,129.542 110.900 C 128.943 110.900,128.911 111.105,128.928 114.771 C 128.961 121.697,129.770 123.416,130.379 117.852 C 130.578 116.027,130.846 113.716,130.975 112.717 C 131.140 111.433,131.103 110.900,130.849 110.900 C 130.651 110.900,130.490 110.692,130.490 110.436 C 130.490 110.160,130.676 110.044,130.950 110.149 C 131.266 110.270,131.473 110.044,131.608 109.428 C 131.717 108.935,131.930 108.136,132.082 107.653 C 132.351 106.800,132.211 105.887,131.799 105.805 C 130.156 105.479,130.174 105.453,130.174 108.258 M290.222 107.296 C 289.967 107.551,289.816 107.933,289.887 108.145 C 289.958 108.357,290.174 109.147,290.367 109.900 C 290.610 110.849,290.851 111.218,291.153 111.102 C 291.395 111.009,291.650 111.173,291.729 111.471 C 291.806 111.765,291.886 110.864,291.906 109.467 C 291.945 106.764,291.424 106.093,290.222 107.296 M291.120 112.612 C 291.016 112.881,291.095 114.277,291.295 115.713 C 292.081 121.367,291.997 134.157,291.144 138.705 C 290.949 139.749,291.369 140.343,292.384 140.454 L 293.213 140.545 293.131 126.434 L 293.049 112.322 292.178 112.222 C 291.614 112.157,291.242 112.294,291.120 112.612 M292.807 127.251 C 292.742 128.077,292.689 127.401,292.689 125.750 C 292.689 124.100,292.742 123.424,292.807 124.250 C 292.872 125.075,292.872 126.426,292.807 127.251 M129.342 131.912 C 129.193 132.433,129.071 134.850,129.070 137.283 L 129.068 141.706 129.896 141.802 C 131.117 141.944,131.201 141.337,130.634 136.522 C 130.040 131.488,129.755 130.469,129.342 131.912 M291.691 141.824 C 291.639 142.433,291.543 142.504,291.179 142.202 C 290.807 141.892,290.670 142.125,290.367 143.583 C 289.885 145.906,290.024 146.736,290.918 146.863 C 291.862 146.997,291.992 146.545,291.863 143.574 C 291.803 142.199,291.726 141.412,291.691 141.824 M130.283 145.024 C 130.332 148.013,130.335 148.026,131.160 148.121 C 132.309 148.255,132.459 147.626,131.905 144.994 C 131.648 143.771,131.438 142.691,131.438 142.595 C 131.438 142.498,131.236 142.586,130.990 142.790 C 130.635 143.085,130.511 143.044,130.388 142.592 C 130.303 142.278,130.256 143.373,130.283 145.024 M290.363 148.355 C 290.363 148.638,290.140 148.804,289.832 148.750 C 289.418 148.678,289.205 149.078,288.873 150.553 C 288.638 151.596,288.177 153.254,287.847 154.238 C 287.096 156.485,287.274 157.346,288.489 157.346 L 289.386 157.346 289.246 155.450 C 289.105 153.539,289.237 153.327,290.442 153.517 C 290.573 153.538,290.679 152.275,290.679 150.711 C 290.679 149.147,290.608 147.867,290.521 147.867 C 290.434 147.867,290.363 148.087,290.363 148.355 M131.442 150.948 C 131.440 152.382,131.544 153.538,131.675 153.517 C 132.556 153.378,132.701 153.651,132.701 155.450 L 132.701 157.346 133.649 157.346 C 134.681 157.346,134.811 156.912,134.398 154.850 C 134.240 154.058,134.078 153.892,133.608 154.041 C 132.993 154.237,132.781 153.738,133.333 153.397 C 133.770 153.127,133.731 152.510,133.152 150.519 C 132.858 149.508,132.520 148.890,132.327 149.010 C 132.146 149.121,131.875 149.016,131.723 148.777 C 131.553 148.508,131.445 149.339,131.442 150.948 M134.114 159.296 C 133.882 160.672,134.083 161.137,134.913 161.137 C 135.749 161.137,135.945 160.671,135.705 159.252 C 135.418 157.555,134.403 157.583,134.114 159.296 M286.323 159.135 C 285.894 160.532,286.118 161.137,287.061 161.137 C 288.035 161.137,288.245 160.727,288.003 159.296 C 287.730 157.681,286.796 157.592,286.323 159.135 M285.723 161.702 C 285.236 162.011,284.676 163.495,284.676 164.476 C 284.676 164.899,284.549 165.245,284.394 165.245 C 284.013 165.245,283.683 166.655,283.920 167.273 C 284.382 168.478,285.377 167.837,285.261 166.409 C 285.158 165.144,285.201 165.056,285.857 165.182 C 286.768 165.356,287.020 164.700,286.746 162.871 C 286.530 161.432,286.393 161.275,285.723 161.702 M135.369 163.199 C 135.137 164.749,135.328 165.245,136.157 165.245 C 137.218 165.245,137.577 164.430,137.086 163.139 C 136.444 161.452,135.627 161.481,135.369 163.199 M136.682 166.609 C 136.429 168.701,136.520 169.036,137.335 169.036 C 137.985 169.036,138.073 169.187,138.073 170.300 C 138.073 171.421,138.158 171.564,138.826 171.564 C 139.835 171.564,140.053 170.600,139.355 169.231 C 139.052 168.636,138.629 167.525,138.416 166.763 C 137.873 164.827,136.907 164.741,136.682 166.609 M282.495 169.399 C 282.305 169.947,282.148 170.597,282.148 170.844 C 282.148 171.091,281.935 171.506,281.675 171.767 C 280.835 172.607,281.058 174.092,282.024 174.092 C 282.793 174.092,282.839 174.010,282.726 172.828 C 282.618 171.688,282.676 171.564,283.325 171.564 C 283.977 171.564,284.044 171.417,284.044 169.984 C 284.044 168.051,283.091 167.691,282.495 169.399 M139.336 172.986 C 139.336 173.870,139.460 174.092,139.950 174.092 C 140.746 174.092,141.023 173.612,140.782 172.652 C 140.458 171.361,139.336 171.620,139.336 172.986 M140.811 174.934 C 140.271 175.474,140.599 177.942,141.232 178.108 C 141.711 178.233,141.864 178.538,141.864 179.371 C 141.864 180.204,142.017 180.510,142.496 180.635 C 142.975 180.760,143.128 181.066,143.128 181.899 C 143.128 182.732,143.281 183.038,143.760 183.163 C 144.239 183.288,144.392 183.594,144.392 184.427 C 144.392 185.259,144.545 185.565,145.024 185.690 C 145.519 185.820,145.656 186.121,145.656 187.083 C 145.656 188.168,145.743 188.310,146.415 188.310 C 147.121 188.310,147.163 188.401,147.003 189.592 C 146.855 190.695,146.922 190.897,147.478 191.043 C 147.834 191.136,148.199 191.495,148.290 191.842 C 148.507 192.672,149.573 192.477,149.701 191.584 C 149.754 191.217,149.481 190.365,149.095 189.692 C 148.710 189.019,147.775 187.224,147.018 185.703 C 146.261 184.182,145.502 182.938,145.332 182.938 C 145.163 182.938,145.024 182.669,145.024 182.339 C 145.024 182.009,144.614 180.907,144.113 179.890 C 143.611 178.873,142.883 177.295,142.494 176.382 C 141.839 174.846,141.334 174.412,140.811 174.934 M280.060 175.174 C 279.767 175.938,280.161 176.619,280.896 176.619 C 281.432 176.619,281.539 176.454,281.459 175.753 C 281.346 174.781,280.366 174.376,280.060 175.174 M276.943 181.707 C 274.692 186.226,274.454 187.155,275.592 186.981 C 275.983 186.922,276.267 186.695,276.222 186.478 C 276.177 186.262,276.497 185.949,276.933 185.783 C 277.572 185.540,277.725 185.266,277.725 184.368 C 277.725 183.465,277.845 183.254,278.357 183.254 C 278.882 183.254,278.989 183.044,278.989 182.012 C 278.989 181.047,279.130 180.724,279.621 180.569 C 280.551 180.274,280.558 177.567,279.629 177.567 C 279.144 177.567,278.545 178.490,276.943 181.707 M273.618 188.784 C 273.618 189.408,273.778 189.573,274.380 189.573 C 274.935 189.573,275.113 189.424,275.036 189.021 C 274.977 188.716,274.919 188.361,274.906 188.231 C 274.834 187.532,273.618 188.054,273.618 188.784 M272.557 190.291 C 271.683 190.930,271.973 192.259,272.986 192.259 C 273.908 192.259,274.197 191.318,273.547 190.429 C 273.195 189.948,273.054 189.928,272.557 190.291 M270.745 193.444 C 270.513 194.009,270.105 194.710,269.838 195.002 C 268.983 195.938,268.159 197.738,268.354 198.245 C 268.638 198.986,269.826 198.872,269.826 198.104 C 269.826 197.683,270.037 197.472,270.458 197.472 C 270.985 197.472,271.090 197.262,271.090 196.209 C 271.090 195.155,271.195 194.945,271.722 194.945 C 272.249 194.945,272.354 194.734,272.354 193.681 C 272.354 192.035,271.382 191.892,270.745 193.444 M149.723 193.128 C 149.701 193.345,149.649 193.843,149.608 194.234 C 149.550 194.787,149.695 194.945,150.261 194.945 C 151.168 194.945,151.459 194.503,151.209 193.505 C 151.005 192.694,149.798 192.388,149.723 193.128 M151.027 196.209 C 151.027 197.262,151.132 197.472,151.659 197.472 C 152.185 197.472,152.291 197.683,152.291 198.736 C 152.291 199.789,152.396 200.000,152.923 200.000 C 153.344 200.000,153.555 200.211,153.555 200.632 C 153.555 201.095,153.765 201.264,154.344 201.264 C 155.545 201.264,154.757 198.301,153.252 197.156 C 153.138 197.070,152.858 196.536,152.629 195.972 C 152.001 194.418,151.027 194.562,151.027 196.209 M266.984 199.840 C 266.809 200.298,266.667 200.806,266.667 200.968 C 266.667 201.131,266.543 201.264,266.393 201.264 C 265.891 201.264,264.415 203.825,264.515 204.524 C 264.660 205.543,266.035 205.555,266.035 204.538 C 266.035 203.990,266.211 203.791,266.700 203.791 C 267.285 203.791,267.351 203.640,267.244 202.528 C 267.135 201.379,267.191 201.264,267.863 201.264 C 268.507 201.264,268.590 201.131,268.503 200.240 C 268.375 198.907,267.433 198.659,266.984 199.840 M154.818 202.686 C 154.818 203.581,154.939 203.791,155.450 203.791 C 155.881 203.791,156.082 204.002,156.082 204.453 C 156.082 204.849,156.336 205.181,156.714 205.280 C 157.209 205.409,157.346 205.711,157.346 206.672 C 157.346 207.688,157.454 207.899,157.978 207.899 C 158.406 207.899,158.610 208.110,158.610 208.553 C 158.610 209.372,159.970 209.294,160.128 208.465 C 160.270 207.718,158.728 205.537,158.055 205.533 C 157.670 205.530,157.533 205.321,157.599 204.838 C 157.734 203.863,156.226 201.580,155.446 201.580 C 154.939 201.580,154.818 201.793,154.818 202.686 M262.690 206.677 C 261.762 208.148,261.799 208.963,262.799 209.106 C 263.337 209.182,263.507 209.049,263.507 208.553 C 263.507 208.110,263.711 207.899,264.139 207.899 C 264.660 207.899,264.771 207.688,264.771 206.702 C 264.771 204.980,263.769 204.968,262.690 206.677 M160.065 209.978 C 159.706 210.915,159.873 211.390,160.666 211.691 C 161.102 211.857,161.421 212.170,161.377 212.387 C 161.332 212.604,161.615 212.830,162.006 212.890 C 162.937 213.032,162.955 212.130,162.054 210.603 C 161.360 209.426,160.394 209.123,160.065 209.978 M260.002 210.664 C 259.040 212.239,259.047 212.796,260.032 212.796 C 260.503 212.796,260.789 212.634,260.740 212.394 C 260.695 212.173,261.015 211.857,261.451 211.691 C 262.244 211.390,262.411 210.915,262.052 209.978 C 261.718 209.109,260.755 209.431,260.002 210.664 M257.181 214.771 C 256.582 215.770,255.910 216.777,255.689 217.008 C 255.468 217.239,255.367 217.559,255.466 217.720 C 255.565 217.880,255.282 218.149,254.837 218.318 C 254.392 218.487,254.028 218.736,254.028 218.871 C 254.028 219.005,253.681 219.518,253.258 220.010 C 252.835 220.502,252.566 221.107,252.660 221.353 C 252.761 221.616,252.638 221.801,252.361 221.801 C 252.102 221.801,251.816 222.086,251.725 222.433 C 251.634 222.781,251.689 222.986,251.846 222.889 C 252.004 222.791,252.133 222.862,252.133 223.046 C 252.133 223.230,252.346 223.381,252.607 223.381 C 253.179 223.381,253.241 222.550,252.686 222.326 C 252.468 222.239,252.695 222.156,253.189 222.142 C 253.794 222.125,254.139 221.920,254.245 221.514 C 254.332 221.183,254.691 220.836,255.042 220.744 C 255.568 220.607,255.659 220.377,255.551 219.451 C 255.424 218.368,255.572 218.184,256.477 218.302 C 256.703 218.331,256.872 218.009,256.872 217.549 C 256.872 216.956,257.038 216.746,257.504 216.746 C 257.925 216.746,258.136 216.535,258.136 216.114 C 258.136 215.692,258.346 215.482,258.768 215.482 C 259.294 215.482,259.400 215.271,259.400 214.218 C 259.400 212.311,258.524 212.529,257.181 214.771 M162.612 213.481 C 162.008 214.084,162.413 215.482,163.191 215.482 C 163.770 215.482,163.981 215.650,163.981 216.114 C 163.981 216.535,164.192 216.746,164.613 216.746 C 165.151 216.746,165.245 216.956,165.245 218.167 C 165.245 219.379,165.338 219.589,165.877 219.589 C 166.298 219.589,166.509 219.800,166.509 220.221 C 166.509 220.642,166.719 220.853,167.141 220.853 C 167.508 220.853,167.773 221.064,167.773 221.357 C 167.773 221.634,168.057 221.934,168.404 222.025 C 168.899 222.155,169.036 222.456,169.036 223.418 C 169.036 224.434,169.145 224.645,169.668 224.645 C 170.036 224.645,170.300 224.855,170.300 225.148 C 170.300 225.425,170.571 225.723,170.903 225.809 C 171.234 225.896,171.576 226.238,171.663 226.569 C 171.750 226.901,172.047 227.172,172.324 227.172 C 172.701 227.172,172.828 227.490,172.828 228.436 C 172.828 229.489,172.933 229.700,173.460 229.700 C 173.890 229.700,174.092 229.910,174.092 230.361 C 174.092 230.746,174.343 231.089,174.694 231.180 C 175.026 231.267,175.368 231.609,175.455 231.941 C 175.546 232.292,175.889 232.543,176.274 232.543 C 176.717 232.543,176.935 232.745,176.935 233.154 C 176.935 233.639,177.104 233.735,177.750 233.618 C 178.475 233.486,178.540 233.549,178.342 234.192 C 178.220 234.588,178.226 234.813,178.355 234.691 C 178.798 234.273,179.463 235.341,179.463 236.470 C 179.463 237.388,179.581 237.599,180.095 237.599 C 180.516 237.599,180.727 237.809,180.727 238.231 C 180.727 238.652,180.937 238.863,181.359 238.863 C 181.780 238.863,181.991 239.073,181.991 239.494 C 181.991 239.908,182.201 240.126,182.601 240.126 C 182.937 240.126,183.302 240.411,183.412 240.758 C 183.523 241.106,183.807 241.390,184.044 241.390 C 184.281 241.390,184.566 241.675,184.676 242.022 C 184.918 242.785,185.413 242.844,185.683 242.141 C 185.801 241.832,185.671 241.511,185.357 241.335 C 185.069 241.174,184.834 240.832,184.834 240.575 C 184.834 240.317,184.621 240.025,184.360 239.925 C 184.100 239.825,183.886 239.617,183.886 239.462 C 183.886 238.872,180.672 235.221,180.006 235.054 C 179.490 234.925,179.333 234.686,179.410 234.150 C 179.476 233.691,179.389 233.500,179.174 233.633 C 178.983 233.750,178.659 233.455,178.437 232.961 C 178.219 232.475,177.828 231.862,177.567 231.598 C 177.306 231.333,176.390 230.158,175.531 228.987 C 174.673 227.815,173.851 226.856,173.707 226.856 C 173.562 226.856,173.309 226.501,173.144 226.066 C 172.979 225.632,172.698 225.276,172.520 225.276 C 172.342 225.276,172.196 225.136,172.196 224.965 C 172.196 224.396,170.467 222.168,169.905 222.013 C 169.601 221.929,169.352 221.638,169.352 221.367 C 169.352 220.693,166.455 216.746,165.959 216.746 C 165.740 216.746,165.561 216.504,165.561 216.210 C 165.561 214.786,163.351 212.741,162.612 213.481 M251.027 223.595 C 250.489 223.703,249.115 225.339,248.685 226.382 C 248.613 226.556,248.341 226.855,248.081 227.048 C 247.458 227.506,247.826 228.436,248.629 228.436 C 249.083 228.436,249.220 228.264,249.131 227.804 C 249.042 227.339,249.179 227.172,249.653 227.172 C 250.020 227.172,250.364 226.914,250.454 226.569 C 250.540 226.238,250.883 225.896,251.214 225.809 C 251.666 225.691,251.817 225.368,251.817 224.516 C 251.817 223.892,251.781 223.400,251.738 223.424 C 251.694 223.447,251.374 223.524,251.027 223.595 M245.056 230.606 C 244.256 231.645,243.602 232.720,243.602 232.993 C 243.602 233.267,243.389 233.491,243.128 233.491 C 242.867 233.491,242.654 233.658,242.654 233.861 C 242.654 234.065,242.419 234.491,242.131 234.809 C 241.534 235.469,241.937 235.556,243.113 235.020 C 243.556 234.819,243.918 234.463,243.918 234.230 C 243.918 233.998,244.202 233.807,244.550 233.807 C 244.971 233.807,245.182 233.597,245.182 233.175 C 245.182 232.754,245.392 232.543,245.814 232.543 C 246.227 232.543,246.445 232.333,246.445 231.934 C 246.445 231.542,246.700 231.287,247.156 231.223 C 247.739 231.140,247.867 230.922,247.867 230.016 C 247.867 228.121,246.795 228.346,245.056 230.606 M238.547 238.584 C 237.765 239.633,236.901 240.740,236.627 241.044 C 236.353 241.348,236.037 241.834,235.926 242.125 C 235.814 242.416,235.535 242.654,235.306 242.654 C 234.720 242.654,234.697 243.828,235.279 244.051 C 235.961 244.313,236.316 244.007,236.176 243.279 C 236.090 242.836,236.227 242.654,236.648 242.654 C 236.974 242.654,237.330 242.370,237.441 242.022 C 237.551 241.675,237.916 241.390,238.252 241.390 C 238.652 241.390,238.863 241.172,238.863 240.758 C 238.863 240.391,239.073 240.126,239.366 240.126 C 239.643 240.126,239.944 239.842,240.035 239.494 C 240.126 239.145,240.466 238.863,240.795 238.863 C 241.265 238.863,241.390 238.629,241.390 237.757 C 241.390 235.943,240.273 236.268,238.547 238.584 M185.782 244.067 C 185.782 245.461,186.023 245.630,187.570 245.321 C 188.768 245.081,187.972 243.160,186.562 242.891 C 185.833 242.751,185.782 242.828,185.782 244.067 M231.327 246.884 C 217.042 263.849,203.571 263.850,190.633 246.887 C 189.898 245.923,188.704 245.438,188.576 246.051 C 188.308 247.336,188.452 248.025,188.989 248.025 C 189.513 248.025,189.719 248.366,189.611 249.052 C 189.590 249.182,189.929 249.289,190.363 249.289 C 190.943 249.289,191.153 249.458,191.153 249.921 C 191.153 250.342,191.364 250.553,191.785 250.553 C 192.206 250.553,192.417 250.764,192.417 251.185 C 192.417 251.606,192.628 251.817,193.049 251.817 C 193.470 251.817,193.681 252.027,193.681 252.449 C 193.681 252.870,193.892 253.081,194.313 253.081 C 194.734 253.081,194.945 253.291,194.945 253.712 C 194.945 254.134,195.155 254.344,195.577 254.344 C 195.998 254.344,196.209 254.555,196.209 254.976 C 196.209 255.398,196.419 255.608,196.840 255.608 C 197.304 255.608,197.472 255.819,197.472 256.398 C 197.472 256.833,197.579 257.171,197.709 257.151 C 198.400 257.042,198.736 257.250,198.736 257.788 C 198.736 258.284,198.953 258.379,199.989 258.341 C 201.019 258.302,201.257 258.406,201.331 258.926 C 201.407 259.456,201.638 259.548,202.765 259.498 C 203.994 259.443,204.107 259.503,204.107 260.209 C 204.107 260.940,204.204 260.979,206.003 260.979 C 207.688 260.979,207.899 261.050,207.899 261.611 C 207.899 262.201,208.110 262.243,211.058 262.243 C 214.007 262.243,214.218 262.201,214.218 261.611 C 214.218 261.050,214.429 260.979,216.114 260.979 C 217.905 260.979,218.009 260.938,218.009 260.220 C 218.009 259.514,218.101 259.472,219.291 259.632 C 220.410 259.782,220.596 259.717,220.750 259.128 C 220.888 258.601,221.169 258.452,222.025 258.452 C 222.858 258.452,223.164 258.299,223.289 257.820 C 223.440 257.244,223.766 257.049,224.408 257.151 C 224.538 257.171,224.645 256.833,224.645 256.398 C 224.645 255.819,224.813 255.608,225.276 255.608 C 225.698 255.608,225.908 255.398,225.908 254.976 C 225.908 254.555,226.119 254.344,226.540 254.344 C 226.962 254.344,227.172 254.134,227.172 253.712 C 227.172 253.291,227.383 253.081,227.804 253.081 C 228.225 253.081,228.436 252.870,228.436 252.449 C 228.436 252.027,228.647 251.817,229.068 251.817 C 229.489 251.817,229.700 251.606,229.700 251.185 C 229.700 250.764,229.910 250.553,230.332 250.553 C 230.753 250.553,230.964 250.342,230.964 249.921 C 230.964 249.500,231.174 249.289,231.596 249.289 C 232.017 249.289,232.227 249.078,232.227 248.657 C 232.227 248.194,232.438 248.025,233.017 248.025 C 233.452 248.025,233.790 247.919,233.770 247.788 C 233.668 247.146,233.863 246.820,234.439 246.670 C 235.072 246.504,235.253 245.708,234.879 244.734 C 234.484 243.702,233.511 244.292,231.327 246.884 " stroke="none" fill="#a4a5a5" fill-rule="evenodd"></path><path id="path4" d="M204.107 58.016 C 176.467 60.514,157.654 69.170,144.892 85.261 C 130.082 103.935,128.013 135.157,139.656 164.297 C 139.968 165.079,140.747 167.070,141.385 168.720 C 149.917 190.763,168.067 218.569,190.416 243.836 C 206.426 261.935,215.479 262.440,229.601 246.022 C 231.120 244.256,232.936 242.172,233.638 241.390 C 234.339 240.608,235.553 239.195,236.335 238.250 C 237.117 237.305,238.261 235.954,238.877 235.249 C 241.437 232.316,249.475 222.073,252.405 218.009 C 252.969 217.227,254.202 215.521,255.145 214.218 C 256.783 211.956,259.440 208.045,262.123 203.949 C 269.197 193.149,278.036 175.929,281.828 165.561 C 282.495 163.736,283.254 161.746,283.513 161.137 C 284.471 158.893,286.926 149.919,287.837 145.332 C 296.120 103.640,277.905 72.091,239.415 61.463 C 230.038 58.874,213.009 57.212,204.107 58.016 M220.872 60.662 C 234.660 62.079,243.067 64.248,252.667 68.867 C 263.675 74.164,273.260 82.664,279.042 92.259 C 282.974 98.783,285.267 105.653,286.900 115.798 C 287.705 120.798,287.484 136.447,286.558 139.968 C 286.399 140.577,285.974 142.638,285.615 144.550 C 284.504 150.461,281.810 159.907,280.163 163.665 C 279.897 164.273,279.223 165.979,278.665 167.457 C 274.330 178.942,264.103 197.513,254.830 210.742 C 253.435 212.733,252.949 213.388,251.076 215.798 C 250.333 216.754,249.023 218.498,248.165 219.675 C 245.571 223.230,244.128 225.137,243.059 226.423 C 242.500 227.096,240.169 229.921,237.878 232.701 C 235.588 235.482,232.702 238.894,231.466 240.284 C 230.229 241.675,228.508 243.662,227.642 244.702 C 216.902 257.583,207.702 258.791,197.918 248.606 C 195.070 245.641,188.782 238.517,186.256 235.393 C 185.039 233.889,183.261 231.744,182.303 230.626 C 180.314 228.305,180.205 228.165,174.081 220.063 C 169.216 213.626,168.435 212.520,162.918 204.265 C 157.831 196.653,156.182 193.874,151.487 184.992 C 145.344 173.371,140.164 160.431,137.764 150.711 C 137.270 148.712,136.784 146.864,136.682 146.603 C 136.393 145.860,135.314 139.197,134.902 135.616 C 134.298 130.364,134.658 117.062,135.537 112.164 C 140.637 83.738,164.426 64.381,198.424 60.995 C 209.662 59.876,212.767 59.830,220.872 60.662 M202.528 89.378 C 201.919 89.508,201.111 89.783,200.732 89.989 C 200.348 90.197,198.803 90.363,197.251 90.363 C 195.065 90.363,194.206 90.500,193.282 90.995 C 192.566 91.379,191.500 91.627,190.565 91.627 C 189.505 91.627,188.777 91.824,188.223 92.259 C 187.782 92.607,187.071 92.891,186.644 92.891 C 186.217 92.891,185.506 93.175,185.064 93.523 C 184.622 93.870,184.053 94.155,183.800 94.155 C 183.547 94.155,182.976 94.440,182.533 94.790 C 182.089 95.139,181.297 95.510,180.773 95.615 C 180.248 95.720,179.749 95.989,179.662 96.214 C 179.576 96.439,179.068 96.719,178.534 96.836 C 177.999 96.954,177.416 97.323,177.237 97.656 C 177.059 97.989,176.739 98.262,176.526 98.262 C 176.313 98.262,175.962 98.547,175.745 98.894 C 175.528 99.242,175.146 99.526,174.898 99.526 C 174.255 99.526,169.352 104.623,169.352 105.291 C 169.352 105.596,169.210 105.845,169.037 105.845 C 168.567 105.845,166.866 108.696,166.639 109.862 C 166.531 110.421,166.248 111.039,166.010 111.237 C 165.772 111.434,165.485 112.115,165.371 112.749 C 165.258 113.383,164.985 114.115,164.765 114.376 C 164.545 114.637,164.264 115.881,164.141 117.141 C 164.018 118.400,163.809 119.431,163.678 119.431 C 163.287 119.431,162.896 123.153,162.931 126.540 C 162.977 131.124,163.039 131.807,163.504 132.859 C 163.734 133.381,164.088 135.369,164.290 137.278 C 164.492 139.187,164.764 140.822,164.894 140.911 C 165.023 141.001,165.322 142.141,165.557 143.444 C 165.792 144.747,166.174 146.094,166.405 146.437 C 166.636 146.780,166.825 147.459,166.825 147.948 C 166.825 148.445,167.033 148.915,167.299 149.017 C 167.559 149.117,167.779 149.503,167.786 149.876 C 167.812 151.111,168.881 154.395,169.704 155.766 C 169.861 156.027,170.147 156.596,170.341 157.030 C 170.535 157.464,170.960 158.337,171.287 158.969 C 171.613 159.601,171.880 160.420,171.880 160.789 C 171.880 161.158,172.164 161.703,172.512 162.001 C 172.861 162.300,173.144 162.933,173.144 163.417 C 173.144 163.949,173.391 164.446,173.776 164.686 C 174.123 164.903,174.408 165.404,174.408 165.798 C 174.408 166.192,174.692 166.758,175.039 167.056 C 175.389 167.355,175.671 167.988,175.671 168.472 C 175.671 169.005,175.919 169.501,176.303 169.742 C 176.651 169.959,176.935 170.457,176.935 170.850 C 176.935 171.243,177.205 171.834,177.535 172.164 C 177.865 172.494,178.229 173.195,178.345 173.722 C 178.461 174.249,178.760 174.849,179.009 175.056 C 179.259 175.263,179.463 175.607,179.463 175.819 C 179.463 176.032,179.734 176.451,180.066 176.752 C 180.398 177.052,180.763 177.667,180.876 178.118 C 180.989 178.570,181.357 179.289,181.694 179.718 C 182.031 180.146,182.306 180.656,182.306 180.851 C 182.306 181.047,182.591 181.384,182.938 181.601 C 183.286 181.818,183.570 182.333,183.570 182.744 C 183.570 183.156,183.783 183.670,184.044 183.886 C 184.305 184.102,184.977 185.115,185.539 186.136 C 186.100 187.158,186.659 187.994,186.780 187.994 C 186.901 187.994,187.464 188.811,188.031 189.810 C 188.598 190.810,189.303 191.802,189.598 192.015 C 189.892 192.228,190.223 192.761,190.333 193.200 C 190.443 193.638,190.673 193.997,190.843 193.997 C 191.014 193.997,191.153 194.205,191.153 194.459 C 191.153 194.713,191.793 195.579,192.575 196.383 C 193.357 197.188,193.997 198.024,193.997 198.242 C 193.997 198.460,194.281 198.896,194.629 199.210 C 194.976 199.525,195.261 199.968,195.261 200.196 C 195.261 200.423,195.543 200.761,195.889 200.946 C 196.234 201.131,196.600 201.611,196.701 202.014 C 196.802 202.417,197.372 203.206,197.968 203.768 C 198.564 204.331,199.052 204.949,199.052 205.142 C 199.052 205.335,199.621 206.023,200.316 206.671 C 201.011 207.319,201.580 208.024,201.580 208.236 C 201.580 208.596,202.551 209.771,205.698 213.222 C 206.387 213.977,206.951 214.765,206.951 214.973 C 206.951 215.985,209.643 218.009,210.991 218.009 C 212.443 218.009,214.603 216.440,215.039 215.069 C 215.157 214.695,215.804 213.818,216.475 213.119 C 218.524 210.987,220.221 208.951,220.221 208.625 C 220.221 208.295,220.834 207.510,222.986 205.083 C 223.724 204.250,224.329 203.386,224.329 203.164 C 224.329 202.942,224.846 202.273,225.478 201.677 C 226.676 200.546,228.120 198.597,228.120 198.109 C 228.120 197.953,228.973 196.765,230.016 195.469 C 231.058 194.173,231.912 192.964,231.912 192.783 C 231.912 192.601,232.160 192.265,232.464 192.035 C 233.143 191.523,233.590 190.826,234.552 188.784 C 234.961 187.915,235.619 186.919,236.014 186.572 C 236.409 186.224,236.999 185.371,237.325 184.676 C 237.651 183.981,238.166 183.044,238.469 182.594 C 240.264 179.930,240.769 179.116,241.223 178.158 C 241.999 176.524,242.656 175.246,242.989 174.724 C 243.155 174.463,243.467 173.896,243.683 173.464 C 243.899 173.032,244.325 172.428,244.629 172.121 C 244.933 171.815,245.182 171.224,245.182 170.808 C 245.182 170.392,245.382 169.975,245.626 169.881 C 245.870 169.788,246.171 169.239,246.295 168.663 C 246.418 168.086,246.787 167.360,247.114 167.049 C 247.442 166.738,247.709 166.205,247.709 165.864 C 247.709 165.524,247.994 164.961,248.341 164.613 C 248.689 164.265,248.973 163.648,248.973 163.240 C 248.973 162.833,249.240 162.257,249.567 161.962 C 249.894 161.666,250.248 160.881,250.354 160.216 C 250.460 159.552,250.762 158.830,251.024 158.612 C 251.286 158.395,251.502 157.985,251.503 157.702 C 251.504 157.419,251.787 156.761,252.133 156.240 C 252.478 155.719,252.762 154.866,252.765 154.344 C 252.767 153.823,253.051 152.970,253.397 152.449 C 253.742 151.927,254.025 151.091,254.026 150.590 C 254.027 150.089,254.295 149.236,254.622 148.694 C 254.948 148.153,255.314 147.141,255.435 146.445 C 255.556 145.750,255.836 144.897,256.058 144.550 C 256.280 144.202,256.564 142.995,256.691 141.867 C 256.817 140.739,257.051 139.660,257.210 139.468 C 257.369 139.277,257.657 137.640,257.850 135.832 C 258.043 134.023,258.347 132.235,258.524 131.858 C 258.973 130.906,259.002 121.204,258.558 120.651 C 258.367 120.415,258.112 119.084,257.989 117.694 C 257.867 116.303,257.587 114.882,257.367 114.534 C 257.147 114.186,256.867 113.361,256.744 112.701 C 256.622 112.040,256.320 111.422,256.073 111.327 C 255.827 111.233,255.536 110.681,255.428 110.101 C 255.319 109.521,254.959 108.801,254.629 108.502 C 254.299 108.204,254.028 107.627,254.028 107.221 C 254.028 106.815,253.744 106.305,253.397 106.088 C 253.049 105.871,252.765 105.510,252.765 105.285 C 252.765 105.061,252.546 104.794,252.279 104.691 C 252.012 104.589,251.596 104.122,251.354 103.655 C 250.852 102.684,249.001 100.790,248.554 100.790 C 248.390 100.790,247.933 100.470,247.538 100.079 C 246.052 98.606,243.367 96.698,242.767 96.688 C 242.568 96.685,242.329 96.483,242.235 96.238 C 242.142 95.994,241.593 95.691,241.017 95.564 C 240.440 95.437,239.783 95.068,239.556 94.744 C 239.325 94.415,238.764 94.155,238.283 94.155 C 237.810 94.155,237.125 93.946,236.761 93.691 C 236.397 93.436,235.477 93.133,234.716 93.019 C 233.956 92.904,232.890 92.544,232.348 92.219 C 231.806 91.893,230.775 91.627,230.056 91.627 C 229.338 91.627,228.219 91.343,227.571 90.995 C 226.712 90.535,225.788 90.363,224.167 90.363 C 222.556 90.363,221.726 90.211,221.160 89.810 C 220.315 89.212,204.974 88.856,202.528 89.378 M220.482 90.683 C 223.379 91.033,226.107 91.463,226.544 91.638 C 226.980 91.814,228.047 92.086,228.914 92.244 C 230.376 92.509,232.291 93.063,234.597 93.887 C 235.118 94.074,236.223 94.416,237.052 94.648 C 237.881 94.880,238.780 95.291,239.049 95.560 C 239.319 95.830,239.795 96.051,240.106 96.051 C 240.418 96.051,241.014 96.299,241.430 96.603 C 241.847 96.908,242.420 97.299,242.704 97.472 C 242.989 97.646,243.883 98.250,244.691 98.815 C 245.500 99.380,246.241 99.842,246.338 99.842 C 246.546 99.842,249.772 103.105,250.755 104.309 C 251.126 104.765,251.553 105.190,251.703 105.254 C 252.037 105.398,253.393 107.304,253.406 107.649 C 253.420 108.003,255.164 111.471,255.580 111.972 C 255.771 112.202,256.075 113.085,256.257 113.936 C 256.438 114.786,256.733 116.051,256.912 116.746 C 257.091 117.441,257.364 119.402,257.518 121.103 C 257.673 122.805,257.881 124.329,257.980 124.490 C 258.289 124.990,257.527 133.027,256.887 136.019 C 256.553 137.583,256.108 139.858,255.899 141.074 C 255.690 142.291,255.177 144.281,254.758 145.498 C 254.340 146.714,253.872 148.207,253.718 148.815 C 253.564 149.423,252.994 151.130,252.452 152.607 C 251.910 154.084,251.354 155.724,251.216 156.251 C 251.079 156.778,250.672 157.774,250.313 158.463 C 249.954 159.152,249.277 160.569,248.810 161.611 C 248.342 162.654,247.657 164.076,247.289 164.771 C 246.920 165.466,246.354 166.603,246.033 167.299 C 245.711 167.994,245.319 168.776,245.161 169.036 C 245.004 169.297,244.662 169.983,244.402 170.561 C 244.142 171.140,243.501 172.249,242.976 173.026 C 242.451 173.803,242.022 174.672,242.022 174.956 C 242.022 175.240,241.757 175.766,241.433 176.125 C 241.110 176.484,240.385 177.630,239.823 178.673 C 239.261 179.716,238.194 181.493,237.452 182.622 C 236.709 183.752,235.930 185.007,235.721 185.411 C 235.511 185.815,235.101 186.384,234.810 186.675 C 234.519 186.967,233.855 188.039,233.333 189.058 C 232.812 190.077,232.030 191.301,231.596 191.777 C 231.161 192.254,230.496 193.126,230.118 193.715 C 228.400 196.390,227.513 197.658,225.661 200.084 C 224.570 201.515,223.148 203.308,222.502 204.069 C 221.428 205.334,220.587 206.449,218.097 209.909 C 217.615 210.580,216.744 211.575,216.163 212.121 C 215.582 212.666,214.753 213.714,214.320 214.449 C 213.380 216.046,211.880 217.378,211.021 217.378 C 210.376 217.378,207.267 214.688,207.267 214.130 C 207.267 213.956,206.764 213.229,206.149 212.515 C 205.535 211.801,204.326 210.397,203.464 209.396 C 202.601 208.395,201.896 207.447,201.896 207.289 C 201.896 207.132,201.363 206.430,200.711 205.731 C 200.059 205.032,199.171 203.943,198.736 203.312 C 198.302 202.681,197.491 201.571,196.935 200.845 C 196.379 200.120,195.526 198.899,195.039 198.133 C 194.553 197.366,193.720 196.278,193.189 195.714 C 192.658 195.150,191.957 194.096,191.630 193.372 C 191.304 192.648,190.706 191.795,190.302 191.477 C 189.898 191.159,189.368 190.423,189.125 189.841 C 188.882 189.260,188.229 188.215,187.676 187.520 C 187.122 186.825,186.453 185.829,186.189 185.308 C 185.926 184.787,185.387 184.005,184.992 183.570 C 184.596 183.136,184.172 182.447,184.049 182.040 C 183.801 181.221,182.128 178.638,181.658 178.347 C 181.493 178.245,181.359 177.837,181.359 177.439 C 181.359 177.042,181.110 176.491,180.806 176.214 C 180.263 175.719,179.699 174.713,178.027 171.248 C 177.565 170.292,176.995 169.155,176.760 168.720 C 176.524 168.286,175.939 167.077,175.459 166.035 C 174.979 164.992,174.404 163.951,174.181 163.722 C 173.958 163.492,173.776 163.049,173.776 162.737 C 173.776 162.426,173.491 161.809,173.144 161.367 C 172.796 160.925,172.507 160.373,172.502 160.140 C 172.497 159.906,172.142 159.005,171.715 158.136 C 171.288 157.267,170.937 156.362,170.935 156.125 C 170.933 155.888,170.668 155.177,170.346 154.545 C 169.204 152.309,168.404 150.371,168.404 149.842 C 168.404 149.194,167.263 145.307,166.607 143.723 C 165.666 141.447,163.939 130.229,163.890 126.066 C 163.864 123.919,164.499 119.563,165.386 115.798 C 165.672 114.581,165.971 113.276,166.050 112.897 C 166.129 112.518,166.376 112.021,166.599 111.791 C 166.821 111.562,167.397 110.459,167.879 109.341 C 168.360 108.222,169.244 106.764,169.843 106.101 C 170.442 105.438,170.932 104.753,170.932 104.578 C 170.932 104.138,175.363 99.842,175.817 99.842 C 176.019 99.842,176.603 99.404,177.113 98.869 C 177.952 97.988,178.825 97.493,182.306 95.919 C 182.915 95.644,184.052 95.047,184.834 94.593 C 185.616 94.139,187.322 93.522,188.626 93.221 C 189.929 92.920,191.991 92.375,193.207 92.009 C 194.423 91.644,197.622 91.122,200.316 90.850 C 203.009 90.578,205.640 90.307,206.161 90.249 C 209.131 89.914,215.785 90.116,220.482 90.683 " stroke="none" fill="#767653" fill-rule="evenodd"></path></g></svg>